<?xml version="1.0" encoding="utf-8"?>
<!-- Generator: Adobe Illustrator 16.0.0, SVG Export Plug-In . SVG Version: 6.00 Build 0)  -->
<!DOCTYPE svg PUBLIC "-//W3C//DTD SVG 1.1//EN" "http://www.w3.org/Graphics/SVG/1.1/DTD/svg11.dtd">
<svg version="1.1" id="Layer_1" xmlns="http://www.w3.org/2000/svg" xmlns:xlink="http://www.w3.org/1999/xlink" x="0px" y="0px"
	 width="24px" height="24px" viewBox="0 0 24 24" enable-background="new 0 0 24 24" xml:space="preserve">
<path fill="none" stroke="#FFFFFF" stroke-linecap="round" stroke-linejoin="round" stroke-miterlimit="10" d="M21.075,11.117
	c0-3.672-4.063-6.648-9.075-6.648c-5.012,0-9.075,2.976-9.075,6.648c0,3.67,4.063,6.648,9.075,6.648
	c1.052,0,2.058-0.138,2.998-0.379L15,17.39l4.375,2.173v-4.574l-0.005-0.003C20.438,13.896,21.075,12.562,21.075,11.117z"/>
<circle fill="#231F20" stroke="#FFFFFF" stroke-miterlimit="10" cx="12" cy="14.367" r="0.557"/>
<path fill="none" stroke="#FFFFFF" stroke-linecap="round" stroke-linejoin="round" stroke-miterlimit="10" d="M11.922,12.69
	l0.005-1.09c0,0,1.708-0.763,1.708-2.507c0-1.744-2.834-2.144-3.27-0.327"/>
</svg>
