<?xml version="1.0" encoding="utf-8"?>
<!-- Generator: Adobe Illustrator 16.0.0, SVG Export Plug-In . SVG Version: 6.00 Build 0)  -->
<!DOCTYPE svg PUBLIC "-//W3C//DTD SVG 1.1//EN" "http://www.w3.org/Graphics/SVG/1.1/DTD/svg11.dtd">
<svg version="1.1" xmlns="http://www.w3.org/2000/svg" xmlns:xlink="http://www.w3.org/1999/xlink" x="0px" y="0px" width="23px"
	 height="23px" viewBox="0 0 23 23" enable-background="new 0 0 23 23" xml:space="preserve">
<g id="Layer_1" display="none">
	<g display="inline">
		<path fill="#231F20" d="M11.5,6.642c-2.659,0-4.814,2.156-4.814,4.816c0,2.658,2.155,4.814,4.814,4.814
			c2.661,0,4.815-2.156,4.815-4.814C16.314,8.798,14.16,6.642,11.5,6.642z M11.472,15.255c-2.083,0-3.771-1.686-3.771-3.77
			c0-2.082,1.688-3.771,3.771-3.771c2.083,0,3.77,1.689,3.77,3.771C15.242,13.569,13.555,15.255,11.472,15.255z"/>
		<path fill="#231F20" d="M11.496,5.675c0.298,0,0.54-0.246,0.54-0.541V4.905h0.006c0-0.592,0-0.994,0-0.994
			c0-0.297-0.241-0.537-0.54-0.537c-0.298,0-0.54,0.24-0.54,0.537V4.14h-0.006c0,0.592-0.001,0.994-0.001,0.994
			C10.955,5.429,11.197,5.675,11.496,5.675z"/>
		<path fill="#231F20" d="M11.501,17.243c-0.298,0-0.54,0.24-0.54,0.539v0.225h-0.006c0,0.594-0.001,0.996-0.001,0.996
			c0,0.297,0.242,0.539,0.541,0.539c0.298,0,0.54-0.242,0.54-0.539v-0.229h0.006c0-0.592,0-0.992,0-0.992
			C12.041,17.483,11.8,17.243,11.501,17.243z"/>
		<path fill="#231F20" d="M18.965,10.921h-0.227v-0.006c-0.594-0.002-0.994-0.002-0.994-0.002c-0.299,0-0.541,0.244-0.541,0.541
			c0,0.301,0.242,0.541,0.541,0.541h0.227v0.006c0.592,0.002,0.994,0.002,0.994,0.002c0.297,0,0.539-0.242,0.539-0.541
			C19.504,11.161,19.262,10.921,18.965,10.921z"/>
		<path fill="#231F20" d="M5.132,10.931l-1.221-0.006c-0.299,0-0.541,0.242-0.541,0.541c0,0.297,0.242,0.539,0.541,0.539h0.227
			l0.994,0.004c0.297,0,0.539-0.238,0.539-0.535C5.671,11.173,5.429,10.931,5.132,10.931z"/>
		<path fill="#231F20" d="M6.277,15.235l-0.16,0.16l-0.004-0.004c-0.42,0.418-0.703,0.701-0.703,0.701
			c-0.211,0.211-0.211,0.553-0.001,0.762c0.212,0.213,0.554,0.213,0.765,0.002l0.16-0.16l0.004,0.006
			c0.42-0.422,0.703-0.705,0.703-0.705c0.212-0.209,0.212-0.551,0.001-0.762C6.83,15.024,6.488,15.024,6.277,15.235z"/>
		<path fill="#231F20" d="M16.367,5.521l-0.16,0.162l-0.004-0.006C15.783,6.097,15.5,6.38,15.5,6.38
			c-0.211,0.211-0.211,0.553,0,0.762c0.211,0.213,0.553,0.213,0.764,0.002l0.16-0.158l0.004,0.002
			c0.42-0.42,0.703-0.703,0.703-0.703c0.211-0.209,0.211-0.553,0-0.764S16.578,5.31,16.367,5.521z"/>
		<path fill="#231F20" d="M8.259,16.937l-0.088,0.213l-0.005-0.002c-0.228,0.545-0.381,0.916-0.381,0.916
			c-0.114,0.277,0.018,0.592,0.292,0.707c0.275,0.113,0.592-0.018,0.706-0.293l0.087-0.209h0.004
			c0.229-0.547,0.383-0.916,0.383-0.916c0.113-0.277-0.018-0.592-0.293-0.707S8.373,16.665,8.259,16.937z"/>
		<path fill="#231F20" d="M13.875,4.142l-0.086,0.209l-0.006-0.002c-0.227,0.547-0.381,0.918-0.381,0.918
			c-0.113,0.275,0.018,0.592,0.293,0.705c0.275,0.115,0.592-0.016,0.705-0.293l0.088-0.209l0.004,0.002
			c0.227-0.549,0.381-0.92,0.381-0.92c0.115-0.273-0.016-0.59-0.291-0.703C14.307,3.733,13.99,3.864,13.875,4.142z"/>
		<path fill="#231F20" d="M15.123,10.921l-2.373,0.008c-0.297,0-0.539,0.244-0.539,0.543c0,0.297,0.242,0.537,0.539,0.537
			l0.229,0.006c0.592,0,2.145-0.012,2.145-0.012c0.299,0,0.539-0.242,0.539-0.541C15.662,11.161,15.422,10.921,15.123,10.921z"/>
		<path fill="#231F20" d="M12.045,12.946c0-0.299-0.243-0.541-0.541-0.541s-0.54,0.242-0.54,0.541l-0.006,2.227
			c0,0.299,0.242,0.541,0.539,0.541c0.299,0,0.542-0.242,0.542-0.541L12.045,12.946z"/>
		<path fill="#231F20" d="M10.316,10.921l-2.372,0.008c-0.298,0-0.54,0.244-0.54,0.543c0,0.297,0.242,0.537,0.54,0.537l0.228,0.006
			c0.592,0,2.145-0.012,2.145-0.012c0.299,0,0.541-0.242,0.541-0.541C10.857,11.161,10.615,10.921,10.316,10.921z"/>
		<path fill="#231F20" d="M12.041,7.843c0-0.299-0.241-0.539-0.54-0.539c-0.298,0-0.54,0.24-0.54,0.539l-0.007,2.229
			c0,0.295,0.242,0.537,0.541,0.537c0.298,0,0.54-0.242,0.54-0.537L12.041,7.843z"/>
		<path fill="#231F20" d="M9.174,4.142l0.087,0.209l0.006-0.002c0.228,0.547,0.381,0.918,0.381,0.918
			C9.763,5.542,9.63,5.858,9.356,5.972C9.081,6.087,8.763,5.956,8.65,5.679L8.563,5.47L8.558,5.472
			c-0.227-0.549-0.381-0.92-0.381-0.92c-0.115-0.273,0.018-0.59,0.292-0.703C8.744,3.733,9.06,3.864,9.174,4.142z"/>
		<path fill="#231F20" d="M14.4,17.198l0.088,0.211l0.004-0.004c0.229,0.549,0.381,0.92,0.381,0.92
			c0.115,0.275-0.016,0.592-0.291,0.707c-0.275,0.113-0.592-0.018-0.707-0.293l-0.086-0.209h-0.006
			c-0.227-0.549-0.381-0.916-0.381-0.916c-0.113-0.275,0.018-0.592,0.293-0.709C13.971,16.794,14.287,16.925,14.4,17.198z"/>
		<path fill="#231F20" d="M16.264,15.794l0.16,0.16l0.004-0.004c0.42,0.418,0.703,0.703,0.703,0.703
			c0.211,0.211,0.211,0.553,0,0.764s-0.553,0.211-0.764,0l-0.16-0.16l-0.004,0.004c-0.42-0.42-0.703-0.703-0.703-0.703
			c-0.211-0.209-0.211-0.553,0-0.764S16.053,15.583,16.264,15.794z"/>
		<path fill="#231F20" d="M6.378,5.521l0.16,0.162l0.004-0.006C6.961,6.097,7.246,6.38,7.246,6.38c0.211,0.211,0.211,0.553,0,0.762
			C7.035,7.354,6.693,7.354,6.482,7.144l-0.16-0.158L6.318,6.987c-0.42-0.42-0.704-0.703-0.704-0.703
			c-0.211-0.209-0.21-0.553,0-0.764C5.825,5.31,6.167,5.31,6.378,5.521z"/>
		<path fill="#231F20" d="M5.205,9.351L4.994,9.263L4.992,9.267C4.445,9.042,4.074,8.888,4.074,8.888
			C3.798,8.772,3.667,8.456,3.781,8.183C3.896,7.905,4.212,7.774,4.488,7.89l0.209,0.086L4.7,7.974
			c0.548,0.225,0.919,0.375,0.919,0.375C5.894,8.466,6.025,8.78,5.91,9.058C5.795,9.333,5.48,9.464,5.205,9.351z"/>
		<path fill="#231F20" d="M18.275,14.884l-0.209-0.088l-0.002,0.006c-0.547-0.227-0.918-0.381-0.918-0.381
			c-0.275-0.113-0.406-0.43-0.293-0.707c0.113-0.273,0.432-0.404,0.705-0.291l0.211,0.086l0.002-0.004
			c0.547,0.227,0.918,0.381,0.918,0.381c0.275,0.113,0.406,0.43,0.293,0.705C18.867,14.866,18.553,14.999,18.275,14.884z"/>
		<path fill="#231F20" d="M5.288,13.378l-0.219,0.061l-0.001-0.006c-0.571,0.162-0.957,0.271-0.957,0.271
			c-0.287,0.08-0.455,0.377-0.373,0.664c0.082,0.289,0.38,0.455,0.666,0.375l0.219-0.063l0.002,0.006
			c0.57-0.162,0.957-0.27,0.957-0.27c0.287-0.08,0.453-0.381,0.373-0.666C5.875,13.464,5.575,13.294,5.288,13.378z"/>
		<path fill="#231F20" d="M18.221,8.005l-0.219,0.063L18,8.062c-0.57,0.16-0.957,0.27-0.957,0.27
			c-0.287,0.08-0.453,0.381-0.373,0.666c0.082,0.287,0.381,0.455,0.666,0.373l0.219-0.061l0.002,0.006
			c0.57-0.162,0.957-0.27,0.957-0.27c0.287-0.082,0.455-0.381,0.373-0.668C18.805,8.093,18.508,7.923,18.221,8.005z"/>
	</g>
</g>
<g id="Layer_2" display="none">
	<g display="inline">
		<path fill="#231F20" d="M17.058,7.82c0.298,0,0.54-0.243,0.54-0.541s-0.242-0.54-0.54-0.54l0,0H5.931l0,0
			c-0.299,0-0.541,0.242-0.541,0.54S5.632,7.82,5.931,7.82H17.058z"/>
		<path fill="#231F20" d="M17.229,13.437H6.103c-0.299,0-0.541,0.242-0.541,0.539c0,0.3,0.242,0.541,0.541,0.541h11.127
			c0.298,0,0.54-0.241,0.54-0.541C17.77,13.679,17.527,13.437,17.229,13.437z"/>
		<path fill="#231F20" d="M6.103,10.111h3.924c0.299,0,0.539-0.242,0.539-0.54c0-0.299-0.24-0.541-0.539-0.541H6.103
			c-0.299,0-0.541,0.242-0.541,0.541C5.562,9.869,5.804,10.111,6.103,10.111z"/>
		<path fill="#231F20" d="M6.103,12.394h6.367c0.298,0,0.539-0.242,0.539-0.541s-0.241-0.54-0.539-0.54l0,0H6.103l0,0
			c-0.299,0-0.541,0.241-0.541,0.54S5.804,12.394,6.103,12.394z"/>
		<path fill="#231F20" d="M10.026,15.661H6.103c-0.299,0-0.541,0.242-0.541,0.541s0.242,0.541,0.541,0.541h3.924
			c0.299,0,0.539-0.242,0.539-0.541S10.325,15.661,10.026,15.661z"/>
	</g>
</g>
<g id="Layer_3" display="none">
	<g display="inline">
		<path fill="#231F20" d="M17.217,13.489c0-0.289-0.234-0.523-0.521-0.523c-0.084,0-0.404,0.229-0.836,0.381
			c-0.504,0.178-1.145,0.281-1.512,0.281c-1.947,0-3.524-1.578-3.524-3.523c0-1.102,0.506-2.084,1.297-2.732L12.119,7.37
			c0.051-0.044,0.771-0.363,0.771-0.651c0-0.261-0.197-0.47-0.449-0.507c0.004-0.002,0.008-0.006,0.012-0.008
			c-0.023,0-0.045-0.002-0.068-0.004c-0.006,0-0.01-0.002-0.016-0.002c-0.004,0-0.008,0.002-0.012,0.002
			c-0.01-0.002-0.021-0.002-0.033-0.002c-2.929,0-5.303,2.373-5.303,5.302s2.374,5.302,5.303,5.302c1.973,0,3.688-1.08,4.602-2.68
			C16.977,14.03,17.217,13.626,17.217,13.489z M12.324,15.833c-2.393,0-4.333-1.939-4.333-4.333c0-1.785,1.082-3.313,2.625-3.976
			C10.106,8.257,9.8,9.143,9.8,10.104c0,2.512,2.035,4.547,4.547,4.547c0.371,0,0.729-0.047,1.072-0.131
			C14.633,15.327,13.539,15.833,12.324,15.833z"/>
	</g>
</g>
<g id="Layer_4" display="none">
	<g display="inline">
		<path fill="#231F20" d="M5.937,7.737h11.127c0.297,0,0.539-0.242,0.539-0.541s-0.242-0.541-0.539-0.541l0,0H5.937l0,0
			c-0.299,0-0.54,0.242-0.54,0.541S5.638,7.737,5.937,7.737z"/>
		<path fill="#231F20" d="M17.064,15.415L17.064,15.415H5.937l0,0c-0.299,0-0.54,0.242-0.54,0.539c0,0.3,0.241,0.541,0.54,0.541
			h11.127c0.297,0,0.539-0.241,0.539-0.541C17.604,15.657,17.361,15.415,17.064,15.415z"/>
		<path fill="#231F20" d="M8.461,12.229c-0.025,0.035-0.049,0.064-0.072,0.094c-0.006,0.006-0.01,0.014-0.016,0.02
			c-0.039,0.052-0.071,0.1-0.098,0.148c-0.007,0.012-0.014,0.024-0.019,0.038c-0.024,0.055-0.042,0.112-0.042,0.185
			c0,0.005,0.002,0.008,0.002,0.012s-0.002,0.008-0.002,0.011c0,0.321,0.261,0.581,0.582,0.581c0.004,0,0.008-0.002,0.012-0.002
			s0.008,0.002,0.012,0.002c0.035,0,0.084-0.013,0.135-0.031c0.043-0.012,0.082-0.027,0.121-0.049
			c0.061-0.028,0.109-0.054,0.109-0.054c0.018-0.015,1.093-1.091,2.314-2.315c1.22,1.225,2.296,2.301,2.314,2.315
			c0,0,0.049,0.025,0.109,0.054c0.037,0.021,0.078,0.037,0.121,0.049c0.049,0.019,0.098,0.031,0.135,0.031
			c0.004,0,0.008-0.002,0.012-0.002s0.008,0.002,0.012,0.002c0.32,0,0.582-0.26,0.582-0.581c0-0.003-0.004-0.007-0.004-0.011
			s0.004-0.007,0.004-0.012c0-0.072-0.018-0.13-0.043-0.185c-0.006-0.014-0.012-0.026-0.018-0.038
			c-0.025-0.049-0.059-0.097-0.1-0.148c-0.004-0.006-0.008-0.014-0.016-0.02c-0.021-0.029-0.045-0.059-0.07-0.094L11.5,9.192
			L8.461,12.229z"/>
	</g>
</g>
<g id="Layer_5" display="none">
	<g display="inline">
		<g>
			<path fill="#231F20" d="M10.755,6.376H5.937v0.001c-0.299,0-0.541,0.241-0.541,0.54c0,0.298,0.242,0.539,0.541,0.539h4.818V6.376
				z"/>
			<path fill="#231F20" d="M17.063,6.377L17.063,6.377l-4.817-0.001v1.08h4.817c0.298,0,0.54-0.241,0.54-0.539
				C17.603,6.619,17.36,6.377,17.063,6.377z"/>
		</g>
		<g>
			<path fill="#231F20" d="M10.755,15.691H5.937l0,0c-0.299,0-0.541,0.242-0.541,0.541c0,0.297,0.242,0.539,0.541,0.539h4.818
				V15.691z"/>
			<path fill="#231F20" d="M17.063,15.691L17.063,15.691h-4.817v1.08h4.817c0.298,0,0.54-0.242,0.54-0.539
				C17.603,15.934,17.36,15.691,17.063,15.691z"/>
		</g>
		<g>
			<path fill="#231F20" d="M10.755,8.761H5.937l0,0c-0.299,0-0.541,0.242-0.541,0.541c0,0.298,0.242,0.539,0.541,0.539h4.818V8.761z
				"/>
			<path fill="#231F20" d="M17.063,8.761L17.063,8.761h-4.817v1.08h4.817c0.298,0,0.54-0.241,0.54-0.539
				C17.603,9.003,17.36,8.761,17.063,8.761z"/>
		</g>
		<g>
			<path fill="#231F20" d="M17.063,11.109L17.063,11.109h-4.817v1.081h4.817c0.298,0,0.54-0.242,0.54-0.54
				C17.603,11.351,17.36,11.109,17.063,11.109z"/>
			<path fill="#231F20" d="M10.755,11.109H5.937l0,0c-0.299,0-0.541,0.242-0.541,0.541c0,0.298,0.242,0.54,0.541,0.54h4.818V11.109z
				"/>
		</g>
		<g>
			<path fill="#231F20" d="M10.755,13.418H5.937l0,0c-0.299,0-0.541,0.242-0.541,0.541c0,0.297,0.242,0.539,0.541,0.539h4.818
				V13.418z"/>
			<path fill="#231F20" d="M17.063,13.418L17.063,13.418h-4.817v1.08h4.817c0.298,0,0.54-0.242,0.54-0.539
				C17.603,13.66,17.36,13.418,17.063,13.418z"/>
		</g>
	</g>
</g>
<g id="Layer_6" display="none">
	<g display="inline">
		<path fill="#231F20" d="M5.808,7.364h11.384c0.306,0,0.553-0.248,0.553-0.553s-0.247-0.553-0.553-0.553l0,0H5.808l0,0
			c-0.305,0-0.553,0.248-0.553,0.553S5.503,7.364,5.808,7.364z"/>
		<path fill="#231F20" d="M17.191,8.698L17.191,8.698H5.808l0,0c-0.305,0-0.553,0.248-0.553,0.553s0.248,0.553,0.553,0.553h11.384
			c0.306,0,0.553-0.248,0.553-0.553S17.497,8.698,17.191,8.698z"/>
		<path fill="#231F20" d="M17.191,11.101L17.191,11.101H5.808l0,0c-0.305,0-0.553,0.247-0.553,0.553
			c0,0.305,0.248,0.553,0.553,0.553h11.384c0.306,0,0.553-0.248,0.553-0.553C17.744,11.348,17.497,11.101,17.191,11.101z"/>
		<path fill="#231F20" d="M17.191,13.464L17.191,13.464H5.808l0,0c-0.305,0-0.553,0.246-0.553,0.553
			c0,0.306,0.248,0.553,0.553,0.553h11.384c0.306,0,0.553-0.247,0.553-0.553C17.744,13.71,17.497,13.464,17.191,13.464z"/>
		<path fill="#231F20" d="M17.191,15.789L17.191,15.789L5.808,15.788v0.001c-0.305,0-0.553,0.247-0.553,0.552
			c0,0.306,0.248,0.554,0.553,0.554h11.384c0.306,0,0.553-0.248,0.553-0.554C17.744,16.036,17.497,15.789,17.191,15.789z"/>
	</g>
</g>
<g id="Layer_7" display="none">
	<g display="inline">
		<path fill="#231F20" d="M17.057,7.82c0.299,0,0.541-0.242,0.541-0.54c0-0.299-0.242-0.541-0.541-0.541l0,0H5.93l0,0
			c-0.298,0-0.539,0.242-0.539,0.541c0,0.298,0.241,0.54,0.539,0.54H17.057z"/>
		<path fill="#231F20" d="M17.229,13.436H6.102c-0.299,0-0.539,0.241-0.539,0.542c0,0.297,0.24,0.539,0.539,0.539h11.126
			c0.299,0,0.541-0.242,0.541-0.539C17.77,13.677,17.527,13.436,17.229,13.436z"/>
		<path fill="#231F20" d="M6.102,10.11h3.924c0.299,0,0.54-0.242,0.54-0.539c0-0.3-0.241-0.541-0.54-0.541H6.102
			c-0.299,0-0.539,0.241-0.539,0.541C5.563,9.868,5.803,10.11,6.102,10.11z"/>
		<path fill="#231F20" d="M6.102,12.394h6.367c0.299,0,0.541-0.242,0.541-0.541c0-0.297-0.242-0.54-0.541-0.54v-0.001H6.102v0.001
			c-0.299,0-0.539,0.243-0.539,0.54C5.563,12.151,5.803,12.394,6.102,12.394z"/>
		<path fill="#231F20" d="M13.133,10.11h3.924c0.299,0,0.541-0.242,0.541-0.539c0-0.3-0.242-0.541-0.541-0.541h-3.924
			c-0.299,0-0.541,0.241-0.541,0.541C12.592,9.868,12.834,10.11,13.133,10.11z"/>
		<path fill="#231F20" d="M17.057,11.312h-0.074h-1.887H15.02c-0.297,0-0.539,0.242-0.539,0.541s0.242,0.541,0.539,0.541h0.076
			h1.887h0.074c0.299,0,0.541-0.242,0.541-0.541S17.355,11.312,17.057,11.312z"/>
		<path fill="#231F20" d="M10.69,16.584h6.367c0.299,0,0.541-0.241,0.541-0.54c0-0.297-0.242-0.539-0.541-0.539v-0.002H10.69v0.002
			c-0.297,0-0.539,0.242-0.539,0.539C10.151,16.343,10.393,16.584,10.69,16.584z"/>
		<path fill="#231F20" d="M8.139,15.503H8.064H6.176H6.102c-0.299,0-0.539,0.242-0.539,0.541s0.24,0.54,0.539,0.54h0.074h1.888
			h0.075c0.297,0,0.54-0.241,0.54-0.54S8.436,15.503,8.139,15.503z"/>
	</g>
</g>
<g id="Layer_8" display="none">
	<g display="inline">
		<g>
			<path fill="#231F20" d="M17.518,9.576h-4.33l0,0c-0.297,0-0.537,0.242-0.537,0.537c0,0.297,0.24,0.538,0.537,0.538h4.33V10.65
				c0.295,0,0.537-0.241,0.537-0.537C18.055,9.816,17.813,9.576,17.518,9.576z"/>
			<path fill="#231F20" d="M14.814,7.866v4.33h0.002c0,0.297,0.24,0.537,0.535,0.537c0.297,0,0.537-0.24,0.537-0.537v-4.33h-0.002
				c0-0.297-0.238-0.537-0.535-0.537S14.814,7.569,14.814,7.866z"/>
		</g>
		<path fill="#231F20" d="M17.518,13.709h-4.33l0,0c-0.297,0-0.537,0.24-0.537,0.537s0.24,0.537,0.537,0.537h4.33l0,0
			c0.295,0,0.537-0.24,0.537-0.537S17.813,13.709,17.518,13.709z"/>
		<path fill="#231F20" d="M8.595,6.078L8.595,6.078C8.59,6.062,8.579,6.052,8.573,6.039C8.56,6.009,8.544,5.985,8.527,5.959
			c-0.021-0.034-0.043-0.065-0.07-0.091C8.436,5.847,8.413,5.832,8.388,5.816C8.355,5.792,8.322,5.77,8.284,5.755
			C8.271,5.751,8.214,5.734,8.195,5.73C8.158,5.722,8.123,5.716,8.083,5.716c-0.037,0-0.072,0.006-0.109,0.014
			c-0.02,0.004-0.078,0.021-0.089,0.025C7.846,5.77,7.814,5.792,7.781,5.816C7.756,5.832,7.734,5.847,7.712,5.869
			c-0.028,0.025-0.049,0.057-0.07,0.091c-0.018,0.025-0.033,0.05-0.045,0.079c-0.006,0.012-3.272,9.704-3.272,9.834
			c0,0.303,0.245,0.549,0.549,0.549c0.196,0,0.368-0.105,0.464-0.262c0.018-0.029,1.154-3.402,1.154-3.402h3.185l1.097,3.311h0.002
			c0.078,0.205,0.274,0.354,0.51,0.354c0.302,0,0.549-0.246,0.549-0.549C11.833,15.771,8.595,6.078,8.595,6.078z M6.848,11.681
			l1.235-3.729l1.236,3.729H6.848z"/>
	</g>
</g>
<g id="Layer_9" display="none">
	<g display="inline">
		<path fill="#231F20" d="M15.748,5.843c-0.299,0-0.541,0.244-0.541,0.541v9.814c-1.246-1.247-3.316-3.318-3.316-3.318
			c-0.107-0.108-0.25-0.158-0.391-0.156c-0.143-0.002-0.284,0.048-0.392,0.156c0,0-2.069,2.071-3.316,3.318V6.384
			c0-0.297-0.241-0.541-0.54-0.541c-0.298,0-0.54,0.244-0.54,0.541V17.51c0,0.009,0.005,0.017,0.005,0.024
			c0.004,0.049,0.014,0.098,0.029,0.145c0.004,0.012,0.002,0.027,0.008,0.039c0.023,0.055,0.058,0.1,0.096,0.145
			c0.008,0.01,0.012,0.021,0.021,0.03s0.021,0.013,0.03,0.021c0.044,0.038,0.09,0.074,0.145,0.096c0.001,0.001,0.002,0,0.004,0.001
			c0,0,0,0.001,0.002,0.001c0.059,0.023,0.12,0.033,0.184,0.035c0.016,0.002,0.031-0.001,0.048-0.002
			c0.053-0.002,0.104-0.014,0.154-0.03c0.008-0.003,0.016-0.001,0.022-0.005c0.004-0.002,0.006-0.006,0.011-0.008
			c0.062-0.025,0.121-0.061,0.171-0.11c0.02-0.019,0.086-0.087,0.158-0.163l2.527-2.527v-0.01l1.174-1.173l1.173,1.173v0.01
			l2.527,2.527c0.072,0.076,0.137,0.145,0.156,0.163c0.051,0.05,0.109,0.085,0.172,0.112c0.004,0,0.006,0.004,0.012,0.006
			c0.006,0.004,0.014,0.002,0.02,0.005c0.051,0.017,0.104,0.028,0.156,0.03c0.016,0.001,0.033,0.004,0.049,0.002
			c0.063-0.002,0.125-0.012,0.184-0.035c0,0,0-0.001,0.002-0.001c0,0,0.002,0,0.004-0.001c0.057-0.023,0.105-0.061,0.152-0.102
			c0.006-0.007,0.016-0.008,0.021-0.015s0.008-0.015,0.014-0.021c0.041-0.047,0.078-0.096,0.102-0.154
			c0.006-0.012,0.004-0.025,0.01-0.039c0.016-0.047,0.025-0.096,0.027-0.145c0.002-0.008,0.006-0.016,0.006-0.024V6.384
			C16.287,6.087,16.045,5.843,15.748,5.843z"/>
	</g>
</g>
<g id="Layer_10" display="none">
	<g display="inline">
		<path fill="#231F20" d="M5.398,7.698c0,0.298,0.242,0.54,0.54,0.54h9.816c-1.248,1.247-3.32,3.315-3.32,3.315
			c-0.107,0.107-0.158,0.25-0.156,0.393c-0.002,0.141,0.049,0.281,0.156,0.391c0,0,2.072,2.069,3.32,3.314H5.938
			c-0.298,0-0.54,0.244-0.54,0.541c0,0.299,0.242,0.54,0.54,0.54h11.126c0.008,0,0.016-0.005,0.023-0.005
			c0.049-0.003,0.098-0.012,0.145-0.029c0.012-0.004,0.027-0.003,0.039-0.008c0.055-0.023,0.102-0.057,0.145-0.098
			c0.01-0.006,0.021-0.009,0.031-0.018c0.008-0.01,0.012-0.021,0.02-0.031c0.039-0.045,0.074-0.091,0.096-0.145
			c0.002-0.001,0-0.002,0.002-0.004l0,0c0.023-0.06,0.033-0.122,0.037-0.186c0-0.016-0.002-0.031-0.002-0.047
			c-0.004-0.053-0.014-0.105-0.031-0.156c-0.004-0.006-0.002-0.015-0.006-0.021c-0.002-0.004-0.004-0.006-0.006-0.012
			c-0.027-0.061-0.061-0.119-0.111-0.17c-0.02-0.02-0.088-0.086-0.162-0.158l-2.527-2.526h-0.012l-1.172-1.173l1.172-1.175h0.012
			l2.527-2.528c0.074-0.07,0.143-0.137,0.162-0.156c0.051-0.05,0.084-0.109,0.111-0.172c0.002-0.006,0.004-0.006,0.006-0.01
			c0.004-0.006,0.002-0.016,0.006-0.021c0.018-0.051,0.027-0.102,0.031-0.156c0-0.016,0.002-0.031,0.002-0.049
			c-0.004-0.062-0.014-0.124-0.037-0.184c0,0,0,0,0-0.002c0,0,0-0.002-0.002-0.002c-0.023-0.059-0.061-0.107-0.102-0.154
			c-0.006-0.006-0.008-0.014-0.014-0.021s-0.016-0.009-0.021-0.015c-0.045-0.041-0.096-0.078-0.154-0.104
			c-0.012-0.004-0.025-0.002-0.039-0.006c-0.047-0.018-0.096-0.025-0.145-0.03c-0.008,0-0.016-0.004-0.023-0.004H5.938
			C5.64,7.158,5.398,7.399,5.398,7.698z"/>
	</g>
</g>
<g id="Layer_11" display="none">
	<g display="inline">
		<path fill="#231F20" d="M13.48,5.448c0.006-0.044,0.01-0.08,0.016-0.117c0-0.008,0.002-0.015,0.002-0.023
			c0.01-0.065,0.021-0.122,0.035-0.175c0.006-0.014,0.01-0.028,0.016-0.04c0.023-0.056,0.051-0.109,0.102-0.16
			c0.004-0.002,0.008-0.004,0.012-0.006c0.002-0.003,0.004-0.007,0.006-0.01c0.229-0.227,0.596-0.225,0.822,0.005
			c0.004,0.004,0.004,0.007,0.006,0.01c0.004,0.003,0.008,0.003,0.01,0.007c0.025,0.024,0.051,0.07,0.072,0.118
			c0.021,0.04,0.039,0.079,0.051,0.121c0.023,0.062,0.039,0.117,0.039,0.117c0.002,0.021-0.008,1.542-0.02,3.271
			c1.729,0.009,3.252,0.016,3.273,0.019c0,0,0.053,0.017,0.115,0.04c0.043,0.014,0.08,0.029,0.119,0.051
			c0.049,0.022,0.094,0.049,0.119,0.074c0.002,0.004,0.004,0.008,0.006,0.01c0.004,0.004,0.008,0.004,0.01,0.007
			c0.227,0.228,0.223,0.597-0.004,0.823c-0.004,0.003-0.008,0.003-0.01,0.006c-0.004,0.003-0.004,0.006-0.008,0.01
			c-0.051,0.051-0.105,0.078-0.16,0.1c-0.014,0.006-0.027,0.01-0.041,0.016c-0.051,0.016-0.107,0.025-0.174,0.033
			c-0.008,0-0.016,0.002-0.025,0.002c-0.035,0.004-0.074,0.009-0.117,0.014l-4.297-0.023L13.48,5.448z"/>
		<path fill="#231F20" d="M10.954,5.289c0-0.265,0.242-0.481,0.541-0.481c0.298,0,0.539,0.217,0.539,0.481
			c0,0,0.012,12.358,0.012,12.418c0,0.201-0.136,0.375-0.333,0.447c-0.065,0.023-0.137,0.039-0.212,0.039
			c-0.072,0-0.138-0.016-0.199-0.035c-0.201-0.07-0.344-0.244-0.344-0.449C10.958,17.686,10.954,5.289,10.954,5.289z"/>
		<path fill="#231F20" d="M5.289,12.047c-0.266,0-0.481-0.242-0.481-0.54s0.216-0.54,0.481-0.54c0,0,12.358-0.012,12.418-0.012
			c0.201,0,0.375,0.138,0.447,0.333c0.025,0.067,0.039,0.137,0.039,0.212c0,0.07-0.014,0.137-0.035,0.197
			c-0.072,0.203-0.246,0.347-0.449,0.347C17.686,12.045,5.289,12.047,5.289,12.047z"/>
		<path fill="#231F20" d="M9.786,17.494c-0.006,0.041-0.012,0.08-0.016,0.117c0,0.01-0.004,0.016-0.004,0.023
			c-0.008,0.066-0.019,0.123-0.033,0.174c-0.006,0.014-0.012,0.029-0.016,0.041c-0.023,0.057-0.051,0.109-0.104,0.16
			c-0.002,0.004-0.006,0.004-0.009,0.006S9.6,18.023,9.598,18.023c-0.229,0.227-0.596,0.225-0.822-0.002
			c-0.003-0.004-0.004-0.006-0.007-0.01c-0.003-0.002-0.007-0.004-0.009-0.006c-0.026-0.027-0.051-0.074-0.073-0.121
			c-0.021-0.039-0.038-0.076-0.05-0.119c-0.022-0.064-0.039-0.117-0.039-0.117c-0.002-0.021,0.008-1.545,0.02-3.271
			c-1.729-0.008-3.251-0.016-3.273-0.02c0,0-0.053-0.016-0.115-0.039c-0.043-0.012-0.081-0.027-0.12-0.051
			c-0.049-0.023-0.092-0.049-0.117-0.074c-0.003-0.004-0.005-0.008-0.007-0.012c-0.003,0-0.007-0.002-0.01-0.004
			c-0.226-0.23-0.224-0.598,0.004-0.822c0.004-0.004,0.008-0.004,0.01-0.008c0.004-0.002,0.004-0.006,0.007-0.01
			c0.052-0.051,0.105-0.08,0.161-0.1c0.014-0.006,0.027-0.012,0.041-0.014c0.051-0.016,0.109-0.025,0.174-0.033
			c0.008,0,0.017-0.004,0.024-0.002c0.037-0.006,0.075-0.01,0.118-0.016l4.296,0.023L9.786,17.494z"/>
	</g>
</g>
<g id="Layer_12" display="none">
	<g display="inline">
		<g>
			<g>
				<path fill="#231F20" d="M15.883,5.053c0.035-0.025,0.064-0.047,0.094-0.072c0.006-0.006,0.014-0.01,0.02-0.016
					c0.051-0.041,0.1-0.07,0.146-0.098c0.014-0.008,0.025-0.012,0.039-0.02c0.055-0.023,0.113-0.041,0.186-0.041
					c0.004,0,0.008,0.002,0.012,0.002s0.008-0.002,0.012-0.002c0.32,0,0.58,0.262,0.58,0.582c0,0.004,0,0.008,0,0.012
					s0,0.006,0,0.01c0,0.039-0.014,0.086-0.031,0.137c-0.012,0.043-0.027,0.08-0.049,0.119c-0.027,0.063-0.055,0.111-0.055,0.111
					c-0.029,0.039-4.996,4.988-5.732,5.721c0.736,0.736,5.703,5.686,5.732,5.725c0,0,0.027,0.049,0.055,0.107
					c0.021,0.039,0.037,0.08,0.049,0.123c0.018,0.049,0.031,0.098,0.031,0.137c0,0.002,0,0.006,0,0.01s0,0.008,0,0.01
					c0,0.322-0.26,0.582-0.58,0.582c-0.004,0-0.008-0.002-0.012-0.002s-0.008,0.002-0.012,0.002c-0.072,0-0.131-0.016-0.186-0.041
					c-0.014-0.006-0.025-0.01-0.039-0.018c-0.047-0.025-0.096-0.059-0.146-0.098c-0.006-0.008-0.014-0.008-0.02-0.018
					c-0.029-0.021-0.059-0.045-0.094-0.07l-6.447-6.449L15.883,5.053z"/>
				<path fill="#231F20" d="M15.883,8.461c0.035-0.025,0.064-0.049,0.094-0.07c0.006-0.008,0.014-0.012,0.02-0.018
					c0.051-0.039,0.1-0.072,0.146-0.1c0.014-0.006,0.025-0.01,0.039-0.016c0.055-0.025,0.113-0.043,0.186-0.043
					c0.004,0,0.008,0.002,0.012,0.004c0.004-0.002,0.008-0.004,0.012-0.004c0.32,0,0.58,0.262,0.58,0.582c0,0.004,0,0.006,0,0.01
					c0,0.006,0,0.01,0,0.012c0,0.037-0.014,0.086-0.031,0.135c-0.012,0.045-0.027,0.084-0.049,0.121
					c-0.027,0.063-0.055,0.111-0.055,0.111c-0.014,0.016-1.09,1.092-2.314,2.313c1.225,1.223,2.301,2.297,2.314,2.316
					c0,0,0.027,0.047,0.055,0.109c0.021,0.037,0.037,0.078,0.049,0.121c0.018,0.051,0.031,0.098,0.031,0.135c0,0.004,0,0.008,0,0.01
					c0,0.006,0,0.008,0,0.012c0,0.322-0.26,0.584-0.58,0.584c-0.004,0-0.008-0.004-0.012-0.004s-0.008,0.004-0.012,0.004
					c-0.072,0-0.131-0.02-0.186-0.043c-0.014-0.006-0.025-0.012-0.039-0.018c-0.047-0.027-0.096-0.059-0.146-0.098
					c-0.006-0.008-0.014-0.012-0.02-0.018c-0.029-0.021-0.059-0.045-0.094-0.072l-3.039-3.039L15.883,8.461z"/>
			</g>
			<path fill="#231F20" d="M7.186,5.287c0-0.266,0.242-0.48,0.54-0.48c0.299,0,0.542,0.215,0.542,0.48c0,0,0.011,12.359,0.011,12.42
				c0,0.199-0.138,0.373-0.334,0.447c-0.065,0.025-0.137,0.037-0.212,0.037c-0.071,0-0.138-0.012-0.198-0.033
				c-0.202-0.072-0.346-0.246-0.346-0.449C7.189,17.686,7.186,5.287,7.186,5.287z"/>
		</g>
	</g>
</g>
<g id="Layer_13" display="none">
	<g display="inline">
		<g>
			<circle fill="#231F20" cx="10.52" cy="11.334" r="0.544"/>
			<circle fill="#231F20" cx="7.458" cy="16.984" r="0.543"/>
			<circle fill="#231F20" cx="7.54" cy="14.32" r="0.543"/>
			<path fill="#231F20" d="M12.047,6.226c-3.915,0-7.089,2.189-7.089,4.891c0,1.323,0.766,2.522,2.004,3.403L6.95,14.516
				c0,0-0.01,2.453-0.01,2.469c0,0.301,0.242,0.545,0.543,0.545c0.067,0,0.131-0.016,0.189-0.039c0,0.002,0.001,0.004,0.001,0.004
				l0.013-0.004c0.008-0.004,0.014-0.008,0.022-0.012l3.155-1.541c0,0,0.774,0.066,1.183,0.066c3.915,0,7.089-2.188,7.089-4.887
				C19.136,8.416,15.962,6.226,12.047,6.226z M12.044,14.91c-0.467,0-0.92-0.039-1.356-0.102c-0.001,0-0.004,0.004-0.004,0.004
				s-0.843,0.459-1.821,1.043c-0.979,0.586-0.926,0.295-0.926,0.295l0.146-2.184c0,0,0.005,0,0.006-0.002
				c-1.254-0.695-2.051-1.711-2.051-2.848c0-2.096,2.689-3.793,6.006-3.793c3.317,0,6.004,1.697,6.004,3.793
				C18.048,13.211,15.361,14.91,12.044,14.91z"/>
			<circle fill="#231F20" cx="12.01" cy="11.334" r="0.544"/>
			<circle fill="#231F20" cx="13.574" cy="11.334" r="0.544"/>
		</g>
	</g>
</g>
<g id="Layer_14" display="none">
	<g display="inline">
		<path fill="#231F20" d="M18.087,9.389c-0.127-2.379-2.158-4.203-4.535-4.076c-2.379,0.125-4.207,2.154-4.08,4.533
			c0.045,0.844,0.334,1.617,0.791,2.264l-5.177,4.645c-0.222,0.201-0.239,0.543-0.04,0.764c0.198,0.223,0.54,0.24,0.762,0.041
			l5.185-4.654c0.81,0.688,1.872,1.082,3.016,1.02C16.386,13.799,18.212,11.77,18.087,9.389z M13.95,12.834
			c-1.775,0.092-3.291-1.27-3.385-3.045s1.269-3.291,3.043-3.385c1.776-0.094,3.291,1.268,3.385,3.045
			C17.087,11.223,15.726,12.738,13.95,12.834z"/>
	</g>
</g>
<g id="Layer_15" display="none">
	<g display="inline">
		<path fill="#231F20" d="M15.04,13.297"/>
		<path fill="#231F20" d="M15.678,13.143c0,0,0.41,0.332,0.922-0.229c0.511-0.563,0.608,0.164,0.608,0.164l-0.446,1.145
			c0,0-0.772-0.111-0.791-0.139c-0.02-0.029-0.369-0.236-0.369-0.236l-0.098-0.168L15.678,13.143z"/>
		<path fill="#231F20" d="M18.039,11.5c0-3.611-2.928-6.537-6.539-6.537c-3.612,0-6.539,2.926-6.539,6.537
			c0,3.612,2.927,6.54,6.539,6.54c0.87,0,1.7-0.174,2.46-0.482v0.004c0.008-0.004,0.016-0.008,0.023-0.014
			c0.344-0.141,0.666-0.316,0.977-0.51c0.049-0.023,0.092-0.049,0.134-0.082c0.001,0,0.001,0,0.001,0l0,0
			c0.148-0.111,0.245-0.291,0.245-0.49c0-0.342-0.276-0.619-0.618-0.619c-0.135,0-0.259,0.043-0.361,0.115l-0.004-0.004
			c-0.084,0.053-0.172,0.105-0.258,0.146c-0.783,0.447-1.688,0.705-2.654,0.705c-2.963,0-5.365-2.4-5.365-5.364
			c0-2.965,2.402-5.363,5.365-5.363s5.365,2.398,5.365,5.363c0,0.45-0.064,0.885-0.171,1.301c-0.089,0.227-0.295,0.518-0.78,0.551
			c-0.002,0-0.005,0.002-0.008,0.002c0-0.002-0.002-0.002-0.002-0.002c-0.449-0.006-0.809-0.367-0.809-0.818
			c0-0.031,0-0.102-0.001-0.186c0-0.252,0.001-0.509,0.001-0.77c0-0.008,0-0.016,0-0.023c0-0.005,0-0.013,0-0.021
			c0-1.492,0-2.978,0-2.978c0-0.299-0.242-0.543-0.539-0.543c-0.299,0-0.541,0.244-0.541,0.543v0.456
			c-0.637-0.615-1.504-0.999-2.46-0.999c-1.955,0-3.54,1.585-3.54,3.541c0,1.958,1.585,3.542,3.54,3.542
			c0.954,0,1.731-0.348,2.37-0.963c0,0,0.187-0.18,0.355-0.418l0,0c0,0,0.473,0.639,1.311,0.818c0.004,0,0.006,0.002,0.009,0.004
			c0.007,0,0.017,0,0.024,0.002s0.016,0.002,0.023,0.004c0.118,0.021,0.244,0.035,0.379,0.035c0.533-0.002,0.878-0.152,1.115-0.334
			c0.059-0.045,0.952-0.67,0.941-2.49C18.03,11.632,18.039,11.567,18.039,11.5z M11.5,13.91c-1.333,0-2.411-1.078-2.411-2.411
			c0-1.329,1.078-2.41,2.411-2.41c1.313,0,2.377,1.051,2.405,2.358c-0.001,0.018-0.002,0.037-0.002,0.052
			c0,0.018,0.002,0.033,0.002,0.049C13.88,12.857,12.815,13.91,11.5,13.91z"/>
	</g>
</g>
<g id="Layer_16" display="none">
	<g display="inline">
		<path fill="#231F20" d="M12.462,5.137c0.035-0.025,0.064-0.049,0.094-0.07c0.004-0.006,0.012-0.01,0.019-0.016
			c0.05-0.039,0.098-0.072,0.146-0.098c0.012-0.006,0.024-0.013,0.037-0.018c0.055-0.023,0.111-0.041,0.184-0.041
			c0.004,0,0.008,0.002,0.011,0.002c0.004,0,0.007-0.002,0.011-0.002c0.317,0,0.574,0.257,0.574,0.574
			c0,0.004-0.002,0.006-0.002,0.01s0.002,0.01,0.002,0.014c0,0.035-0.014,0.082-0.031,0.133c-0.012,0.041-0.027,0.08-0.049,0.12
			c-0.027,0.059-0.054,0.106-0.054,0.106c-0.028,0.037-4.931,4.924-5.657,5.648c0.727,0.722,5.629,5.611,5.657,5.646
			c0,0,0.026,0.051,0.054,0.109c0.021,0.037,0.037,0.076,0.049,0.119c0.018,0.051,0.031,0.098,0.031,0.133
			c0,0.004-0.002,0.008-0.002,0.012c0,0.006,0.002,0.008,0.002,0.01c0,0.318-0.257,0.576-0.574,0.576
			c-0.004,0-0.007-0.004-0.011-0.004c-0.003,0-0.007,0.004-0.011,0.004c-0.072,0-0.129-0.018-0.184-0.041
			c-0.013-0.008-0.025-0.012-0.037-0.018c-0.048-0.025-0.096-0.059-0.146-0.098c-0.007-0.006-0.015-0.012-0.019-0.016
			c-0.029-0.023-0.059-0.045-0.094-0.07L6.1,11.5L12.462,5.137z"/>
		<path fill="#231F20" d="M12.462,8.502c0.035-0.027,0.064-0.049,0.094-0.072c0.004-0.004,0.012-0.01,0.019-0.014
			c0.05-0.041,0.098-0.074,0.146-0.098c0.012-0.008,0.024-0.013,0.037-0.021c0.055-0.022,0.111-0.04,0.184-0.04
			c0.004,0,0.008,0,0.011,0.002c0.004-0.002,0.007-0.002,0.011-0.002c0.317,0,0.574,0.258,0.574,0.575
			c0,0.004-0.002,0.006-0.002,0.011c0,0.004,0.002,0.008,0.002,0.01c0,0.038-0.014,0.086-0.031,0.135
			c-0.012,0.042-0.027,0.082-0.049,0.119c-0.027,0.061-0.054,0.109-0.054,0.109c-0.013,0.018-1.075,1.078-2.284,2.283
			c1.209,1.205,2.271,2.265,2.284,2.285c0,0,0.026,0.047,0.054,0.105c0.021,0.041,0.037,0.078,0.049,0.121
			c0.018,0.051,0.031,0.096,0.031,0.135c0,0.002-0.002,0.004-0.002,0.008c0,0.006,0.002,0.01,0.002,0.012
			c0,0.316-0.257,0.576-0.574,0.576c-0.004,0-0.007-0.002-0.011-0.002c-0.003,0-0.007,0.002-0.011,0.002
			c-0.072,0-0.129-0.02-0.184-0.043c-0.013-0.006-0.025-0.01-0.037-0.018c-0.048-0.025-0.096-0.059-0.146-0.098
			c-0.007-0.006-0.015-0.008-0.019-0.016c-0.029-0.021-0.059-0.045-0.094-0.068l-2.998-3L12.462,8.502z"/>
	</g>
</g>
<g id="Layer_17" display="none">
	<g display="inline">
		<path fill="#231F20" d="M10.525,5.053c-0.036-0.024-0.065-0.049-0.095-0.072c-0.006-0.006-0.013-0.009-0.02-0.016
			c-0.051-0.041-0.099-0.073-0.146-0.098c-0.013-0.008-0.025-0.013-0.039-0.021c-0.055-0.023-0.112-0.041-0.186-0.041
			c-0.004,0-0.008,0.004-0.011,0.004c-0.004,0-0.008-0.004-0.012-0.004c-0.321,0-0.581,0.262-0.581,0.584
			c0,0.003,0.002,0.006,0.002,0.009c0,0.004-0.002,0.008-0.002,0.012c0,0.039,0.014,0.087,0.031,0.137
			c0.013,0.042,0.028,0.082,0.05,0.12c0.028,0.062,0.054,0.109,0.054,0.109c0.029,0.039,4.997,4.987,5.733,5.724
			c-0.736,0.732-5.704,5.684-5.733,5.722c0,0-0.025,0.05-0.054,0.111c-0.021,0.037-0.037,0.076-0.05,0.12
			c-0.018,0.048-0.031,0.098-0.031,0.134c0,0.005,0.002,0.009,0.002,0.013c0,0.005-0.002,0.007-0.002,0.011
			c0,0.32,0.26,0.581,0.581,0.581c0.004,0,0.008-0.002,0.012-0.002c0.003,0,0.007,0.002,0.011,0.002
			c0.073,0,0.131-0.016,0.186-0.042c0.014-0.005,0.026-0.013,0.039-0.018c0.048-0.025,0.096-0.057,0.146-0.098
			c0.007-0.008,0.014-0.01,0.02-0.016c0.029-0.022,0.059-0.047,0.095-0.072l6.446-6.446L10.525,5.053z"/>
		<path fill="#231F20" d="M10.525,8.461c-0.036-0.026-0.065-0.049-0.095-0.071c-0.006-0.008-0.013-0.011-0.02-0.017
			c-0.051-0.039-0.099-0.071-0.146-0.098c-0.013-0.007-0.025-0.013-0.039-0.017c-0.055-0.026-0.112-0.045-0.186-0.045
			c-0.004,0-0.008,0.002-0.011,0.002c-0.004,0-0.008-0.002-0.012-0.002c-0.321,0-0.581,0.262-0.581,0.582
			c0,0.006,0.002,0.008,0.002,0.013c0,0.003-0.002,0.005-0.002,0.011c0,0.036,0.014,0.084,0.031,0.136
			c0.013,0.041,0.028,0.081,0.05,0.121c0.028,0.06,0.054,0.108,0.054,0.108c0.014,0.019,1.091,1.094,2.315,2.315
			c-1.225,1.22-2.302,2.296-2.315,2.313c0,0-0.025,0.051-0.054,0.112C9.496,13.962,9.48,14,9.468,14.044
			c-0.018,0.051-0.031,0.098-0.031,0.137c0,0.004,0.002,0.006,0.002,0.012c0,0.004-0.002,0.006-0.002,0.009
			c0,0.322,0.26,0.583,0.581,0.583c0.004,0,0.008-0.001,0.012-0.001c0.003,0,0.007,0.001,0.011,0.001
			c0.073,0,0.131-0.019,0.186-0.042c0.014-0.006,0.026-0.01,0.039-0.018c0.048-0.027,0.096-0.06,0.146-0.099
			c0.007-0.006,0.014-0.01,0.02-0.016c0.029-0.023,0.059-0.046,0.095-0.073l3.038-3.037L10.525,8.461z"/>
	</g>
</g>
<g id="Layer_18" display="none">
	<g display="inline">
		<g>
			<path fill="#231F20" d="M7.117,5.052C7.082,5.028,7.052,5.003,7.023,4.983c-0.006-0.008-0.014-0.012-0.02-0.017
				c-0.051-0.04-0.1-0.072-0.146-0.1C6.843,4.86,6.831,4.854,6.818,4.85C6.763,4.826,6.706,4.807,6.632,4.807
				c-0.004,0-0.008,0.002-0.012,0.002S6.614,4.807,6.609,4.807c-0.32,0-0.581,0.262-0.581,0.581c0,0.004,0.002,0.01,0.002,0.014
				S6.028,5.41,6.028,5.411c0,0.037,0.015,0.087,0.032,0.135c0.013,0.044,0.027,0.084,0.049,0.123
				c0.029,0.06,0.055,0.108,0.055,0.108c0.029,0.038,4.996,4.99,5.732,5.723c-0.736,0.735-5.703,5.684-5.732,5.725
				c0,0-0.025,0.047-0.055,0.109c-0.021,0.037-0.036,0.078-0.049,0.119c-0.018,0.051-0.032,0.1-0.032,0.135
				c0,0.004,0.002,0.008,0.002,0.012s-0.002,0.006-0.002,0.012c0,0.32,0.261,0.582,0.581,0.582c0.005,0,0.008-0.002,0.012-0.002
				s0.008,0.002,0.012,0.002c0.073,0,0.131-0.018,0.186-0.041c0.013-0.008,0.025-0.012,0.039-0.02
				c0.047-0.025,0.096-0.059,0.146-0.098c0.006-0.006,0.014-0.01,0.02-0.018c0.029-0.021,0.059-0.045,0.094-0.07l6.448-6.448
				L7.117,5.052z"/>
			<path fill="#231F20" d="M7.117,8.461c-0.035-0.024-0.064-0.05-0.094-0.072c-0.006-0.006-0.014-0.008-0.02-0.014
				c-0.051-0.041-0.1-0.074-0.146-0.101C6.843,8.269,6.831,8.264,6.818,8.258C6.763,8.232,6.706,8.215,6.632,8.215
				c-0.004,0-0.008,0.003-0.012,0.003S6.614,8.215,6.609,8.215c-0.32,0-0.581,0.26-0.581,0.582c0,0.004,0.002,0.006,0.002,0.011
				c0,0.004-0.002,0.008-0.002,0.012c0,0.038,0.015,0.087,0.032,0.135c0.013,0.044,0.027,0.084,0.049,0.122
				c0.029,0.061,0.055,0.109,0.055,0.109c0.014,0.019,1.09,1.093,2.314,2.313c-1.225,1.223-2.301,2.297-2.314,2.315
				c0,0-0.025,0.049-0.055,0.109c-0.021,0.039-0.036,0.078-0.049,0.121c-0.018,0.051-0.032,0.098-0.032,0.135
				c0,0.006,0.002,0.008,0.002,0.012s-0.002,0.01-0.002,0.012c0,0.322,0.261,0.582,0.581,0.582c0.005,0,0.008-0.004,0.012-0.004
				s0.008,0.004,0.012,0.004c0.073,0,0.131-0.018,0.186-0.043c0.013-0.004,0.025-0.012,0.039-0.018
				c0.047-0.025,0.096-0.061,0.146-0.098c0.006-0.008,0.014-0.01,0.02-0.016c0.029-0.021,0.059-0.047,0.094-0.074l3.038-3.038
				L7.117,8.461z"/>
		</g>
		<path fill="#231F20" d="M15.814,5.29c0-0.268-0.242-0.482-0.541-0.482s-0.541,0.215-0.541,0.482c0,0-0.01,12.357-0.01,12.416
			c0,0.203,0.137,0.377,0.332,0.449c0.066,0.025,0.139,0.039,0.213,0.039c0.07,0,0.137-0.014,0.197-0.037
			c0.203-0.068,0.346-0.242,0.346-0.447C15.811,17.686,15.814,5.29,15.814,5.29z"/>
	</g>
</g>
<g id="Layer_19" display="none">
	<g display="inline">
		<path fill="#231F20" d="M17.047,5.127H6.173c-0.146,0-0.277,0.059-0.372,0.154C5.705,5.379,5.646,5.51,5.646,5.656v1.216v9.658
			v1.215c0,0.291,0.236,0.527,0.527,0.527h10.874c0.29,0,0.527-0.236,0.527-0.527v-1.215V6.872V5.656
			C17.574,5.364,17.337,5.127,17.047,5.127z M16.518,6.872v9.658v0.688H6.702v-0.688V6.872V6.184h9.815V6.872z"/>
		<path fill="#231F20" d="M14.976,8.756c-0.013-0.017-0.021-0.035-0.035-0.051c-0.023-0.027-0.049-0.051-0.078-0.074
			c-0.019-0.014-0.04-0.026-0.06-0.037c-0.029-0.019-0.058-0.035-0.09-0.047c-0.033-0.011-0.068-0.016-0.104-0.021
			c-0.022-0.002-0.044-0.012-0.067-0.012c-0.004,0-0.008,0.002-0.013,0.002c-0.187,0-5.851-0.002-5.851-0.002
			c-0.291,0-0.528,0.236-0.528,0.525c0,0,0,0,0,0.002v1.051c0,0.289,0.237,0.528,0.529,0.528c0.29,0,0.526-0.239,0.526-0.528V9.569
			h1.882c0,0-0.007,3.468-0.01,4.806h-0.483c-0.292,0-0.528,0.238-0.528,0.529c0,0.293,0.236,0.527,0.528,0.527h2.033
			c0.291,0,0.527-0.234,0.527-0.527c0-0.291-0.236-0.529-0.527-0.529h-0.486c0-1.105,0.002-3.689,0.002-4.806
			c0,0,1.166,0.006,1.871,0.009v0.515c0,0.289,0.236,0.528,0.527,0.528c0.292,0,0.527-0.239,0.527-0.528V9.096V9.042
			C15.068,8.936,15.029,8.842,14.976,8.756z"/>
	</g>
</g>
<g id="Layer_20" display="none">
	<g display="inline">
		<g>
			<circle fill="#231F20" cx="7.379" cy="6.61" r="0.544"/>
			<path fill="#231F20" d="M7.923,8.884c0,0.301-0.244,0.543-0.545,0.543S6.835,9.185,6.835,8.884c0-0.303,0.242-0.545,0.543-0.545
				S7.923,8.581,7.923,8.884z"/>
			<circle fill="#231F20" cx="7.379" cy="11.343" r="0.544"/>
			<path fill="#231F20" d="M7.923,13.653c0,0.299-0.244,0.543-0.545,0.543s-0.543-0.244-0.543-0.543
				c0-0.303,0.242-0.543,0.543-0.543S7.923,13.351,7.923,13.653z"/>
			<path fill="#231F20" d="M7.923,15.927c0,0.301-0.244,0.543-0.545,0.543s-0.543-0.242-0.543-0.543
				c0-0.303,0.242-0.545,0.543-0.545S7.923,15.624,7.923,15.927z"/>
			<g>
				<path fill="#231F20" d="M15.623,15.46h-1.285h-3.532H9.521c-0.299,0-0.541,0.242-0.541,0.541c0,0.297,0.242,0.539,0.541,0.539
					h1.285h3.532h1.285c0.298,0,0.54-0.242,0.54-0.539C16.163,15.702,15.921,15.46,15.623,15.46z"/>
				<path fill="#231F20" d="M15.623,8.53h-1.285h-3.532H9.521c-0.299,0-0.541,0.242-0.541,0.539c0,0.299,0.242,0.543,0.541,0.543
					h1.285h3.532h1.285c0.298,0,0.54-0.244,0.54-0.543C16.163,8.772,15.921,8.53,15.623,8.53z"/>
				<path fill="#231F20" d="M15.623,10.878h-1.285h-3.532H9.521c-0.299,0-0.541,0.24-0.541,0.539s0.242,0.543,0.541,0.543h1.285
					h3.532h1.285c0.298,0,0.54-0.244,0.54-0.543S15.921,10.878,15.623,10.878z"/>
				<path fill="#231F20" d="M15.623,13.187L15.623,13.187h-1.285h-3.532H9.521l0,0c-0.299,0-0.541,0.242-0.541,0.541
					s0.242,0.541,0.541,0.541h1.285h3.532h1.285c0.298,0,0.54-0.242,0.54-0.541S15.921,13.187,15.623,13.187z"/>
				<path fill="#231F20" d="M9.521,7.228h1.285h3.532h1.285c0.298,0,0.54-0.244,0.54-0.541c0-0.299-0.242-0.543-0.54-0.543l0,0
					h-1.285h-3.532H9.521l0,0c-0.299,0-0.541,0.244-0.541,0.543C8.979,6.983,9.222,7.228,9.521,7.228z"/>
			</g>
		</g>
	</g>
</g>
<g id="Layer_21" display="none">
	<g display="inline">
		<g>
			<path fill="#231F20" d="M14.287,14.383c0.049-0.297-0.244-0.545-0.544-0.545c-0.399,0-0.471,0.273-0.471,0.273l-1.589,4.287
				c-0.671-1.465-1.954-4.266-1.954-4.266c-0.005-0.012-0.015-0.018-0.021-0.027c-0.026-0.045-0.055-0.088-0.094-0.121
				c-0.038-0.035-0.08-0.066-0.125-0.09c0,0-0.154-0.057-0.238-0.057c-0.301,0-0.543,0.244-0.543,0.545c0,0.016,0,0.068,0,0.08
				c-0.004,0.135,2.437,5.367,2.437,5.367c0.042,0.096,0.08,0.184,0.091,0.207c0.029,0.066,0.074,0.119,0.123,0.166
				c0.002,0,0.004,0.004,0.008,0.01c0.004,0.004,0.012,0.006,0.018,0.012c0.041,0.033,0.086,0.061,0.135,0.082
				c0.016,0.006,0.029,0.016,0.045,0.021c0.061,0.018,0.121,0.029,0.186,0.029h0.001c0.001,0,0.002,0,0.003,0
				c0.063-0.002,0.123-0.02,0.18-0.043c0.008-0.004,0.017-0.004,0.025-0.008c0.008-0.002,0.012-0.008,0.021-0.012
				c0.054-0.031,0.106-0.064,0.149-0.111c0.009-0.01,0.012-0.023,0.021-0.033c0.031-0.039,0.058-0.08,0.076-0.125
				c0.004-0.008,0.012-0.012,0.014-0.021C12.24,20.004,14.28,14.42,14.287,14.383z"/>
			<path fill="#231F20" d="M14.067,12.049c0,0-1.224,0.002-2.567,0.002c-1.343,0-2.567-0.002-2.567-0.002
				c-0.298,0-0.54,0.244-0.54,0.539c0,0.301,0.242,0.541,0.54,0.541h1.659h1.817h1.658c0.298,0,0.54-0.24,0.54-0.541
				C14.607,12.293,14.365,12.049,14.067,12.049z"/>
			<path fill="#231F20" d="M14.607,4.079c0-0.002,0-0.002,0-0.004c0-0.297-0.242-0.539-0.54-0.539c0,0-1.224,0-2.567,0
				c-1.343,0-2.567,0-2.567,0c-0.298,0-0.54,0.242-0.54,0.539c0,0.02,0.009,0.039,0.012,0.058l-0.002,6.063
				c0,0-0.008,0.349-0.01,0.468v0.002v0.002c0,0.012,0,0.025,0,0.033c0,0.116,0.052,0.222,0.131,0.308
				c0.1,0.118,0.242,0.196,0.409,0.196h1.659h1.817h1.658c0.016,0,0.028-0.007,0.044-0.007c0.052-0.006,0.104-0.01,0.148-0.026
				c0.004-0.002,0.008-0.004,0.012-0.006c0.006-0.004,0.012-0.008,0.02-0.011c0.184-0.076,0.314-0.241,0.314-0.432
				c0-0.002,0-0.021,0-0.044c0-0.006,0.002-0.009,0.002-0.014c0-0.004-0.002-0.008-0.002-0.014
				C14.605,10.119,14.605,6.396,14.607,4.079z M11.5,10.125c-0.789,0-1.535-0.002-2.02-0.002c0-1.11,0.002-3.609,0.002-5.507h1.109
				h1.817h1.118v5.507C13.045,10.124,12.294,10.125,11.5,10.125z"/>
		</g>
	</g>
</g>
<g id="Layer_22" display="none">
	<g display="inline">
		<g>
			<path fill="#231F20" d="M17.141,6.497l-0.01-0.07l-0.246-1.873l-0.008-0.066l-0.066,0.006l-1.879,0.18l-0.074,0.008
				c-0.297,0.027-0.514,0.291-0.486,0.588c0.027,0.299,0.291,0.516,0.588,0.486l0.076-0.006l0.906-0.086l0.117,0.904l0.01,0.072
				c0.039,0.295,0.311,0.504,0.605,0.465C16.971,7.065,17.18,6.794,17.141,6.497z"/>
			<path fill="#231F20" d="M19.787,8.448c-0.002-0.002-0.002-0.002-0.002-0.002c0-0.002,0-0.002,0-0.004
				c-0.023-0.057-0.061-0.107-0.102-0.154c-0.006-0.006-0.008-0.014-0.014-0.02c-0.008-0.008-0.016-0.01-0.021-0.016
				c-0.045-0.041-0.096-0.076-0.154-0.102c-0.012-0.004-0.025-0.004-0.039-0.01c-0.045-0.016-0.094-0.025-0.143-0.029
				c-0.01,0-0.018-0.006-0.025-0.006l-4.592-0.012c-0.064-0.115-0.125-0.223-0.125-0.223l0,0l-2.588-4.77
				c-0.09-0.166-0.254-0.256-0.428-0.273c-0.022-0.002-0.043-0.004-0.066-0.004c-0.022,0-0.043,0.002-0.066,0.004
				c-0.174,0.018-0.338,0.107-0.426,0.273l-2.59,4.77H8.405c0,0-0.06,0.107-0.123,0.219L3.712,8.106
				c-0.008,0-0.016,0.004-0.024,0.004C3.64,8.114,3.591,8.126,3.544,8.142c-0.014,0.004-0.026,0-0.039,0.008
				C3.448,8.173,3.397,8.21,3.351,8.251C3.345,8.257,3.337,8.259,3.331,8.267C3.326,8.272,3.323,8.278,3.316,8.288
				c-0.04,0.043-0.078,0.096-0.1,0.152c-0.002,0-0.002,0.002-0.002,0.004H3.213C3.19,8.503,3.18,8.565,3.178,8.628
				C3.177,8.646,3.179,8.661,3.18,8.679c0.003,0.051,0.014,0.104,0.032,0.154c0.002,0.008,0.002,0.014,0.004,0.021
				c0.002,0.004,0.006,0.006,0.007,0.01C3.25,8.927,3.284,8.987,3.335,9.036c0.019,0.02,0.087,0.084,0.163,0.156l3.724,3.689
				c0,0,0.089,0.127,0.063,0.311l0,0l0,0l-0.65,1.525l-0.011,0.004L5.22,18.009c-0.043,0.094-0.082,0.184-0.092,0.207
				c-0.028,0.064-0.037,0.133-0.04,0.201c0.001,0.004-0.002,0.008-0.002,0.012c0,0.008,0.004,0.012,0.004,0.021
				c0.003,0.053,0.013,0.105,0.029,0.156c0.006,0.016,0.009,0.029,0.017,0.045c0.025,0.059,0.058,0.111,0.102,0.158
				c0,0,0.001,0,0.002,0c0,0.002,0.002,0.002,0.002,0.004c0.043,0.043,0.096,0.078,0.15,0.105c0.01,0.004,0.014,0.008,0.023,0.014
				c0.007,0.002,0.016,0.002,0.023,0.006c0.057,0.02,0.117,0.033,0.182,0.035c0.013,0,0.025-0.006,0.039-0.008
				c0.049,0,0.098-0.01,0.144-0.023c0.009-0.004,0.018-0.004,0.024-0.008l3.954-1.588c0.796-0.313,1.487-0.584,1.782-0.701
				l5.614,2.25c0.006,0.002,0.016,0.002,0.023,0.004c0.047,0.014,0.096,0.023,0.145,0.025c0.014,0,0.025,0.008,0.039,0.008
				c0.063-0.002,0.123-0.016,0.18-0.037c0.01-0.004,0.018-0.002,0.025-0.006c0.01-0.002,0.014-0.012,0.021-0.016
				c0.057-0.025,0.109-0.059,0.152-0.104c0,0,0-0.002,0.002-0.002l0,0c0.045-0.047,0.078-0.102,0.104-0.158
				c0.006-0.016,0.01-0.029,0.016-0.047c0.018-0.049,0.027-0.102,0.029-0.154c0-0.006,0.004-0.016,0.004-0.021
				s-0.002-0.008-0.002-0.014c-0.002-0.066-0.012-0.135-0.039-0.199c-0.01-0.025-2.156-5.025-2.156-5.025l0,0l0,0
				c-0.055-0.129,0.055-0.264,0.057-0.264h0.002h-0.002l3.725-3.689c0.076-0.072,0.145-0.137,0.162-0.158
				c0.051-0.051,0.086-0.109,0.113-0.17c0-0.004,0.004-0.006,0.006-0.012s0.002-0.016,0.006-0.02
				c0.018-0.051,0.027-0.104,0.031-0.156c0-0.018,0.002-0.033,0-0.051C19.82,8.569,19.811,8.507,19.787,8.448z M14.643,12.489
				c-0.053,0.053-0.092,0.115-0.117,0.18l-0.006-0.002l0,0c-0.055,0.129-0.061,0.281,0,0.42c0,0,1.135,2.658,1.83,4.283l-4.54-1.789
				c-0.182-0.047-0.311-0.059-0.489,0l-1.318,0.514l-3.351,1.326c0.693-1.623,1.834-4.289,1.834-4.289
				c0.1-0.281,0.127-0.385-0.128-0.645c0,0-2.079-2.064-3.331-3.305l3.621-0.014V9.161c0.178-0.014,0.344-0.107,0.435-0.275
				c0.009-0.018,1.6-2.945,2.405-4.428c0.805,1.482,2.397,4.41,2.405,4.428c0.096,0.176,0.273,0.27,0.459,0.275v0.012l3.621,0.012
				C16.721,10.425,14.643,12.489,14.643,12.489z"/>
			<path fill="#231F20" d="M5.617,6.647l0.01-0.072l0.246-1.873L5.88,4.636l0.066,0.006l1.879,0.18L7.9,4.829
				c0.297,0.027,0.515,0.291,0.486,0.59C8.359,5.714,8.095,5.933,7.797,5.903L7.723,5.897L6.816,5.81L6.699,6.714L6.689,6.79
				C6.65,7.083,6.378,7.292,6.083,7.253C5.787,7.216,5.578,6.942,5.617,6.647z"/>
			<path fill="#231F20" d="M5.332,14.849l-0.068-0.031l-1.727-0.762L3.476,14.03L3.5,13.966l0.7-1.75l0.027-0.068
				c0.111-0.279,0.426-0.414,0.703-0.305c0.276,0.111,0.411,0.426,0.301,0.703l-0.026,0.07l-0.34,0.846l0.834,0.365l0.069,0.031
				c0.273,0.121,0.396,0.439,0.274,0.713C5.923,14.845,5.603,14.97,5.332,14.849z"/>
			<path fill="#231F20" d="M17.902,14.849l0.068-0.031l1.729-0.762l0.061-0.025l-0.025-0.064l-0.699-1.75l-0.027-0.068
				c-0.111-0.279-0.426-0.414-0.705-0.305c-0.275,0.111-0.41,0.426-0.299,0.703l0.027,0.07l0.338,0.846l-0.834,0.365l-0.068,0.031
				c-0.273,0.121-0.396,0.439-0.275,0.713C17.311,14.845,17.631,14.97,17.902,14.849z"/>
			<path fill="#231F20" d="M13.047,18.757l-0.055,0.053l-1.347,1.322l-0.046,0.045l-0.049-0.045l-1.369-1.299l-0.055-0.053
				c-0.215-0.205-0.223-0.547-0.018-0.764s0.547-0.225,0.763-0.02l0.055,0.051l0.659,0.629l0.651-0.637l0.055-0.053
				c0.213-0.211,0.555-0.207,0.764,0.006S13.26,18.55,13.047,18.757z"/>
		</g>
	</g>
</g>
<g id="Layer_24" display="none">
	<path display="inline" fill="#231F20" d="M11.542,17.569c-0.31,0-0.561,0.251-0.561,0.559v0.236h-0.006c0,0.615,0,1.032,0,1.032
		c0,0.308,0.251,0.559,0.561,0.559c0.309,0,0.56-0.251,0.56-0.559v-0.237h0.006c0-0.612,0-1.031,0-1.031
		C12.101,17.82,11.851,17.569,11.542,17.569z"/>
	<path display="inline" fill="#231F20" d="M11.53,5.432c0.312,0,0.562-0.25,0.562-0.56V4.637h0.005c0-0.616,0-1.03,0-1.03
		c0-0.31-0.25-0.562-0.558-0.562c-0.311,0-0.561,0.252-0.561,0.562v0.235h-0.005c0,0.615-0.001,1.03-0.001,1.03
		C10.972,5.182,11.223,5.432,11.53,5.432z"/>
	<path display="inline" fill="#231F20" d="M19.434,10.949h-0.238v-0.004c-0.612,0-1.029-0.002-1.029-0.002
		c-0.308,0-0.56,0.251-0.56,0.56c0,0.31,0.252,0.56,0.56,0.56h0.235v0.006c0.615,0,1.032,0,1.032,0c0.308,0,0.56-0.249,0.56-0.559
		S19.741,10.949,19.434,10.949z"/>
	<path display="inline" fill="#231F20" d="M4.831,10.949H4.597v-0.004c-0.614-0.002-1.031-0.002-1.031-0.002
		c-0.309,0-0.559,0.251-0.559,0.56c0,0.31,0.25,0.56,0.559,0.56h0.235v0.006c0.615,0,1.03,0,1.03,0c0.311,0,0.561-0.249,0.561-0.559
		S5.142,10.949,4.831,10.949z"/>
	<path display="inline" fill="#231F20" d="M17.842,16.043l0.002-0.005c-0.434-0.435-0.729-0.729-0.729-0.729
		c-0.217-0.218-0.572-0.218-0.79,0c-0.219,0.219-0.219,0.574,0,0.794l0.167,0.166l-0.005,0.004c0.434,0.435,0.728,0.73,0.728,0.73
		c0.22,0.216,0.573,0.216,0.791,0c0.22-0.221,0.22-0.575,0.001-0.794L17.842,16.043z"/>
	<path display="inline" fill="#231F20" d="M5.548,6.521L5.544,6.524c0.436,0.434,0.729,0.729,0.729,0.729
		c0.218,0.218,0.573,0.218,0.792,0c0.219-0.22,0.219-0.573,0-0.793L6.897,6.295l0.004-0.005C6.468,5.857,6.173,5.563,6.173,5.563
		C5.956,5.345,5.601,5.345,5.382,5.561c-0.219,0.22-0.219,0.574,0,0.793L5.548,6.521z"/>
	<path display="inline" fill="#231F20" d="M6.597,16.107l-0.166,0.167l-0.004-0.004c-0.434,0.436-0.729,0.729-0.729,0.729
		c-0.218,0.218-0.218,0.572,0,0.791c0.22,0.22,0.575,0.22,0.792,0l0.167-0.166l0.005,0.004c0.435-0.436,0.729-0.729,0.729-0.729
		c0.22-0.22,0.22-0.573,0-0.792C7.17,15.89,6.816,15.89,6.597,16.107z"/>
	<path display="inline" fill="#231F20" d="M16.923,7.643l0.168-0.166l0.005,0.004c0.434-0.434,0.728-0.729,0.728-0.729
		c0.218-0.217,0.218-0.573,0-0.792c-0.219-0.219-0.573-0.219-0.791,0l-0.167,0.166l-0.004-0.003
		c-0.435,0.435-0.729,0.728-0.729,0.728c-0.219,0.22-0.219,0.573,0,0.792C16.351,7.861,16.705,7.861,16.923,7.643z"/>
	<path display="inline" fill="#231F20" d="M11.535,6.515c-2.757,0-4.992,2.232-4.992,4.991c0,2.758,2.235,4.99,4.992,4.99
		c2.757,0,4.991-2.232,4.991-4.99C16.526,8.747,14.292,6.515,11.535,6.515z M11.507,15.444c-2.16,0-3.911-1.75-3.911-3.908
		c0-2.162,1.75-3.911,3.911-3.911c2.157,0,3.906,1.75,3.906,3.911C15.413,13.694,13.664,15.444,11.507,15.444z"/>
</g>
<g id="Layer_29">
	<g>
		<polyline fill="none" stroke="#231F20" stroke-linecap="round" stroke-linejoin="round" stroke-miterlimit="10" points="
			10.335,10.667 11.711,12.292 7.333,12.292 		"/>
		<path fill="none" stroke="#231F20" stroke-linecap="round" stroke-linejoin="round" stroke-miterlimit="10" d="M11.646,12.292"/>
		<polyline fill="none" stroke="#231F20" stroke-linecap="round" stroke-linejoin="round" stroke-miterlimit="10" points="
			10.335,13.917 11.711,12.292 7.333,12.292 		"/>
	</g>
	<polyline fill="none" stroke="#231F20" stroke-linecap="round" stroke-linejoin="round" stroke-miterlimit="10" points="
		7.333,9.063 7.333,5.875 15.959,5.875 15.959,17.813 7.333,17.813 7.333,16.218 	"/>
</g>
<g id="Réteg_25" display="none">
	<g display="inline">
		
			<rect x="5.094" y="9.137" fill="none" stroke="#231F20" stroke-width="1.15" stroke-linecap="round" stroke-linejoin="round" stroke-miterlimit="10" width="12.813" height="7.938"/>
		<g>
			<g>
				<path fill="#231F20" d="M11.5,5.144c1.535,0,2.829,1.449,3.2,3.408H8.3C8.671,6.593,9.965,5.144,11.5,5.144 M11.5,3.994
					c-2.461,0-4.457,2.555-4.457,5.708h8.913C15.956,6.549,13.961,3.994,11.5,3.994L11.5,3.994z"/>
			</g>
		</g>
		
			<circle fill="none" stroke="#231F20" stroke-width="1.15" stroke-linecap="round" stroke-miterlimit="10" cx="11.5" cy="13.105" r="1.438"/>
	</g>
</g>
<g id="Réteg_26" display="none">
	<g display="inline">
		<g>
			<g>
				<path fill="#231F20" d="M11.5,5.418c1.562,0,2.833,1.271,2.833,2.833s-1.271,2.833-2.833,2.833S8.667,9.813,8.667,8.251
					S9.938,5.418,11.5,5.418 M11.5,4.268c-2.2,0-3.983,1.783-3.983,3.983s1.783,3.983,3.983,3.983s3.983-1.784,3.983-3.983
					S13.7,4.268,11.5,4.268L11.5,4.268z"/>
			</g>
		</g>
		<g>
			<g>
				<path fill="#231F20" d="M11.5,12.254c2.689,0,4.938,2.067,5.438,4.799H6.062C6.563,14.321,8.811,12.254,11.5,12.254
					 M11.5,11.104c-3.696,0-6.692,3.179-6.692,7.1h13.384C18.192,14.282,15.196,11.104,11.5,11.104L11.5,11.104z"/>
			</g>
		</g>
	</g>
</g>
<g id="Réteg_27" display="none">
	<g display="inline">
		<path d="M14.536,9.837c-0.299,0-0.54-0.241-0.54-0.54l0.001-2.564h-0.944c-0.001,1.929-0.003,7.878-0.003,7.897
			c0,0.003-0.002,0.006-0.002,0.009c0,0.154,0,0.313,0,0.475c0,0.524,0,1.01,0,1.42c2.022-2.054,2.708-5.395,2.905-6.697H14.61
			H14.536z"/>
		<path d="M11.506,0c-6.351,0-11.5,5.149-11.5,11.5S5.155,23,11.506,23c6.352,0,11.5-5.149,11.5-11.5S17.857,0,11.506,0z
			 M8.472,18.241c-0.3,0-0.542-0.242-0.542-0.543c0-0.3,0.242-0.543,0.542-0.543c0.3,0,0.543,0.243,0.543,0.543
			C9.016,17.999,8.772,18.241,8.472,18.241z M9.015,14.631c0,0.204-0.143,0.378-0.345,0.448c-0.061,0.022-0.127,0.035-0.198,0.035
			c-0.075,0-0.146-0.013-0.212-0.038c-0.195-0.073-0.333-0.246-0.333-0.447c0-0.06,0.011-0.503,0.011-0.503l0.001-7.991
			c0-0.266,0.241-0.481,0.54-0.481c0.297,0,0.539,0.215,0.539,0.481C9.017,6.135,9.015,14.607,9.015,14.631z M12.69,18.229
			c-0.018,0.009-0.029,0.014-0.029,0.014l-0.002-0.008c-0.049,0.013-0.097,0.027-0.149,0.027c-0.299,0-0.54-0.216-0.54-0.481v-0.562
			h-0.001v-2.104v-0.441c-0.001-0.016-0.007-0.028-0.007-0.044c0-0.038,0.004-0.234,0.007-0.37V13.01h0.001v-0.562
			c0-0.004,0.003-0.008,0.003-0.012l0.001-6.186c-0.003-0.02-0.012-0.036-0.012-0.056s0.009-0.037,0.012-0.057V6.135
			c0-0.008,0.004-0.014,0.004-0.022c0.008-0.047,0.013-0.095,0.031-0.136c0.045-0.113,0.136-0.204,0.253-0.26
			c0.013-0.006,0.022-0.016,0.035-0.021c0.035-0.014,0.074-0.016,0.112-0.023c0.031-0.005,0.06-0.019,0.093-0.019h0.074h1.886h0.074
			h0.001c0.297,0,0.539,0.215,0.539,0.481c0,0,0,0.021,0,0.059c0,0.25-0.001,1.292-0.001,2.563h1.421h0.074
			c0.298,0,0.54,0.241,0.54,0.54C16.368,15.799,12.743,18.212,12.69,18.229z"/>
	</g>
</g>
<g id="Layer_23" display="none">
	<path display="inline" fill="#231F20" d="M11.5,0C5.148,0,0,5.148,0,11.499C0,17.851,5.148,23,11.5,23
		C17.851,23,23,17.851,23,11.499C23,5.148,17.851,0,11.5,0z M11.5,21.857c-5.72,0-10.359-4.638-10.359-10.358
		c0-5.721,4.64-10.358,10.359-10.358s10.358,4.637,10.358,10.358C21.858,17.22,17.22,21.857,11.5,21.857z"/>
</g>
<g id="Réteg_28" display="none">
	
		<rect x="6.166" y="4.609" display="inline" fill="none" stroke="#231F20" stroke-width="1.25" stroke-linecap="round" stroke-linejoin="round" stroke-miterlimit="10" width="10.667" height="13.781"/>
	<g display="inline">
		
			<line fill="none" stroke="#231F20" stroke-width="1.25" stroke-linecap="round" stroke-linejoin="round" stroke-miterlimit="10" x1="8.25" y1="8.063" x2="14.75" y2="8.063"/>
		
			<line fill="none" stroke="#231F20" stroke-width="1.25" stroke-linecap="round" stroke-linejoin="round" stroke-miterlimit="10" x1="8.25" y1="10.396" x2="11.792" y2="10.396"/>
		
			<line fill="none" stroke="#231F20" stroke-width="1.25" stroke-linecap="round" stroke-linejoin="round" stroke-miterlimit="10" x1="13.375" y1="10.396" x2="14.75" y2="10.396"/>
		
			<line fill="none" stroke="#231F20" stroke-width="1.25" stroke-linecap="round" stroke-linejoin="round" stroke-miterlimit="10" x1="8.249" y1="12.688" x2="14.749" y2="12.688"/>
		
			<line fill="none" stroke="#231F20" stroke-width="1.25" stroke-linecap="round" stroke-linejoin="round" stroke-miterlimit="10" x1="8.25" y1="14.938" x2="11.792" y2="14.938"/>
		
			<line fill="none" stroke="#231F20" stroke-width="1.25" stroke-linecap="round" stroke-linejoin="round" stroke-miterlimit="10" x1="13.375" y1="14.938" x2="14.75" y2="14.938"/>
	</g>
</g>
</svg>
