<?xml version="1.0" encoding="utf-8"?>
<!-- Generator: Adobe Illustrator 16.0.0, SVG Export Plug-In . SVG Version: 6.00 Build 0)  -->
<!DOCTYPE svg PUBLIC "-//W3C//DTD SVG 1.1//EN" "http://www.w3.org/Graphics/SVG/1.1/DTD/svg11.dtd">
<svg version="1.1" id="Layer_1" xmlns="http://www.w3.org/2000/svg" xmlns:xlink="http://www.w3.org/1999/xlink" x="0px" y="0px"
	 width="24px" height="24px" viewBox="0 0 24 24" enable-background="new 0 0 24 24" xml:space="preserve">
<g>
	<g>
		<g>
			<path fill="#231F20" d="M11.5,6.418c1.562,0,2.833,1.271,2.833,2.833c0,1.563-1.271,2.833-2.833,2.833s-2.833-1.271-2.833-2.833
				C8.667,7.689,9.938,6.418,11.5,6.418 M11.5,5.268c-2.2,0-3.983,1.783-3.983,3.983s1.783,3.983,3.983,3.983
				s3.983-1.784,3.983-3.983S13.7,5.268,11.5,5.268L11.5,5.268z"/>
		</g>
	</g>
	<g>
		<g>
			<path fill="#231F20" d="M11.5,13.254c2.689,0,4.938,2.067,5.438,4.799H6.062C6.563,15.321,8.811,13.254,11.5,13.254 M11.5,12.104
				c-3.696,0-6.692,3.179-6.692,7.1h13.384C18.192,15.282,15.196,12.104,11.5,12.104L11.5,12.104z"/>
		</g>
	</g>
</g>
</svg>
