<?xml version="1.0" encoding="utf-8"?>
<!-- Generator: Adobe Illustrator 16.0.0, SVG Export Plug-In . SVG Version: 6.00 Build 0)  -->
<!DOCTYPE svg PUBLIC "-//W3C//DTD SVG 1.1//EN" "http://www.w3.org/Graphics/SVG/1.1/DTD/svg11.dtd">
<svg version="1.1" id="Layer_1" xmlns="http://www.w3.org/2000/svg" xmlns:xlink="http://www.w3.org/1999/xlink" x="0px" y="0px"
	 width="24px" height="24px" viewBox="0 0 24 24" enable-background="new 0 0 24 24" xml:space="preserve">
<path fill="#231F20" d="M18.948,10.421c-0.002-0.001-0.002-0.001-0.002-0.001c0-0.002,0-0.002,0-0.003
	c-0.02-0.048-0.051-0.092-0.086-0.131c-0.005-0.005-0.007-0.012-0.012-0.017c-0.007-0.006-0.014-0.008-0.019-0.013
	c-0.038-0.035-0.082-0.065-0.132-0.086c-0.01-0.003-0.021-0.003-0.033-0.008c-0.038-0.014-0.08-0.022-0.121-0.025
	c-0.009,0-0.016-0.005-0.022-0.005l-3.916-0.01c-0.055-0.099-0.106-0.19-0.106-0.19l0,0l-2.207-4.068
	c-0.077-0.142-0.217-0.218-0.365-0.233c-0.021-0.002-0.037-0.003-0.057-0.003c-0.021,0-0.037,0.001-0.057,0.003
	c-0.148,0.015-0.288,0.091-0.363,0.233L9.241,9.93H9.24c0,0-0.05,0.091-0.105,0.187l-3.896,0.013c-0.007,0-0.013,0.003-0.021,0.003
	c-0.04,0.003-0.082,0.013-0.122,0.027c-0.011,0.003-0.023,0-0.033,0.006c-0.05,0.02-0.093,0.052-0.131,0.087
	c-0.005,0.005-0.012,0.006-0.019,0.013c-0.003,0.005-0.006,0.01-0.012,0.019c-0.035,0.037-0.066,0.082-0.085,0.13
	c-0.001,0-0.001,0.001-0.001,0.003H4.812c-0.02,0.05-0.028,0.104-0.03,0.157c0,0.015,0.002,0.028,0.002,0.043
	c0.003,0.043,0.011,0.088,0.028,0.131c0.001,0.007,0.001,0.012,0.003,0.019c0.002,0.003,0.005,0.005,0.005,0.008
	c0.023,0.053,0.051,0.105,0.096,0.146c0.015,0.017,0.074,0.072,0.139,0.133l3.177,3.146c0,0,0.075,0.108,0.053,0.266l0,0l0,0
	L7.73,15.769l-0.01,0.003l-1.196,2.804c-0.037,0.08-0.07,0.157-0.079,0.177c-0.025,0.055-0.031,0.113-0.035,0.172
	c0.001,0.003-0.002,0.007-0.002,0.01c0,0.007,0.003,0.01,0.003,0.019c0.003,0.045,0.012,0.09,0.025,0.133
	c0.005,0.014,0.008,0.025,0.015,0.039c0.021,0.05,0.048,0.095,0.086,0.135c0,0,0,0,0.002,0c0,0.001,0.001,0.001,0.001,0.003
	c0.037,0.037,0.082,0.066,0.128,0.09c0.008,0.004,0.012,0.007,0.02,0.012c0.005,0.002,0.013,0.002,0.02,0.005
	c0.048,0.017,0.1,0.028,0.155,0.03c0.01,0,0.021-0.005,0.033-0.007c0.042,0,0.083-0.008,0.122-0.02
	c0.008-0.004,0.015-0.004,0.022-0.007l3.372-1.354c0.68-0.267,1.27-0.498,1.521-0.598l4.788,1.919
	c0.005,0.001,0.014,0.001,0.021,0.003c0.04,0.012,0.081,0.021,0.123,0.021c0.012,0,0.021,0.007,0.033,0.007
	c0.054-0.002,0.104-0.013,0.153-0.031c0.008-0.004,0.015-0.002,0.021-0.005c0.009-0.002,0.012-0.011,0.019-0.014
	c0.048-0.021,0.093-0.05,0.13-0.088c0,0,0-0.002,0.002-0.002l0,0c0.038-0.04,0.066-0.087,0.088-0.135
	c0.005-0.014,0.009-0.025,0.014-0.04c0.015-0.042,0.023-0.087,0.024-0.132c0-0.005,0.004-0.014,0.004-0.019
	s-0.002-0.007-0.002-0.012c-0.002-0.057-0.01-0.114-0.033-0.17c-0.009-0.021-1.839-4.286-1.839-4.286l0,0l0,0
	c-0.047-0.109,0.046-0.225,0.048-0.225h0.002h-0.002l3.177-3.147c0.065-0.062,0.123-0.117,0.139-0.135
	c0.043-0.043,0.073-0.093,0.097-0.145c0-0.003,0.003-0.005,0.005-0.01c0.001-0.005,0.001-0.013,0.005-0.017
	c0.015-0.043,0.023-0.088,0.026-0.133c0-0.015,0.002-0.028,0-0.043C18.977,10.524,18.969,10.471,18.948,10.421z M14.561,13.868
	c-0.045,0.045-0.078,0.098-0.1,0.153l-0.006-0.002l0,0c-0.046,0.109-0.051,0.239,0,0.358c0,0,0.969,2.267,1.562,3.652l-3.872-1.525
	c-0.154-0.04-0.265-0.05-0.418,0l-1.124,0.438l-2.857,1.131c0.591-1.385,1.564-3.658,1.564-3.658c0.085-0.24,0.108-0.328-0.11-0.55
	c0,0-1.772-1.761-2.84-2.819l3.088-0.012v-0.006c0.152-0.012,0.293-0.092,0.37-0.235c0.008-0.015,1.364-2.512,2.052-3.777
	c0.687,1.265,2.044,3.762,2.051,3.777c0.081,0.15,0.233,0.229,0.392,0.235v0.01l3.088,0.01
	C16.333,12.107,14.561,13.868,14.561,13.868z"/>
</svg>
