<?xml version="1.0" encoding="utf-8"?>
<!-- Generator: Adobe Illustrator 16.0.0, SVG Export Plug-In . SVG Version: 6.00 Build 0)  -->
<!DOCTYPE svg PUBLIC "-//W3C//DTD SVG 1.1//EN" "http://www.w3.org/Graphics/SVG/1.1/DTD/svg11.dtd">
<svg version="1.1" id="Layer_1" xmlns="http://www.w3.org/2000/svg" xmlns:xlink="http://www.w3.org/1999/xlink" x="0px" y="0px"
	 width="24px" height="24px" viewBox="0 0 24 24" enable-background="new 0 0 24 24" xml:space="preserve">
<path fill="#FFFFFF" d="M18.948,9.162c-0.002-0.001-0.002-0.001-0.002-0.001c0-0.002,0-0.002,0-0.003
	c-0.02-0.048-0.051-0.092-0.086-0.131c-0.005-0.005-0.007-0.012-0.012-0.017C18.842,9.002,18.835,9,18.83,8.996
	c-0.038-0.035-0.082-0.065-0.132-0.086c-0.01-0.003-0.021-0.003-0.033-0.008c-0.038-0.014-0.08-0.022-0.121-0.025
	c-0.009,0-0.016-0.005-0.022-0.005l-3.916-0.01c-0.055-0.099-0.106-0.19-0.106-0.19l0,0l-2.207-4.068
	c-0.077-0.142-0.217-0.218-0.365-0.233c-0.021-0.002-0.037-0.003-0.057-0.003c-0.021,0-0.037,0.001-0.057,0.003
	c-0.148,0.015-0.288,0.091-0.363,0.233L9.241,8.671H9.24c0,0-0.05,0.091-0.105,0.187L5.238,8.871c-0.007,0-0.013,0.003-0.021,0.003
	c-0.04,0.003-0.082,0.013-0.122,0.027c-0.011,0.003-0.023,0-0.033,0.006c-0.05,0.02-0.093,0.052-0.131,0.087
	C4.925,8.999,4.918,9,4.912,9.007C4.908,9.012,4.905,9.017,4.9,9.026c-0.035,0.037-0.066,0.082-0.085,0.13
	c-0.001,0-0.001,0.001-0.001,0.003H4.812c-0.02,0.05-0.028,0.104-0.03,0.157c0,0.015,0.002,0.028,0.002,0.043
	C4.787,9.402,4.795,9.447,4.812,9.49c0.001,0.007,0.001,0.012,0.003,0.019C4.817,9.512,4.82,9.514,4.82,9.517
	C4.843,9.57,4.872,9.622,4.917,9.664C4.932,9.68,4.99,9.735,5.055,9.797l3.177,3.147c0,0,0.075,0.107,0.053,0.265l0,0l0,0
	L7.73,14.51l-0.01,0.002l-1.196,2.805c-0.037,0.08-0.07,0.156-0.079,0.176c-0.025,0.055-0.031,0.113-0.035,0.172
	c0.001,0.004-0.002,0.008-0.002,0.01c0,0.008,0.003,0.01,0.003,0.02c0.003,0.045,0.012,0.09,0.025,0.133
	c0.005,0.014,0.008,0.025,0.015,0.039C6.474,17.914,6.501,17.959,6.539,18c0,0,0,0,0.002,0c0,0,0.001,0,0.001,0.002
	c0.037,0.037,0.082,0.066,0.128,0.09c0.008,0.004,0.012,0.008,0.02,0.012c0.005,0.002,0.013,0.002,0.02,0.006
	c0.048,0.016,0.1,0.027,0.155,0.029c0.01,0,0.021-0.004,0.033-0.006c0.042,0,0.083-0.008,0.122-0.02
	c0.008-0.004,0.015-0.004,0.022-0.008l3.372-1.354c0.68-0.268,1.27-0.498,1.521-0.598l4.788,1.918
	c0.005,0.002,0.014,0.002,0.021,0.004c0.04,0.012,0.081,0.02,0.123,0.021c0.012,0,0.021,0.006,0.033,0.006
	c0.054-0.002,0.104-0.012,0.153-0.031c0.008-0.004,0.015-0.002,0.021-0.004c0.009-0.002,0.012-0.012,0.019-0.014
	c0.048-0.021,0.093-0.051,0.13-0.088c0,0,0-0.002,0.002-0.002l0,0c0.038-0.041,0.066-0.088,0.088-0.135
	c0.005-0.014,0.009-0.025,0.014-0.041c0.015-0.041,0.023-0.086,0.024-0.131c0-0.006,0.004-0.014,0.004-0.02
	c0-0.004-0.002-0.006-0.002-0.012c-0.002-0.057-0.01-0.113-0.033-0.17c-0.009-0.021-1.839-4.285-1.839-4.285l0,0l0,0
	c-0.047-0.109,0.046-0.224,0.048-0.224h0.002h-0.002L18.705,9.8c0.065-0.062,0.123-0.117,0.139-0.135
	c0.043-0.043,0.073-0.093,0.097-0.145c0-0.003,0.003-0.005,0.005-0.01c0.001-0.005,0.001-0.013,0.005-0.017
	c0.015-0.043,0.023-0.088,0.026-0.133c0-0.015,0.002-0.028,0-0.043C18.977,9.266,18.969,9.212,18.948,9.162z M14.561,12.61
	c-0.045,0.045-0.078,0.098-0.1,0.152l-0.006-0.002l0,0c-0.046,0.109-0.051,0.24,0,0.359c0,0,0.969,2.266,1.562,3.652l-3.872-1.525
	c-0.154-0.041-0.265-0.051-0.418,0l-1.124,0.438l-2.857,1.131c0.591-1.385,1.564-3.658,1.564-3.658
	c0.085-0.24,0.108-0.328-0.11-0.548c0,0-1.772-1.761-2.84-2.819l3.088-0.012V9.771C9.6,9.759,9.741,9.679,9.818,9.536
	c0.008-0.015,1.364-2.512,2.052-3.777c0.687,1.265,2.044,3.762,2.051,3.777c0.081,0.15,0.233,0.229,0.392,0.235v0.01l3.088,0.01
	C16.333,10.848,14.561,12.61,14.561,12.61z"/>
</svg>
