<?xml version="1.0" encoding="utf-8"?>
<!-- Generator: Adobe Illustrator 16.0.0, SVG Export Plug-In . SVG Version: 6.00 Build 0)  -->
<!DOCTYPE svg PUBLIC "-//W3C//DTD SVG 1.1//EN" "http://www.w3.org/Graphics/SVG/1.1/DTD/svg11.dtd">
<svg version="1.1" id="Layer_1" xmlns="http://www.w3.org/2000/svg" xmlns:xlink="http://www.w3.org/1999/xlink" x="0px" y="0px"
	 width="31.516px" height="24px" viewBox="-4.315 0 31.516 24" enable-background="new -4.315 0 31.516 24" xml:space="preserve">
<path fill="#FFFFFF" d="M27.201,16.803c0-3.078-1.85-5.691-4.432-6.676c1.039-0.719,1.723-1.918,1.723-3.277
	c0-2.2-1.782-3.983-3.982-3.983c-2.199,0-3.982,1.784-3.982,3.983c0,1.359,0.685,2.558,1.725,3.277
	c-1.43,0.544-2.607,1.609-3.396,2.955c-0.35-0.215-0.711-0.408-1.096-0.555c1.04-0.719,1.725-1.917,1.725-3.276
	c0-2.199-1.782-3.983-3.982-3.983S7.517,7.051,7.517,9.251c0,1.36,0.684,2.558,1.724,3.276c-0.353,0.135-0.688,0.305-1.011,0.496
	C7.448,11.52,6.178,10.34,4.634,9.751c1.04-0.719,1.724-1.917,1.724-3.277c0-2.199-1.782-3.983-3.982-3.983
	s-3.982,1.783-3.982,3.983c0,1.36,0.684,2.558,1.723,3.277c-2.582,0.984-4.432,3.599-4.432,6.677h9.678
	c-0.345,0.854-0.554,1.786-0.554,2.775h13.382c0-0.846-0.149-1.65-0.405-2.4H27.201L27.201,16.803z M17.677,6.85
	c0-1.562,1.271-2.833,2.833-2.833c1.563,0,2.833,1.271,2.833,2.833c0,1.563-1.271,2.834-2.833,2.834
	C18.948,9.684,17.677,8.412,17.677,6.85z M20.51,10.854c2.689,0,4.938,2.066,5.438,4.798h-8.677
	c-0.394-0.715-0.896-1.35-1.494-1.877C16.744,12.036,18.49,10.854,20.51,10.854z M8.667,9.251c0-1.562,1.271-2.833,2.833-2.833
	c1.563,0,2.833,1.271,2.833,2.833c0,1.563-1.271,2.833-2.833,2.833C9.938,12.084,8.667,10.813,8.667,9.251z M-0.458,6.475
	c0-1.562,1.271-2.833,2.833-2.833s2.833,1.271,2.833,2.833c0,1.563-1.271,2.833-2.833,2.833S-0.458,8.037-0.458,6.475z
	 M-3.063,15.277c0.5-2.732,2.748-4.799,5.438-4.799c2.143,0,3.986,1.325,4.907,3.241c-0.517,0.446-0.967,0.971-1.339,1.559H-3.063
	L-3.063,15.277z M6.062,18.053c0.501-2.732,2.749-4.799,5.438-4.799c2.689,0,4.938,2.066,5.438,4.799H6.062z"/>
</svg>
