<?xml version="1.0" encoding="utf-8"?>
<!-- Generator: Adobe Illustrator 19.1.1, SVG Export Plug-In . SVG Version: 6.00 Build 0)  -->
<svg version="1.1" xmlns="http://www.w3.org/2000/svg" xmlns:xlink="http://www.w3.org/1999/xlink" x="0px" y="0px"
	 viewBox="0 0 23 23" style="enable-background:new 0 0 23 23;" xml:space="preserve">
<style type="text/css">
	.st0{display:none;}
	.st1{display:inline;}
	.st2{fill:#231F20;}
	.st3{fill:#FB5C43;}
	.st4{fill:none;stroke:#231F20;stroke-width:1.15;stroke-linecap:round;stroke-linejoin:round;stroke-miterlimit:10;}
	.st5{fill:none;stroke:#231F20;stroke-width:1.15;stroke-linecap:round;stroke-miterlimit:10;}
	
		.st6{display:inline;fill:none;stroke:#231F20;stroke-width:1.25;stroke-linecap:round;stroke-linejoin:round;stroke-miterlimit:10;}
	.st7{fill:none;stroke:#231F20;stroke-width:1.25;stroke-linecap:round;stroke-linejoin:round;stroke-miterlimit:10;}
</style>
<g id="Layer_1" class="st0">
	<g class="st1">
		<path class="st2" d="M11.5,6.6c-2.7,0-4.8,2.2-4.8,4.8c0,2.7,2.2,4.8,4.8,4.8c2.7,0,4.8-2.2,4.8-4.8C16.3,8.8,14.2,6.6,11.5,6.6z
			 M11.5,15.3c-2.1,0-3.8-1.7-3.8-3.8c0-2.1,1.7-3.8,3.8-3.8c2.1,0,3.8,1.7,3.8,3.8C15.2,13.6,13.6,15.3,11.5,15.3z"/>
		<path class="st2" d="M11.5,5.7c0.3,0,0.5-0.2,0.5-0.5V4.9h0c0-0.6,0-1,0-1c0-0.3-0.2-0.5-0.5-0.5c-0.3,0-0.5,0.2-0.5,0.5v0.2h0
			c0,0.6,0,1,0,1C11,5.4,11.2,5.7,11.5,5.7z"/>
		<path class="st2" d="M11.5,17.2c-0.3,0-0.5,0.2-0.5,0.5V18h0c0,0.6,0,1,0,1c0,0.3,0.2,0.5,0.5,0.5c0.3,0,0.5-0.2,0.5-0.5v-0.2h0
			c0-0.6,0-1,0-1C12,17.5,11.8,17.2,11.5,17.2z"/>
		<path class="st2" d="M19,10.9h-0.2v0c-0.6,0-1,0-1,0c-0.3,0-0.5,0.2-0.5,0.5c0,0.3,0.2,0.5,0.5,0.5H18v0c0.6,0,1,0,1,0
			c0.3,0,0.5-0.2,0.5-0.5C19.5,11.2,19.3,10.9,19,10.9z"/>
		<path class="st2" d="M5.1,10.9l-1.2,0c-0.3,0-0.5,0.2-0.5,0.5c0,0.3,0.2,0.5,0.5,0.5h0.2l1,0c0.3,0,0.5-0.2,0.5-0.5
			C5.7,11.2,5.4,10.9,5.1,10.9z"/>
		<path class="st2" d="M6.3,15.2l-0.2,0.2l0,0c-0.4,0.4-0.7,0.7-0.7,0.7c-0.2,0.2-0.2,0.6,0,0.8c0.2,0.2,0.6,0.2,0.8,0l0.2-0.2l0,0
			C6.8,16.3,7,16,7,16c0.2-0.2,0.2-0.6,0-0.8C6.8,15,6.5,15,6.3,15.2z"/>
		<path class="st2" d="M16.4,5.5l-0.2,0.2l0,0c-0.4,0.4-0.7,0.7-0.7,0.7c-0.2,0.2-0.2,0.6,0,0.8c0.2,0.2,0.6,0.2,0.8,0L16.4,7l0,0
			c0.4-0.4,0.7-0.7,0.7-0.7c0.2-0.2,0.2-0.6,0-0.8C16.9,5.3,16.6,5.3,16.4,5.5z"/>
		<path class="st2" d="M8.3,16.9l-0.1,0.2l0,0c-0.2,0.5-0.4,0.9-0.4,0.9c-0.1,0.3,0,0.6,0.3,0.7c0.3,0.1,0.6,0,0.7-0.3l0.1-0.2h0
			c0.2-0.5,0.4-0.9,0.4-0.9c0.1-0.3,0-0.6-0.3-0.7C8.7,16.5,8.4,16.7,8.3,16.9z"/>
		<path class="st2" d="M13.9,4.1l-0.1,0.2l0,0c-0.2,0.5-0.4,0.9-0.4,0.9c-0.1,0.3,0,0.6,0.3,0.7c0.3,0.1,0.6,0,0.7-0.3l0.1-0.2l0,0
			c0.2-0.5,0.4-0.9,0.4-0.9c0.1-0.3,0-0.6-0.3-0.7C14.3,3.7,14,3.9,13.9,4.1z"/>
		<path class="st2" d="M15.1,10.9l-2.4,0c-0.3,0-0.5,0.2-0.5,0.5c0,0.3,0.2,0.5,0.5,0.5l0.2,0c0.6,0,2.1,0,2.1,0
			c0.3,0,0.5-0.2,0.5-0.5C15.7,11.2,15.4,10.9,15.1,10.9z"/>
		<path class="st2" d="M12,12.9c0-0.3-0.2-0.5-0.5-0.5c-0.3,0-0.5,0.2-0.5,0.5l0,2.2c0,0.3,0.2,0.5,0.5,0.5c0.3,0,0.5-0.2,0.5-0.5
			L12,12.9z"/>
		<path class="st2" d="M10.3,10.9l-2.4,0c-0.3,0-0.5,0.2-0.5,0.5c0,0.3,0.2,0.5,0.5,0.5l0.2,0c0.6,0,2.1,0,2.1,0
			c0.3,0,0.5-0.2,0.5-0.5C10.9,11.2,10.6,10.9,10.3,10.9z"/>
		<path class="st2" d="M12,7.8c0-0.3-0.2-0.5-0.5-0.5c-0.3,0-0.5,0.2-0.5,0.5l0,2.2c0,0.3,0.2,0.5,0.5,0.5c0.3,0,0.5-0.2,0.5-0.5
			L12,7.8z"/>
		<path class="st2" d="M9.2,4.1l0.1,0.2l0,0c0.2,0.5,0.4,0.9,0.4,0.9c0.1,0.3,0,0.6-0.3,0.7C9.1,6.1,8.8,6,8.6,5.7L8.6,5.5l0,0
			C8.3,4.9,8.2,4.6,8.2,4.6C8.1,4.3,8.2,4,8.5,3.8C8.7,3.7,9.1,3.9,9.2,4.1z"/>
		<path class="st2" d="M14.4,17.2l0.1,0.2l0,0c0.2,0.5,0.4,0.9,0.4,0.9c0.1,0.3,0,0.6-0.3,0.7c-0.3,0.1-0.6,0-0.7-0.3l-0.1-0.2h0
			c-0.2-0.5-0.4-0.9-0.4-0.9c-0.1-0.3,0-0.6,0.3-0.7C14,16.8,14.3,16.9,14.4,17.2z"/>
		<path class="st2" d="M16.3,15.8l0.2,0.2l0,0c0.4,0.4,0.7,0.7,0.7,0.7c0.2,0.2,0.2,0.6,0,0.8c-0.2,0.2-0.6,0.2-0.8,0l-0.2-0.2l0,0
			c-0.4-0.4-0.7-0.7-0.7-0.7c-0.2-0.2-0.2-0.6,0-0.8C15.7,15.6,16.1,15.6,16.3,15.8z"/>
		<path class="st2" d="M6.4,5.5l0.2,0.2l0,0C7,6.1,7.2,6.4,7.2,6.4c0.2,0.2,0.2,0.6,0,0.8C7,7.4,6.7,7.4,6.5,7.1L6.3,7l0,0
			C5.9,6.6,5.6,6.3,5.6,6.3c-0.2-0.2-0.2-0.6,0-0.8C5.8,5.3,6.2,5.3,6.4,5.5z"/>
		<path class="st2" d="M5.2,9.4L5,9.3l0,0C4.4,9,4.1,8.9,4.1,8.9C3.8,8.8,3.7,8.5,3.8,8.2c0.1-0.3,0.4-0.4,0.7-0.3L4.7,8l0,0
			c0.5,0.2,0.9,0.4,0.9,0.4C5.9,8.5,6,8.8,5.9,9.1C5.8,9.3,5.5,9.5,5.2,9.4z"/>
		<path class="st2" d="M18.3,14.9l-0.2-0.1l0,0c-0.5-0.2-0.9-0.4-0.9-0.4c-0.3-0.1-0.4-0.4-0.3-0.7c0.1-0.3,0.4-0.4,0.7-0.3l0.2,0.1
			l0,0c0.5,0.2,0.9,0.4,0.9,0.4c0.3,0.1,0.4,0.4,0.3,0.7C18.9,14.9,18.6,15,18.3,14.9z"/>
		<path class="st2" d="M5.3,13.4l-0.2,0.1l0,0c-0.6,0.2-1,0.3-1,0.3c-0.3,0.1-0.5,0.4-0.4,0.7c0.1,0.3,0.4,0.5,0.7,0.4l0.2-0.1l0,0
			c0.6-0.2,1-0.3,1-0.3C5.9,14.3,6,14,6,13.8C5.9,13.5,5.6,13.3,5.3,13.4z"/>
		<path class="st2" d="M18.2,8L18,8.1l0,0c-0.6,0.2-1,0.3-1,0.3c-0.3,0.1-0.5,0.4-0.4,0.7c0.1,0.3,0.4,0.5,0.7,0.4l0.2-0.1l0,0
			c0.6-0.2,1-0.3,1-0.3C18.8,9,19,8.7,18.9,8.4C18.8,8.1,18.5,7.9,18.2,8z"/>
	</g>
</g>
<g id="Layer_2" class="st0">
	<g class="st1">
		<path class="st2" d="M17.1,7.8c0.3,0,0.5-0.2,0.5-0.5c0-0.3-0.2-0.5-0.5-0.5l0,0H5.9l0,0C5.6,6.7,5.4,7,5.4,7.3
			c0,0.3,0.2,0.5,0.5,0.5H17.1z"/>
		<path class="st2" d="M17.2,13.4H6.1c-0.3,0-0.5,0.2-0.5,0.5c0,0.3,0.2,0.5,0.5,0.5h11.1c0.3,0,0.5-0.2,0.5-0.5
			C17.8,13.7,17.5,13.4,17.2,13.4z"/>
		<path class="st2" d="M6.1,10.1H10c0.3,0,0.5-0.2,0.5-0.5C10.6,9.3,10.3,9,10,9H6.1C5.8,9,5.6,9.3,5.6,9.6
			C5.6,9.9,5.8,10.1,6.1,10.1z"/>
		<path class="st2" d="M6.1,12.4h6.4c0.3,0,0.5-0.2,0.5-0.5c0-0.3-0.2-0.5-0.5-0.5l0,0H6.1l0,0c-0.3,0-0.5,0.2-0.5,0.5
			C5.6,12.2,5.8,12.4,6.1,12.4z"/>
		<path class="st2" d="M10,15.7H6.1c-0.3,0-0.5,0.2-0.5,0.5c0,0.3,0.2,0.5,0.5,0.5H10c0.3,0,0.5-0.2,0.5-0.5
			C10.6,15.9,10.3,15.7,10,15.7z"/>
	</g>
</g>
<g id="Layer_3" class="st0">
	<g class="st1">
		<path class="st2" d="M17.2,13.5c0-0.3-0.2-0.5-0.5-0.5c-0.1,0-0.4,0.2-0.8,0.4c-0.5,0.2-1.1,0.3-1.5,0.3c-1.9,0-3.5-1.6-3.5-3.5
			c0-1.1,0.5-2.1,1.3-2.7l0,0c0.1,0,0.8-0.4,0.8-0.7c0-0.3-0.2-0.5-0.4-0.5c0,0,0,0,0,0c0,0,0,0-0.1,0c0,0,0,0,0,0c0,0,0,0,0,0
			c0,0,0,0,0,0C9.4,6.2,7,8.6,7,11.5s2.4,5.3,5.3,5.3c2,0,3.7-1.1,4.6-2.7C17,14,17.2,13.6,17.2,13.5z M12.3,15.8
			c-2.4,0-4.3-1.9-4.3-4.3c0-1.8,1.1-3.3,2.6-4c-0.5,0.7-0.8,1.6-0.8,2.6c0,2.5,2,4.5,4.5,4.5c0.4,0,0.7,0,1.1-0.1
			C14.6,15.3,13.5,15.8,12.3,15.8z"/>
	</g>
</g>
<g id="Layer_4" class="st0">
	<g class="st1">
		<path class="st2" d="M5.9,7.7h11.1c0.3,0,0.5-0.2,0.5-0.5s-0.2-0.5-0.5-0.5l0,0H5.9l0,0c-0.3,0-0.5,0.2-0.5,0.5S5.6,7.7,5.9,7.7z"
			/>
		<path class="st2" d="M17.1,15.4L17.1,15.4H5.9l0,0c-0.3,0-0.5,0.2-0.5,0.5c0,0.3,0.2,0.5,0.5,0.5h11.1c0.3,0,0.5-0.2,0.5-0.5
			C17.6,15.7,17.4,15.4,17.1,15.4z"/>
		<path class="st2" d="M8.5,12.2C8.4,12.3,8.4,12.3,8.5,12.2c-0.1,0.1-0.1,0.1-0.1,0.1c0,0.1-0.1,0.1-0.1,0.1c0,0,0,0,0,0
			c0,0.1,0,0.1,0,0.2c0,0,0,0,0,0c0,0,0,0,0,0c0,0.3,0.3,0.6,0.6,0.6c0,0,0,0,0,0c0,0,0,0,0,0c0,0,0.1,0,0.1,0c0,0,0.1,0,0.1,0
			c0.1,0,0.1-0.1,0.1-0.1c0,0,1.1-1.1,2.3-2.3c1.2,1.2,2.3,2.3,2.3,2.3c0,0,0,0,0.1,0.1c0,0,0.1,0,0.1,0c0,0,0.1,0,0.1,0
			c0,0,0,0,0,0c0,0,0,0,0,0c0.3,0,0.6-0.3,0.6-0.6c0,0,0,0,0,0c0,0,0,0,0,0c0-0.1,0-0.1,0-0.2c0,0,0,0,0,0c0,0-0.1-0.1-0.1-0.1
			c0,0,0,0,0,0c0,0,0-0.1-0.1-0.1l-3-3L8.5,12.2z"/>
	</g>
</g>
<g id="Layer_5" class="st0">
	<g class="st1">
		<g>
			<path class="st2" d="M10.8,6.4H5.9v0c-0.3,0-0.5,0.2-0.5,0.5c0,0.3,0.2,0.5,0.5,0.5h4.8V6.4z"/>
			<path class="st2" d="M17.1,6.4L17.1,6.4l-4.8,0v1.1h4.8c0.3,0,0.5-0.2,0.5-0.5C17.6,6.6,17.4,6.4,17.1,6.4z"/>
		</g>
		<g>
			<path class="st2" d="M10.8,15.7H5.9l0,0c-0.3,0-0.5,0.2-0.5,0.5c0,0.3,0.2,0.5,0.5,0.5h4.8V15.7z"/>
			<path class="st2" d="M17.1,15.7L17.1,15.7h-4.8v1.1h4.8c0.3,0,0.5-0.2,0.5-0.5C17.6,15.9,17.4,15.7,17.1,15.7z"/>
		</g>
		<g>
			<path class="st2" d="M10.8,8.8H5.9l0,0C5.6,8.8,5.4,9,5.4,9.3c0,0.3,0.2,0.5,0.5,0.5h4.8V8.8z"/>
			<path class="st2" d="M17.1,8.8L17.1,8.8h-4.8v1.1h4.8c0.3,0,0.5-0.2,0.5-0.5C17.6,9,17.4,8.8,17.1,8.8z"/>
		</g>
		<g>
			<path class="st2" d="M17.1,11.1L17.1,11.1h-4.8v1.1h4.8c0.3,0,0.5-0.2,0.5-0.5C17.6,11.4,17.4,11.1,17.1,11.1z"/>
			<path class="st2" d="M10.8,11.1H5.9l0,0c-0.3,0-0.5,0.2-0.5,0.5c0,0.3,0.2,0.5,0.5,0.5h4.8V11.1z"/>
		</g>
		<g>
			<path class="st2" d="M10.8,13.4H5.9l0,0c-0.3,0-0.5,0.2-0.5,0.5c0,0.3,0.2,0.5,0.5,0.5h4.8V13.4z"/>
			<path class="st2" d="M17.1,13.4L17.1,13.4h-4.8v1.1h4.8c0.3,0,0.5-0.2,0.5-0.5C17.6,13.7,17.4,13.4,17.1,13.4z"/>
		</g>
	</g>
</g>
<g id="Layer_6" class="st0">
	<g class="st1">
		<path class="st2" d="M5.8,7.4h11.4c0.3,0,0.6-0.2,0.6-0.6s-0.2-0.6-0.6-0.6l0,0H5.8l0,0c-0.3,0-0.6,0.2-0.6,0.6S5.5,7.4,5.8,7.4z"
			/>
		<path class="st2" d="M17.2,8.7L17.2,8.7H5.8l0,0c-0.3,0-0.6,0.2-0.6,0.6c0,0.3,0.2,0.6,0.6,0.6h11.4c0.3,0,0.6-0.2,0.6-0.6
			C17.7,8.9,17.5,8.7,17.2,8.7z"/>
		<path class="st2" d="M17.2,11.1L17.2,11.1H5.8l0,0c-0.3,0-0.6,0.2-0.6,0.6c0,0.3,0.2,0.6,0.6,0.6h11.4c0.3,0,0.6-0.2,0.6-0.6
			C17.7,11.3,17.5,11.1,17.2,11.1z"/>
		<path class="st2" d="M17.2,13.5L17.2,13.5H5.8l0,0c-0.3,0-0.6,0.2-0.6,0.6c0,0.3,0.2,0.6,0.6,0.6h11.4c0.3,0,0.6-0.2,0.6-0.6
			C17.7,13.7,17.5,13.5,17.2,13.5z"/>
		<path class="st2" d="M17.2,15.8L17.2,15.8l-11.4,0v0c-0.3,0-0.6,0.2-0.6,0.6c0,0.3,0.2,0.6,0.6,0.6h11.4c0.3,0,0.6-0.2,0.6-0.6
			C17.7,16,17.5,15.8,17.2,15.8z"/>
	</g>
</g>
<g id="Layer_7" class="st0">
	<g class="st1">
		<path class="st2" d="M17.1,7.8c0.3,0,0.5-0.2,0.5-0.5c0-0.3-0.2-0.5-0.5-0.5l0,0H5.9l0,0C5.6,6.7,5.4,7,5.4,7.3
			c0,0.3,0.2,0.5,0.5,0.5H17.1z"/>
		<path class="st2" d="M17.2,13.4H6.1c-0.3,0-0.5,0.2-0.5,0.5c0,0.3,0.2,0.5,0.5,0.5h11.1c0.3,0,0.5-0.2,0.5-0.5
			C17.8,13.7,17.5,13.4,17.2,13.4z"/>
		<path class="st2" d="M6.1,10.1H10c0.3,0,0.5-0.2,0.5-0.5C10.6,9.3,10.3,9,10,9H6.1C5.8,9,5.6,9.3,5.6,9.6
			C5.6,9.9,5.8,10.1,6.1,10.1z"/>
		<path class="st2" d="M6.1,12.4h6.4c0.3,0,0.5-0.2,0.5-0.5c0-0.3-0.2-0.5-0.5-0.5v0H6.1v0c-0.3,0-0.5,0.2-0.5,0.5
			C5.6,12.2,5.8,12.4,6.1,12.4z"/>
		<path class="st2" d="M13.1,10.1h3.9c0.3,0,0.5-0.2,0.5-0.5c0-0.3-0.2-0.5-0.5-0.5h-3.9c-0.3,0-0.5,0.2-0.5,0.5
			C12.6,9.9,12.8,10.1,13.1,10.1z"/>
		<path class="st2" d="M17.1,11.3L17.1,11.3h-2H15c-0.3,0-0.5,0.2-0.5,0.5c0,0.3,0.2,0.5,0.5,0.5h0.1H17h0.1c0.3,0,0.5-0.2,0.5-0.5
			C17.6,11.6,17.4,11.3,17.1,11.3z"/>
		<path class="st2" d="M10.7,16.6h6.4c0.3,0,0.5-0.2,0.5-0.5c0-0.3-0.2-0.5-0.5-0.5v0h-6.4v0c-0.3,0-0.5,0.2-0.5,0.5
			C10.2,16.3,10.4,16.6,10.7,16.6z"/>
		<path class="st2" d="M8.1,15.5L8.1,15.5h-2H6.1c-0.3,0-0.5,0.2-0.5,0.5c0,0.3,0.2,0.5,0.5,0.5h0.1h1.9h0.1c0.3,0,0.5-0.2,0.5-0.5
			C8.7,15.7,8.4,15.5,8.1,15.5z"/>
	</g>
</g>
<g id="Layer_8" class="st0">
	<g class="st1">
		<g>
			<path class="st2" d="M17.5,9.6h-4.3l0,0c-0.3,0-0.5,0.2-0.5,0.5c0,0.3,0.2,0.5,0.5,0.5h4.3v0c0.3,0,0.5-0.2,0.5-0.5
				C18.1,9.8,17.8,9.6,17.5,9.6z"/>
			<path class="st2" d="M14.8,7.9v4.3h0c0,0.3,0.2,0.5,0.5,0.5c0.3,0,0.5-0.2,0.5-0.5V7.9h0c0-0.3-0.2-0.5-0.5-0.5
				C15.1,7.3,14.8,7.6,14.8,7.9z"/>
		</g>
		<path class="st2" d="M17.5,13.7h-4.3l0,0c-0.3,0-0.5,0.2-0.5,0.5c0,0.3,0.2,0.5,0.5,0.5h4.3l0,0c0.3,0,0.5-0.2,0.5-0.5
			C18.1,13.9,17.8,13.7,17.5,13.7z"/>
		<path class="st2" d="M8.6,6.1L8.6,6.1C8.6,6.1,8.6,6.1,8.6,6.1C8.6,6,8.5,6,8.5,6c0,0,0-0.1-0.1-0.1c0,0,0,0-0.1-0.1
			c0,0-0.1,0-0.1-0.1c0,0-0.1,0-0.1,0c0,0-0.1,0-0.1,0c0,0-0.1,0-0.1,0c0,0-0.1,0-0.1,0c0,0-0.1,0-0.1,0.1c0,0,0,0-0.1,0.1
			c0,0,0,0.1-0.1,0.1c0,0,0,0,0,0.1c0,0-3.3,9.7-3.3,9.8c0,0.3,0.2,0.5,0.5,0.5c0.2,0,0.4-0.1,0.5-0.3c0,0,1.2-3.4,1.2-3.4h3.2
			l1.1,3.3h0c0.1,0.2,0.3,0.4,0.5,0.4c0.3,0,0.5-0.2,0.5-0.5C11.8,15.8,8.6,6.1,8.6,6.1z M6.8,11.7L8.1,8l1.2,3.7H6.8z"/>
	</g>
</g>
<g id="Layer_9" class="st0">
	<g class="st1">
		<path class="st2" d="M15.7,5.8c-0.3,0-0.5,0.2-0.5,0.5v9.8c-1.2-1.2-3.3-3.3-3.3-3.3c-0.1-0.1-0.3-0.2-0.4-0.2
			c-0.1,0-0.3,0-0.4,0.2c0,0-2.1,2.1-3.3,3.3V6.4c0-0.3-0.2-0.5-0.5-0.5C7,5.8,6.7,6.1,6.7,6.4v11.1c0,0,0,0,0,0c0,0,0,0.1,0,0.1
			c0,0,0,0,0,0c0,0.1,0.1,0.1,0.1,0.1c0,0,0,0,0,0c0,0,0,0,0,0C6.9,18,7,18,7,18c0,0,0,0,0,0c0,0,0,0,0,0c0.1,0,0.1,0,0.2,0
			c0,0,0,0,0,0c0.1,0,0.1,0,0.2,0c0,0,0,0,0,0c0,0,0,0,0,0c0.1,0,0.1-0.1,0.2-0.1c0,0,0.1-0.1,0.2-0.2l2.5-2.5v0l1.2-1.2l1.2,1.2v0
			l2.5,2.5c0.1,0.1,0.1,0.1,0.2,0.2c0.1,0,0.1,0.1,0.2,0.1c0,0,0,0,0,0c0,0,0,0,0,0c0.1,0,0.1,0,0.2,0c0,0,0,0,0,0
			c0.1,0,0.1,0,0.2,0c0,0,0,0,0,0c0,0,0,0,0,0c0.1,0,0.1-0.1,0.2-0.1c0,0,0,0,0,0c0,0,0,0,0,0c0,0,0.1-0.1,0.1-0.2c0,0,0,0,0,0
			c0,0,0-0.1,0-0.1c0,0,0,0,0,0V6.4C16.3,6.1,16,5.8,15.7,5.8z"/>
	</g>
</g>
<g id="Layer_10" class="st0">
	<g class="st1">
		<path class="st2" d="M5.4,7.7c0,0.3,0.2,0.5,0.5,0.5h9.8c-1.2,1.2-3.3,3.3-3.3,3.3c-0.1,0.1-0.2,0.3-0.2,0.4c0,0.1,0,0.3,0.2,0.4
			c0,0,2.1,2.1,3.3,3.3H5.9c-0.3,0-0.5,0.2-0.5,0.5c0,0.3,0.2,0.5,0.5,0.5h11.1c0,0,0,0,0,0c0,0,0.1,0,0.1,0c0,0,0,0,0,0
			c0.1,0,0.1-0.1,0.1-0.1c0,0,0,0,0,0c0,0,0,0,0,0c0,0,0.1-0.1,0.1-0.1c0,0,0,0,0,0l0,0c0-0.1,0-0.1,0-0.2c0,0,0,0,0,0
			c0-0.1,0-0.1,0-0.2c0,0,0,0,0,0c0,0,0,0,0,0c0-0.1-0.1-0.1-0.1-0.2c0,0-0.1-0.1-0.2-0.2l-2.5-2.5h0l-1.2-1.2l1.2-1.2h0l2.5-2.5
			c0.1-0.1,0.1-0.1,0.2-0.2c0.1,0,0.1-0.1,0.1-0.2c0,0,0,0,0,0c0,0,0,0,0,0c0-0.1,0-0.1,0-0.2c0,0,0,0,0,0c0-0.1,0-0.1,0-0.2
			c0,0,0,0,0,0c0,0,0,0,0,0c0-0.1-0.1-0.1-0.1-0.2c0,0,0,0,0,0c0,0,0,0,0,0c0,0-0.1-0.1-0.2-0.1c0,0,0,0,0,0c0,0-0.1,0-0.1,0
			c0,0,0,0,0,0H5.9C5.6,7.2,5.4,7.4,5.4,7.7z"/>
	</g>
</g>
<g id="Layer_11">
	<g>
		<path class="st3" d="M13.5,5.4c0,0,0-0.1,0-0.1c0,0,0,0,0,0c0-0.1,0-0.1,0-0.2c0,0,0,0,0,0c0-0.1,0.1-0.1,0.1-0.2c0,0,0,0,0,0
			c0,0,0,0,0,0c0.2-0.2,0.6-0.2,0.8,0c0,0,0,0,0,0c0,0,0,0,0,0c0,0,0.1,0.1,0.1,0.1c0,0,0,0.1,0.1,0.1c0,0.1,0,0.1,0,0.1
			c0,0,0,1.5,0,3.3c1.7,0,3.3,0,3.3,0c0,0,0.1,0,0.1,0c0,0,0.1,0,0.1,0.1c0,0,0.1,0,0.1,0.1c0,0,0,0,0,0c0,0,0,0,0,0
			c0.2,0.2,0.2,0.6,0,0.8c0,0,0,0,0,0c0,0,0,0,0,0c-0.1,0.1-0.1,0.1-0.2,0.1c0,0,0,0,0,0c-0.1,0-0.1,0-0.2,0c0,0,0,0,0,0
			c0,0-0.1,0-0.1,0l-4.3,0L13.5,5.4z"/>
		<path class="st3" d="M11,5.3c0-0.3,0.2-0.5,0.5-0.5C11.8,4.8,12,5,12,5.3c0,0,0,12.4,0,12.4c0,0.2-0.1,0.4-0.3,0.4
			c-0.1,0-0.1,0-0.2,0c-0.1,0-0.1,0-0.2,0c-0.2-0.1-0.3-0.2-0.3-0.4C11,17.7,11,5.3,11,5.3z"/>
		<path class="st3" d="M5.3,12c-0.3,0-0.5-0.2-0.5-0.5C4.8,11.2,5,11,5.3,11c0,0,12.4,0,12.4,0c0.2,0,0.4,0.1,0.4,0.3
			c0,0.1,0,0.1,0,0.2c0,0.1,0,0.1,0,0.2c-0.1,0.2-0.2,0.3-0.4,0.3C17.7,12,5.3,12,5.3,12z"/>
		<path class="st3" d="M9.8,17.5c0,0,0,0.1,0,0.1c0,0,0,0,0,0c0,0.1,0,0.1,0,0.2c0,0,0,0,0,0c0,0.1-0.1,0.1-0.1,0.2c0,0,0,0,0,0
			c0,0,0,0,0,0c-0.2,0.2-0.6,0.2-0.8,0c0,0,0,0,0,0c0,0,0,0,0,0c0,0-0.1-0.1-0.1-0.1c0,0,0-0.1,0-0.1c0-0.1,0-0.1,0-0.1
			c0,0,0-1.5,0-3.3c-1.7,0-3.3,0-3.3,0c0,0-0.1,0-0.1,0c0,0-0.1,0-0.1-0.1c0,0-0.1,0-0.1-0.1c0,0,0,0,0,0c0,0,0,0,0,0
			c-0.2-0.2-0.2-0.6,0-0.8c0,0,0,0,0,0c0,0,0,0,0,0c0.1-0.1,0.1-0.1,0.2-0.1c0,0,0,0,0,0c0.1,0,0.1,0,0.2,0c0,0,0,0,0,0
			c0,0,0.1,0,0.1,0l4.3,0L9.8,17.5z"/>
	</g>
</g>
<g id="Layer_12" class="st0">
	<g class="st1">
		<g>
			<g>
				<path class="st2" d="M15.9,5.1C15.9,5,15.9,5,15.9,5.1C16,5,16,5,16,5c0.1,0,0.1-0.1,0.1-0.1c0,0,0,0,0,0c0.1,0,0.1,0,0.2,0
					c0,0,0,0,0,0c0,0,0,0,0,0c0.3,0,0.6,0.3,0.6,0.6c0,0,0,0,0,0s0,0,0,0c0,0,0,0.1,0,0.1c0,0,0,0.1,0,0.1c0,0.1-0.1,0.1-0.1,0.1
					c0,0-5,5-5.7,5.7c0.7,0.7,5.7,5.7,5.7,5.7c0,0,0,0,0.1,0.1c0,0,0,0.1,0,0.1c0,0,0,0.1,0,0.1c0,0,0,0,0,0s0,0,0,0
					c0,0.3-0.3,0.6-0.6,0.6c0,0,0,0,0,0c0,0,0,0,0,0c-0.1,0-0.1,0-0.2,0c0,0,0,0,0,0c0,0-0.1-0.1-0.1-0.1c0,0,0,0,0,0
					c0,0-0.1,0-0.1-0.1l-6.4-6.4L15.9,5.1z"/>
				<path class="st2" d="M15.9,8.5C15.9,8.4,15.9,8.4,15.9,8.5C16,8.4,16,8.4,16,8.4c0.1,0,0.1-0.1,0.1-0.1c0,0,0,0,0,0
					c0.1,0,0.1,0,0.2,0c0,0,0,0,0,0c0,0,0,0,0,0c0.3,0,0.6,0.3,0.6,0.6c0,0,0,0,0,0c0,0,0,0,0,0c0,0,0,0.1,0,0.1c0,0,0,0.1,0,0.1
					c0,0.1-0.1,0.1-0.1,0.1c0,0-1.1,1.1-2.3,2.3c1.2,1.2,2.3,2.3,2.3,2.3c0,0,0,0,0.1,0.1c0,0,0,0.1,0,0.1c0,0.1,0,0.1,0,0.1
					c0,0,0,0,0,0c0,0,0,0,0,0c0,0.3-0.3,0.6-0.6,0.6c0,0,0,0,0,0c0,0,0,0,0,0c-0.1,0-0.1,0-0.2,0c0,0,0,0,0,0c0,0-0.1-0.1-0.1-0.1
					c0,0,0,0,0,0c0,0-0.1,0-0.1-0.1l-3-3L15.9,8.5z"/>
			</g>
			<path class="st2" d="M7.2,5.3c0-0.3,0.2-0.5,0.5-0.5C8,4.8,8.3,5,8.3,5.3c0,0,0,12.4,0,12.4c0,0.2-0.1,0.4-0.3,0.4
				c-0.1,0-0.1,0-0.2,0c-0.1,0-0.1,0-0.2,0c-0.2-0.1-0.3-0.2-0.3-0.4C7.2,17.7,7.2,5.3,7.2,5.3z"/>
		</g>
	</g>
</g>
<g id="Layer_13" class="st0">
	<g class="st1">
		<g>
			<circle class="st2" cx="10.5" cy="11.3" r="0.5"/>
			<circle class="st2" cx="7.5" cy="17" r="0.5"/>
			<circle class="st2" cx="7.5" cy="14.3" r="0.5"/>
			<path class="st2" d="M12,6.2C8.1,6.2,5,8.4,5,11.1c0,1.3,0.8,2.5,2,3.4l0,0c0,0,0,2.5,0,2.5c0,0.3,0.2,0.5,0.5,0.5
				c0.1,0,0.1,0,0.2,0c0,0,0,0,0,0l0,0c0,0,0,0,0,0l3.2-1.5c0,0,0.8,0.1,1.2,0.1c3.9,0,7.1-2.2,7.1-4.9C19.1,8.4,16,6.2,12,6.2z
				 M12,14.9c-0.5,0-0.9,0-1.4-0.1c0,0,0,0,0,0s-0.8,0.5-1.8,1c-1,0.6-0.9,0.3-0.9,0.3L8.1,14c0,0,0,0,0,0C6.8,13.3,6,12.3,6,11.1
				C6,9,8.7,7.3,12,7.3c3.3,0,6,1.7,6,3.8C18,13.2,15.4,14.9,12,14.9z"/>
			<circle class="st2" cx="12" cy="11.3" r="0.5"/>
			<circle class="st2" cx="13.6" cy="11.3" r="0.5"/>
		</g>
	</g>
</g>
<g id="Layer_14" class="st0">
	<g class="st1">
		<path class="st2" d="M18.1,9.4C18,7,15.9,5.2,13.6,5.3c-2.4,0.1-4.2,2.2-4.1,4.5c0,0.8,0.3,1.6,0.8,2.3l-5.2,4.6
			c-0.2,0.2-0.2,0.5,0,0.8c0.2,0.2,0.5,0.2,0.8,0l5.2-4.7c0.8,0.7,1.9,1.1,3,1C16.4,13.8,18.2,11.8,18.1,9.4z M14,12.8
			c-1.8,0.1-3.3-1.3-3.4-3c-0.1-1.8,1.3-3.3,3-3.4c1.8-0.1,3.3,1.3,3.4,3C17.1,11.2,15.7,12.7,14,12.8z"/>
	</g>
</g>
<g id="Layer_15" class="st0">
	<g class="st1">
		<path class="st2" d="M15.7,13.1c0,0,0.4,0.3,0.9-0.2c0.5-0.6,0.6,0.2,0.6,0.2l-0.4,1.1c0,0-0.8-0.1-0.8-0.1c0,0-0.4-0.2-0.4-0.2
			l-0.1-0.2L15.7,13.1z"/>
		<path class="st2" d="M18,11.5C18,7.9,15.1,5,11.5,5C7.9,5,5,7.9,5,11.5c0,3.6,2.9,6.5,6.5,6.5c0.9,0,1.7-0.2,2.5-0.5v0
			c0,0,0,0,0,0c0.3-0.1,0.7-0.3,1-0.5c0,0,0.1,0,0.1-0.1c0,0,0,0,0,0l0,0c0.1-0.1,0.2-0.3,0.2-0.5c0-0.3-0.3-0.6-0.6-0.6
			c-0.1,0-0.3,0-0.4,0.1l0,0c-0.1,0.1-0.2,0.1-0.3,0.1c-0.8,0.4-1.7,0.7-2.7,0.7c-3,0-5.4-2.4-5.4-5.4c0-3,2.4-5.4,5.4-5.4
			s5.4,2.4,5.4,5.4c0,0.5-0.1,0.9-0.2,1.3c-0.1,0.2-0.3,0.5-0.8,0.6c0,0,0,0,0,0c0,0,0,0,0,0c-0.4,0-0.8-0.4-0.8-0.8
			c0,0,0-0.1,0-0.2c0-0.3,0-0.5,0-0.8c0,0,0,0,0,0c0,0,0,0,0,0c0-1.5,0-3,0-3C15,8.2,14.8,8,14.5,8C14.2,8,14,8.2,14,8.5V9
			c-0.6-0.6-1.5-1-2.5-1C9.5,8,8,9.5,8,11.5c0,2,1.6,3.5,3.5,3.5c1,0,1.7-0.3,2.4-1c0,0,0.2-0.2,0.4-0.4l0,0c0,0,0.5,0.6,1.3,0.8
			c0,0,0,0,0,0c0,0,0,0,0,0c0,0,0,0,0,0c0.1,0,0.2,0,0.4,0c0.5,0,0.9-0.2,1.1-0.3c0.1,0,1-0.7,0.9-2.5C18,11.6,18,11.6,18,11.5z
			 M11.5,13.9c-1.3,0-2.4-1.1-2.4-2.4c0-1.3,1.1-2.4,2.4-2.4c1.3,0,2.4,1.1,2.4,2.4c0,0,0,0,0,0.1c0,0,0,0,0,0
			C13.9,12.9,12.8,13.9,11.5,13.9z"/>
	</g>
</g>
<g id="Layer_16" class="st0">
	<g class="st1">
		<path class="st2" d="M12.5,5.1C12.5,5.1,12.5,5.1,12.5,5.1c0.1-0.1,0.1-0.1,0.1-0.1c0,0,0.1-0.1,0.1-0.1c0,0,0,0,0,0
			c0.1,0,0.1,0,0.2,0c0,0,0,0,0,0c0,0,0,0,0,0c0.3,0,0.6,0.3,0.6,0.6c0,0,0,0,0,0s0,0,0,0c0,0,0,0.1,0,0.1c0,0,0,0.1,0,0.1
			c0,0.1-0.1,0.1-0.1,0.1c0,0-4.9,4.9-5.7,5.6c0.7,0.7,5.6,5.6,5.7,5.6c0,0,0,0.1,0.1,0.1c0,0,0,0.1,0,0.1c0,0.1,0,0.1,0,0.1
			c0,0,0,0,0,0c0,0,0,0,0,0c0,0.3-0.3,0.6-0.6,0.6c0,0,0,0,0,0c0,0,0,0,0,0c-0.1,0-0.1,0-0.2,0c0,0,0,0,0,0c0,0-0.1-0.1-0.1-0.1
			c0,0,0,0,0,0c0,0-0.1,0-0.1-0.1l-6.4-6.4L12.5,5.1z"/>
		<path class="st2" d="M12.5,8.5C12.5,8.5,12.5,8.5,12.5,8.5c0.1-0.1,0.1-0.1,0.1-0.1c0,0,0.1-0.1,0.1-0.1c0,0,0,0,0,0
			c0.1,0,0.1,0,0.2,0c0,0,0,0,0,0c0,0,0,0,0,0c0.3,0,0.6,0.3,0.6,0.6c0,0,0,0,0,0c0,0,0,0,0,0c0,0,0,0.1,0,0.1c0,0,0,0.1,0,0.1
			c0,0.1-0.1,0.1-0.1,0.1c0,0-1.1,1.1-2.3,2.3c1.2,1.2,2.3,2.3,2.3,2.3c0,0,0,0,0.1,0.1c0,0,0,0.1,0,0.1c0,0.1,0,0.1,0,0.1
			c0,0,0,0,0,0c0,0,0,0,0,0c0,0.3-0.3,0.6-0.6,0.6c0,0,0,0,0,0c0,0,0,0,0,0c-0.1,0-0.1,0-0.2,0c0,0,0,0,0,0c0,0-0.1-0.1-0.1-0.1
			c0,0,0,0,0,0c0,0-0.1,0-0.1-0.1l-3-3L12.5,8.5z"/>
	</g>
</g>
<g id="Layer_17" class="st0">
	<g class="st1">
		<path class="st2" d="M10.5,5.1C10.5,5,10.5,5,10.5,5.1C10.4,5,10.4,5,10.4,5c-0.1,0-0.1-0.1-0.1-0.1c0,0,0,0,0,0
			c-0.1,0-0.1,0-0.2,0c0,0,0,0,0,0c0,0,0,0,0,0c-0.3,0-0.6,0.3-0.6,0.6c0,0,0,0,0,0c0,0,0,0,0,0c0,0,0,0.1,0,0.1c0,0,0,0.1,0,0.1
			c0,0.1,0.1,0.1,0.1,0.1c0,0,5,5,5.7,5.7c-0.7,0.7-5.7,5.7-5.7,5.7c0,0,0,0-0.1,0.1c0,0,0,0.1,0,0.1c0,0,0,0.1,0,0.1c0,0,0,0,0,0
			c0,0,0,0,0,0c0,0.3,0.3,0.6,0.6,0.6c0,0,0,0,0,0c0,0,0,0,0,0c0.1,0,0.1,0,0.2,0c0,0,0,0,0,0c0,0,0.1-0.1,0.1-0.1c0,0,0,0,0,0
			c0,0,0.1,0,0.1-0.1l6.4-6.4L10.5,5.1z"/>
		<path class="st2" d="M10.5,8.5C10.5,8.4,10.5,8.4,10.5,8.5c-0.1-0.1-0.1-0.1-0.1-0.1c-0.1,0-0.1-0.1-0.1-0.1c0,0,0,0,0,0
			c-0.1,0-0.1,0-0.2,0c0,0,0,0,0,0c0,0,0,0,0,0c-0.3,0-0.6,0.3-0.6,0.6c0,0,0,0,0,0c0,0,0,0,0,0c0,0,0,0.1,0,0.1c0,0,0,0.1,0,0.1
			c0,0.1,0.1,0.1,0.1,0.1c0,0,1.1,1.1,2.3,2.3c-1.2,1.2-2.3,2.3-2.3,2.3c0,0,0,0.1-0.1,0.1c0,0,0,0.1,0,0.1c0,0.1,0,0.1,0,0.1
			c0,0,0,0,0,0c0,0,0,0,0,0c0,0.3,0.3,0.6,0.6,0.6c0,0,0,0,0,0c0,0,0,0,0,0c0.1,0,0.1,0,0.2,0c0,0,0,0,0,0c0,0,0.1-0.1,0.1-0.1
			c0,0,0,0,0,0c0,0,0.1,0,0.1-0.1l3-3L10.5,8.5z"/>
	</g>
</g>
<g id="Layer_18" class="st0">
	<g class="st1">
		<g>
			<path class="st2" d="M7.1,5.1C7.1,5,7.1,5,7.1,5.1C7,5,7,5,7,5C7,4.9,6.9,4.9,6.9,4.9c0,0,0,0,0,0c-0.1,0-0.1,0-0.2,0
				c0,0,0,0,0,0c0,0,0,0,0,0C6.3,4.8,6,5.1,6,5.4c0,0,0,0,0,0c0,0,0,0,0,0c0,0,0,0.1,0,0.1c0,0,0,0.1,0,0.1c0,0.1,0.1,0.1,0.1,0.1
				c0,0,5,5,5.7,5.7c-0.7,0.7-5.7,5.7-5.7,5.7c0,0,0,0-0.1,0.1c0,0,0,0.1,0,0.1c0,0.1,0,0.1,0,0.1c0,0,0,0,0,0s0,0,0,0
				c0,0.3,0.3,0.6,0.6,0.6c0,0,0,0,0,0c0,0,0,0,0,0c0.1,0,0.1,0,0.2,0c0,0,0,0,0,0c0,0,0.1-0.1,0.1-0.1c0,0,0,0,0,0
				c0,0,0.1,0,0.1-0.1l6.4-6.4L7.1,5.1z"/>
			<path class="st2" d="M7.1,8.5C7.1,8.4,7.1,8.4,7.1,8.5C7,8.4,7,8.4,7,8.4C7,8.3,6.9,8.3,6.9,8.3c0,0,0,0,0,0c-0.1,0-0.1,0-0.2,0
				c0,0,0,0,0,0c0,0,0,0,0,0C6.3,8.2,6,8.5,6,8.8c0,0,0,0,0,0c0,0,0,0,0,0c0,0,0,0.1,0,0.1c0,0,0,0.1,0,0.1c0,0.1,0.1,0.1,0.1,0.1
				c0,0,1.1,1.1,2.3,2.3c-1.2,1.2-2.3,2.3-2.3,2.3c0,0,0,0-0.1,0.1c0,0,0,0.1,0,0.1c0,0.1,0,0.1,0,0.1c0,0,0,0,0,0c0,0,0,0,0,0
				c0,0.3,0.3,0.6,0.6,0.6c0,0,0,0,0,0c0,0,0,0,0,0c0.1,0,0.1,0,0.2,0c0,0,0,0,0,0c0,0,0.1-0.1,0.1-0.1c0,0,0,0,0,0
				c0,0,0.1,0,0.1-0.1l3-3L7.1,8.5z"/>
		</g>
		<path class="st2" d="M15.8,5.3c0-0.3-0.2-0.5-0.5-0.5c-0.3,0-0.5,0.2-0.5,0.5c0,0,0,12.4,0,12.4c0,0.2,0.1,0.4,0.3,0.4
			c0.1,0,0.1,0,0.2,0c0.1,0,0.1,0,0.2,0c0.2-0.1,0.3-0.2,0.3-0.4C15.8,17.7,15.8,5.3,15.8,5.3z"/>
	</g>
</g>
<g id="Layer_19" class="st0">
	<g class="st1">
		<path class="st2" d="M17,5.1H6.2C6,5.1,5.9,5.2,5.8,5.3C5.7,5.4,5.6,5.5,5.6,5.7v1.2v9.7v1.2c0,0.3,0.2,0.5,0.5,0.5H17
			c0.3,0,0.5-0.2,0.5-0.5v-1.2V6.9V5.7C17.6,5.4,17.3,5.1,17,5.1z M16.5,6.9v9.7v0.7H6.7v-0.7V6.9V6.2h9.8V6.9z"/>
		<path class="st2" d="M15,8.8C15,8.7,15,8.7,15,8.8c-0.1-0.1-0.1-0.1-0.1-0.1c0,0,0,0-0.1,0c0,0-0.1,0-0.1,0c0,0-0.1,0-0.1,0
			c0,0,0,0-0.1,0c0,0,0,0,0,0c-0.2,0-5.9,0-5.9,0C8.4,8.5,8.1,8.8,8.1,9c0,0,0,0,0,0v1.1c0,0.3,0.2,0.5,0.5,0.5
			c0.3,0,0.5-0.2,0.5-0.5V9.6h1.9c0,0,0,3.5,0,4.8h-0.5c-0.3,0-0.5,0.2-0.5,0.5c0,0.3,0.2,0.5,0.5,0.5h2c0.3,0,0.5-0.2,0.5-0.5
			c0-0.3-0.2-0.5-0.5-0.5h-0.5c0-1.1,0-3.7,0-4.8c0,0,1.2,0,1.9,0v0.5c0,0.3,0.2,0.5,0.5,0.5c0.3,0,0.5-0.2,0.5-0.5v-1V9
			C15.1,8.9,15,8.8,15,8.8z"/>
	</g>
</g>
<g id="Layer_20" class="st0">
	<g class="st1">
		<g>
			<circle class="st2" cx="7.4" cy="6.6" r="0.5"/>
			<path class="st2" d="M7.9,8.9c0,0.3-0.2,0.5-0.5,0.5c-0.3,0-0.5-0.2-0.5-0.5c0-0.3,0.2-0.5,0.5-0.5C7.7,8.3,7.9,8.6,7.9,8.9z"/>
			<circle class="st2" cx="7.4" cy="11.3" r="0.5"/>
			<path class="st2" d="M7.9,13.7c0,0.3-0.2,0.5-0.5,0.5c-0.3,0-0.5-0.2-0.5-0.5c0-0.3,0.2-0.5,0.5-0.5C7.7,13.1,7.9,13.4,7.9,13.7z
				"/>
			<path class="st2" d="M7.9,15.9c0,0.3-0.2,0.5-0.5,0.5c-0.3,0-0.5-0.2-0.5-0.5c0-0.3,0.2-0.5,0.5-0.5C7.7,15.4,7.9,15.6,7.9,15.9z
				"/>
			<g>
				<path class="st2" d="M15.6,15.5h-1.3h-3.5H9.5C9.2,15.5,9,15.7,9,16c0,0.3,0.2,0.5,0.5,0.5h1.3h3.5h1.3c0.3,0,0.5-0.2,0.5-0.5
					C16.2,15.7,15.9,15.5,15.6,15.5z"/>
				<path class="st2" d="M15.6,8.5h-1.3h-3.5H9.5C9.2,8.5,9,8.8,9,9.1c0,0.3,0.2,0.5,0.5,0.5h1.3h3.5h1.3c0.3,0,0.5-0.2,0.5-0.5
					C16.2,8.8,15.9,8.5,15.6,8.5z"/>
				<path class="st2" d="M15.6,10.9h-1.3h-3.5H9.5c-0.3,0-0.5,0.2-0.5,0.5C9,11.7,9.2,12,9.5,12h1.3h3.5h1.3c0.3,0,0.5-0.2,0.5-0.5
					C16.2,11.1,15.9,10.9,15.6,10.9z"/>
				<path class="st2" d="M15.6,13.2L15.6,13.2h-1.3h-3.5H9.5l0,0c-0.3,0-0.5,0.2-0.5,0.5c0,0.3,0.2,0.5,0.5,0.5h1.3h3.5h1.3
					c0.3,0,0.5-0.2,0.5-0.5C16.2,13.4,15.9,13.2,15.6,13.2z"/>
				<path class="st2" d="M9.5,7.2h1.3h3.5h1.3c0.3,0,0.5-0.2,0.5-0.5c0-0.3-0.2-0.5-0.5-0.5l0,0h-1.3h-3.5H9.5l0,0
					C9.2,6.1,9,6.4,9,6.7C9,7,9.2,7.2,9.5,7.2z"/>
			</g>
		</g>
	</g>
</g>
<g id="Layer_21" class="st0">
	<g class="st1">
		<g>
			<path class="st2" d="M14.3,14.4c0-0.3-0.2-0.5-0.5-0.5c-0.4,0-0.5,0.3-0.5,0.3l-1.6,4.3c-0.7-1.5-2-4.3-2-4.3c0,0,0,0,0,0
				c0,0-0.1-0.1-0.1-0.1c0,0-0.1-0.1-0.1-0.1c0,0-0.2-0.1-0.2-0.1c-0.3,0-0.5,0.2-0.5,0.5c0,0,0,0.1,0,0.1c0,0.1,2.4,5.4,2.4,5.4
				c0,0.1,0.1,0.2,0.1,0.2c0,0.1,0.1,0.1,0.1,0.2c0,0,0,0,0,0c0,0,0,0,0,0c0,0,0.1,0.1,0.1,0.1c0,0,0,0,0,0c0.1,0,0.1,0,0.2,0h0
				c0,0,0,0,0,0c0.1,0,0.1,0,0.2,0c0,0,0,0,0,0c0,0,0,0,0,0c0.1,0,0.1-0.1,0.1-0.1c0,0,0,0,0,0c0,0,0.1-0.1,0.1-0.1c0,0,0,0,0,0
				C12.2,20,14.3,14.4,14.3,14.4z"/>
			<path class="st2" d="M14.1,12c0,0-1.2,0-2.6,0c-1.3,0-2.6,0-2.6,0c-0.3,0-0.5,0.2-0.5,0.5c0,0.3,0.2,0.5,0.5,0.5h1.7h1.8h1.7
				c0.3,0,0.5-0.2,0.5-0.5C14.6,12.3,14.4,12,14.1,12z"/>
			<path class="st2" d="M14.6,4.1C14.6,4.1,14.6,4.1,14.6,4.1c0-0.3-0.2-0.5-0.5-0.5c0,0-1.2,0-2.6,0c-1.3,0-2.6,0-2.6,0
				c-0.3,0-0.5,0.2-0.5,0.5c0,0,0,0,0,0.1l0,6.1c0,0,0,0.3,0,0.5v0v0c0,0,0,0,0,0c0,0.1,0.1,0.2,0.1,0.3c0.1,0.1,0.2,0.2,0.4,0.2
				h1.7h1.8h1.7c0,0,0,0,0,0c0.1,0,0.1,0,0.1,0c0,0,0,0,0,0c0,0,0,0,0,0c0.2-0.1,0.3-0.2,0.3-0.4c0,0,0,0,0,0c0,0,0,0,0,0
				c0,0,0,0,0,0C14.6,10.1,14.6,6.4,14.6,4.1z M11.5,10.1c-0.8,0-1.5,0-2,0c0-1.1,0-3.6,0-5.5h1.1h1.8h1.1v5.5
				C13,10.1,12.3,10.1,11.5,10.1z"/>
		</g>
	</g>
</g>
<g id="Layer_22" class="st0">
	<g class="st1">
		<g>
			<path class="st2" d="M17.1,6.5L17.1,6.5l-0.3-1.9l0-0.1l-0.1,0l-1.9,0.2l-0.1,0c-0.3,0-0.5,0.3-0.5,0.6c0,0.3,0.3,0.5,0.6,0.5
				l0.1,0l0.9-0.1l0.1,0.9l0,0.1c0,0.3,0.3,0.5,0.6,0.5C17,7.1,17.2,6.8,17.1,6.5z"/>
			<path class="st2" d="M19.8,8.4C19.8,8.4,19.8,8.4,19.8,8.4C19.8,8.4,19.8,8.4,19.8,8.4c0-0.1-0.1-0.1-0.1-0.2c0,0,0,0,0,0
				c0,0,0,0,0,0c0,0-0.1-0.1-0.2-0.1c0,0,0,0,0,0c0,0-0.1,0-0.1,0c0,0,0,0,0,0l-4.6,0c-0.1-0.1-0.1-0.2-0.1-0.2l0,0L12,3.1
				c-0.1-0.2-0.3-0.3-0.4-0.3c0,0,0,0-0.1,0c0,0,0,0-0.1,0c-0.2,0-0.3,0.1-0.4,0.3L8.4,7.9h0c0,0-0.1,0.1-0.1,0.2l-4.6,0
				c0,0,0,0,0,0c0,0-0.1,0-0.1,0c0,0,0,0,0,0c-0.1,0-0.1,0.1-0.2,0.1c0,0,0,0,0,0c0,0,0,0,0,0c0,0-0.1,0.1-0.1,0.2c0,0,0,0,0,0h0
				c0,0.1,0,0.1,0,0.2c0,0,0,0,0,0.1c0,0.1,0,0.1,0,0.2c0,0,0,0,0,0c0,0,0,0,0,0C3.3,8.9,3.3,9,3.3,9c0,0,0.1,0.1,0.2,0.2l3.7,3.7
				c0,0,0.1,0.1,0.1,0.3l0,0l0,0l-0.7,1.5l0,0L5.2,18c0,0.1-0.1,0.2-0.1,0.2c0,0.1,0,0.1,0,0.2c0,0,0,0,0,0c0,0,0,0,0,0
				c0,0.1,0,0.1,0,0.2c0,0,0,0,0,0c0,0.1,0.1,0.1,0.1,0.2c0,0,0,0,0,0c0,0,0,0,0,0c0,0,0.1,0.1,0.2,0.1c0,0,0,0,0,0c0,0,0,0,0,0
				c0.1,0,0.1,0,0.2,0c0,0,0,0,0,0c0,0,0.1,0,0.1,0c0,0,0,0,0,0l4-1.6c0.8-0.3,1.5-0.6,1.8-0.7l5.6,2.3c0,0,0,0,0,0c0,0,0.1,0,0.1,0
				c0,0,0,0,0,0c0.1,0,0.1,0,0.2,0c0,0,0,0,0,0c0,0,0,0,0,0c0.1,0,0.1-0.1,0.2-0.1c0,0,0,0,0,0l0,0c0,0,0.1-0.1,0.1-0.2c0,0,0,0,0,0
				c0,0,0-0.1,0-0.2c0,0,0,0,0,0c0,0,0,0,0,0c0-0.1,0-0.1,0-0.2c0,0-2.2-5-2.2-5l0,0l0,0c-0.1-0.1,0.1-0.3,0.1-0.3h0h0l3.7-3.7
				c0.1-0.1,0.1-0.1,0.2-0.2c0.1-0.1,0.1-0.1,0.1-0.2c0,0,0,0,0,0c0,0,0,0,0,0c0-0.1,0-0.1,0-0.2c0,0,0,0,0-0.1
				C19.8,8.6,19.8,8.5,19.8,8.4z M14.6,12.5c-0.1,0.1-0.1,0.1-0.1,0.2l0,0l0,0c-0.1,0.1-0.1,0.3,0,0.4c0,0,1.1,2.7,1.8,4.3l-4.5-1.8
				c-0.2,0-0.3-0.1-0.5,0L10,16.1l-3.4,1.3c0.7-1.6,1.8-4.3,1.8-4.3c0.1-0.3,0.1-0.4-0.1-0.6c0,0-2.1-2.1-3.3-3.3l3.6,0v0
				c0.2,0,0.3-0.1,0.4-0.3c0,0,1.6-2.9,2.4-4.4c0.8,1.5,2.4,4.4,2.4,4.4c0.1,0.2,0.3,0.3,0.5,0.3v0l3.6,0
				C16.7,10.4,14.6,12.5,14.6,12.5z"/>
			<path class="st2" d="M5.6,6.6L5.6,6.6l0.3-1.9l0-0.1l0.1,0l1.9,0.2l0.1,0c0.3,0,0.5,0.3,0.5,0.6c0,0.3-0.3,0.5-0.6,0.5l-0.1,0
				L6.8,5.8L6.7,6.7l0,0.1c0,0.3-0.3,0.5-0.6,0.5C5.8,7.2,5.6,6.9,5.6,6.6z"/>
			<path class="st2" d="M5.3,14.8L5.3,14.8l-1.8-0.8l-0.1,0l0-0.1l0.7-1.8l0-0.1c0.1-0.3,0.4-0.4,0.7-0.3c0.3,0.1,0.4,0.4,0.3,0.7
				l0,0.1l-0.3,0.8l0.8,0.4l0.1,0C6,14,6.2,14.3,6,14.6C5.9,14.8,5.6,15,5.3,14.8z"/>
			<path class="st2" d="M17.9,14.8L17.9,14.8l1.8-0.8l0.1,0l0-0.1L19,12.2l0-0.1c-0.1-0.3-0.4-0.4-0.7-0.3C18,12,17.9,12.3,18,12.5
				l0,0.1l0.3,0.8l-0.8,0.4l-0.1,0c-0.3,0.1-0.4,0.4-0.3,0.7C17.3,14.8,17.6,15,17.9,14.8z"/>
			<path class="st2" d="M13,18.8L13,18.8l-1.4,1.4l0,0l0,0l-1.4-1.3l-0.1-0.1c-0.2-0.2-0.2-0.5,0-0.8c0.2-0.2,0.5-0.2,0.8,0l0.1,0.1
				l0.7,0.6l0.7-0.6l0.1-0.1c0.2-0.2,0.6-0.2,0.8,0S13.3,18.5,13,18.8z"/>
		</g>
	</g>
</g>
<g id="Layer_24" class="st0">
	<g class="st1">
		<path class="st2" d="M11.5,17.6c-0.3,0-0.6,0.3-0.6,0.6v0.2h0c0,0.6,0,1,0,1c0,0.3,0.3,0.6,0.6,0.6c0.3,0,0.6-0.3,0.6-0.6v-0.2h0
			c0-0.6,0-1,0-1C12.1,17.8,11.9,17.6,11.5,17.6z"/>
		<path class="st2" d="M11.5,5.4c0.3,0,0.6-0.2,0.6-0.6V4.6h0c0-0.6,0-1,0-1c0-0.3-0.3-0.6-0.6-0.6C11.2,3,11,3.3,11,3.6v0.2h0
			c0,0.6,0,1,0,1C11,5.2,11.2,5.4,11.5,5.4z"/>
		<path class="st2" d="M19.4,10.9h-0.2v0c-0.6,0-1,0-1,0c-0.3,0-0.6,0.3-0.6,0.6c0,0.3,0.3,0.6,0.6,0.6h0.2v0c0.6,0,1,0,1,0
			c0.3,0,0.6-0.2,0.6-0.6C20,11.2,19.7,10.9,19.4,10.9z"/>
		<path class="st2" d="M4.8,10.9H4.6v0c-0.6,0-1,0-1,0c-0.3,0-0.6,0.3-0.6,0.6c0,0.3,0.3,0.6,0.6,0.6h0.2v0c0.6,0,1,0,1,0
			c0.3,0,0.6-0.2,0.6-0.6C5.4,11.2,5.1,10.9,4.8,10.9z"/>
		<path class="st2" d="M17.8,16L17.8,16c-0.4-0.4-0.7-0.7-0.7-0.7c-0.2-0.2-0.6-0.2-0.8,0c-0.2,0.2-0.2,0.6,0,0.8l0.2,0.2l0,0
			c0.4,0.4,0.7,0.7,0.7,0.7c0.2,0.2,0.6,0.2,0.8,0c0.2-0.2,0.2-0.6,0-0.8L17.8,16z"/>
		<path class="st2" d="M5.5,6.5L5.5,6.5C6,7,6.3,7.3,6.3,7.3c0.2,0.2,0.6,0.2,0.8,0c0.2-0.2,0.2-0.6,0-0.8L6.9,6.3l0,0
			C6.5,5.9,6.2,5.6,6.2,5.6C6,5.3,5.6,5.3,5.4,5.6c-0.2,0.2-0.2,0.6,0,0.8L5.5,6.5z"/>
		<path class="st2" d="M6.6,16.1l-0.2,0.2l0,0C6,16.7,5.7,17,5.7,17c-0.2,0.2-0.2,0.6,0,0.8c0.2,0.2,0.6,0.2,0.8,0l0.2-0.2l0,0
			c0.4-0.4,0.7-0.7,0.7-0.7c0.2-0.2,0.2-0.6,0-0.8C7.2,15.9,6.8,15.9,6.6,16.1z"/>
		<path class="st2" d="M16.9,7.6l0.2-0.2l0,0c0.4-0.4,0.7-0.7,0.7-0.7C18,6.5,18,6.2,17.8,6c-0.2-0.2-0.6-0.2-0.8,0l-0.2,0.2l0,0
			c-0.4,0.4-0.7,0.7-0.7,0.7c-0.2,0.2-0.2,0.6,0,0.8C16.4,7.9,16.7,7.9,16.9,7.6z"/>
		<path class="st2" d="M11.5,6.5c-2.8,0-5,2.2-5,5c0,2.8,2.2,5,5,5c2.8,0,5-2.2,5-5C16.5,8.7,14.3,6.5,11.5,6.5z M11.5,15.4
			c-2.2,0-3.9-1.8-3.9-3.9c0-2.2,1.8-3.9,3.9-3.9c2.2,0,3.9,1.7,3.9,3.9C15.4,13.7,13.7,15.4,11.5,15.4z"/>
	</g>
</g>
<g id="Réteg_25" class="st0">
	<g class="st1">
		<rect x="5.1" y="9.1" class="st4" width="12.8" height="7.9"/>
		<g>
			<g>
				<path class="st2" d="M11.5,5.1c1.5,0,2.8,1.4,3.2,3.4H8.3C8.7,6.6,10,5.1,11.5,5.1 M11.5,4C9,4,7,6.5,7,9.7H16
					C16,6.5,14,4,11.5,4L11.5,4z"/>
			</g>
		</g>
		<circle class="st5" cx="11.5" cy="13.1" r="1.4"/>
	</g>
</g>
<g id="Réteg_26" class="st0">
	<g class="st1">
		<g>
			<g>
				<path class="st2" d="M11.5,5.4c1.6,0,2.8,1.3,2.8,2.8s-1.3,2.8-2.8,2.8S8.7,9.8,8.7,8.3S9.9,5.4,11.5,5.4 M11.5,4.3
					c-2.2,0-4,1.8-4,4c0,2.2,1.8,4,4,4s4-1.8,4-4C15.5,6.1,13.7,4.3,11.5,4.3L11.5,4.3z"/>
			</g>
		</g>
		<g>
			<g>
				<path class="st2" d="M11.5,12.3c2.7,0,4.9,2.1,5.4,4.8H6.1C6.6,14.3,8.8,12.3,11.5,12.3 M11.5,11.1c-3.7,0-6.7,3.2-6.7,7.1h13.4
					C18.2,14.3,15.2,11.1,11.5,11.1L11.5,11.1z"/>
			</g>
		</g>
	</g>
</g>
<g id="Réteg_27" class="st0">
	<g class="st1">
		<path d="M14.5,9.8c-0.3,0-0.5-0.2-0.5-0.5l0-2.6h-0.9c0,1.9,0,7.9,0,7.9c0,0,0,0,0,0c0,0.2,0,0.3,0,0.5c0,0.5,0,1,0,1.4
			c2-2.1,2.7-5.4,2.9-6.7H14.5L14.5,9.8z"/>
		<path d="M11.5,0C5.2,0,0,5.1,0,11.5S5.2,23,11.5,23C17.9,23,23,17.9,23,11.5S17.9,0,11.5,0z M8.5,18.2c-0.3,0-0.5-0.2-0.5-0.5
			c0-0.3,0.2-0.5,0.5-0.5c0.3,0,0.5,0.2,0.5,0.5C9,18,8.8,18.2,8.5,18.2z M9,14.6c0,0.2-0.1,0.4-0.3,0.4c-0.1,0-0.1,0-0.2,0
			c-0.1,0-0.1,0-0.2,0c-0.2-0.1-0.3-0.2-0.3-0.4c0-0.1,0-0.5,0-0.5l0-8c0-0.3,0.2-0.5,0.5-0.5C8.8,5.7,9,5.9,9,6.1
			C9,6.1,9,14.6,9,14.6z M12.7,18.2C12.7,18.2,12.7,18.2,12.7,18.2L12.7,18.2c-0.1,0-0.1,0-0.2,0c-0.3,0-0.5-0.2-0.5-0.5v-0.6h0
			v-2.1v-0.4c0,0,0,0,0,0c0,0,0-0.2,0-0.4V13h0v-0.6c0,0,0,0,0,0l0-6.2c0,0,0,0,0-0.1s0,0,0-0.1v0c0,0,0,0,0,0c0,0,0-0.1,0-0.1
			c0-0.1,0.1-0.2,0.3-0.3c0,0,0,0,0,0c0,0,0.1,0,0.1,0c0,0,0.1,0,0.1,0h0.1h1.9h0.1h0c0.3,0,0.5,0.2,0.5,0.5c0,0,0,0,0,0.1
			c0,0.3,0,1.3,0,2.6h1.4h0.1c0.3,0,0.5,0.2,0.5,0.5C16.4,15.8,12.7,18.2,12.7,18.2z"/>
	</g>
</g>
<g id="Layer_23">
	<path class="st3" d="M11.5,0C5.1,0,0,5.1,0,11.5C0,17.9,5.1,23,11.5,23C17.9,23,23,17.9,23,11.5C23,5.1,17.9,0,11.5,0z M11.5,21.9
		c-5.7,0-10.4-4.6-10.4-10.4c0-5.7,4.6-10.4,10.4-10.4s10.4,4.6,10.4,10.4C21.9,17.2,17.2,21.9,11.5,21.9z"/>
</g>
<g id="Réteg_28" class="st0">
	<rect x="6.2" y="4.6" class="st6" width="10.7" height="13.8"/>
	<g class="st1">
		<line class="st7" x1="8.2" y1="8.1" x2="14.7" y2="8.1"/>
		<line class="st7" x1="8.2" y1="10.4" x2="11.8" y2="10.4"/>
		<line class="st7" x1="13.4" y1="10.4" x2="14.7" y2="10.4"/>
		<line class="st7" x1="8.2" y1="12.7" x2="14.7" y2="12.7"/>
		<line class="st7" x1="8.2" y1="14.9" x2="11.8" y2="14.9"/>
		<line class="st7" x1="13.4" y1="14.9" x2="14.7" y2="14.9"/>
	</g>
</g>
</svg>
