<?xml version="1.0" encoding="utf-8"?>
<!-- Generator: Adobe Illustrator 16.0.0, SVG Export Plug-In . SVG Version: 6.00 Build 0)  -->
<!DOCTYPE svg PUBLIC "-//W3C//DTD SVG 1.1//EN" "http://www.w3.org/Graphics/SVG/1.1/DTD/svg11.dtd">
<svg version="1.1" id="Layer_1" xmlns="http://www.w3.org/2000/svg" xmlns:xlink="http://www.w3.org/1999/xlink" x="0px" y="0px"
	 width="50px" height="50px" viewBox="0 0 50 50" enable-background="new 0 0 50 50" xml:space="preserve">
<g>
	
		<line fill="none" stroke="#9B9B9B" stroke-width="2" stroke-linecap="round" stroke-linejoin="round" stroke-miterlimit="10" x1="41.2" y1="24.001" x2="41.2" y2="34.518"/>
	
		<line fill="none" stroke="#9B9B9B" stroke-width="2" stroke-linecap="round" stroke-linejoin="round" stroke-miterlimit="10" x1="35.943" y1="29.259" x2="46.457" y2="29.259"/>
</g>
<g>
	<path fill="#9B9B9B" d="M35.876,19.283c-0.001-0.005-0.001-0.005-0.001-0.005c0-0.005,0-0.005,0-0.007
		c-0.046-0.109-0.119-0.208-0.195-0.298c-0.012-0.011-0.015-0.025-0.027-0.037c-0.016-0.015-0.028-0.02-0.041-0.031
		c-0.088-0.078-0.186-0.146-0.299-0.194c-0.021-0.007-0.045-0.007-0.076-0.019c-0.084-0.031-0.176-0.05-0.271-0.057
		c-0.021,0-0.034-0.012-0.052-0.012l-8.836-0.022c-0.123-0.221-0.24-0.429-0.24-0.429l0,0l-4.982-9.181
		c-0.174-0.318-0.49-0.493-0.825-0.526c-0.042-0.002-0.081-0.007-0.126-0.007c-0.044,0-0.083,0.004-0.128,0.007
		c-0.336,0.034-0.65,0.208-0.82,0.526l-4.985,9.181H13.97c0,0-0.114,0.208-0.235,0.421l-8.795,0.03c-0.017,0-0.032,0.01-0.049,0.01
		c-0.091,0.007-0.185,0.029-0.275,0.06c-0.027,0.007-0.05,0-0.075,0.013c-0.112,0.046-0.208,0.117-0.297,0.197
		c-0.012,0.012-0.027,0.014-0.039,0.03c-0.011,0.011-0.016,0.023-0.029,0.041c-0.078,0.083-0.15,0.184-0.191,0.294
		c-0.003,0-0.003,0.004-0.003,0.006H3.977c-0.046,0.115-0.065,0.234-0.068,0.355c-0.002,0.034,0.002,0.063,0.003,0.099
		c0.006,0.096,0.026,0.199,0.063,0.295c0.004,0.016,0.004,0.026,0.007,0.042c0.003,0.008,0.011,0.01,0.014,0.02
		c0.054,0.12,0.117,0.236,0.217,0.33c0.036,0.039,0.166,0.163,0.313,0.3l7.168,7.104c0,0,0.171,0.244,0.121,0.599l0,0l0,0
		l-1.252,2.938l-0.021,0.006l-2.7,6.326c-0.084,0.184-0.158,0.355-0.178,0.396c-0.055,0.127-0.071,0.255-0.078,0.391
		c0.003,0.008-0.002,0.014-0.002,0.022c0,0.019,0.007,0.021,0.007,0.041c0.005,0.104,0.024,0.203,0.056,0.301
		c0.011,0.029,0.018,0.056,0.033,0.085c0.048,0.113,0.109,0.215,0.194,0.307h0.005c0,0.002,0.004,0.002,0.004,0.008
		c0.081,0.084,0.183,0.152,0.289,0.203c0.017,0.011,0.026,0.016,0.046,0.022c0.012,0.005,0.028,0.005,0.044,0.013
		c0.109,0.035,0.227,0.067,0.35,0.067c0.023,0,0.05-0.011,0.075-0.015c0.094,0,0.188-0.02,0.276-0.043
		c0.017-0.012,0.034-0.012,0.045-0.02l7.613-3.058c1.531-0.601,2.861-1.123,3.431-1.347l10.807,4.328
		c0.011,0.006,0.027,0.006,0.045,0.01c0.09,0.023,0.182,0.048,0.279,0.048c0.021,0,0.045,0.014,0.072,0.014
		c0.119-0.002,0.237-0.026,0.35-0.069c0.017-0.006,0.028,0,0.043-0.013c0.021-0.002,0.029-0.022,0.043-0.026
		c0.108-0.054,0.211-0.113,0.293-0.201c0,0,0-0.004,0.007-0.004l0,0c0.084-0.09,0.147-0.19,0.2-0.305
		c0.01-0.029,0.016-0.057,0.025-0.089c0.034-0.094,0.053-0.196,0.059-0.299c0-0.013,0.006-0.03,0.006-0.039
		c0-0.013-0.002-0.017-0.002-0.028c-0.004-0.129-0.024-0.259-0.078-0.382c-0.018-0.053-4.146-9.674-4.146-9.674l0,0l0,0
		c-0.104-0.249,0.104-0.507,0.106-0.507h0.007h-0.007l7.17-7.102c0.147-0.14,0.28-0.264,0.313-0.305
		c0.098-0.098,0.166-0.21,0.215-0.328c0-0.007,0.011-0.011,0.013-0.023c0.006-0.011,0.006-0.03,0.013-0.037
		c0.032-0.098,0.051-0.201,0.063-0.302c0-0.033,0-0.064,0-0.098C35.943,19.515,35.92,19.395,35.876,19.283z M25.975,27.061
		c-0.101,0.103-0.179,0.225-0.223,0.344l-0.012-0.002l0,0c-0.11,0.248-0.12,0.541,0,0.812c0,0,2.182,5.114,3.521,8.243l-8.742-3.439
		c-0.35-0.094-0.596-0.117-0.94,0L17.045,34l-6.451,2.557c1.336-3.129,3.532-8.259,3.532-8.259c0.191-0.543,0.244-0.739-0.248-1.241
		c0,0-4.001-3.974-6.412-6.361l6.971-0.025v-0.016c0.343-0.026,0.66-0.205,0.836-0.529c0.019-0.034,3.08-5.669,4.631-8.523
		c1.552,2.854,4.612,8.489,4.631,8.523c0.181,0.336,0.522,0.518,0.882,0.529v0.022l6.972,0.024
		C29.975,23.086,25.975,27.061,25.975,27.061z"/>
	<path fill="#9B9B9B" d="M8.6,39.904c-0.144-0.004-0.292-0.028-0.457-0.088l-0.119-0.043c-0.109-0.058-0.205-0.114-0.289-0.185
		H7.717l-0.203-0.229c-0.068-0.092-0.124-0.188-0.172-0.297l-0.036-0.092c-0.05-0.154-0.072-0.285-0.081-0.416l0.002-0.06
		c0.002-0.203,0.022-0.379,0.102-0.563l0.039-0.091l0.142-0.313l3.948-9.213c0.011-0.17-0.062-0.293-0.063-0.297L4.27,20.969
		c-0.148-0.139-0.286-0.271-0.324-0.31c-0.121-0.114-0.203-0.259-0.26-0.382l-0.061-0.145c-0.04-0.115-0.068-0.253-0.076-0.387
		c-0.005-0.066-0.006-0.106-0.003-0.149C3.55,19.467,3.572,19.33,3.614,19.2v-0.293l0.148-0.002
		c0.041-0.062,0.089-0.122,0.146-0.181l0.135-0.126c0.089-0.088,0.219-0.175,0.355-0.23l0.162-0.037
		c0.069-0.029,0.188-0.055,0.299-0.063l8.661-0.039l0.129-0.235l4.984-9.177c0.215-0.404,0.619-0.666,1.104-0.717l0.166-0.007
		c0.043,0,0.084,0.003,0.123,0.005c0.524,0.053,0.927,0.313,1.148,0.719l5.114,9.417l8.741,0.041
		c0.121,0.012,0.229,0.036,0.328,0.071l0.096,0.027c0.139,0.059,0.271,0.144,0.398,0.258l0.129,0.146
		c0.057,0.055,0.162,0.187,0.229,0.353l0.029,0.104c0.052,0.152,0.068,0.276,0.068,0.395v0.098c-0.017,0.141-0.033,0.275-0.08,0.416
		l-0.035,0.093c-0.075,0.172-0.174,0.314-0.291,0.436c-0.02,0.021-0.16,0.16-0.323,0.314l-7.147,7.081
		c-0.029,0.043-0.051,0.104-0.045,0.121c4.139,9.638,4.15,9.684,4.156,9.705c0.059,0.118,0.093,0.287,0.1,0.482l-0.007,0.128
		c-0.006,0.119-0.03,0.254-0.077,0.375l-0.037,0.116c-0.054,0.111-0.109,0.207-0.174,0.289v0.014l-0.084,0.087
		c-0.004,0.005-0.011,0.011-0.013,0.015l-0.122,0.108c-0.066,0.056-0.148,0.104-0.232,0.147l-0.125,0.072l-0.101,0.021
		c-0.092,0.043-0.25,0.077-0.407,0.077l-0.152-0.022c-0.055,0.013-0.211-0.024-0.309-0.053L20.05,35.448
		c-0.628,0.251-1.877,0.741-3.299,1.299l-7.607,3.062c-0.223,0.063-0.343,0.084-0.459,0.084L8.6,39.904z M8.239,39.057
		c0.027,0.02,0.06,0.036,0.089,0.053c0.007,0.009,0.039,0.016,0.066,0.024c0.069,0.023,0.14,0.039,0.205,0.044l0.085-0.017
		c0.046,0,0.103-0.011,0.176-0.029l7.624-3.062c1.533-0.604,2.864-1.127,3.43-1.35l0.137-0.055l10.94,4.384
		c0.09,0.021,0.147,0.029,0.2,0.029l0.125,0.024c0.004-0.015,0.076-0.024,0.151-0.056l0.028-0.012
		c0.021-0.011,0.036-0.021,0.057-0.029c0.02-0.007,0.045-0.021,0.064-0.034v-0.188l0.188-0.002c0.018-0.027,0.035-0.061,0.053-0.1
		c0.037-0.108,0.047-0.177,0.05-0.252c0-0.142-0.013-0.217-0.041-0.283c-0.071-0.178-2.747-6.403-4.15-9.678
		c-0.038-0.091-0.058-0.188-0.058-0.289h-0.379l0.695-0.689l7.098-7.031c0.138-0.128,0.254-0.238,0.291-0.279
		c0.057-0.06,0.097-0.114,0.13-0.177l0.052-0.12c0.016-0.053,0.025-0.115,0.038-0.2l-0.005-0.057c0-0.071-0.014-0.147-0.042-0.219
		l-0.06-0.092l0.006-0.007c-0.026-0.037-0.055-0.071-0.08-0.1l-0.014-0.017c-0.013-0.008-0.023-0.019-0.035-0.032
		c-0.059-0.047-0.119-0.09-0.187-0.117c-0.106-0.03-0.172-0.042-0.229-0.048l-0.069-0.01l-9.007-0.023l-0.344-0.615l-4.982-9.186
		c-0.105-0.189-0.302-0.313-0.542-0.336l-0.09-0.006l-0.128-0.357l0.036,0.364c-0.24,0.023-0.436,0.146-0.535,0.333l-5.332,9.793
		l-9.006,0.032C4.864,18.996,4.8,19.01,4.727,19.034l-0.078,0.019c-0.063,0.033-0.109,0.069-0.164,0.117L4.451,19.2
		c-0.055,0.065-0.088,0.112-0.109,0.15v0.286H4.273c0.004,0.129,0.02,0.196,0.041,0.258l0.027,0.073
		c0.032,0.071,0.071,0.135,0.121,0.179c0.05,0.055,0.176,0.169,0.313,0.301l7.172,7.106c0.07,0.088,0.294,0.426,0.226,0.906
		l-0.024,0.092L7.99,38.234c-0.021,0.056-0.037,0.133-0.041,0.248c0.007,0.104,0.021,0.175,0.041,0.242
		c0.024,0.058,0.046,0.099,0.064,0.137h0.182L8.239,39.057z M9.914,37.213l3.878-9.061c0.16-0.463,0.173-0.489-0.174-0.842l0,0
		c0,0-3.998-3.974-6.408-6.356l-0.625-0.621l7.825-0.043c0.237-0.02,0.435-0.143,0.543-0.34c0.019-0.038,3.859-7.106,4.629-8.523
		l0.321-0.589l0.319,0.589c1.226,2.253,4.613,8.484,4.636,8.535c0.104,0.194,0.32,0.319,0.568,0.328l0.352,0.024l7.49,0.025
		l-0.625,0.619c-2.414,2.389-6.414,6.36-6.414,6.36c-0.062,0.062-0.106,0.137-0.138,0.214l-0.063,0.181
		c-0.021,0.121-0.004,0.24,0.043,0.35c0.007,0.008,2.188,5.123,3.527,8.248l0.34,0.801l-9.549-3.762
		c-0.262-0.059-0.442-0.066-0.695,0.008L9.914,37.213z M8.349,21.056c2.417,2.396,5.786,5.741,5.786,5.741
		c0.636,0.648,0.547,1.021,0.332,1.623l-3.194,7.475l8.177-3.224c0.423-0.134,0.671-0.139,1.163-0.014l7.974,3.138
		c-2.183-5.079-1.521-3.546-3.181-7.441c-0.152-0.338-0.154-0.742,0.003-1.1l0.135-0.314l0.043,0.017
		c0.038-0.054,0.083-0.104,0.128-0.149c0.004,0,3.37-3.349,5.792-5.744l-6.456-0.022v-0.076c-0.356-0.098-0.659-0.335-0.837-0.666
		c-0.06-0.108-2.708-4.983-4.31-7.934c-1.604,2.95-4.254,7.825-4.307,7.929c-0.174,0.317-0.456,0.55-0.797,0.658v0.065l-0.362,0.017
		L8.349,21.056z"/>
</g>
</svg>
