<?xml version="1.0" encoding="utf-8"?>
<!-- Generator: Adobe Illustrator 16.0.0, SVG Export Plug-In . SVG Version: 6.00 Build 0)  -->
<!DOCTYPE svg PUBLIC "-//W3C//DTD SVG 1.1//EN" "http://www.w3.org/Graphics/SVG/1.1/DTD/svg11.dtd">
<svg version="1.1" id="Layer_1" xmlns="http://www.w3.org/2000/svg" xmlns:xlink="http://www.w3.org/1999/xlink" x="0px" y="0px"
	 width="24px" height="24px" viewBox="0 0 24 24" enable-background="new 0 0 24 24" xml:space="preserve">
<g>
	<g>
		<circle fill="#FFFFFF" cx="7.879" cy="6.998" r="0.544"/>
		<path fill="#FFFFFF" d="M8.423,9.271c0,0.301-0.244,0.543-0.545,0.543c-0.301,0-0.543-0.242-0.543-0.543
			c0-0.303,0.242-0.545,0.543-0.545C8.179,8.726,8.423,8.969,8.423,9.271z"/>
		<circle fill="#FFFFFF" cx="7.879" cy="11.73" r="0.544"/>
		<path fill="#FFFFFF" d="M8.423,14.041c0,0.299-0.244,0.543-0.545,0.543c-0.301,0-0.543-0.244-0.543-0.543
			c0-0.303,0.242-0.543,0.543-0.543C8.179,13.498,8.423,13.738,8.423,14.041z"/>
		<path fill="#FFFFFF" d="M8.423,16.314c0,0.301-0.244,0.543-0.545,0.543c-0.301,0-0.543-0.242-0.543-0.543
			c0-0.304,0.242-0.545,0.543-0.545C8.179,15.77,8.423,16.012,8.423,16.314z"/>
		<g>
			<path fill="#FFFFFF" d="M16.123,15.848h-1.285h-3.532h-1.285c-0.299,0-0.541,0.242-0.541,0.541c0,0.297,0.242,0.539,0.541,0.539
				h1.285h3.532h1.285c0.298,0,0.54-0.242,0.54-0.539C16.663,16.09,16.421,15.848,16.123,15.848z"/>
			<path fill="#FFFFFF" d="M16.123,8.918h-1.285h-3.532h-1.285c-0.299,0-0.541,0.242-0.541,0.539C9.479,9.756,9.722,10,10.021,10
				h1.285h3.532h1.285c0.298,0,0.54-0.244,0.54-0.543C16.663,9.16,16.421,8.918,16.123,8.918z"/>
			<path fill="#FFFFFF" d="M16.123,11.266h-1.285h-3.532h-1.285c-0.299,0-0.541,0.24-0.541,0.539c0,0.299,0.242,0.543,0.541,0.543
				h1.285h3.532h1.285c0.298,0,0.54-0.244,0.54-0.543C16.663,11.506,16.421,11.266,16.123,11.266z"/>
			<path fill="#FFFFFF" d="M16.123,13.574L16.123,13.574h-1.285h-3.532h-1.285l0,0c-0.299,0-0.541,0.242-0.541,0.541
				s0.242,0.541,0.541,0.541h1.285h3.532h1.285c0.298,0,0.54-0.242,0.54-0.541S16.421,13.574,16.123,13.574z"/>
			<path fill="#FFFFFF" d="M10.021,7.615h1.285h3.532h1.285c0.298,0,0.54-0.244,0.54-0.541c0-0.299-0.242-0.543-0.54-0.543l0,0
				h-1.285h-3.532h-1.285l0,0c-0.299,0-0.541,0.244-0.541,0.543C9.479,7.371,9.722,7.615,10.021,7.615z"/>
		</g>
	</g>
</g>
<path fill="#FFFFFF" d="M12,0.388c-6.352,0-11.5,5.148-11.5,11.499c0,6.352,5.148,11.501,11.5,11.501
	c6.352,0,11.5-5.149,11.5-11.501C23.5,5.536,18.352,0.388,12,0.388z M12,22.245c-5.72,0-10.359-4.638-10.359-10.358
	C1.641,6.166,6.28,1.528,12,1.528c5.721,0,10.357,4.637,10.357,10.358C22.357,17.607,17.721,22.245,12,22.245z"/>
</svg>
