<?xml version="1.0" encoding="utf-8"?>
<!-- Generator: Adobe Illustrator 16.0.0, SVG Export Plug-In . SVG Version: 6.00 Build 0)  -->
<!DOCTYPE svg PUBLIC "-//W3C//DTD SVG 1.1//EN" "http://www.w3.org/Graphics/SVG/1.1/DTD/svg11.dtd">
<svg version="1.1" id="Layer_1" xmlns="http://www.w3.org/2000/svg" xmlns:xlink="http://www.w3.org/1999/xlink" x="0px" y="0px"
	 width="25px" height="25px" viewBox="0 0 25 25" enable-background="new 0 0 25 25" xml:space="preserve">
<g id="Layer_1_1_" display="none">
	<g display="inline">
		<path fill="#231F20" d="M12.5,7.174c-2.935,0-5.217,2.392-5.217,5.217c0,2.935,2.391,5.218,5.217,5.218
			c2.936,0,5.217-2.394,5.217-5.218C17.717,9.566,15.436,7.174,12.5,7.174z M12.5,16.631c-2.283,0-4.13-1.848-4.13-4.131
			s1.848-4.13,4.13-4.13c2.283,0,4.131,1.848,4.131,4.13C16.521,14.783,14.783,16.631,12.5,16.631z"/>
		<path fill="#231F20" d="M12.5,6.196c0.326,0,0.543-0.217,0.543-0.543V5.326l0,0c0-0.652,0-1.087,0-1.087
			c0-0.326-0.217-0.543-0.543-0.543s-0.543,0.217-0.543,0.543v0.217l0,0c0,0.652,0,1.087,0,1.087
			C11.957,5.87,12.174,6.196,12.5,6.196z"/>
		<path fill="#231F20" d="M12.5,18.695c-0.326,0-0.543,0.218-0.543,0.544v0.325l0,0c0,0.651,0,1.088,0,1.088
			c0,0.326,0.217,0.543,0.543,0.543s0.543-0.217,0.543-0.543v-0.219l0,0c0-0.65,0-1.086,0-1.086
			C13.043,19.021,12.826,18.695,12.5,18.695z"/>
		<path fill="#231F20" d="M20.652,11.848h-0.219l0,0c-0.65,0-1.086,0-1.086,0c-0.326,0-0.543,0.218-0.543,0.543
			c0,0.326,0.217,0.543,0.543,0.543h0.217l0,0c0.651,0,1.088,0,1.088,0c0.326,0,0.543-0.217,0.543-0.543
			C21.195,12.174,20.979,11.848,20.652,11.848z"/>
		<path fill="#231F20" d="M5.543,11.848H4.239c-0.326,0-0.543,0.218-0.543,0.543c0,0.326,0.217,0.543,0.543,0.543h0.217h1.087
			c0.326,0,0.543-0.217,0.543-0.543C6.196,12.174,5.87,11.848,5.543,11.848z"/>
		<path fill="#231F20" d="M6.848,16.521L6.63,16.739l0,0C6.196,17.174,5.87,17.5,5.87,17.5c-0.217,0.217-0.217,0.652,0,0.869
			c0.217,0.218,0.652,0.218,0.87,0l0.217-0.217l0,0c0.435-0.437,0.652-0.762,0.652-0.762c0.217-0.218,0.217-0.651,0-0.869
			C7.391,16.305,7.065,16.305,6.848,16.521z"/>
		<path fill="#231F20" d="M17.826,5.979l-0.217,0.217l0,0c-0.437,0.435-0.762,0.761-0.762,0.761c-0.218,0.217-0.218,0.652,0,0.87
			c0.217,0.217,0.651,0.217,0.868,0l0.109-0.217l0,0c0.435-0.435,0.761-0.761,0.761-0.761c0.219-0.217,0.219-0.652,0-0.869
			C18.369,5.761,18.043,5.761,17.826,5.979z"/>
		<path fill="#231F20" d="M9.022,18.369l-0.109,0.218l0,0c-0.217,0.544-0.435,0.979-0.435,0.979c-0.108,0.324,0,0.65,0.326,0.761
			c0.326,0.108,0.652,0,0.761-0.326l0.108-0.217l0,0c0.217-0.544,0.435-0.979,0.435-0.979c0.108-0.326,0-0.652-0.326-0.762
			C9.457,17.936,9.13,18.152,9.022,18.369z"/>
		<path fill="#231F20" d="M15.109,4.457L15,4.674l0,0c-0.217,0.543-0.436,0.979-0.436,0.979c-0.107,0.326,0,0.652,0.326,0.761
			c0.325,0.108,0.651,0,0.762-0.326l0.107-0.217l0,0c0.219-0.543,0.436-0.979,0.436-0.979c0.109-0.326,0-0.652-0.326-0.761
			C15.543,4.022,15.217,4.239,15.109,4.457z"/>
		<path fill="#231F20" d="M16.413,11.848h-2.608c-0.326,0-0.543,0.218-0.543,0.543c0,0.326,0.217,0.543,0.543,0.543h0.217
			c0.652,0,2.283,0,2.283,0c0.326,0,0.543-0.217,0.543-0.543C17.064,12.174,16.738,11.848,16.413,11.848z"/>
		<path fill="#231F20" d="M13.043,14.021c0-0.326-0.217-0.543-0.543-0.543s-0.543,0.217-0.543,0.543v2.392
			c0,0.326,0.217,0.544,0.543,0.544s0.543-0.218,0.543-0.544V14.021z"/>
		<path fill="#231F20" d="M11.196,11.848H8.587c-0.326,0-0.543,0.218-0.543,0.543c0,0.326,0.217,0.543,0.543,0.543h0.217
			c0.652,0,2.283,0,2.283,0c0.326,0,0.543-0.217,0.543-0.543C11.848,12.174,11.522,11.848,11.196,11.848z"/>
		<path fill="#231F20" d="M13.043,8.479c0-0.326-0.217-0.544-0.543-0.544s-0.543,0.218-0.543,0.544v2.391
			c0,0.326,0.217,0.543,0.543,0.543s0.543-0.217,0.543-0.543V8.479z"/>
		<path fill="#231F20" d="M10,4.457l0.109,0.217l0,0c0.217,0.543,0.435,0.979,0.435,0.979c0.109,0.326,0,0.652-0.326,0.761
			C9.891,6.63,9.565,6.521,9.348,6.196V5.979l0,0C9.022,5.326,8.913,5,8.913,5c-0.109-0.326,0-0.652,0.326-0.87
			C9.457,4.021,9.891,4.239,10,4.457z"/>
		<path fill="#231F20" d="M15.652,18.695l0.107,0.218l0,0c0.219,0.544,0.436,0.978,0.436,0.978c0.109,0.326,0,0.652-0.326,0.762
			c-0.326,0.108-0.652,0-0.76-0.325L15,20.109l0,0c-0.217-0.545-0.436-0.979-0.436-0.979c-0.107-0.325,0-0.651,0.326-0.762
			C15.217,18.261,15.543,18.369,15.652,18.695z"/>
		<path fill="#231F20" d="M17.717,17.174l0.219,0.217l0,0c0.435,0.437,0.76,0.762,0.76,0.762c0.219,0.218,0.219,0.652,0,0.869
			c-0.217,0.219-0.651,0.219-0.868,0l-0.218-0.217l0,0c-0.436-0.436-0.762-0.762-0.762-0.762c-0.217-0.217-0.217-0.652,0-0.869
			S17.5,16.957,17.717,17.174z"/>
		<path fill="#231F20" d="M6.957,5.979l0.217,0.217l0,0C7.609,6.63,7.826,6.957,7.826,6.957c0.217,0.217,0.217,0.652,0,0.87
			c-0.217,0.218-0.543,0.216-0.761-0.11L6.848,7.609l0,0C6.413,7.174,6.087,6.848,6.087,6.848c-0.217-0.217-0.217-0.652,0-0.869
			C6.304,5.761,6.739,5.761,6.957,5.979z"/>
		<path fill="#231F20" d="M5.652,10.217l-0.218-0.108l0,0C4.783,9.783,4.457,9.674,4.457,9.674C4.13,9.565,4.022,9.239,4.13,8.913
			c0.109-0.326,0.435-0.435,0.761-0.326l0.218,0.109l0,0C5.652,8.913,6.087,9.13,6.087,9.13c0.326,0.109,0.435,0.435,0.326,0.761
			C6.304,10.109,5.978,10.326,5.652,10.217z"/>
		<path fill="#231F20" d="M19.891,16.195l-0.217-0.108l0,0c-0.543-0.218-0.979-0.435-0.979-0.435
			c-0.326-0.109-0.436-0.437-0.326-0.762c0.109-0.326,0.436-0.435,0.762-0.326l0.217,0.108l0,0c0.543,0.218,0.979,0.437,0.979,0.437
			c0.325,0.106,0.435,0.434,0.325,0.76S20.217,16.305,19.891,16.195z"/>
		<path fill="#231F20" d="M5.761,14.564l-0.217,0.108l0,0C4.891,14.891,4.457,15,4.457,15c-0.326,0.109-0.543,0.436-0.435,0.761
			c0.108,0.326,0.435,0.544,0.761,0.435L5,16.087l0,0c0.652-0.218,1.087-0.326,1.087-0.326C6.413,15.543,6.522,15.217,6.522,15
			C6.413,14.674,6.087,14.457,5.761,14.564z"/>
		<path fill="#231F20" d="M19.783,8.696l-0.219,0.108l0,0c-0.651,0.217-1.086,0.326-1.086,0.326
			c-0.326,0.109-0.545,0.435-0.437,0.761c0.108,0.326,0.437,0.543,0.763,0.435l0.217-0.109l0,0c0.651-0.217,1.088-0.326,1.088-0.326
			c0.324-0.108,0.543-0.435,0.434-0.761C20.436,8.804,20.109,8.587,19.783,8.696z"/>
	</g>
</g>
<g id="Layer_2" display="none">
	<g display="inline">
		<path fill="#231F20" d="M18.587,8.479c0.326,0,0.544-0.218,0.544-0.544c0-0.326-0.218-0.543-0.544-0.543l0,0H6.413l0,0
			C6.087,7.283,5.87,7.609,5.87,7.935c0,0.326,0.217,0.544,0.543,0.544H18.587z"/>
		<path fill="#231F20" d="M18.695,14.564H6.63c-0.326,0-0.543,0.219-0.543,0.545c0,0.324,0.217,0.543,0.543,0.543h12.065
			c0.326,0,0.543-0.219,0.543-0.543C19.348,14.891,19.021,14.564,18.695,14.564z"/>
		<path fill="#231F20" d="M6.63,10.979h4.239c0.326,0,0.543-0.218,0.543-0.544c0.109-0.326-0.217-0.652-0.543-0.652H6.63
			c-0.326,0-0.543,0.326-0.543,0.652C6.087,10.761,6.304,10.979,6.63,10.979z"/>
		<path fill="#231F20" d="M6.63,13.479h6.957c0.326,0,0.544-0.218,0.544-0.543c0-0.326-0.218-0.543-0.544-0.543l0,0H6.63l0,0
			c-0.326,0-0.543,0.218-0.543,0.543C6.087,13.261,6.304,13.479,6.63,13.479z"/>
		<path fill="#231F20" d="M10.87,17.064H6.63c-0.326,0-0.543,0.219-0.543,0.545c0,0.324,0.217,0.543,0.543,0.543h4.239
			c0.326,0,0.543-0.219,0.543-0.543C11.522,17.283,11.196,17.064,10.87,17.064z"/>
	</g>
</g>
<g id="Layer_3" display="none">
	<g display="inline">
		<path fill="#231F20" d="M18.695,14.674c0-0.326-0.217-0.543-0.543-0.543c-0.109,0-0.437,0.217-0.869,0.436
			c-0.545,0.218-1.196,0.324-1.631,0.324c-2.065,0-3.805-1.738-3.805-3.804c0-1.196,0.543-2.283,1.413-2.935l0,0
			c0.108,0,0.87-0.435,0.87-0.761c0-0.326-0.218-0.543-0.437-0.543l0,0c0,0,0,0-0.107,0l0,0l0,0l0,0
			c-3.37-0.108-5.978,2.5-5.978,5.652c0,3.152,2.608,5.761,5.76,5.761c2.174,0,4.021-1.194,5-2.935
			C18.479,15.217,18.695,14.783,18.695,14.674z M13.369,17.174c-2.608,0-4.673-2.064-4.673-4.674c0-1.957,1.195-3.587,2.826-4.348
			c-0.544,0.761-0.87,1.739-0.87,2.826c0,2.717,2.174,4.891,4.891,4.891c0.436,0,0.762,0,1.195-0.108
			C15.869,16.631,14.674,17.174,13.369,17.174z"/>
	</g>
</g>
<g id="Layer_4" display="none">
	<g display="inline">
		<path fill="#231F20" d="M6.413,8.37h12.065c0.326,0,0.543-0.217,0.543-0.543c0-0.326-0.217-0.543-0.543-0.543l0,0H6.413l0,0
			C6.087,7.283,5.87,7.5,5.87,7.826C5.87,8.152,6.087,8.37,6.413,8.37z"/>
		<path fill="#231F20" d="M18.587,16.739L18.587,16.739H6.413l0,0c-0.326,0-0.543,0.218-0.543,0.544s0.217,0.543,0.543,0.543h12.065
			c0.326,0,0.543-0.217,0.543-0.543C19.131,17.064,18.913,16.739,18.587,16.739z"/>
		<path fill="#231F20" d="M9.239,13.261C9.13,13.369,9.13,13.369,9.239,13.261C9.13,13.369,9.13,13.369,9.13,13.369
			c0,0.109-0.108,0.109-0.108,0.109l0,0c0,0.107,0,0.107,0,0.217l0,0l0,0c0,0.326,0.326,0.652,0.652,0.652l0,0l0,0h0.109h0.108
			C10,14.348,10,14.239,10,14.239s1.196-1.196,2.5-2.5c1.305,1.304,2.5,2.5,2.5,2.5s0,0,0.109,0.108h0.106h0.109l0,0l0,0
			c0.325,0,0.651-0.326,0.651-0.652l0,0l0,0c0-0.108,0-0.108,0-0.217l0,0l-0.108-0.109l0,0c0,0,0-0.108-0.108-0.108L12.5,10
			L9.239,13.261z"/>
	</g>
</g>
<g id="Layer_5" display="none">
	<g display="inline">
		<g>
			<path fill="#231F20" d="M11.739,6.957H6.413l0,0C6.087,6.957,5.87,7.174,5.87,7.5s0.217,0.543,0.543,0.543h5.217V6.957H11.739z"
				/>
			<path fill="#231F20" d="M18.587,6.957L18.587,6.957h-5.218v1.196h5.218c0.326,0,0.544-0.218,0.544-0.543
				C19.131,7.174,18.913,6.957,18.587,6.957z"/>
		</g>
		<g>
			<path fill="#231F20" d="M11.739,17.064H6.413l0,0c-0.326,0-0.543,0.219-0.543,0.545c0,0.324,0.217,0.543,0.543,0.543h5.217
				v-1.088H11.739z"/>
			<path fill="#231F20" d="M18.587,17.064L18.587,17.064h-5.218v1.195h5.218c0.326,0,0.544-0.218,0.544-0.544
				C19.131,17.283,18.913,17.064,18.587,17.064z"/>
		</g>
		<g>
			<path fill="#231F20" d="M11.739,9.565H6.413l0,0c-0.326,0-0.543,0.217-0.543,0.543c0,0.326,0.217,0.543,0.543,0.543h5.217V9.565
				H11.739z"/>
			<path fill="#231F20" d="M18.587,9.565L18.587,9.565h-5.218v1.195h5.218c0.326,0,0.544-0.217,0.544-0.543
				C19.131,9.783,18.913,9.565,18.587,9.565z"/>
		</g>
		<g>
			<path fill="#231F20" d="M18.587,12.065L18.587,12.065h-5.218v1.195h5.218c0.326,0,0.544-0.218,0.544-0.543
				C19.131,12.391,18.913,12.065,18.587,12.065z"/>
			<path fill="#231F20" d="M11.739,12.065H6.413l0,0c-0.326,0-0.543,0.217-0.543,0.543c0,0.326,0.217,0.542,0.543,0.542h5.217
				v-1.086L11.739,12.065L11.739,12.065z"/>
		</g>
		<g>
			<path fill="#231F20" d="M11.739,14.564H6.413l0,0c-0.326,0-0.543,0.219-0.543,0.545c0,0.324,0.217,0.543,0.543,0.543h5.217
				v-1.088H11.739z"/>
			<path fill="#231F20" d="M18.587,14.564L18.587,14.564h-5.218v1.195h5.218c0.326,0,0.544-0.218,0.544-0.544
				C19.131,14.891,18.913,14.564,18.587,14.564z"/>
		</g>
	</g>
</g>
<g id="Layer_6" display="none">
	<g display="inline">
		<path fill="#231F20" d="M6.304,8.043h12.391c0.326,0,0.652-0.217,0.652-0.652s-0.218-0.652-0.652-0.652l0,0H6.304l0,0
			c-0.326,0-0.652,0.217-0.652,0.652S5.978,8.043,6.304,8.043z"/>
		<path fill="#231F20" d="M18.695,9.457L18.695,9.457H6.304l0,0c-0.326,0-0.652,0.217-0.652,0.652c0,0.326,0.217,0.652,0.652,0.652
			h12.391c0.326,0,0.652-0.217,0.652-0.652C19.238,9.674,19.021,9.457,18.695,9.457z"/>
		<path fill="#231F20" d="M18.695,12.065L18.695,12.065H6.304l0,0c-0.326,0-0.652,0.217-0.652,0.652
			c0,0.326,0.217,0.652,0.652,0.652h12.391c0.326,0,0.652-0.217,0.652-0.652C19.238,12.283,19.021,12.065,18.695,12.065z"/>
		<path fill="#231F20" d="M18.695,14.674L18.695,14.674H6.304l0,0c-0.326,0-0.652,0.217-0.652,0.652
			c0,0.326,0.217,0.652,0.652,0.652h12.391c0.326,0,0.652-0.219,0.652-0.652C19.238,14.891,19.021,14.674,18.695,14.674z"/>
		<path fill="#231F20" d="M18.695,17.174L18.695,17.174H6.304l0,0c-0.326,0-0.652,0.217-0.652,0.652
			c0,0.326,0.217,0.652,0.652,0.652h12.391c0.326,0,0.652-0.219,0.652-0.652C19.238,17.391,19.021,17.174,18.695,17.174z"/>
	</g>
</g>
<g id="Layer_7" display="none">
	<g display="inline">
		<path fill="#231F20" d="M18.587,8.479c0.326,0,0.544-0.218,0.544-0.544c0-0.326-0.218-0.543-0.544-0.543l0,0H6.413l0,0
			C6.087,7.283,5.87,7.609,5.87,7.935c0,0.326,0.217,0.544,0.543,0.544H18.587z"/>
		<path fill="#231F20" d="M18.695,14.564H6.63c-0.326,0-0.543,0.219-0.543,0.545c0,0.324,0.217,0.543,0.543,0.543h12.065
			c0.326,0,0.543-0.219,0.543-0.543C19.348,14.891,19.021,14.564,18.695,14.564z"/>
		<path fill="#231F20" d="M6.63,10.979h4.239c0.326,0,0.543-0.218,0.543-0.544c0.109-0.326-0.217-0.652-0.543-0.652H6.63
			c-0.326,0-0.543,0.326-0.543,0.652C6.087,10.761,6.304,10.979,6.63,10.979z"/>
		<path fill="#231F20" d="M6.63,13.479h6.957c0.326,0,0.544-0.218,0.544-0.543c0-0.326-0.218-0.543-0.544-0.543l0,0H6.63l0,0
			c-0.326,0-0.543,0.218-0.543,0.543C6.087,13.261,6.304,13.479,6.63,13.479z"/>
		<path fill="#231F20" d="M14.238,10.979h4.24c0.326,0,0.543-0.218,0.543-0.544c0-0.326-0.217-0.543-0.543-0.543h-4.24
			c-0.325,0-0.543,0.218-0.543,0.543C13.695,10.761,13.913,10.979,14.238,10.979z"/>
		<path fill="#231F20" d="M18.587,12.283L18.587,12.283h-2.174h-0.108c-0.326,0-0.543,0.217-0.543,0.543s0.217,0.543,0.543,0.543
			h0.108h2.065h0.107c0.326,0,0.544-0.217,0.544-0.543C19.131,12.609,18.913,12.283,18.587,12.283z"/>
		<path fill="#231F20" d="M11.63,18.043h6.957c0.326,0,0.544-0.217,0.544-0.543s-0.218-0.543-0.544-0.543l0,0H11.63l0,0
			c-0.326,0-0.543,0.217-0.543,0.543C11.087,17.717,11.304,18.043,11.63,18.043z"/>
		<path fill="#231F20" d="M8.804,16.848L8.804,16.848H6.63l0,0c-0.326,0-0.543,0.219-0.543,0.543c0,0.326,0.217,0.545,0.543,0.545
			h0.109h2.065h0.109c0.326,0,0.543-0.219,0.543-0.545C9.457,17.064,9.13,16.848,8.804,16.848z"/>
	</g>
</g>
<g id="Layer_8" display="none">
	<g display="inline">
		<g>
			<path fill="#231F20" d="M19.021,10.435h-4.674l0,0c-0.326,0-0.543,0.218-0.543,0.544s0.217,0.543,0.543,0.543h4.674l0,0
				c0.326,0,0.543-0.217,0.543-0.543C19.674,10.652,19.348,10.435,19.021,10.435z"/>
			<path fill="#231F20" d="M16.087,8.587v4.674l0,0c0,0.326,0.218,0.544,0.544,0.544s0.543-0.218,0.543-0.544V8.587l0,0
				c0-0.326-0.217-0.543-0.543-0.543C16.413,7.935,16.087,8.261,16.087,8.587z"/>
		</g>
		<path fill="#231F20" d="M19.021,14.891h-4.674l0,0c-0.326,0-0.543,0.219-0.543,0.545c0,0.325,0.217,0.543,0.543,0.543h4.674l0,0
			c0.326,0,0.543-0.218,0.543-0.543C19.674,15.109,19.348,14.891,19.021,14.891z"/>
		<path fill="#231F20" d="M9.348,6.63L9.348,6.63L9.348,6.63c0-0.109-0.108-0.109-0.108-0.109s0-0.108-0.109-0.108
			c0,0,0,0-0.108-0.109c0,0-0.109,0-0.109-0.108h-0.11H8.696H8.587H8.478c0,0-0.108,0-0.108,0.108c0,0,0,0-0.109,0.109
			c0,0,0,0.108-0.108,0.108c0,0,0,0,0,0.109c0,0-3.587,10.543-3.587,10.653c0,0.326,0.217,0.543,0.543,0.543
			c0.217,0,0.435-0.109,0.543-0.326l1.304-3.695h3.478l1.196,3.586l0,0c0.109,0.219,0.326,0.437,0.543,0.437
			c0.326,0,0.543-0.218,0.543-0.543C12.826,17.174,9.348,6.63,9.348,6.63z M7.391,12.717l1.413-4.021l1.305,4.021H7.391z"/>
	</g>
</g>
<g id="Layer_9" display="none">
	<g display="inline">
		<path fill="#231F20" d="M17.064,6.304c-0.326,0-0.543,0.217-0.543,0.543V17.5c-1.306-1.305-3.587-3.587-3.587-3.587
			c-0.108-0.108-0.326-0.218-0.435-0.218s-0.326,0-0.435,0.218c0,0-2.283,2.282-3.587,3.587V6.957c0-0.326-0.217-0.543-0.543-0.543
			C7.609,6.304,7.283,6.63,7.283,6.957v12.064l0,0v0.109l0,0c0,0.108,0.108,0.108,0.108,0.108l0,0l0,0
			c0.109,0.325,0.218,0.325,0.218,0.325l0,0l0,0c0.108,0,0.108,0,0.217,0l0,0c0.108,0,0.108,0,0.217,0l0,0l0,0
			c0.109,0,0.109-0.107,0.217-0.107c0,0,0.109-0.109,0.217-0.218l2.718-2.718l0,0l1.304-1.306l1.306,1.306l0,0l2.717,2.718
			c0.108,0.108,0.108,0.108,0.217,0.218c0.109,0,0.109,0.107,0.219,0.107l0,0l0,0c0.107,0,0.107,0,0.217,0l0,0
			c0.109,0,0.109,0,0.217,0l0,0l0,0c0.109,0,0.109-0.107,0.219-0.107l0,0l0,0c0,0,0.107-0.109,0.107-0.218l0,0v-0.108l0,0V6.957
			C17.717,6.63,17.391,6.304,17.064,6.304z"/>
	</g>
</g>
<g id="Layer_10" display="none">
	<g display="inline">
		<path fill="#231F20" d="M5.87,8.37c0,0.326,0.217,0.543,0.543,0.543h10.651c-1.305,1.304-3.586,3.587-3.586,3.587
			c-0.109,0.109-0.219,0.326-0.219,0.435s0,0.326,0.219,0.435c0,0,2.281,2.282,3.586,3.588H6.413c-0.326,0-0.543,0.217-0.543,0.543
			s0.217,0.543,0.543,0.543h12.065l0,0h0.107l0,0c0.107,0,0.107-0.108,0.107-0.108l0,0l0,0l0.109-0.107l0,0l0,0
			c0-0.109,0-0.109,0-0.217l0,0c0-0.109,0-0.109,0-0.219l0,0l0,0c0-0.107-0.109-0.107-0.109-0.218c0,0-0.107-0.108-0.217-0.217
			l-2.718-2.718l0,0l-1.304-1.305l1.304-1.304l0,0l2.718-2.717c0.108-0.109,0.108-0.109,0.217-0.217
			c0.109,0,0.109-0.109,0.109-0.217l0,0l0,0c0-0.109,0-0.109,0-0.218l0,0c0-0.108,0-0.108,0-0.217l0,0l0,0
			c0-0.109-0.109-0.109-0.109-0.217l0,0l0,0c0,0-0.107-0.109-0.217-0.109l0,0h-0.108l0,0H6.413C6.087,7.826,5.87,8.043,5.87,8.37z"
			/>
	</g>
</g>
<g id="Layer_12" display="none">
	<g display="inline">
		<g>
			<g>
				<path fill="#231F20" d="M17.283,5.543C17.283,5.435,17.283,5.435,17.283,5.543c0.107-0.109,0.107-0.109,0.107-0.109
					c0.108,0,0.108-0.108,0.108-0.108l0,0c0.108,0,0.108,0,0.217,0l0,0l0,0c0.326,0,0.652,0.326,0.652,0.652l0,0l0,0v0.108v0.109
					c0,0.108-0.108,0.108-0.108,0.108s-5.435,5.435-6.195,6.196c0.761,0.761,6.195,6.194,6.195,6.194s0,0,0.108,0.109v0.108v0.108
					l0,0l0,0c0,0.326-0.326,0.651-0.652,0.651l0,0l0,0c-0.106,0-0.106,0-0.217,0l0,0l-0.108-0.108l0,0c0,0-0.107,0-0.107-0.107
					L10.326,12.5L17.283,5.543z"/>
				<path fill="#231F20" d="M17.283,9.239C17.283,9.13,17.283,9.13,17.283,9.239c0.107-0.109,0.107-0.109,0.107-0.109
					c0.108,0,0.108-0.109,0.108-0.109l0,0c0.108,0,0.108,0,0.217,0l0,0l0,0c0.326,0,0.652,0.326,0.652,0.652l0,0l0,0v0.109V9.89
					C18.369,10,18.262,10,18.262,10s-1.195,1.196-2.5,2.5c1.305,1.305,2.5,2.5,2.5,2.5s0,0,0.107,0.109v0.106
					c0,0.109,0,0.109,0,0.109l0,0l0,0c0,0.325-0.326,0.651-0.652,0.651l0,0l0,0c-0.107,0-0.107,0-0.217,0l0,0l-0.109-0.108l0,0
					c0,0-0.106,0-0.106-0.108l-3.263-3.26L17.283,9.239z"/>
			</g>
			<path fill="#231F20" d="M7.826,5.761c0-0.326,0.217-0.543,0.543-0.543c0.326,0,0.652,0.217,0.652,0.543V19.24
				c0,0.218-0.109,0.435-0.326,0.435c-0.109,0-0.109,0-0.218,0c-0.108,0-0.108,0-0.217,0c-0.217-0.108-0.326-0.217-0.326-0.435
				C7.826,19.239,7.826,5.761,7.826,5.761z"/>
		</g>
	</g>
</g>
<g id="Layer_13" display="none">
	<g display="inline">
		<g>
			<circle fill="#231F20" cx="11.413" cy="12.283" r="0.543"/>
			<circle fill="#231F20" cx="8.152" cy="18.479" r="0.543"/>
			<circle fill="#231F20" cx="8.152" cy="15.543" r="0.543"/>
			<path fill="#231F20" d="M13.043,6.739c-4.239,0-7.608,2.391-7.608,5.326c0,1.414,0.87,2.718,2.174,3.695l0,0v2.719
				c0,0.326,0.217,0.543,0.543,0.543c0.108,0,0.108,0,0.217,0l0,0l0,0l0,0l3.478-1.631c0,0,0.87,0.108,1.305,0.108
				c4.238,0,7.717-2.392,7.717-5.326C20.762,9.13,17.391,6.739,13.043,6.739z M13.043,16.195c-0.543,0-0.978,0-1.521-0.108l0,0
				c0,0-0.87,0.544-1.957,1.087C8.478,17.826,8.587,17.5,8.587,17.5l0.217-2.283l0,0c-1.413-0.76-2.282-1.848-2.282-3.151
				c0-2.283,2.935-4.131,6.521-4.131c3.588,0,6.521,1.848,6.521,4.131C19.564,14.348,16.738,16.195,13.043,16.195z"/>
			<circle fill="#231F20" cx="13.043" cy="12.283" r="0.543"/>
			<circle fill="#231F20" cx="14.783" cy="12.283" r="0.543"/>
		</g>
	</g>
</g>
<g id="Layer_14" display="none">
	<g display="inline">
		<path fill="#231F20" d="M19.674,10.217c-0.107-2.608-2.391-4.565-4.891-4.457c-2.609,0.109-4.566,2.392-4.457,4.892
			c0,0.869,0.326,1.739,0.87,2.5l-5.652,5c-0.217,0.217-0.217,0.543,0,0.869c0.217,0.218,0.543,0.218,0.87,0l5.652-5.108
			c0.869,0.761,2.065,1.196,3.261,1.087C17.826,15,19.783,12.826,19.674,10.217z M15.217,13.913
			c-1.955,0.108-3.586-1.413-3.695-3.261c-0.109-1.957,1.413-3.587,3.261-3.696c1.955-0.109,3.586,1.413,3.695,3.261
			C18.587,12.174,17.064,13.805,15.217,13.913z"/>
	</g>
</g>
<g id="Layer_15" display="none">
	<g display="inline">
		<path fill="#231F20" d="M17.064,14.239c0,0,0.436,0.325,0.979-0.218c0.544-0.652,0.652,0.218,0.652,0.218l-0.436,1.194
			l-0.869-0.107l-0.435-0.217l-0.108-0.219L17.064,14.239z"/>
		<path fill="#231F20" d="M19.564,12.5c0-3.913-3.151-7.065-7.064-7.065S5.435,8.587,5.435,12.5s3.152,7.064,7.065,7.064
			c0.979,0,1.848-0.217,2.717-0.543l0,0l0,0c0.326-0.108,0.762-0.326,1.088-0.543c0,0,0.108,0,0.108-0.109l0,0l0,0
			c0.108-0.108,0.218-0.326,0.218-0.543c0-0.326-0.326-0.652-0.652-0.652c-0.108,0-0.326,0-0.436,0.109l0,0
			c-0.107,0.107-0.217,0.107-0.326,0.107c-0.869,0.436-1.848,0.762-2.934,0.762c-3.261,0-5.87-2.609-5.87-5.87
			c0-3.261,2.609-5.87,5.87-5.87c3.26,0,5.869,2.608,5.869,5.87c0,0.543-0.108,0.978-0.217,1.413
			c-0.108,0.218-0.326,0.544-0.869,0.652l0,0l0,0c-0.436,0-0.871-0.436-0.871-0.869c0,0,0-0.109,0-0.219c0-0.326,0-0.543,0-0.87l0,0
			l0,0c0-1.63,0-3.261,0-3.261c0.109-0.217-0.107-0.435-0.434-0.435c-0.328,0-0.545,0.217-0.545,0.543V9.78
			c-0.65-0.652-1.63-1.087-2.717-1.087c-2.174,0-3.804,1.63-3.804,3.804s1.739,3.805,3.804,3.805c1.087,0,1.848-0.325,2.609-1.088
			c0,0,0.217-0.217,0.434-0.435l0,0c0,0,0.544,0.652,1.414,0.869l0,0l0,0l0,0c0.107,0,0.217,0,0.434,0
			c0.545,0,0.979-0.217,1.196-0.325c0.108,0,1.087-0.761,0.979-2.717C19.564,12.609,19.564,12.609,19.564,12.5z M12.5,15.109
			c-1.413,0-2.609-1.196-2.609-2.609s1.196-2.609,2.609-2.609s2.609,1.196,2.609,2.609c0,0,0,0,0,0.109l0,0
			C15.109,14.021,13.913,15.109,12.5,15.109z"/>
	</g>
</g>
<g id="Layer_16" display="none">
	<g display="inline">
		<path fill="#231F20" d="M13.587,5.543L13.587,5.543c0.108-0.109,0.108-0.109,0.108-0.109l0.109-0.108l0,0c0.107,0,0.107,0,0.217,0
			l0,0l0,0c0.326,0,0.651,0.326,0.651,0.652l0,0l0,0v0.108v0.109c0,0.108-0.108,0.108-0.108,0.108S9.239,11.63,8.37,12.391
			c0.761,0.761,6.087,6.087,6.196,6.087c0,0,0,0.107,0.107,0.107v0.107c0,0.109,0,0.109,0,0.109l0,0l0,0
			c0,0.326-0.326,0.652-0.652,0.652l0,0l0,0c-0.107,0-0.107,0-0.217,0l0,0l-0.109-0.109l0,0c0,0-0.107,0-0.107-0.107L6.63,12.283
			L13.587,5.543z"/>
		<path fill="#231F20" d="M13.587,9.239L13.587,9.239c0.108-0.109,0.108-0.109,0.108-0.109l0.109-0.109l0,0c0.107,0,0.107,0,0.217,0
			l0,0l0,0c0.326,0,0.651,0.326,0.651,0.652l0,0l0,0v0.109V9.89C14.674,10,14.564,10,14.564,10s-1.195,1.196-2.5,2.5
			c1.304,1.305,2.5,2.5,2.5,2.5s0,0,0.108,0.109v0.106c0,0.109,0,0.109,0,0.109l0,0l0,0c0,0.325-0.325,0.651-0.651,0.651l0,0l0,0
			c-0.108,0-0.108,0-0.217,0l0,0l-0.109-0.108l0,0c0,0-0.108,0-0.108-0.108l-3.261-3.26L13.587,9.239z"/>
	</g>
</g>
<g id="Layer_17" display="none">
	<g display="inline">
		<path fill="#231F20" d="M11.413,5.543C11.413,5.435,11.413,5.435,11.413,5.543c-0.109-0.109-0.109-0.109-0.109-0.109
			c-0.108,0-0.108-0.108-0.108-0.108l0,0c-0.109,0-0.109,0-0.218,0l0,0l0,0c-0.326,0-0.652,0.326-0.652,0.652l0,0l0,0v0.108v0.109
			c0,0.108,0.108,0.108,0.108,0.108s5.435,5.435,6.196,6.196c-0.762,0.761-6.196,6.194-6.196,6.194s0,0-0.108,0.109v0.108v0.108l0,0
			l0,0c0,0.326,0.326,0.651,0.652,0.651l0,0l0,0c0.109,0,0.109,0,0.218,0l0,0l0.108-0.108l0,0c0,0,0.109,0,0.109-0.107l6.956-6.957
			L11.413,5.543z"/>
		<path fill="#231F20" d="M11.413,9.239C11.413,9.13,11.413,9.13,11.413,9.239C11.304,9.13,11.304,9.13,11.304,9.13
			c-0.108,0-0.108-0.109-0.108-0.109l0,0c-0.109,0-0.109,0-0.218,0l0,0l0,0c-0.326,0-0.652,0.326-0.652,0.652l0,0l0,0v0.109V9.89
			c0,0.11,0.109,0.11,0.109,0.11s1.196,1.196,2.5,2.5c-1.304,1.305-2.5,2.5-2.5,2.5s0,0.109-0.108,0.109v0.106
			c0,0.109,0,0.109,0,0.109l0,0l0,0c0,0.325,0.326,0.651,0.652,0.651l0,0l0,0c0.109,0,0.109,0,0.218,0l0,0l0.108-0.108l0,0
			c0,0,0.109,0,0.109-0.108l3.261-3.261L11.413,9.239z"/>
	</g>
</g>
<g id="Layer_18" display="none">
	<g display="inline">
		<g>
			<path fill="#231F20" d="M7.717,5.543C7.717,5.435,7.717,5.435,7.717,5.543C7.609,5.435,7.609,5.435,7.609,5.435
				c0-0.108-0.109-0.108-0.109-0.108l0,0c-0.109,0-0.109,0-0.217,0l0,0l0,0C6.848,5.217,6.522,5.543,6.522,5.87l0,0l0,0v0.109v0.108
				c0,0.109,0.108,0.109,0.108,0.109s5.435,5.435,6.196,6.195c-0.761,0.761-6.196,6.196-6.196,6.196s0,0-0.108,0.108v0.109
				c0,0.107,0,0.107,0,0.107l0,0l0,0c0,0.326,0.326,0.652,0.652,0.652l0,0l0,0c0.109,0,0.109,0,0.217,0l0,0L7.5,19.457l0,0
				c0,0,0.109,0,0.109-0.109l6.958-6.957L7.717,5.543z"/>
			<path fill="#231F20" d="M7.717,9.239C7.717,9.13,7.717,9.13,7.717,9.239C7.609,9.13,7.609,9.13,7.609,9.13
				c0-0.109-0.109-0.109-0.109-0.109l0,0c-0.109,0-0.109,0-0.217,0l0,0l0,0C6.848,8.913,6.522,9.239,6.522,9.565l0,0l0,0v0.108
				v0.109C6.522,9.89,6.63,9.89,6.63,9.89s1.196,1.196,2.5,2.5c-1.304,1.303-2.5,2.5-2.5,2.5s0,0-0.108,0.108v0.108
				c0,0.107,0,0.107,0,0.107l0,0l0,0c0,0.326,0.326,0.652,0.652,0.652l0,0l0,0c0.109,0,0.109,0,0.217,0l0,0L7.5,15.761l0,0
				c0,0,0.109,0,0.109-0.108l3.261-3.26L7.717,9.239z"/>
		</g>
		<path fill="#231F20" d="M17.174,5.761c0-0.326-0.217-0.543-0.543-0.543s-0.544,0.217-0.544,0.543V19.24
			c0,0.218,0.108,0.435,0.326,0.435c0.108,0,0.108,0,0.218,0c0.107,0,0.107,0,0.217,0c0.219-0.108,0.326-0.217,0.326-0.435V5.761z"
			/>
	</g>
</g>
<g id="Layer_19" display="none">
	<g display="inline">
		<path fill="#231F20" d="M18.479,5.543H6.739c-0.217,0-0.326,0.109-0.435,0.217C6.196,5.87,6.087,5.979,6.087,6.196V7.5v10.543
			v1.305c0,0.326,0.217,0.543,0.543,0.543h11.849c0.326,0,0.543-0.217,0.543-0.543v-1.305V7.5V6.196
			C19.131,5.87,18.805,5.543,18.479,5.543z M17.936,7.5v10.543v0.762H7.283v-0.762V7.5V6.739h10.652V7.5z"/>
		<path fill="#231F20" d="M16.305,9.565C16.305,9.457,16.305,9.457,16.305,9.565c-0.109-0.109-0.109-0.109-0.109-0.109s0,0-0.107,0
			H15.98h-0.109c0,0,0,0-0.107,0l0,0c-0.219,0-6.414,0-6.414,0C9.13,9.239,8.804,9.565,8.804,9.783l0,0v1.196
			c0,0.326,0.218,0.543,0.543,0.543c0.326,0,0.543-0.217,0.543-0.543v-0.544h2.065c0,0,0,3.805,0,5.217h-0.543
			c-0.326,0-0.543,0.218-0.543,0.543c0,0.326,0.217,0.545,0.543,0.545h2.174c0.326,0,0.544-0.219,0.544-0.545
			c0-0.325-0.218-0.543-0.544-0.543h-0.544c0-1.194,0-4.021,0-5.217c0,0,1.306,0,2.065,0v0.544c0,0.326,0.218,0.543,0.543,0.543
			c0.326,0,0.543-0.217,0.543-0.543V9.891V9.783C16.413,9.674,16.305,9.565,16.305,9.565z"/>
	</g>
</g>
<g id="Layer_20" display="none">
	<g display="inline">
		<g>
			<circle fill="#231F20" cx="8.043" cy="7.174" r="0.543"/>
			<path fill="#231F20" d="M8.587,9.674c0,0.326-0.217,0.543-0.543,0.543S7.5,10,7.5,9.674c0-0.326,0.217-0.544,0.543-0.544
				C8.37,9.021,8.587,9.348,8.587,9.674z"/>
			<circle fill="#231F20" cx="8.043" cy="12.283" r="0.543"/>
			<path fill="#231F20" d="M8.587,14.891c0,0.326-0.217,0.545-0.543,0.545S7.5,15.217,7.5,14.891c0-0.324,0.217-0.543,0.543-0.543
				C8.37,14.239,8.587,14.564,8.587,14.891z"/>
			<path fill="#231F20" d="M8.587,17.283c0,0.326-0.217,0.543-0.543,0.543S7.5,17.609,7.5,17.283s0.217-0.544,0.543-0.544
				S8.587,16.957,8.587,17.283z"/>
			<g>
				<path fill="#231F20" d="M16.957,16.848h-1.414h-3.804h-1.413c-0.326,0-0.543,0.219-0.543,0.543c0,0.326,0.217,0.545,0.543,0.545
					h1.413h3.804h1.414c0.326,0,0.543-0.219,0.543-0.545C17.609,17.064,17.283,16.848,16.957,16.848z"/>
				<path fill="#231F20" d="M16.957,9.239h-1.414h-3.804h-1.413c-0.326,0-0.543,0.326-0.543,0.652c0,0.326,0.217,0.543,0.543,0.543
					h1.413h3.804h1.414c0.326,0,0.543-0.217,0.543-0.543C17.609,9.565,17.283,9.239,16.957,9.239z"/>
				<path fill="#231F20" d="M16.957,11.848h-1.414h-3.804h-1.413c-0.326,0-0.543,0.218-0.543,0.543c0,0.326,0.217,0.652,0.543,0.652
					h1.413h3.804h1.414c0.326,0,0.543-0.217,0.543-0.543C17.609,12.065,17.283,11.848,16.957,11.848z"/>
				<path fill="#231F20" d="M16.957,14.348L16.957,14.348h-1.414h-3.804h-1.413l0,0c-0.326,0-0.543,0.219-0.543,0.543
					c0,0.326,0.217,0.545,0.543,0.545h1.413h3.804h1.414c0.326,0,0.543-0.219,0.543-0.545
					C17.609,14.564,17.283,14.348,16.957,14.348z"/>
				<path fill="#231F20" d="M10.326,7.826h1.413h3.804h1.414c0.326,0,0.543-0.217,0.543-0.543c0-0.326-0.217-0.543-0.543-0.543l0,0
					h-1.414h-3.804h-1.413l0,0C10,6.63,9.783,6.957,9.783,7.283C9.783,7.609,10,7.826,10.326,7.826z"/>
			</g>
		</g>
	</g>
</g>
<g id="Layer_21" display="none">
	<g display="inline">
		<g>
			<path fill="#231F20" d="M15.543,15.652c0-0.326-0.217-0.543-0.543-0.543c-0.436,0-0.543,0.324-0.543,0.324l-1.74,4.676
				c-0.761-1.631-2.174-4.676-2.174-4.676l0,0l-0.109-0.107l-0.108-0.109l-0.217-0.107c-0.326,0-0.543,0.218-0.543,0.543v0.108
				c0,0.108,2.608,5.87,2.608,5.87c0,0.108,0.109,0.217,0.109,0.217c0,0.109,0.108,0.109,0.108,0.219l0,0l0,0l0.109,0.107l0,0
				c0.109,0,0.109,0,0.217,0l0,0l0,0c0.109,0,0.109,0,0.217,0l0,0l0,0c0.108,0,0.108-0.107,0.108-0.107l0,0l0.108-0.108l0,0
				C13.262,21.739,15.543,15.652,15.543,15.652z"/>
			<path fill="#231F20" d="M15.326,13.043c0,0-1.305,0-2.826,0c-1.413,0-2.826,0-2.826,0c-0.326,0-0.543,0.218-0.543,0.544
				s0.217,0.544,0.543,0.544h1.848h1.957h1.849c0.325,0,0.543-0.218,0.543-0.544C15.869,13.369,15.652,13.043,15.326,13.043z"/>
			<path fill="#231F20" d="M15.869,4.457L15.869,4.457c0-0.326-0.217-0.543-0.543-0.543c0,0-1.305,0-2.826,0
				c-1.413,0-2.826,0-2.826,0c-0.326,0-0.543,0.217-0.543,0.543c0,0,0,0,0,0.109v6.63c0,0,0,0.326,0,0.543l0,0l0,0l0,0
				c0,0.108,0.109,0.217,0.109,0.326c0.108,0.108,0.217,0.217,0.435,0.217h1.848h1.958h1.848l0,0c0.107,0,0.107,0,0.107,0l0,0l0,0
				c0.219-0.109,0.326-0.217,0.326-0.435l0,0l0,0l0,0C15.869,10.979,15.869,6.957,15.869,4.457z M12.5,10.979
				c-0.87,0-1.63,0-2.174,0c0-1.196,0-3.913,0-5.979h1.196h1.957h1.195v5.979C14.131,10.979,13.369,10.979,12.5,10.979z"/>
		</g>
	</g>
</g>
<g id="Layer_22" display="none">
	<g display="inline">
		<g>
			<path fill="#231F20" d="M18.587,7.065L18.587,7.065L18.262,5V4.891h-0.109l-2.064,0.218H15.98c-0.326,0-0.545,0.326-0.545,0.652
				c0,0.326,0.326,0.543,0.652,0.543h0.107l0.979-0.108l0.109,0.978v0.109c0,0.326,0.325,0.543,0.651,0.543
				C18.479,7.717,18.695,7.391,18.587,7.065z"/>
			<path fill="#231F20" d="M21.521,9.13L21.521,9.13L21.521,9.13c0-0.109-0.108-0.109-0.108-0.217l0,0l0,0
				c0,0-0.108-0.109-0.218-0.109l0,0h-0.108l0,0h-5c-0.108-0.108-0.108-0.217-0.108-0.217l0,0L13.043,3.37
				c-0.108-0.217-0.326-0.326-0.434-0.326c0,0,0,0-0.109,0c0,0,0,0-0.109,0c-0.217,0-0.326,0.109-0.435,0.326L9.13,8.587l0,0
				c0,0-0.108,0.109-0.108,0.217h-5l0,0H3.913l0,0c-0.109,0-0.109,0.109-0.217,0.109l0,0l0,0c0,0-0.109,0.108-0.109,0.217l0,0l0,0
				c0,0.109,0,0.109,0,0.217c0,0,0,0,0,0.109s0,0.109,0,0.217l0,0l0,0v0.109c0,0,0.109,0.108,0.217,0.217l4.022,4.021
				c0,0,0.108,0.109,0.108,0.326l0,0l0,0l-0.761,1.631l0,0l-1.521,3.588c0,0.107-0.109,0.218-0.109,0.218c0,0.106,0,0.106,0,0.217
				l0,0l0,0c0,0.108,0,0.108,0,0.217l0,0c0,0.109,0.109,0.109,0.109,0.218l0,0l0,0c0,0,0.108,0.108,0.217,0.108l0,0l0,0
				c0.108,0,0.108,0,0.217,0l0,0h0.109l0,0l4.348-1.737c0.87-0.326,1.63-0.652,1.957-0.763l6.087,2.5l0,0h0.108l0,0
				c0.109,0,0.109,0,0.218,0l0,0l0,0c0.108,0,0.108-0.108,0.218-0.108l0,0l0,0c0,0,0.107-0.107,0.107-0.218l0,0c0,0,0-0.106,0-0.217
				l0,0l0,0c0-0.108,0-0.108,0-0.217l-2.391-5.437l0,0l0,0c-0.109-0.107,0.108-0.326,0.108-0.326l0,0l0,0L20.979,10
				c0.108-0.109,0.108-0.109,0.217-0.217c0.109-0.109,0.109-0.109,0.109-0.217l0,0l0,0c0-0.109,0-0.109,0-0.218c0,0,0,0,0-0.108
				C21.521,9.348,21.521,9.239,21.521,9.13z M15.869,13.587c-0.107,0.108-0.107,0.108-0.107,0.218l0,0l0,0
				c-0.109,0.108-0.109,0.326,0,0.436c0,0,1.195,2.935,1.955,4.674l-4.891-1.956c-0.217,0-0.326-0.108-0.543,0L10.87,17.5
				l-3.696,1.413c0.761-1.739,1.957-4.674,1.957-4.674c0.109-0.326,0.109-0.435-0.108-0.652c0,0-2.283-2.283-3.587-3.587h3.913l0,0
				c0.218,0,0.326-0.109,0.435-0.326c0,0,1.739-3.152,2.608-4.783C13.262,6.521,15,9.674,15,9.674C15.109,9.891,15.326,10,15.543,10
				l0,0h3.914C18.152,11.304,15.869,13.587,15.869,13.587z"/>
			<path fill="#231F20" d="M6.087,7.174L6.087,7.174l0.326-2.065V5h0.109l2.065,0.217h0.109c0.326,0,0.543,0.326,0.543,0.652
				c0,0.326-0.326,0.544-0.652,0.544H8.478L7.391,6.304L7.283,7.283v0.108c0,0.326-0.326,0.543-0.652,0.543
				C6.304,7.826,6.087,7.5,6.087,7.174z"/>
			<path fill="#231F20" d="M5.761,16.087L5.761,16.087l-1.957-0.87H3.696v-0.107l0.761-1.957v-0.108
				c0.109-0.326,0.435-0.434,0.761-0.326c0.326,0.109,0.435,0.435,0.326,0.761v0.108l-0.326,0.87l0.87,0.434h0.109
				c0.326,0.326,0.543,0.652,0.326,0.979C6.413,16.087,6.087,16.305,5.761,16.087z"/>
			<path fill="#231F20" d="M19.457,16.087L19.457,16.087l1.956-0.87h0.108v-0.107l-0.869-1.849v-0.108
				c-0.109-0.325-0.437-0.435-0.762-0.325c-0.326,0.217-0.435,0.543-0.326,0.761v0.107l0.326,0.871L19.021,15h-0.108
				c-0.326,0.109-0.435,0.436-0.326,0.761C18.805,16.087,19.131,16.305,19.457,16.087z"/>
			<path fill="#231F20" d="M14.131,20.436L14.131,20.436l-1.522,1.521l0,0l0,0l-1.522-1.414l-0.109-0.107
				c-0.217-0.219-0.217-0.545,0-0.869c0.218-0.219,0.544-0.219,0.87,0l0.109,0.107l0.761,0.652l0.761-0.652l0.108-0.107
				c0.218-0.219,0.651-0.219,0.87,0C14.674,19.783,14.457,20.109,14.131,20.436z"/>
		</g>
	</g>
</g>
<g id="Layer_24" display="none">
	<g display="inline">
		<path fill="#231F20" d="M12.5,19.131c-0.326,0-0.652,0.326-0.652,0.652V20l0,0c0,0.652,0,1.087,0,1.087
			c0,0.326,0.326,0.652,0.652,0.652s0.652-0.326,0.652-0.652v-0.218l0,0c0-0.652,0-1.086,0-1.086
			C13.152,19.348,12.935,19.131,12.5,19.131z"/>
		<path fill="#231F20" d="M12.5,5.87c0.326,0,0.652-0.217,0.652-0.652V5l0,0c0-0.652,0-1.087,0-1.087
			c0-0.326-0.326-0.652-0.652-0.652s-0.543,0.326-0.543,0.652V4.13l0,0c0,0.652,0,1.087,0,1.087C11.957,5.652,12.174,5.87,12.5,5.87
			z"/>
		<path fill="#231F20" d="M21.087,11.848h-0.218l0,0c-0.652,0-1.086,0-1.086,0c-0.326,0-0.652,0.326-0.652,0.652
			s0.326,0.652,0.652,0.652H20l0,0c0.652,0,1.087,0,1.087,0c0.326,0,0.651-0.218,0.651-0.652
			C21.738,12.174,21.413,11.848,21.087,11.848z"/>
		<path fill="#231F20" d="M5.217,11.848H5l0,0c-0.652,0-1.087,0-1.087,0c-0.326,0-0.652,0.326-0.652,0.652s0.326,0.652,0.652,0.652
			H4.13l0,0c0.652,0,1.087,0,1.087,0c0.326,0,0.652-0.218,0.652-0.652C5.87,12.174,5.543,11.848,5.217,11.848z"/>
		<path fill="#231F20" d="M19.348,17.391L19.348,17.391c-0.435-0.434-0.761-0.76-0.761-0.76c-0.218-0.218-0.651-0.218-0.87,0
			c-0.217,0.217-0.217,0.652,0,0.869l0.219,0.217l0,0c0.435,0.436,0.76,0.762,0.76,0.762c0.219,0.217,0.652,0.217,0.871,0
			c0.218-0.218,0.218-0.651,0-0.869L19.348,17.391z"/>
		<path fill="#231F20" d="M5.978,7.065L5.978,7.065c0.544,0.543,0.87,0.869,0.87,0.869c0.218,0.218,0.652,0.218,0.87,0
			c0.217-0.217,0.217-0.652,0-0.869L7.5,6.848l0,0C7.065,6.413,6.739,6.087,6.739,6.087c-0.217-0.326-0.652-0.326-0.87,0
			c-0.217,0.217-0.217,0.652,0,0.87L5.978,7.065z"/>
		<path fill="#231F20" d="M7.174,17.5l-0.217,0.217l0,0c-0.435,0.436-0.761,0.762-0.761,0.762c-0.218,0.217-0.218,0.652,0,0.869
			c0.217,0.219,0.652,0.219,0.87,0l0.217-0.217l0,0c0.435-0.436,0.761-0.762,0.761-0.762c0.217-0.217,0.217-0.652,0-0.869
			C7.827,17.283,7.391,17.283,7.174,17.5z"/>
		<path fill="#231F20" d="M18.369,8.261l0.218-0.217l0,0c0.435-0.435,0.761-0.761,0.761-0.761c0.219-0.217,0.219-0.543,0-0.761
			c-0.217-0.217-0.652-0.217-0.869,0L18.262,6.74l0,0C17.826,7.174,17.5,7.5,17.5,7.5c-0.217,0.217-0.217,0.652,0,0.87
			C17.826,8.587,18.152,8.587,18.369,8.261z"/>
		<path fill="#231F20" d="M12.5,7.065c-3.043,0-5.435,2.391-5.435,5.435c0,3.043,2.391,5.436,5.435,5.436
			c3.043,0,5.436-2.393,5.436-5.436S15.543,7.065,12.5,7.065z M12.5,16.739c-2.391,0-4.239-1.956-4.239-4.239
			c0-2.391,1.957-4.239,4.239-4.239c2.391,0,4.238,1.848,4.238,4.239C16.738,14.891,14.891,16.739,12.5,16.739z"/>
	</g>
</g>
<g id="Réteg_25" display="none">
	<g display="inline">
		
			<rect x="5.543" y="9.891" fill="none" stroke="#231F20" stroke-width="1.15" stroke-linecap="round" stroke-linejoin="round" stroke-miterlimit="10" width="13.914" height="8.587"/>
		<g>
			<g>
				<path fill="#231F20" d="M12.5,5.543c1.631,0,3.043,1.522,3.479,3.696H9.022C9.457,7.174,10.87,5.543,12.5,5.543 M12.5,4.348
					c-2.717,0-4.891,2.718-4.891,6.196h9.782C17.391,7.065,15.217,4.348,12.5,4.348L12.5,4.348z"/>
			</g>
		</g>
		
			<circle fill="none" stroke="#231F20" stroke-width="1.15" stroke-linecap="round" stroke-miterlimit="10" cx="12.5" cy="14.239" r="1.522"/>
	</g>
</g>
<g id="Réteg_26" display="none">
	<g display="inline">
		<g>
			<g>
				<path fill="#231F20" d="M12.5,5.87c1.738,0,3.043,1.413,3.043,3.043s-1.412,3.043-3.043,3.043c-1.63,0-3.043-1.304-3.043-2.935
					C9.457,7.391,10.761,5.87,12.5,5.87 M12.5,4.674c-2.391,0-4.348,1.957-4.348,4.348c0,2.392,1.957,4.348,4.348,4.348
					c2.391,0,4.348-1.956,4.348-4.348S14.891,4.674,12.5,4.674L12.5,4.674z"/>
			</g>
		</g>
		<g>
			<g>
				<path fill="#231F20" d="M12.5,13.369c2.936,0,5.326,2.283,5.869,5.218H6.63C7.174,15.543,9.565,13.369,12.5,13.369 M12.5,12.065
					c-4.022,0-7.283,3.478-7.283,7.718h14.566C19.783,15.543,16.521,12.065,12.5,12.065L12.5,12.065z"/>
			</g>
		</g>
	</g>
</g>
<g id="Réteg_27" display="none">
	<g display="inline">
		<path d="M15.762,10.652c-0.326,0-0.545-0.218-0.545-0.543V7.283h-0.979c0,2.065,0,8.586,0,8.586l0,0c0,0.218,0,0.326,0,0.544
			c0,0.544,0,1.087,0,1.521c2.175-2.281,2.936-5.869,3.152-7.282H15.762L15.762,10.652z"/>
		<path d="M12.5,0C5.652,0,0,5.543,0,12.5S5.652,25,12.5,25C19.457,25,25,19.457,25,12.5S19.457,0,12.5,0z M9.239,19.783
			c-0.326,0-0.543-0.219-0.543-0.544c0-0.326,0.217-0.544,0.543-0.544c0.326,0,0.543,0.218,0.543,0.544
			C9.782,19.564,9.565,19.783,9.239,19.783z M9.783,15.869c0,0.218-0.109,0.436-0.326,0.436c-0.109,0-0.109,0-0.217,0
			c-0.109,0-0.109,0-0.217,0c-0.218-0.109-0.326-0.218-0.326-0.436c0-0.108,0-0.543,0-0.543V6.63c0-0.326,0.217-0.543,0.543-0.543
			C9.565,6.196,9.783,6.413,9.783,6.63V15.869z M13.805,19.783L13.805,19.783L13.805,19.783c-0.109,0-0.109,0-0.218,0
			c-0.325,0-0.544-0.219-0.544-0.544v-0.652l0,0v-2.282v-0.436l0,0c0,0,0-0.217,0-0.436V14.13l0,0v-0.651l0,0V6.739c0,0,0,0,0-0.109
			c0-0.109,0,0,0-0.109l0,0l0,0V6.413c0-0.109,0.109-0.217,0.326-0.326l0,0h0.109h0.107h0.107h2.065h0.108l0,0
			c0.326,0,0.544,0.217,0.544,0.543c0,0,0,0,0,0.109c0,0.326,0,1.413,0,2.826h1.521h0.108c0.326,0,0.544,0.217,0.544,0.543
			C17.826,17.174,13.805,19.783,13.805,19.783z"/>
	</g>
</g>
<g id="Réteg_28" display="none">
	
		<rect x="6.739" y="5" display="inline" fill="none" stroke="#231F20" stroke-width="1.25" stroke-linecap="round" stroke-linejoin="round" stroke-miterlimit="10" width="11.63" height="15"/>
	<g display="inline">
		
			<line fill="none" stroke="#231F20" stroke-width="1.25" stroke-linecap="round" stroke-linejoin="round" stroke-miterlimit="10" x1="8.913" y1="8.804" x2="15.979" y2="8.804"/>
		
			<line fill="none" stroke="#231F20" stroke-width="1.25" stroke-linecap="round" stroke-linejoin="round" stroke-miterlimit="10" x1="8.913" y1="11.304" x2="12.826" y2="11.304"/>
		
			<line fill="none" stroke="#231F20" stroke-width="1.25" stroke-linecap="round" stroke-linejoin="round" stroke-miterlimit="10" x1="14.564" y1="11.304" x2="15.979" y2="11.304"/>
		
			<line fill="none" stroke="#231F20" stroke-width="1.25" stroke-linecap="round" stroke-linejoin="round" stroke-miterlimit="10" x1="8.913" y1="13.805" x2="15.979" y2="13.805"/>
		
			<line fill="none" stroke="#231F20" stroke-width="1.25" stroke-linecap="round" stroke-linejoin="round" stroke-miterlimit="10" x1="8.913" y1="16.195" x2="12.826" y2="16.195"/>
		
			<line fill="none" stroke="#231F20" stroke-width="1.25" stroke-linecap="round" stroke-linejoin="round" stroke-miterlimit="10" x1="14.564" y1="16.195" x2="15.979" y2="16.195"/>
	</g>
</g>
<g>
	<g>
		<path fill="#FB5C43" d="M15.287,15.383c0.049-0.297-0.244-0.545-0.543-0.545c-0.4,0-0.471,0.273-0.471,0.273l-1.59,4.287
			c-0.67-1.465-1.954-4.266-1.954-4.266c-0.005-0.012-0.015-0.018-0.021-0.027c-0.026-0.045-0.055-0.088-0.094-0.121
			c-0.038-0.035-0.08-0.066-0.125-0.09c0,0-0.154-0.057-0.238-0.057c-0.301,0-0.543,0.244-0.543,0.545c0,0.016,0,0.068,0,0.08
			c-0.004,0.135,2.437,5.367,2.437,5.367c0.041,0.096,0.08,0.184,0.09,0.207c0.029,0.066,0.074,0.119,0.123,0.166
			c0.002,0,0.004,0.004,0.008,0.01c0.004,0.004,0.012,0.006,0.018,0.012c0.041,0.033,0.086,0.061,0.135,0.082
			c0.016,0.006,0.029,0.016,0.045,0.021c0.061,0.018,0.121,0.029,0.186,0.029h0.002h0.002c0.063-0.002,0.123-0.02,0.18-0.043
			c0.008-0.004,0.018-0.004,0.025-0.008c0.008-0.002,0.012-0.008,0.021-0.012c0.053-0.031,0.105-0.064,0.148-0.111
			c0.01-0.01,0.012-0.023,0.021-0.033c0.031-0.039,0.059-0.08,0.076-0.125c0.004-0.008,0.012-0.012,0.014-0.021
			C13.24,21.004,15.281,15.42,15.287,15.383z"/>
		<path fill="#FB5C43" d="M15.068,13.049c0,0-1.225,0.002-2.568,0.002c-1.342,0-2.567-0.002-2.567-0.002
			c-0.298,0-0.54,0.244-0.54,0.539c0,0.301,0.242,0.541,0.54,0.541h1.659h1.818h1.658c0.297,0,0.539-0.24,0.539-0.541
			C15.607,13.293,15.365,13.049,15.068,13.049z"/>
		<path fill="#FB5C43" d="M15.607,5.078c0-0.002,0-0.002,0-0.004c0-0.297-0.242-0.539-0.539-0.539c0,0-1.225,0-2.568,0
			c-1.342,0-2.567,0-2.567,0c-0.298,0-0.54,0.242-0.54,0.539c0,0.02,0.009,0.039,0.012,0.058l-0.002,6.063
			c0,0-0.008,0.349-0.01,0.468v0.002v0.002c0,0.012,0,0.025,0,0.033c0,0.116,0.052,0.222,0.131,0.308
			c0.1,0.118,0.242,0.196,0.409,0.196h1.659h1.818h1.658c0.016,0,0.027-0.007,0.043-0.007c0.053-0.006,0.104-0.01,0.148-0.026
			c0.004-0.002,0.008-0.004,0.012-0.006c0.006-0.004,0.012-0.008,0.02-0.011c0.184-0.076,0.314-0.241,0.314-0.432
			c0-0.002,0-0.021,0-0.044c0-0.006,0.002-0.009,0.002-0.014c0-0.004-0.002-0.008-0.002-0.014
			C15.605,11.118,15.605,7.396,15.607,5.078z M12.5,11.125c-0.789,0-1.535-0.002-2.019-0.002c0-1.11,0.002-3.609,0.002-5.507h1.109
			h1.818h1.117v5.507C14.045,11.123,13.295,11.125,12.5,11.125z"/>
	</g>
</g>
<path fill="#FB5C43" d="M12.5,1C6.149,1,1,6.148,1,12.499C1,18.85,6.149,24,12.5,24C18.852,24,24,18.85,24,12.499
	C24,6.148,18.852,1,12.5,1z M12.5,22.857c-5.719,0-10.359-4.639-10.359-10.359C2.141,6.777,6.781,2.14,12.5,2.14
	c5.721,0,10.359,4.637,10.359,10.358C22.859,18.219,18.221,22.857,12.5,22.857z"/>
</svg>
