<?xml version="1.0" encoding="utf-8"?>
<!-- Generator: Adobe Illustrator 16.0.0, SVG Export Plug-In . SVG Version: 6.00 Build 0)  -->
<!DOCTYPE svg PUBLIC "-//W3C//DTD SVG 1.1//EN" "http://www.w3.org/Graphics/SVG/1.1/DTD/svg11.dtd">
<svg version="1.1" id="Layer_1" xmlns="http://www.w3.org/2000/svg" xmlns:xlink="http://www.w3.org/1999/xlink" x="0px" y="0px"
	 width="24px" height="24px" viewBox="0 0 24 24" enable-background="new 0 0 24 24" xml:space="preserve">
<g>
	<g>
		<g>
			<path fill="#231F20" d="M11.255,6.876H6.437v0.001c-0.299,0-0.541,0.241-0.541,0.54c0,0.298,0.242,0.539,0.541,0.539h4.818V6.876
				z"/>
			<path fill="#231F20" d="M17.563,6.877L17.563,6.877l-4.817-0.001v1.08h4.817c0.298,0,0.54-0.241,0.54-0.539
				C18.103,7.119,17.86,6.877,17.563,6.877z"/>
		</g>
		<g>
			<path fill="#231F20" d="M11.255,16.191H6.437l0,0c-0.299,0-0.541,0.242-0.541,0.541c0,0.297,0.242,0.539,0.541,0.539h4.818
				V16.191z"/>
			<path fill="#231F20" d="M17.563,16.191L17.563,16.191h-4.817v1.08h4.817c0.298,0,0.54-0.242,0.54-0.539
				C18.103,16.434,17.86,16.191,17.563,16.191z"/>
		</g>
		<g>
			<path fill="#231F20" d="M11.255,9.261H6.437l0,0c-0.299,0-0.541,0.242-0.541,0.541c0,0.298,0.242,0.539,0.541,0.539h4.818V9.261z
				"/>
			<path fill="#231F20" d="M17.563,9.261L17.563,9.261h-4.817v1.08h4.817c0.298,0,0.54-0.241,0.54-0.539
				C18.103,9.503,17.86,9.261,17.563,9.261z"/>
		</g>
		<g>
			<path fill="#231F20" d="M17.563,11.609L17.563,11.609h-4.817v1.081h4.817c0.298,0,0.54-0.242,0.54-0.54
				C18.103,11.851,17.86,11.609,17.563,11.609z"/>
			<path fill="#231F20" d="M11.255,11.609H6.437l0,0c-0.299,0-0.541,0.242-0.541,0.541c0,0.298,0.242,0.54,0.541,0.54h4.818V11.609z
				"/>
		</g>
		<g>
			<path fill="#231F20" d="M11.255,13.918H6.437l0,0c-0.299,0-0.541,0.242-0.541,0.541c0,0.297,0.242,0.539,0.541,0.539h4.818
				V13.918z"/>
			<path fill="#231F20" d="M17.563,13.918L17.563,13.918h-4.817v1.08h4.817c0.298,0,0.54-0.242,0.54-0.539
				C18.103,14.16,17.86,13.918,17.563,13.918z"/>
		</g>
	</g>
	<path fill="#231F20" d="M12,0.599c-6.297,0-11.401,5.104-11.401,11.4c0,6.297,5.104,11.402,11.401,11.402
		c6.296,0,11.401-5.105,11.401-11.402C23.401,5.703,18.296,0.599,12,0.599z M12,22.269c-5.671,0-10.271-4.598-10.271-10.27
		S6.329,1.729,12,1.729s10.27,4.598,10.27,10.27S17.671,22.269,12,22.269z"/>
</g>
</svg>
