<?xml version="1.0" encoding="utf-8"?>
<!-- Generator: Adobe Illustrator 16.0.0, SVG Export Plug-In . SVG Version: 6.00 Build 0)  -->
<!DOCTYPE svg PUBLIC "-//W3C//DTD SVG 1.1//EN" "http://www.w3.org/Graphics/SVG/1.1/DTD/svg11.dtd">
<svg version="1.1" id="Layer_1" xmlns="http://www.w3.org/2000/svg" xmlns:xlink="http://www.w3.org/1999/xlink" x="0px" y="0px"
	 width="50px" height="50px" viewBox="0 0 50 50" enable-background="new 0 0 50 50" xml:space="preserve">
<g>
	<path fill="#FFFFFF" d="M33.944,24.367c0,4.89-3.966,8.862-8.862,8.862c-4.895,0-8.864-3.972-8.864-8.862
		c0-4.896,3.969-8.863,8.864-8.863C29.979,15.504,33.944,19.471,33.944,24.367z"/>
	<path fill="#231F20" d="M25.083,34.566c-5.624,0-10.201-4.575-10.201-10.2s4.578-10.201,10.201-10.201
		c5.625,0,10.2,4.577,10.2,10.201S30.707,34.566,25.083,34.566z M25.083,16.842c-4.148,0-7.525,3.375-7.525,7.525
		c0,4.148,3.377,7.524,7.525,7.524c4.148,0,7.524-3.376,7.524-7.524C32.606,20.217,29.23,16.842,25.083,16.842z"/>
</g>
<g>
	<path fill="#231F20" d="M25.72,40.085c-17.504,0-24.834-14.513-25.137-15.129l-0.294-0.599L0.59,23.76
		C0.902,23.145,8.45,8.646,25.938,8.646c17.583,0,23.633,15.083,23.691,15.236l0.193,0.493l-0.199,0.491
		C49.562,25.017,43.288,40.085,25.72,40.085z M3.31,24.381c1.529,2.675,8.35,13.028,22.41,13.028c14.059,0,20.027-10.639,21.2-13.06
		c-1.139-2.483-6.816-13.027-20.981-13.027C11.996,11.322,4.877,21.76,3.31,24.381z"/>
</g>
<g>
	<path fill="#FFFFFF" d="M21.293,24.783c0,0-0.67-4.264,4.264-4.849"/>
	<path fill="#231F20" d="M21.292,26.121c-0.648,0-1.217-0.47-1.321-1.13c-0.037-0.234-0.318-2.332,1.051-4.139
		c0.954-1.26,2.428-2.016,4.377-2.248c0.726-0.092,1.399,0.438,1.487,1.171c0.087,0.734-0.438,1.399-1.17,1.487
		c-1.201,0.142-2.062,0.548-2.562,1.205c-0.689,0.911-0.542,2.096-0.539,2.107c0.113,0.73-0.386,1.415-1.115,1.53
		C21.43,26.116,21.359,26.121,21.292,26.121z"/>
</g>
</svg>
