<?xml version="1.0" encoding="utf-8"?>
<!-- Generator: Adobe Illustrator 16.0.0, SVG Export Plug-In . SVG Version: 6.00 Build 0)  -->
<!DOCTYPE svg PUBLIC "-//W3C//DTD SVG 1.1//EN" "http://www.w3.org/Graphics/SVG/1.1/DTD/svg11.dtd">
<svg version="1.1" id="Layer_1" xmlns="http://www.w3.org/2000/svg" xmlns:xlink="http://www.w3.org/1999/xlink" x="0px" y="0px"
	 width="50px" height="50px" viewBox="0 0 50 50" enable-background="new 0 0 50 50" xml:space="preserve">
<path fill="#9B9B9B" d="M25.083,34.566c-5.624,0-10.201-4.575-10.201-10.2s4.578-10.201,10.201-10.201
	c5.625,0,10.2,4.577,10.2,10.201S30.707,34.566,25.083,34.566z M25.083,16.842c-4.148,0-7.525,3.375-7.525,7.525
	c0,4.148,3.377,7.523,7.525,7.523c4.147,0,7.524-3.375,7.524-7.523C32.605,20.217,29.23,16.842,25.083,16.842z"/>
<g>
	<path fill="#9B9B9B" d="M25.721,40.085c-17.505,0-24.834-14.513-25.138-15.129l-0.294-0.599L0.59,23.76
		C0.902,23.145,8.45,8.646,25.938,8.646c17.584,0,23.633,15.083,23.691,15.236l0.193,0.493l-0.199,0.491
		C49.563,25.017,43.288,40.085,25.721,40.085z M3.31,24.381c1.529,2.676,8.35,13.028,22.411,13.028
		c14.059,0,20.026-10.64,21.199-13.06c-1.139-2.483-6.816-13.027-20.98-13.027C11.996,11.322,4.877,21.76,3.31,24.381z"/>
</g>
<g>
	<path fill="#9B9B9B" d="M21.293,24.783c0,0-0.67-4.264,4.264-4.849"/>
	<path fill="#9B9B9B" d="M21.292,26.121c-0.648,0-1.217-0.471-1.321-1.13c-0.037-0.234-0.318-2.332,1.051-4.139
		c0.954-1.26,2.428-2.016,4.377-2.248c0.726-0.092,1.399,0.438,1.488,1.171c0.086,0.734-0.439,1.399-1.171,1.487
		c-1.201,0.142-2.062,0.548-2.562,1.205c-0.689,0.911-0.542,2.096-0.539,2.107c0.113,0.73-0.386,1.415-1.115,1.529
		C21.43,26.116,21.359,26.121,21.292,26.121z"/>
</g>
</svg>
