<?xml version="1.0" encoding="utf-8"?>
<!-- Generator: Adobe Illustrator 16.0.0, SVG Export Plug-In . SVG Version: 6.00 Build 0)  -->
<!DOCTYPE svg PUBLIC "-//W3C//DTD SVG 1.1//EN" "http://www.w3.org/Graphics/SVG/1.1/DTD/svg11.dtd">
<svg version="1.1" id="Layer_1" xmlns="http://www.w3.org/2000/svg" xmlns:xlink="http://www.w3.org/1999/xlink" x="0px" y="0px"
	 width="50px" height="50px" viewBox="0 0 50 50" enable-background="new 0 0 50 50" xml:space="preserve">
<path fill="#F15D46" d="M24.917,0C11.155,0,0,11.155,0,24.915c0,13.762,11.155,24.919,24.917,24.919
	c13.76,0,24.916-11.157,24.916-24.919C49.833,11.155,38.677,0,24.917,0z M24.917,47.357c-12.393,0-22.446-10.048-22.446-22.443
	c0-12.397,10.053-22.443,22.446-22.443c12.393,0,22.443,10.046,22.443,22.443C47.36,37.31,37.31,47.357,24.917,47.357z"/>
<path fill="#F15D46" d="M17.168,33.989c0,0.647-0.529,1.177-1.181,1.177c-0.652,0-1.177-0.529-1.177-1.177
	c0-0.655,0.525-1.176,1.177-1.176C16.639,32.813,17.168,33.334,17.168,33.989z"/>
<path fill="#F15D46" d="M17.168,38.915c0,0.652-0.529,1.177-1.181,1.177c-0.652,0-1.177-0.524-1.177-1.177
	c0-0.655,0.525-1.181,1.177-1.181C16.639,37.734,17.168,38.26,17.168,38.915z"/>
<path fill="#F15D46" d="M33.853,37.904h-2.785h-7.653H20.63c-0.647,0-1.172,0.524-1.172,1.172c0,0.644,0.525,1.168,1.172,1.168
	h2.785h7.653h2.785c0.645,0,1.17-0.524,1.17-1.168C35.022,38.429,34.497,37.904,33.853,37.904z"/>
<path fill="#F15D46" d="M33.853,32.979L33.853,32.979h-2.785h-7.653H20.63l0,0c-0.647,0-1.172,0.524-1.172,1.172
	s0.525,1.172,1.172,1.172h2.785h7.653h2.785c0.645,0,1.17-0.524,1.17-1.172S34.497,32.979,33.853,32.979z"/>
<g>
	<path fill="#F15D46" d="M36.78,14.252c-0.002-0.004-0.002-0.004-0.002-0.004c0-0.002,0-0.002,0-0.004
		c-0.034-0.081-0.089-0.154-0.146-0.22c-0.009-0.008-0.011-0.021-0.02-0.029c-0.013-0.011-0.023-0.013-0.031-0.021
		c-0.066-0.059-0.138-0.11-0.223-0.146c-0.015-0.006-0.034-0.006-0.055-0.015c-0.063-0.021-0.134-0.036-0.203-0.042
		c-0.015,0-0.025-0.008-0.038-0.008l-6.572-0.017c-0.091-0.163-0.178-0.317-0.178-0.317l0,0l-3.705-6.826
		c-0.129-0.237-0.364-0.368-0.612-0.394c-0.032,0-0.062-0.004-0.095-0.004c-0.032,0-0.062,0.004-0.095,0.004
		c-0.249,0.025-0.483,0.157-0.609,0.394l-3.707,6.826h-0.001c0,0-0.086,0.155-0.176,0.313l-6.54,0.021
		c-0.012,0-0.023,0.008-0.036,0.008c-0.068,0.004-0.138,0.021-0.205,0.042c-0.019,0.006-0.037,0-0.056,0.013
		c-0.083,0.034-0.154,0.084-0.22,0.144c-0.008,0.008-0.02,0.013-0.029,0.023c-0.008,0.009-0.012,0.017-0.021,0.032
		c-0.057,0.06-0.112,0.136-0.143,0.216c-0.002,0-0.002,0.004-0.002,0.006h-0.002c-0.033,0.085-0.047,0.174-0.05,0.265
		c-0.002,0.025,0.001,0.046,0.002,0.072c0.004,0.072,0.02,0.148,0.046,0.22c0.003,0.013,0.003,0.021,0.005,0.03
		c0.003,0.008,0.008,0.008,0.01,0.017c0.04,0.089,0.087,0.174,0.161,0.246c0.026,0.027,0.124,0.119,0.232,0.222l5.33,5.281
		c0,0,0.127,0.182,0.09,0.444l0,0l0,0l-0.931,2.184l-0.016,0.006l-2.008,4.704c-0.063,0.135-0.118,0.264-0.132,0.296
		c-0.04,0.093-0.053,0.19-0.057,0.288c0.001,0.006-0.002,0.013-0.002,0.017c0,0.013,0.005,0.017,0.005,0.031
		c0.004,0.076,0.018,0.15,0.042,0.225c0.008,0.021,0.013,0.04,0.024,0.063c0.036,0.085,0.083,0.159,0.145,0.227c0,0,0.002,0,0.003,0
		c0,0.002,0.003,0.002,0.003,0.006c0.061,0.062,0.136,0.112,0.214,0.15c0.014,0.007,0.021,0.011,0.034,0.02
		c0.009,0.004,0.022,0.004,0.033,0.008c0.082,0.028,0.168,0.049,0.26,0.051c0.018,0,0.037-0.008,0.056-0.01
		c0.07,0,0.14-0.016,0.205-0.034c0.013-0.007,0.025-0.007,0.035-0.011l5.66-2.274c1.14-0.446,2.129-0.836,2.551-1.003l8.036,3.221
		c0.009,0.002,0.021,0.002,0.034,0.006c0.067,0.02,0.135,0.034,0.207,0.036c0.017,0,0.034,0.011,0.055,0.011
		c0.089-0.002,0.176-0.021,0.259-0.053c0.013-0.005,0.023-0.003,0.033-0.009c0.016-0.002,0.021-0.017,0.032-0.021
		c0.082-0.038,0.156-0.084,0.218-0.147c0,0,0-0.005,0.004-0.005l0,0c0.063-0.065,0.11-0.144,0.148-0.227
		c0.009-0.021,0.013-0.042,0.021-0.065c0.025-0.069,0.038-0.146,0.042-0.222c0-0.009,0.004-0.021,0.004-0.03
		c0-0.008-0.002-0.013-0.002-0.021c-0.002-0.096-0.017-0.192-0.057-0.284c-0.013-0.038-3.085-7.194-3.085-7.194l0,0l0,0
		c-0.078-0.184,0.078-0.376,0.08-0.376h0.004H31.04l5.332-5.281c0.11-0.104,0.207-0.195,0.232-0.227
		c0.072-0.074,0.123-0.156,0.161-0.243c0-0.004,0.007-0.008,0.009-0.017c0.004-0.008,0.004-0.021,0.008-0.027
		c0.025-0.074,0.038-0.15,0.047-0.224c0-0.025,0-0.049,0-0.074C36.829,14.426,36.813,14.337,36.78,14.252z M29.415,20.038
		c-0.074,0.074-0.131,0.165-0.165,0.256l-0.009-0.002l0,0c-0.08,0.184-0.089,0.402,0,0.601c0,0,1.623,3.805,2.62,6.13l-6.499-2.561
		c-0.26-0.065-0.444-0.083-0.701,0l-1.886,0.734l-4.797,1.899c0.994-2.323,2.626-6.14,2.626-6.14
		c0.143-0.402,0.182-0.55-0.183-0.922c0,0-2.976-2.954-4.768-4.731l5.183-0.017v-0.013c0.255-0.019,0.492-0.152,0.622-0.394
		c0.013-0.025,2.289-4.215,3.442-6.339c1.154,2.125,3.431,6.314,3.444,6.339c0.135,0.25,0.389,0.385,0.655,0.394v0.017l5.185,0.017
		C32.39,17.082,29.415,20.038,29.415,20.038z"/>
	<path fill="#F15D46" d="M16.497,29.589c-0.108-0.002-0.217-0.023-0.341-0.065l-0.088-0.034c-0.081-0.04-0.153-0.085-0.216-0.136
		h-0.013l-0.151-0.169c-0.051-0.067-0.093-0.14-0.128-0.223l-0.026-0.067c-0.037-0.116-0.054-0.212-0.06-0.311l0.001-0.043
		c0.002-0.15,0.017-0.281,0.075-0.417l0.029-0.067l0.106-0.232l2.936-6.852c0.007-0.127-0.047-0.22-0.048-0.22l-5.298-5.243
		c-0.11-0.104-0.212-0.203-0.241-0.232c-0.09-0.083-0.15-0.19-0.192-0.284l-0.045-0.106c-0.03-0.086-0.051-0.19-0.057-0.288
		c-0.003-0.051-0.004-0.081-0.001-0.112c0.002-0.095,0.019-0.197,0.051-0.294v-0.218l0.11-0.002
		c0.031-0.046,0.067-0.091,0.108-0.135l0.101-0.093c0.066-0.065,0.164-0.131,0.266-0.171l0.121-0.027
		c0.051-0.021,0.139-0.04,0.222-0.046l6.438-0.03l0.097-0.173l3.707-6.826c0.16-0.3,0.459-0.495,0.82-0.531l0.123-0.006
		c0.033,0,0.063,0.002,0.092,0.004c0.389,0.038,0.689,0.233,0.854,0.533l3.804,7.004l6.5,0.029c0.091,0.011,0.169,0.03,0.243,0.055
		l0.071,0.019c0.104,0.044,0.201,0.108,0.297,0.192l0.097,0.108c0.041,0.041,0.119,0.14,0.17,0.263l0.021,0.078
		c0.038,0.112,0.051,0.203,0.051,0.292v0.074c-0.01,0.104-0.025,0.205-0.059,0.307l-0.027,0.072
		c-0.056,0.127-0.127,0.233-0.216,0.324c-0.013,0.015-0.119,0.119-0.239,0.233l-5.315,5.264c-0.023,0.032-0.038,0.079-0.034,0.091
		c3.077,7.165,3.088,7.198,3.092,7.215c0.042,0.089,0.067,0.216,0.072,0.361l-0.005,0.096c-0.004,0.087-0.023,0.186-0.057,0.277
		l-0.03,0.086c-0.038,0.083-0.08,0.155-0.127,0.216v0.011l-0.063,0.063c-0.002,0.005-0.006,0.007-0.008,0.011l-0.091,0.083
		c-0.051,0.04-0.11,0.076-0.174,0.107l-0.093,0.055l-0.074,0.013c-0.068,0.032-0.187,0.058-0.303,0.06l-0.114-0.017
		c-0.04,0.008-0.156-0.02-0.229-0.04l-7.996-3.197c-0.466,0.186-1.395,0.55-2.452,0.965l-5.658,2.274
		c-0.165,0.049-0.254,0.063-0.34,0.063L16.497,29.589z M16.228,28.958c0.02,0.013,0.043,0.025,0.066,0.038
		c0.004,0.004,0.027,0.011,0.049,0.02c0.052,0.017,0.104,0.029,0.152,0.031l0.063-0.011c0.034,0,0.076-0.008,0.13-0.023l5.669-2.276
		c1.141-0.446,2.13-0.836,2.552-1.003l0.101-0.04l8.137,3.261c0.065,0.015,0.108,0.023,0.148,0.023l0.093,0.017
		c0.002-0.009,0.058-0.02,0.114-0.04l0.021-0.009c0.013-0.009,0.025-0.015,0.04-0.021c0.017-0.006,0.034-0.017,0.049-0.025v-0.142
		l0.14-0.002c0.013-0.021,0.025-0.044,0.038-0.072c0.027-0.082,0.036-0.131,0.038-0.188c0-0.104-0.011-0.161-0.032-0.21
		c-0.053-0.131-2.042-4.765-3.087-7.198c-0.027-0.068-0.042-0.14-0.042-0.211h-0.281l0.516-0.517l5.279-5.228
		c0.102-0.095,0.188-0.176,0.216-0.209c0.042-0.042,0.072-0.085,0.098-0.129l0.038-0.091c0.011-0.038,0.019-0.084,0.027-0.148
		l-0.002-0.042c0-0.051-0.011-0.11-0.032-0.161l-0.044-0.07l0.004-0.006c-0.019-0.025-0.04-0.051-0.06-0.074l-0.01-0.013
		c-0.009-0.006-0.018-0.015-0.028-0.023c-0.04-0.034-0.086-0.067-0.135-0.086c-0.081-0.023-0.127-0.032-0.174-0.036l-0.051-0.008
		l-6.696-0.017l-0.257-0.457l-3.706-6.83c-0.077-0.14-0.223-0.233-0.402-0.25l-0.068-0.004l-0.095-0.267l0.027,0.271
		c-0.179,0.017-0.324,0.11-0.397,0.25l-3.965,7.283l-6.697,0.021c-0.055,0.008-0.103,0.021-0.158,0.038l-0.057,0.013
		c-0.046,0.025-0.082,0.051-0.122,0.089l-0.026,0.021c-0.041,0.049-0.064,0.084-0.081,0.11v0.214h-0.052
		c0.004,0.095,0.015,0.146,0.032,0.192l0.019,0.055c0.024,0.051,0.054,0.097,0.09,0.131c0.038,0.042,0.13,0.127,0.233,0.224
		l5.334,5.286c0.051,0.065,0.218,0.317,0.167,0.675l-0.019,0.068l-3.09,7.198c-0.017,0.04-0.029,0.1-0.032,0.187
		c0.005,0.073,0.015,0.127,0.032,0.18c0.017,0.04,0.033,0.071,0.047,0.1h0.134L16.228,28.958z M17.474,27.587l2.882-6.737
		c0.121-0.343,0.129-0.364-0.128-0.626l0,0c0,0-2.974-2.954-4.765-4.727l-0.465-0.461l5.818-0.034
		c0.177-0.013,0.324-0.105,0.404-0.251c0.014-0.028,2.87-5.284,3.443-6.337l0.238-0.44l0.238,0.44
		c0.912,1.676,3.43,6.31,3.447,6.346c0.078,0.144,0.239,0.239,0.423,0.243l0.263,0.017l5.568,0.019l-0.465,0.461
		c-1.795,1.775-4.77,4.729-4.77,4.729c-0.044,0.046-0.08,0.102-0.102,0.159l-0.049,0.135c-0.015,0.089-0.002,0.18,0.034,0.26
		c0.002,0.004,1.625,3.809,2.621,6.132l0.254,0.597l-7.102-2.797c-0.195-0.045-0.329-0.051-0.518,0.004L17.474,27.587z
		 M16.309,15.573c1.798,1.782,4.303,4.268,4.303,4.268c0.473,0.482,0.406,0.759,0.248,1.206l-2.376,5.559l6.08-2.396
		c0.315-0.102,0.499-0.104,0.866-0.011l5.928,2.334c-0.996-2.325-2.365-5.535-2.365-5.535c-0.112-0.254-0.114-0.552,0.002-0.817
		l0.102-0.235l0.031,0.011c0.028-0.038,0.062-0.076,0.096-0.11c0.002-0.002,2.505-2.491,4.306-4.272l-4.799-0.015v-0.057
		c-0.267-0.074-0.491-0.25-0.624-0.495c-0.042-0.08-2.013-3.705-3.205-5.901c-1.192,2.196-3.162,5.821-3.203,5.899
		c-0.128,0.235-0.339,0.406-0.591,0.487v0.051l-0.27,0.013L16.309,15.573z"/>
</g>
</svg>
