<?xml version="1.0" encoding="utf-8"?>
<!-- Generator: Adobe Illustrator 16.0.0, SVG Export Plug-In . SVG Version: 6.00 Build 0)  -->
<!DOCTYPE svg PUBLIC "-//W3C//DTD SVG 1.1//EN" "http://www.w3.org/Graphics/SVG/1.1/DTD/svg11.dtd">
<svg version="1.1" id="Layer_1" xmlns="http://www.w3.org/2000/svg" xmlns:xlink="http://www.w3.org/1999/xlink" x="0px" y="0px"
	 width="50px" height="50px" viewBox="0 0 50 50" enable-background="new 0 0 50 50" xml:space="preserve">
<path fill="#F15D46" d="M25.041,0C11.21,0,0,11.211,0,25.04c0,13.832,11.21,25.046,25.041,25.046
	c13.829,0,25.043-11.214,25.043-25.046C50.084,11.211,38.87,0,25.041,0z M25.041,47.598c-12.453,0-22.558-10.099-22.558-22.558
	c0-12.458,10.105-22.556,22.558-22.556c12.455,0,22.557,10.098,22.557,22.556C47.598,37.499,37.496,47.598,25.041,47.598z"/>
<g>
	<path fill="#F15D46" d="M21.063,20.447c2.194,0,3.979,1.786,3.979,3.982c0,2.197-1.784,3.983-3.979,3.983
		c-2.197,0-3.983-1.786-3.983-3.983C17.08,22.233,18.866,20.447,21.063,20.447 M21.063,17.943c-3.583,0-6.488,2.904-6.488,6.486
		c0,3.583,2.905,6.488,6.488,6.488c3.583,0,6.486-2.905,6.486-6.488C27.549,20.847,24.646,17.943,21.063,17.943L21.063,17.943z"/>
</g>
<g>
	<path fill="#F15D46" d="M21.063,31.58c3.821,0,7.056,2.77,8.063,6.546H12.997C14.004,34.35,17.241,31.58,21.063,31.58
		 M21.063,29.075c-6.021,0-10.898,5.172-10.898,11.556h21.795C31.959,34.247,27.076,29.075,21.063,29.075L21.063,29.075z"/>
</g>
<g>
	<path fill="#F15D46" d="M30.731,21.338c-0.225,0-0.45-0.07-0.64-0.208c-0.336-0.244-0.504-0.656-0.434-1.064l0.574-3.342
		l-2.429-2.368c-0.296-0.29-0.402-0.722-0.274-1.117c0.128-0.394,0.47-0.68,0.878-0.74l3.356-0.488l1.501-3.04
		c0.365-0.744,1.586-0.744,1.952,0l1.501,3.04l3.356,0.488c0.408,0.06,0.75,0.346,0.878,0.74c0.128,0.395,0.021,0.827-0.274,1.117
		l-2.429,2.368l0.572,3.342c0.07,0.41-0.1,0.822-0.434,1.065c-0.336,0.242-0.78,0.274-1.146,0.082l-3.001-1.578l-3.002,1.578
		C31.078,21.296,30.906,21.338,30.731,21.338z M30.904,14.336l1.259,1.229c0.255,0.25,0.372,0.61,0.313,0.963l-0.298,1.731
		l1.557-0.818c0.314-0.168,0.697-0.168,1.013,0l1.557,0.818l-0.298-1.731c-0.06-0.353,0.058-0.713,0.313-0.963l1.259-1.229
		l-1.739-0.253c-0.354-0.051-0.661-0.274-0.819-0.595l-0.778-1.576l-0.778,1.576c-0.157,0.321-0.465,0.544-0.818,0.595
		L30.904,14.336z"/>
</g>
</svg>
