<?xml version="1.0" encoding="utf-8"?>
<!-- Generator: Adobe Illustrator 16.0.0, SVG Export Plug-In . SVG Version: 6.00 Build 0)  -->
<!DOCTYPE svg PUBLIC "-//W3C//DTD SVG 1.1//EN" "http://www.w3.org/Graphics/SVG/1.1/DTD/svg11.dtd">
<svg version="1.1" id="Layer_1" xmlns="http://www.w3.org/2000/svg" xmlns:xlink="http://www.w3.org/1999/xlink" x="0px" y="0px"
	 width="24px" height="24px" viewBox="0 0 24 24" enable-background="new 0 0 24 24" xml:space="preserve">
<g>
	<g>
		<g>
			<path fill="#231F20" d="M18.018,10.076h-4.33l0,0c-0.297,0-0.537,0.242-0.537,0.537c0,0.297,0.24,0.538,0.537,0.538h4.33V11.15
				c0.295,0,0.537-0.241,0.537-0.537C18.555,10.316,18.313,10.076,18.018,10.076z"/>
			<path fill="#231F20" d="M15.314,8.366v4.33h0.002c0,0.297,0.24,0.537,0.535,0.537c0.297,0,0.537-0.24,0.537-0.537v-4.33h-0.002
				c0-0.297-0.238-0.537-0.535-0.537S15.314,8.069,15.314,8.366z"/>
		</g>
		<path fill="#231F20" d="M18.018,14.209h-4.33l0,0c-0.297,0-0.537,0.24-0.537,0.537s0.24,0.537,0.537,0.537h4.33l0,0
			c0.295,0,0.537-0.24,0.537-0.537S18.313,14.209,18.018,14.209z"/>
		<path fill="#231F20" d="M9.095,6.578L9.095,6.578C9.09,6.562,9.079,6.552,9.073,6.539C9.06,6.509,9.044,6.485,9.027,6.459
			c-0.021-0.034-0.043-0.065-0.07-0.091C8.936,6.347,8.913,6.332,8.888,6.316C8.855,6.292,8.822,6.27,8.784,6.255
			C8.771,6.251,8.714,6.234,8.695,6.23C8.658,6.222,8.623,6.216,8.583,6.216c-0.037,0-0.072,0.006-0.109,0.014
			c-0.02,0.004-0.078,0.021-0.089,0.025C8.346,6.27,8.314,6.292,8.281,6.316C8.256,6.332,8.234,6.347,8.212,6.369
			c-0.028,0.025-0.049,0.057-0.07,0.091c-0.018,0.025-0.033,0.05-0.045,0.079c-0.006,0.012-3.272,9.704-3.272,9.834
			c0,0.303,0.245,0.549,0.549,0.549c0.196,0,0.368-0.105,0.464-0.262c0.018-0.029,1.154-3.402,1.154-3.402h3.185l1.097,3.311h0.002
			c0.078,0.205,0.274,0.354,0.51,0.354c0.302,0,0.549-0.246,0.549-0.549C12.333,16.271,9.095,6.578,9.095,6.578z M7.348,12.181
			l1.235-3.729l1.236,3.729H7.348z"/>
	</g>
	<path fill="#231F20" d="M12,0.599c-6.297,0-11.401,5.104-11.401,11.4c0,6.297,5.104,11.402,11.401,11.402
		c6.296,0,11.401-5.105,11.401-11.402C23.401,5.703,18.296,0.599,12,0.599z M12,22.269c-5.671,0-10.271-4.598-10.271-10.27
		S6.329,1.729,12,1.729s10.27,4.598,10.27,10.27S17.671,22.269,12,22.269z"/>
</g>
</svg>
