<?xml version="1.0" encoding="utf-8"?>
<!-- Generator: Adobe Illustrator 16.0.0, SVG Export Plug-In . SVG Version: 6.00 Build 0)  -->
<!DOCTYPE svg PUBLIC "-//W3C//DTD SVG 1.1//EN" "http://www.w3.org/Graphics/SVG/1.1/DTD/svg11.dtd">
<svg version="1.1" id="Layer_1" xmlns="http://www.w3.org/2000/svg" xmlns:xlink="http://www.w3.org/1999/xlink" x="0px" y="0px"
	 width="24px" height="24px" viewBox="0 0 24 24" enable-background="new 0 0 24 24" xml:space="preserve">
<g>
	<g>
		<path fill="#231F20" d="M17.438,5.428H6.563c-0.146,0-0.277,0.059-0.372,0.154C6.095,5.68,6.036,5.811,6.036,5.956v1.216v9.658
			v1.215c0,0.291,0.236,0.527,0.527,0.527h10.875c0.289,0,0.527-0.236,0.527-0.527V16.83V7.172V5.956
			C17.965,5.664,17.727,5.428,17.438,5.428z M16.908,7.172v9.658v0.688H7.092V16.83V7.172V6.484h9.816V7.172z"/>
		<path fill="#231F20" d="M15.365,9.057c-0.012-0.017-0.021-0.035-0.035-0.051c-0.023-0.027-0.049-0.051-0.078-0.074
			c-0.018-0.014-0.039-0.026-0.059-0.037c-0.029-0.019-0.059-0.035-0.09-0.047c-0.033-0.011-0.068-0.016-0.105-0.021
			c-0.021-0.002-0.043-0.012-0.066-0.012c-0.004,0-0.008,0.002-0.014,0.002c-0.186,0-5.85-0.002-5.85-0.002
			c-0.291,0-0.528,0.236-0.528,0.525c0,0,0,0,0,0.002v1.051c0,0.289,0.237,0.528,0.529,0.528c0.29,0,0.526-0.239,0.526-0.528V9.869
			h1.882c0,0-0.007,3.469-0.01,4.807h-0.483c-0.292,0-0.528,0.238-0.528,0.529c0,0.293,0.236,0.527,0.528,0.527h2.034
			c0.291,0,0.527-0.234,0.527-0.527c0-0.291-0.236-0.529-0.527-0.529h-0.487c0-1.105,0.002-3.689,0.002-4.807
			c0,0,1.167,0.006,1.872,0.009v0.515c0,0.289,0.236,0.528,0.527,0.528s0.527-0.239,0.527-0.528V9.396V9.342
			C15.459,9.236,15.42,9.143,15.365,9.057z"/>
	</g>
	<path fill="#231F20" d="M12,0.599c-6.297,0-11.401,5.104-11.401,11.4c0,6.297,5.104,11.402,11.401,11.402
		c6.296,0,11.401-5.105,11.401-11.402C23.401,5.703,18.296,0.599,12,0.599z M12,22.269c-5.671,0-10.271-4.598-10.271-10.27
		S6.329,1.729,12,1.729s10.27,4.598,10.27,10.27S17.671,22.269,12,22.269z"/>
</g>
</svg>
