<?xml version="1.0" encoding="utf-8"?>
<!-- Generator: Adobe Illustrator 16.0.0, SVG Export Plug-In . SVG Version: 6.00 Build 0)  -->
<!DOCTYPE svg PUBLIC "-//W3C//DTD SVG 1.1//EN" "http://www.w3.org/Graphics/SVG/1.1/DTD/svg11.dtd">
<svg version="1.1" id="Layer_1" xmlns="http://www.w3.org/2000/svg" xmlns:xlink="http://www.w3.org/1999/xlink" x="0px" y="0px"
	 width="24px" height="24px" viewBox="0 0 24 24" enable-background="new 0 0 24 24" xml:space="preserve">
<g>
	<g>
		<path fill="#FFFFFF" d="M14.787,14.883c0.049-0.297-0.244-0.545-0.544-0.545c-0.399,0-0.472,0.273-0.472,0.273l-1.588,4.287
			c-0.671-1.465-1.954-4.267-1.954-4.267c-0.005-0.012-0.015-0.019-0.021-0.026c-0.026-0.045-0.055-0.088-0.094-0.121
			c-0.038-0.035-0.08-0.066-0.125-0.09c0,0-0.154-0.058-0.238-0.058c-0.301,0-0.543,0.244-0.543,0.545c0,0.017,0,0.068,0,0.08
			c-0.004,0.136,2.437,5.367,2.437,5.367c0.042,0.096,0.08,0.185,0.091,0.207c0.029,0.065,0.074,0.118,0.123,0.166
			c0.002,0,0.004,0.004,0.008,0.01c0.004,0.004,0.012,0.007,0.018,0.013c0.041,0.032,0.086,0.061,0.135,0.082
			c0.016,0.006,0.029,0.016,0.045,0.021c0.061,0.019,0.121,0.028,0.186,0.028h0.001c0.001,0,0.002,0,0.003,0
			c0.063-0.002,0.123-0.02,0.18-0.043c0.008-0.004,0.017-0.004,0.025-0.008c0.008-0.002,0.012-0.008,0.021-0.012
			c0.054-0.031,0.106-0.064,0.149-0.111c0.009-0.01,0.013-0.022,0.021-0.033c0.031-0.039,0.059-0.08,0.076-0.125
			c0.004-0.008,0.012-0.012,0.015-0.021C12.74,20.504,14.779,14.92,14.787,14.883z"/>
		<path fill="#FFFFFF" d="M14.566,12.549c0,0-1.224,0.002-2.566,0.002s-2.567-0.002-2.567-0.002c-0.298,0-0.54,0.244-0.54,0.539
			c0,0.301,0.242,0.541,0.54,0.541h1.659h1.817h1.657c0.299,0,0.541-0.24,0.541-0.541C15.107,12.793,14.865,12.549,14.566,12.549z"
			/>
		<path fill="#FFFFFF" d="M15.107,4.579c0-0.002,0-0.002,0-0.004c0-0.297-0.242-0.539-0.541-0.539c0,0-1.224,0-2.566,0
			s-2.567,0-2.567,0c-0.298,0-0.54,0.242-0.54,0.539c0,0.02,0.009,0.039,0.012,0.058l-0.002,6.063c0,0-0.008,0.349-0.01,0.468v0.002
			v0.002c0,0.012,0,0.025,0,0.033c0,0.116,0.052,0.222,0.131,0.308c0.1,0.118,0.242,0.196,0.409,0.196h1.659h1.817h1.657
			c0.017,0,0.029-0.007,0.045-0.007c0.052-0.006,0.104-0.01,0.147-0.026c0.005-0.002,0.009-0.004,0.013-0.006
			c0.006-0.004,0.012-0.008,0.02-0.011c0.184-0.076,0.314-0.241,0.314-0.432c0-0.002,0-0.021,0-0.044
			c0-0.006,0.002-0.009,0.002-0.014c0-0.004-0.002-0.008-0.002-0.014C15.105,10.619,15.105,6.896,15.107,4.579z M12,10.625
			c-0.789,0-1.535-0.002-2.02-0.002c0-1.11,0.002-3.609,0.002-5.507h1.109h1.817h1.117v5.507C13.545,10.624,12.794,10.625,12,10.625
			z"/>
	</g>
</g>
</svg>
