<?xml version="1.0" encoding="utf-8"?>
<!-- Generator: Adobe Illustrator 16.0.0, SVG Export Plug-In . SVG Version: 6.00 Build 0)  -->
<!DOCTYPE svg PUBLIC "-//W3C//DTD SVG 1.1//EN" "http://www.w3.org/Graphics/SVG/1.1/DTD/svg11.dtd">
<svg version="1.1" id="Layer_1" xmlns="http://www.w3.org/2000/svg" xmlns:xlink="http://www.w3.org/1999/xlink" x="0px" y="0px"
	 width="24px" height="24px" viewBox="0 0 24 24" enable-background="new 0 0 24 24" xml:space="preserve">
<g>
	<g>
		<path fill="#000000" d="M17.557,8.32c0.299,0,0.541-0.242,0.541-0.54c0-0.299-0.242-0.541-0.541-0.541l0,0H6.43l0,0
			c-0.298,0-0.539,0.242-0.539,0.541c0,0.298,0.241,0.54,0.539,0.54H17.557z"/>
		<path fill="#000000" d="M17.729,13.936H6.602c-0.299,0-0.539,0.241-0.539,0.542c0,0.297,0.24,0.539,0.539,0.539h11.126
			c0.299,0,0.541-0.242,0.541-0.539C18.27,14.177,18.027,13.936,17.729,13.936z"/>
		<path fill="#000000" d="M6.602,10.61h3.924c0.299,0,0.54-0.242,0.54-0.539c0-0.3-0.241-0.541-0.54-0.541H6.602
			c-0.299,0-0.539,0.241-0.539,0.541C6.063,10.368,6.303,10.61,6.602,10.61z"/>
		<path fill="#000000" d="M6.602,12.894h6.367c0.299,0,0.541-0.242,0.541-0.541c0-0.297-0.242-0.54-0.541-0.54v-0.001H6.602v0.001
			c-0.299,0-0.539,0.243-0.539,0.54C6.063,12.651,6.303,12.894,6.602,12.894z"/>
		<path fill="#000000" d="M13.633,10.61h3.924c0.299,0,0.541-0.242,0.541-0.539c0-0.3-0.242-0.541-0.541-0.541h-3.924
			c-0.299,0-0.541,0.241-0.541,0.541C13.092,10.368,13.334,10.61,13.633,10.61z"/>
		<path fill="#000000" d="M17.557,11.812h-0.074h-1.887H15.52c-0.297,0-0.539,0.242-0.539,0.541s0.242,0.541,0.539,0.541h0.076
			h1.887h0.074c0.299,0,0.541-0.242,0.541-0.541S17.855,11.812,17.557,11.812z"/>
		<path fill="#000000" d="M11.19,17.084h6.367c0.299,0,0.541-0.241,0.541-0.54c0-0.297-0.242-0.539-0.541-0.539v-0.002H11.19v0.002
			c-0.297,0-0.539,0.242-0.539,0.539C10.651,16.843,10.893,17.084,11.19,17.084z"/>
		<path fill="#000000" d="M8.639,16.003H8.564H6.676H6.602c-0.299,0-0.539,0.242-0.539,0.541s0.24,0.54,0.539,0.54h0.074h1.888
			h0.075c0.297,0,0.54-0.241,0.54-0.54S8.936,16.003,8.639,16.003z"/>
	</g>
	<path fill="#000000" d="M12,0.599c-6.297,0-11.401,5.104-11.401,11.4c0,6.297,5.104,11.402,11.401,11.402
		c6.296,0,11.401-5.105,11.401-11.402C23.401,5.703,18.296,0.599,12,0.599z M12,22.269c-5.671,0-10.271-4.598-10.271-10.27
		S6.329,1.729,12,1.729s10.27,4.598,10.27,10.27S17.671,22.269,12,22.269z"/>
</g>
</svg>
