<?xml version="1.0" encoding="utf-8"?>
<!-- Generator: Adobe Illustrator 16.0.0, SVG Export Plug-In . SVG Version: 6.00 Build 0)  -->
<!DOCTYPE svg PUBLIC "-//W3C//DTD SVG 1.1//EN" "http://www.w3.org/Graphics/SVG/1.1/DTD/svg11.dtd">
<svg version="1.1" id="Layer_1" xmlns="http://www.w3.org/2000/svg" xmlns:xlink="http://www.w3.org/1999/xlink" x="0px" y="0px"
	 width="24px" height="24px" viewBox="0 0 24 24" enable-background="new 0 0 24 24" xml:space="preserve">
<g>
	<g>
		<path fill="#FB5C43" d="M14.787,14.883c0.049-0.297-0.244-0.545-0.544-0.545c-0.399,0-0.471,0.273-0.471,0.273l-1.589,4.287
			c-0.671-1.465-1.954-4.266-1.954-4.266c-0.005-0.012-0.015-0.018-0.021-0.027c-0.026-0.045-0.055-0.088-0.094-0.121
			c-0.038-0.035-0.08-0.066-0.125-0.09c0,0-0.154-0.057-0.238-0.057c-0.301,0-0.543,0.244-0.543,0.545c0,0.016,0,0.068,0,0.08
			c-0.004,0.135,2.437,5.367,2.437,5.367c0.042,0.096,0.08,0.184,0.091,0.207c0.029,0.066,0.074,0.119,0.123,0.166
			c0.002,0,0.004,0.004,0.008,0.01c0.004,0.004,0.012,0.006,0.018,0.012c0.041,0.033,0.086,0.061,0.135,0.082
			c0.016,0.006,0.029,0.016,0.045,0.021c0.061,0.018,0.121,0.029,0.186,0.029h0.001c0.001,0,0.002,0,0.003,0
			c0.063-0.002,0.123-0.02,0.18-0.043c0.008-0.004,0.017-0.004,0.025-0.008c0.008-0.002,0.012-0.008,0.021-0.012
			c0.054-0.031,0.106-0.064,0.149-0.111c0.009-0.01,0.012-0.023,0.021-0.033c0.031-0.039,0.058-0.08,0.076-0.125
			c0.004-0.008,0.012-0.012,0.014-0.021C12.74,20.504,14.78,14.92,14.787,14.883z"/>
		<path fill="#FB5C43" d="M14.567,12.549c0,0-1.224,0.002-2.567,0.002c-1.343,0-2.567-0.002-2.567-0.002
			c-0.298,0-0.54,0.244-0.54,0.539c0,0.301,0.242,0.541,0.54,0.541h1.659h1.817h1.658c0.298,0,0.54-0.24,0.54-0.541
			C15.107,12.793,14.865,12.549,14.567,12.549z"/>
		<path fill="#FB5C43" d="M15.107,4.579c0-0.002,0-0.002,0-0.004c0-0.297-0.242-0.539-0.54-0.539c0,0-1.224,0-2.567,0
			c-1.343,0-2.567,0-2.567,0c-0.298,0-0.54,0.242-0.54,0.539c0,0.02,0.009,0.039,0.012,0.058l-0.002,6.063
			c0,0-0.008,0.349-0.01,0.468v0.002v0.002c0,0.012,0,0.025,0,0.033c0,0.116,0.052,0.222,0.131,0.308
			c0.1,0.118,0.242,0.196,0.409,0.196h1.659h1.817h1.658c0.016,0,0.028-0.007,0.044-0.007c0.052-0.006,0.104-0.01,0.148-0.026
			c0.004-0.002,0.008-0.004,0.012-0.006c0.006-0.004,0.012-0.008,0.02-0.011c0.184-0.076,0.314-0.241,0.314-0.432
			c0-0.002,0-0.021,0-0.044c0-0.006,0.002-0.009,0.002-0.014c0-0.004-0.002-0.008-0.002-0.014
			C15.105,10.619,15.105,6.896,15.107,4.579z M12,10.625c-0.789,0-1.535-0.002-2.02-0.002c0-1.11,0.002-3.609,0.002-5.507h1.109
			h1.817h1.118v5.507C13.545,10.624,12.794,10.625,12,10.625z"/>
	</g>
</g>
<path fill="#FB5C43" d="M12,0.5C5.648,0.5,0.5,5.648,0.5,11.999C0.5,18.351,5.648,23.5,12,23.5c6.351,0,11.5-5.149,11.5-11.501
	C23.5,5.648,18.351,0.5,12,0.5z M12,22.357c-5.72,0-10.359-4.638-10.359-10.358C1.641,6.278,6.28,1.641,12,1.641
	s10.358,4.637,10.358,10.358C22.358,17.72,17.72,22.357,12,22.357z"/>
</svg>
