<?xml version="1.0" encoding="utf-8"?>
<!-- Generator: Adobe Illustrator 16.0.0, SVG Export Plug-In . SVG Version: 6.00 Build 0)  -->
<!DOCTYPE svg PUBLIC "-//W3C//DTD SVG 1.1//EN" "http://www.w3.org/Graphics/SVG/1.1/DTD/svg11.dtd">
<svg version="1.1" id="Layer_1" xmlns="http://www.w3.org/2000/svg" xmlns:xlink="http://www.w3.org/1999/xlink" x="0px" y="0px"
	 width="50px" height="50px" viewBox="0 0 50 50" enable-background="new 0 0 50 50" xml:space="preserve">
<path fill="#FB5C43" d="M42.238,19.235l-0.028-0.104c-0.065-0.166-0.172-0.298-0.228-0.353l-0.131-0.146
	c-0.127-0.114-0.26-0.199-0.397-0.258l-0.097-0.027c-0.1-0.035-0.205-0.059-0.328-0.071l-8.74-0.041l-5.114-9.417
	c-0.222-0.406-0.624-0.666-1.147-0.719c-0.039-0.002-0.08-0.005-0.123-0.005l-0.166,0.007c-0.484,0.051-0.889,0.313-1.104,0.717
	l-4.984,9.177l-0.129,0.235l-8.661,0.039c-0.111,0.008-0.229,0.033-0.299,0.063l-0.162,0.037c-0.137,0.055-0.267,0.142-0.355,0.23
	l-0.135,0.126c-0.058,0.059-0.105,0.119-0.146,0.181l-0.148,0.002v0.293c-0.042,0.13-0.064,0.267-0.068,0.396
	c-0.003,0.042-0.002,0.083,0.003,0.149c0.008,0.134,0.036,0.272,0.076,0.387l0.061,0.145c0.057,0.123,0.139,0.268,0.26,0.382
	c0.038,0.039,0.176,0.171,0.324,0.31l7.125,7.049c0.002,0.004,0.074,0.127,0.063,0.297l-3.948,9.213l-0.142,0.313l-0.039,0.093
	c-0.079,0.182-0.1,0.356-0.102,0.561l-0.002,0.059c0.009,0.131,0.031,0.262,0.081,0.416l0.036,0.092
	c0.048,0.109,0.104,0.205,0.172,0.297l0.203,0.23h0.018c0.084,0.068,0.18,0.127,0.289,0.184l0.119,0.043
	c0.164,0.059,0.312,0.084,0.456,0.088l0.085-0.014c0.116,0,0.236-0.021,0.459-0.084l7.607-3.062c1.422-0.558,2.671-1.047,3.299-1.3
	l10.753,4.304c0.098,0.026,0.254,0.063,0.309,0.053l0.15,0.021c0.158,0,0.316-0.033,0.408-0.076l0.1-0.021l0.127-0.07
	c0.084-0.045,0.164-0.094,0.231-0.148l0.122-0.109c0.002-0.004,0.009-0.01,0.014-0.014l0.084-0.088v-0.014
	c0.063-0.082,0.119-0.178,0.172-0.289l0.039-0.115c0.045-0.121,0.07-0.256,0.076-0.375l0.006-0.129
	c-0.006-0.195-0.039-0.363-0.099-0.482c-0.006-0.022-0.019-0.067-4.155-9.705c-0.007-0.02,0.016-0.078,0.045-0.121l7.146-7.08
	c0.163-0.154,0.306-0.292,0.322-0.314c0.119-0.122,0.217-0.264,0.291-0.436l0.037-0.093c0.045-0.141,0.063-0.275,0.078-0.416V19.63
	C42.309,19.511,42.291,19.387,42.238,19.235z"/>
</svg>
