<?xml version="1.0" encoding="utf-8"?>
<!-- Generator: Adobe Illustrator 16.0.0, SVG Export Plug-In . SVG Version: 6.00 Build 0)  -->
<!DOCTYPE svg PUBLIC "-//W3C//DTD SVG 1.1//EN" "http://www.w3.org/Graphics/SVG/1.1/DTD/svg11.dtd">
<svg version="1.1" id="Layer_1" xmlns="http://www.w3.org/2000/svg" xmlns:xlink="http://www.w3.org/1999/xlink" x="0px" y="0px"
	 width="24px" height="24px" viewBox="0 0 24 24" enable-background="new 0 0 24 24" xml:space="preserve">
<g>
	<g>
		<path fill="#231F20" d="M6.308,7.864h11.384c0.306,0,0.553-0.248,0.553-0.553s-0.247-0.553-0.553-0.553l0,0H6.308l0,0
			c-0.305,0-0.553,0.248-0.553,0.553S6.003,7.864,6.308,7.864z"/>
		<path fill="#231F20" d="M17.691,9.198L17.691,9.198H6.308l0,0c-0.305,0-0.553,0.248-0.553,0.553s0.248,0.553,0.553,0.553h11.384
			c0.306,0,0.553-0.248,0.553-0.553S17.997,9.198,17.691,9.198z"/>
		<path fill="#231F20" d="M17.691,11.601L17.691,11.601H6.308l0,0c-0.305,0-0.553,0.247-0.553,0.553
			c0,0.305,0.248,0.553,0.553,0.553h11.384c0.306,0,0.553-0.248,0.553-0.553C18.244,11.848,17.997,11.601,17.691,11.601z"/>
		<path fill="#231F20" d="M17.691,13.964L17.691,13.964H6.308l0,0c-0.305,0-0.553,0.246-0.553,0.553
			c0,0.306,0.248,0.553,0.553,0.553h11.384c0.306,0,0.553-0.247,0.553-0.553C18.244,14.21,17.997,13.964,17.691,13.964z"/>
		<path fill="#231F20" d="M17.691,16.289L17.691,16.289L6.308,16.288v0.001c-0.305,0-0.553,0.247-0.553,0.552
			c0,0.306,0.248,0.554,0.553,0.554h11.384c0.306,0,0.553-0.248,0.553-0.554C18.244,16.536,17.997,16.289,17.691,16.289z"/>
	</g>
	<path fill="#231F20" d="M12,0.599c-6.297,0-11.401,5.104-11.401,11.4c0,6.297,5.104,11.402,11.401,11.402
		c6.296,0,11.401-5.105,11.401-11.402C23.401,5.703,18.296,0.599,12,0.599z M12,22.269c-5.671,0-10.271-4.598-10.271-10.27
		S6.329,1.729,12,1.729s10.27,4.598,10.27,10.27S17.671,22.269,12,22.269z"/>
</g>
</svg>
