<?xml version="1.0" encoding="utf-8"?>
<!-- Generator: Adobe Illustrator 16.0.0, SVG Export Plug-In . SVG Version: 6.00 Build 0)  -->
<!DOCTYPE svg PUBLIC "-//W3C//DTD SVG 1.1//EN" "http://www.w3.org/Graphics/SVG/1.1/DTD/svg11.dtd">
<svg version="1.1" id="Layer_1" xmlns="http://www.w3.org/2000/svg" xmlns:xlink="http://www.w3.org/1999/xlink" x="0px" y="0px"
	 width="25px" height="25px" viewBox="0 0 25 25" enable-background="new 0 0 25 25" xml:space="preserve">
<path fill="#FFFFFF" d="M0.166,2.422C0.164,2.434,0.172,2.445,0.173,2.466c0,0.009-0.006,0.023-0.008,0.04
	C0.166,2.638,0.216,2.824,0.286,3.01c0.048,0.156,0.106,0.294,0.183,0.44C0.57,3.675,0.67,3.855,0.67,3.855
	c0.051,0.062,4.05,4.015,8.586,8.503c-4.492,4.53-8.446,8.512-8.497,8.577c0,0-0.1,0.187-0.199,0.41
	c-0.079,0.143-0.134,0.291-0.177,0.451c-0.069,0.183-0.121,0.369-0.117,0.501c-0.002,0.015,0.005,0.022,0.009,0.042
	c-0.003,0.015-0.011,0.02-0.011,0.04c0.006,1.189,0.969,2.144,2.156,2.136c0.014,0,0.028-0.005,0.04-0.011
	c0.018,0.006,0.032,0.011,0.046,0.018c0.267-0.003,0.482-0.074,0.686-0.162c0.044-0.017,0.091-0.047,0.141-0.066
	c0.175-0.1,0.351-0.221,0.546-0.371c0.022-0.024,0.045-0.036,0.066-0.06c0.108-0.079,0.215-0.162,0.345-0.265l8.003-8.085
	l8.401,8.314c0.13,0.096,0.242,0.185,0.354,0.263c0.017,0.026,0.051,0.04,0.068,0.061c0.196,0.145,0.373,0.271,0.545,0.361
	c0.044,0.029,0.095,0.047,0.147,0.071c0.195,0.093,0.413,0.154,0.681,0.151c0.02-0.004,0.025-0.013,0.041-0.005
	c0.018-0.012,0.029,0.001,0.05,0c1.18-0.006,2.138-0.969,2.131-2.156c0-0.015-0.006-0.029-0.015-0.04
	c0.002-0.014,0.009-0.031,0.014-0.048c0-0.13-0.048-0.307-0.12-0.495c-0.04-0.164-0.1-0.302-0.186-0.443
	c-0.104-0.226-0.203-0.399-0.203-0.399c-0.05-0.069-4.043-4.025-8.583-8.508c4.488-4.528,8.449-8.518,8.499-8.585
	c0,0,0.093-0.179,0.204-0.406c0.076-0.146,0.129-0.287,0.172-0.443c0.063-0.181,0.122-0.371,0.12-0.509
	c0.002-0.007-0.007-0.025-0.007-0.041c0-0.018,0.007-0.023,0.008-0.041c-0.015-1.183-0.979-2.137-2.163-2.128
	c-0.01-0.005-0.029,0.002-0.041,0.002c-0.013-0.004-0.024-0.015-0.039-0.004c-0.27-0.005-0.475,0.065-0.686,0.153
	c-0.041,0.02-0.098,0.043-0.148,0.065c-0.169,0.097-0.344,0.219-0.535,0.374c-0.022,0.021-0.046,0.026-0.072,0.051
	c-0.105,0.088-0.221,0.176-0.34,0.27l-8.009,8.086L4.178,1.168c-0.126-0.099-0.24-0.186-0.344-0.266
	c-0.026-0.025-0.051-0.04-0.071-0.061C3.565,0.688,3.391,0.569,3.217,0.478C3.166,0.46,3.119,0.434,3.068,0.415
	c-0.2-0.084-0.414-0.153-0.678-0.152c-0.022,0-0.028,0.009-0.047,0.006C2.33,0.272,2.321,0.263,2.302,0.262
	C1.121,0.271,0.153,1.238,0.166,2.422z"/>
</svg>
