<?xml version="1.0" encoding="utf-8"?>
<!-- Generator: Adobe Illustrator 16.0.0, SVG Export Plug-In . SVG Version: 6.00 Build 0)  -->
<!DOCTYPE svg PUBLIC "-//W3C//DTD SVG 1.1//EN" "http://www.w3.org/Graphics/SVG/1.1/DTD/svg11.dtd">
<svg version="1.1" id="Layer_1" xmlns="http://www.w3.org/2000/svg" xmlns:xlink="http://www.w3.org/1999/xlink" x="0px" y="0px"
	 width="25px" height="25px" viewBox="0 0 25 25" enable-background="new 0 0 25 25" xml:space="preserve">
<path fill="#3B5998" d="M12.5,0C19.404,0,25,5.597,25,12.5C25,19.404,19.404,25,12.5,25C5.596,25,0,19.404,0,12.5
	C0,5.597,5.596,0,12.5,0z"/>
<path fill="#FFFFFF" d="M6.891,11.53h2.491c0.196,0,0.356,0.158,0.356,0.356v5.724c0,0.195-0.158,0.355-0.356,0.355H6.891
	c-0.197,0-0.357-0.158-0.357-0.355v-5.725C6.535,11.688,6.693,11.53,6.891,11.53z M10.609,16.62V12.52
	c0.001-1.01,0.285-1.998,0.816-2.856c0.326-0.519,1.052-1.351,1.461-1.782c0.089-0.097,0.419-0.38,0.419-0.536
	c0-0.199,0.022-0.521,0.029-1.12c0.005-0.381,0.314-0.694,0.694-0.69h0.017c0.667,0.012,0.88,0.627,0.88,0.627
	s0.568,1.124,0.037,2.497c-0.447,1.16-0.54,1.255-0.54,1.255s-0.145,0.21,0.313,0.201c0,0,2.803-0.013,2.897-0.013
	c0.208,0,0.868,0.189,0.831,1.029c-0.028,0.623-0.414,0.84-0.612,0.91c-0.025,0.01-0.039,0.038-0.03,0.063
	c0.005,0.011,0.014,0.021,0.024,0.026c0.201,0.118,0.616,0.414,0.607,0.871c-0.014,0.552-0.235,0.756-0.697,0.883
	c-0.026,0.007-0.042,0.033-0.034,0.06c0.003,0.014,0.012,0.024,0.022,0.029c0.176,0.101,0.475,0.343,0.458,0.836
	c-0.021,0.502-0.381,0.677-0.578,0.737c-0.027,0.008-0.041,0.035-0.035,0.061c0.005,0.011,0.011,0.021,0.021,0.027
	c0.126,0.086,0.312,0.28,0.303,0.682c-0.005,0.211-0.075,0.365-0.164,0.474c-0.141,0.176-0.361,0.266-0.585,0.267l-6.218,0.013
	C10.945,17.069,10.609,17.071,10.609,16.62L10.609,16.62z"/>
</svg>
