<?xml version="1.0" encoding="utf-8"?>
<!-- Generator: Adobe Illustrator 19.1.1, SVG Export Plug-In . SVG Version: 6.00 Build 0)  -->
<svg version="1.1" id="Layer_1" xmlns="http://www.w3.org/2000/svg" xmlns:xlink="http://www.w3.org/1999/xlink" x="0px" y="0px"
	 viewBox="300 0 200 200" style="enable-background:new 300 0 200 200;" xml:space="preserve">
<style type="text/css">
	.st0{fill:#EC5F48;}
	.st1{fill:#FFFFFF;}
</style>
<g>
	<path class="st0" d="M500,100c0,55.2-44.8,100-100,100c-55.2,0-100-44.8-100-100C300,44.8,344.8,0,400,0C455.2,0,500,44.8,500,100z
		"/>
	<path class="st1" d="M373.6,59.3c0-2.6-2.1-4.7-4.7-4.7c-2.6,0-4.7,2.1-4.7,4.7l0,77.6c0,0-0.1,4.3-0.1,4.9c0,2,1.2,3.6,2.9,4.3
		c0.6,0.2,1.2,0.4,1.8,0.4c0.6,0,1.2-0.1,1.7-0.3c1.8-0.7,3-2.4,3-4.4C373.6,141.6,373.6,59.3,373.6,59.3z"/>
	<path class="st1" d="M429.6,89.8c4.3-3.8,7.1-9.3,7.1-15.5c0-11.5-9.3-20.8-20.8-20.8c-11.5,0-20.8,9.3-20.8,20.8
		c0,6.2,2.8,11.7,7.1,15.5c-9.5,5-15.9,14.9-15.9,26.3c0,16.4,13.3,29.7,29.7,29.7c16.4,0,29.7-13.3,29.7-29.7
		C445.5,104.6,439.1,94.7,429.6,89.8z M415.9,63c6.2,0,11.3,5,11.3,11.2c0,6.2-5,11.2-11.3,11.2c-6.2,0-11.2-5-11.2-11.2
		C404.6,68.1,409.7,63,415.9,63z M415.9,136.5c-11.3,0-20.4-9.1-20.4-20.4c0-11.3,9.2-20.4,20.4-20.4c11.3,0,20.4,9.2,20.4,20.4
		C436.3,127.3,427.2,136.5,415.9,136.5z"/>
</g>
</svg>
