<?xml version="1.0" encoding="utf-8"?>
<!-- Generator: Adobe Illustrator 19.1.1, SVG Export Plug-In . SVG Version: 6.00 Build 0)  -->
<svg version="1.1" id="Layer_1" xmlns="http://www.w3.org/2000/svg" xmlns:xlink="http://www.w3.org/1999/xlink" x="0px" y="0px"
	 viewBox="300 0 200 200" style="enable-background:new 300 0 200 200;" xml:space="preserve">
<style type="text/css">
	.st0{fill:#EC5F48;}
	.st1{fill:#FFFFFF;}
</style>
<g>
	<path class="st0" d="M499.8,99.8c0,55.2-44.8,100-100,100c-55.2,0-100-44.8-100-100s44.8-100,100-100
		C455-0.2,499.8,44.5,499.8,99.8z"/>
	<path class="st1" d="M405.2,48.5c0-0.1,0-0.2-0.1-0.4c-0.2-0.5-0.4-0.9-0.7-1.4c0-0.1-0.1-0.1-0.1-0.2c0,0-0.1,0-0.1-0.1
		c-0.3-0.4-0.7-0.6-1.1-0.9c-0.1-0.1-0.3-0.2-0.4-0.3c-0.3-0.2-0.6-0.2-1-0.3c-0.3-0.1-0.5-0.1-0.8-0.2c-0.1,0-0.1,0-0.2,0
		c-0.2,0-0.4,0.1-0.6,0.1c-0.4,0-0.7,0.1-1,0.2c-0.2,0.1-0.4,0.2-0.6,0.3c-0.2,0.1-0.5,0.2-0.7,0.4c0,0-6.9,5.6-15,12.1
		c-6.1,4.9-11.5,9.3-13.8,11.1c-11,0-20.6,0-20.6,0c-2.6,0-4.7,2.1-4.7,4.7c0,0.2,0,51.3,0,52v0c0,0,0,0,0,0c0,0,0,0,0,0
		c0,0.6,0.1,1.2,0.3,1.7c0,0.1,0.1,0.1,0.1,0.2c0.5,1.1,1.3,2,2.5,2.5c0.6,0.2,1.2,0.4,1.8,0.4c0.1,0,9.9,0,20.9,0l3.2,2.6
		l20.7,16.7l4.7,3.8c0.2,0.1,0.4,0.2,0.5,0.3c0.3,0.2,0.5,0.3,0.9,0.4c0.3,0.1,0.6,0.1,0.9,0.2c0.2,0,0.4,0.1,0.6,0.1
		c0.1,0,0.2,0,0.2,0c0.3,0,0.6-0.1,0.9-0.2c0.3-0.1,0.6-0.1,0.8-0.3c0.3-0.1,0.5-0.3,0.7-0.5c0.3-0.2,0.5-0.4,0.8-0.6
		c0.1-0.1,0.1-0.1,0.2-0.2c0.1-0.2,0.2-0.4,0.3-0.5c0.2-0.3,0.3-0.5,0.4-0.9c0.1-0.3,0.1-0.6,0.2-0.9c0-0.2,0.1-0.4,0.1-0.6v-6
		v-20.3v-6v-0.3v-6V91.2v-3.1v-2.9v-3.1V55.5v-6C405.5,49.2,405.3,48.8,405.2,48.5z M396.1,140.2c-2.2-1.8-4.7-3.8-7.4-5.9
		c-8.1-6.5-15-12.1-15-12.1c-1-0.8-2.3-1.1-3.6-1c-6.7,0-13,0-17.1,0c0-9.9,0-32.7,0-42.6h17.6v-0.1c1.1,0,2.1-0.3,3-1l4.7-3.8
		l17.7-14.3c0,2.8,0,6.1,0,9.5c0,6.8,0,12.9,0,16.4c0,0,0,0,0,0c0,0,0,0.5,0,1.4c0,0.9,0,1.4,0,1.4c0,0,0,0,0,0c0,3.4,0,9.5,0,16.4
		c0,2.4,0,4.8,0,7c0,0,0,0,0,0c0,0,0,2.4,0,6.1c0,3.7,0,6.1,0,6.1c0,0,0,0,0,0c0,2.2,0,4.5,0,7C396.1,134.1,396.1,137.3,396.1,140.2
		z"/>
	<path class="st1" d="M437.3,49.4c0-2.3-2.1-4.2-4.7-4.2c-2.6,0-4.7,1.9-4.7,4.2l0,69.5c0,0-0.1,3.9-0.1,4.4c0,1.8,1.2,3.3,2.9,3.9
		c0.6,0.2,1.2,0.3,1.8,0.3c0.6,0,1.2-0.1,1.7-0.3c1.8-0.6,3-2.1,3-3.9C437.3,123.1,437.3,49.4,437.3,49.4z"/>
	<path class="st1" d="M437.3,149.9c0,2.6-2.1,4.7-4.7,4.7c-2.6,0-4.7-2.1-4.7-4.7s2.1-4.7,4.7-4.7
		C435.2,145.2,437.3,147.3,437.3,149.9z"/>
</g>
</svg>
