<?xml version="1.0" encoding="utf-8"?>
<!-- Generator: Adobe Illustrator 19.1.1, SVG Export Plug-In . SVG Version: 6.00 Build 0)  -->
<svg version="1.1" id="Réteg_1" xmlns="http://www.w3.org/2000/svg" xmlns:xlink="http://www.w3.org/1999/xlink" x="0px" y="0px"
	 viewBox="0 0 200 200" style="enable-background:new 0 0 200 200;" xml:space="preserve">
<style type="text/css">
	.st0{fill:#EC5F48;}
</style>
<g>
	<path class="st0" d="M126.3,85.5c-2.6,0-4.7-2.1-4.7-4.7l0-22.3h-8.2c0,16.8,0,68.5,0,68.7c0,0,0,0.1,0,0.1c0,1.3,0,2.7,0,4.1
		c0,4.6,0,8.8,0,12.3c17.6-17.9,23.5-46.9,25.3-58.2H127H126.3z"/>
	<path class="st0" d="M100,0C44.8,0,0,44.8,0,100s44.8,100,100,100c55.2,0,100-44.8,100-100S155.2,0,100,0z M73.6,158.6
		c-2.6,0-4.7-2.1-4.7-4.7c0-2.6,2.1-4.7,4.7-4.7c2.6,0,4.7,2.1,4.7,4.7C78.3,156.5,76.2,158.6,73.6,158.6z M78.3,127.2
		c0,1.8-1.2,3.3-3,3.9c-0.5,0.2-1.1,0.3-1.7,0.3c-0.7,0-1.3-0.1-1.8-0.3c-1.7-0.6-2.9-2.1-2.9-3.9c0-0.5,0.1-4.4,0.1-4.4l0-69.5
		c0-2.3,2.1-4.2,4.7-4.2c2.6,0,4.7,1.9,4.7,4.2C78.4,53.4,78.3,127,78.3,127.2z M110.3,158.5c-0.2,0.1-0.3,0.1-0.3,0.1l0-0.1
		c-0.4,0.1-0.8,0.2-1.3,0.2c-2.6,0-4.7-1.9-4.7-4.2v-4.9h0v-18.3v-3.8c0-0.1-0.1-0.2-0.1-0.4c0-0.3,0-2,0.1-3.2v-10.9h0v-4.9
		c0,0,0-0.1,0-0.1l0-53.8c0-0.2-0.1-0.3-0.1-0.5c0-0.2,0.1-0.3,0.1-0.5v0c0-0.1,0-0.1,0-0.2c0.1-0.4,0.1-0.8,0.3-1.2
		c0.4-1,1.2-1.8,2.2-2.3c0.1-0.1,0.2-0.1,0.3-0.2c0.3-0.1,0.6-0.1,1-0.2c0.3,0,0.5-0.2,0.8-0.2h0.6h16.4h0.6h0
		c2.6,0,4.7,1.9,4.7,4.2c0,0,0,0.2,0,0.5c0,2.2,0,11.2,0,22.3h12.4h0.6c2.6,0,4.7,2.1,4.7,4.7C142.3,137.4,110.8,158.4,110.3,158.5z
		"/>
</g>
</svg>
