<?xml version="1.0" encoding="utf-8"?>
<!-- Generator: Adobe Illustrator 16.0.0, SVG Export Plug-In . SVG Version: 6.00 Build 0)  -->
<!DOCTYPE svg PUBLIC "-//W3C//DTD SVG 1.1//EN" "http://www.w3.org/Graphics/SVG/1.1/DTD/svg11.dtd">
<svg version="1.1" id="Layer_1" xmlns="http://www.w3.org/2000/svg" xmlns:xlink="http://www.w3.org/1999/xlink" x="0px" y="0px"
	 width="200px" height="200px" viewBox="0 0 200 200" enable-background="new 0 0 200 200" xml:space="preserve">
<g>
	<g>
		<circle fill="#EB5D47" cx="100.828" cy="99.969" r="45.158"/>
	</g>
</g>
<g>
	<g>
		<path fill="#4E4D4D" d="M100.283,156.663L100.283,156.663L100.283,156.663c-0.829-0.01-1.489-0.69-1.479-1.521l0,0
			c0-0.828,0.681-1.488,1.511-1.479l0,0c0.83,0.01,1.5,0.68,1.49,1.51l0,0c-0.011,0.82-0.681,1.49-1.5,1.49l0,0
			C100.293,156.663,100.293,156.663,100.283,156.663z M104.794,155.043c-0.08-0.82,0.53-1.56,1.351-1.64l0,0
			c0.819-0.08,1.562,0.52,1.642,1.35l0,0c0.079,0.82-0.521,1.561-1.353,1.641l0,0c-0.05,0-0.09,0-0.14,0l0,0
			C105.523,156.394,104.874,155.813,104.794,155.043z M94.145,156.274c-0.82-0.102-1.41-0.842-1.32-1.671l0,0
			c0.1-0.819,0.85-1.409,1.67-1.311l0,0c0.82,0.101,1.41,0.84,1.32,1.659l0,0c-0.101,0.771-0.74,1.33-1.49,1.33l0,0
			C94.264,156.282,94.204,156.282,94.145,156.274z M110.744,154.293c-0.17-0.81,0.35-1.601,1.16-1.771l0,0
			c0.81-0.171,1.609,0.35,1.779,1.158l0,0c0.17,0.813-0.352,1.61-1.16,1.78l0,0c0,0,0,0,0-0.011l0,0
			c-0.102,0.021-0.211,0.039-0.312,0.039l0,0C111.514,155.493,110.895,155.003,110.744,154.293z M88.073,155.223
			c-0.811-0.188-1.311-0.989-1.12-1.8l0,0c0.18-0.811,0.979-1.311,1.79-1.12l0,0c0.81,0.181,1.31,0.979,1.13,1.79l0,0
			c-0.16,0.7-0.78,1.17-1.46,1.17l0,0C88.304,155.263,88.184,155.243,88.073,155.223z M116.584,152.913
			c-0.26-0.79,0.17-1.641,0.96-1.9l0,0c0.78-0.25,1.63,0.17,1.89,0.96l0,0c0.262,0.79-0.17,1.632-0.959,1.892l0,0
			c-0.148,0.051-0.311,0.08-0.471,0.08l0,0C117.374,153.944,116.784,153.543,116.584,152.913z M82.153,153.513
			c-0.78-0.27-1.19-1.13-0.92-1.909l0,0c0.27-0.78,1.129-1.2,1.91-0.921l0,0c0.779,0.271,1.199,1.12,0.92,1.91l0,0
			c-0.211,0.62-0.791,1-1.41,1l0,0C82.483,153.593,82.323,153.573,82.153,153.513z M122.225,150.883c-0.341-0.75,0-1.64,0.75-1.979
			l0,0c0.76-0.34,1.649-0.01,1.989,0.75l0,0c0.341,0.75,0,1.642-0.75,1.979l0,0c-0.2,0.09-0.409,0.142-0.62,0.142l0,0
			C123.023,151.774,122.482,151.444,122.225,150.883z M76.454,151.163c-0.74-0.35-1.06-1.25-0.7-1.99l0,0
			c0.35-0.75,1.25-1.069,1.99-0.71l0,0c0.75,0.351,1.07,1.25,0.71,2l0,0c-0.25,0.54-0.79,0.851-1.351,0.851l0,0
			C76.883,151.313,76.664,151.263,76.454,151.163z M127.624,148.263c-0.42-0.71-0.19-1.63,0.521-2.05l0,0
			c0.722-0.431,1.642-0.188,2.062,0.521l0,0c0.42,0.721,0.188,1.642-0.53,2.062l0,0l0,0l0,0c-0.238,0.14-0.5,0.21-0.76,0.21l0,0
			C128.404,149.003,127.904,148.733,127.624,148.263z M71.054,148.213c-0.71-0.431-0.93-1.359-0.489-2.06l0,0
			c0.43-0.711,1.359-0.92,2.06-0.49l0,0c0.71,0.438,0.92,1.359,0.489,2.07l0,0c-0.279,0.447-0.77,0.709-1.279,0.709l0,0
			C71.563,148.444,71.293,148.364,71.054,148.213z M132.693,145.073c-0.489-0.67-0.359-1.61,0.301-2.103l0,0
			c0.67-0.5,1.609-0.358,2.1,0.302l0,0c0.5,0.658,0.37,1.6-0.3,2.1l0,0l0,0l0,0c-0.271,0.201-0.58,0.301-0.899,0.301l0,0
			C133.443,145.673,132.994,145.463,132.693,145.073z M65.994,144.694c-0.65-0.512-0.77-1.451-0.26-2.102l0,0
			c0.51-0.66,1.449-0.77,2.109-0.26l0,0c0.65,0.51,0.77,1.449,0.26,2.1l0,0c-0.3,0.381-0.74,0.58-1.189,0.58l0,0
			C66.593,145.013,66.264,144.913,65.994,144.694z M137.395,141.343c-0.561-0.6-0.529-1.55,0.08-2.12l0,0
			c0.602-0.56,1.549-0.528,2.119,0.08l0,0c0.561,0.601,0.53,1.551-0.08,2.12l0,0c-0.289,0.271-0.647,0.4-1.02,0.4l0,0
			C138.094,141.823,137.693,141.663,137.395,141.343z M61.354,140.653c-0.6-0.58-0.609-1.528-0.029-2.119l0,0
			c0.57-0.602,1.52-0.609,2.119-0.029l0,0c0.59,0.568,0.61,1.521,0.031,2.12l0,0c-0.301,0.3-0.691,0.448-1.08,0.448l0,0
			C62.014,141.073,61.645,140.933,61.354,140.653z M141.664,137.133c-0.62-0.54-0.689-1.479-0.15-2.108l0,0
			c0.541-0.631,1.49-0.701,2.11-0.16l0,0c0.63,0.539,0.7,1.489,0.16,2.119l0,0c-0.302,0.34-0.71,0.521-1.142,0.521l0,0
			C142.305,137.503,141.954,137.383,141.664,137.133z M57.173,136.133L57.173,136.133L57.173,136.133
			c-0.529-0.64-0.439-1.59,0.189-2.12l0,0c0.641-0.52,1.591-0.439,2.121,0.2l0,0c0.529,0.641,0.439,1.59-0.201,2.11l0,0
			c-0.279,0.24-0.619,0.35-0.959,0.35l0,0C57.895,136.673,57.463,136.493,57.173,136.133z M145.464,132.493
			c-0.68-0.471-0.851-1.41-0.38-2.09l0,0c0.471-0.683,1.398-0.853,2.08-0.381l0,0c0.689,0.471,0.85,1.398,0.391,2.079l0,0
			c-0.291,0.431-0.761,0.649-1.24,0.649l0,0C146.023,132.753,145.725,132.673,145.464,132.493z M53.503,131.183
			c-0.46-0.689-0.27-1.619,0.43-2.079l0,0c0.69-0.45,1.62-0.261,2.07,0.431l0,0c0.46,0.688,0.27,1.619-0.42,2.08l0,0
			c-0.26,0.16-0.54,0.239-0.83,0.239l0,0C54.272,131.854,53.793,131.622,53.503,131.183z M148.732,127.463
			c-0.729-0.399-1-1.31-0.608-2.04l0,0c0.39-0.729,1.3-1,2.03-0.6l0,0c0.729,0.39,1,1.299,0.609,2.028l0,0l0,0l0,0
			c-0.271,0.5-0.791,0.79-1.32,0.79l0,0C149.204,127.644,148.954,127.583,148.732,127.463z M50.395,125.872
			c-0.381-0.739-0.091-1.639,0.649-2.021l0,0c0.729-0.381,1.64-0.091,2.021,0.649l0,0c0.379,0.729,0.09,1.641-0.65,2.021l0,0
			c-0.221,0.108-0.46,0.158-0.689,0.158l0,0C51.184,126.683,50.653,126.383,50.395,125.872z M151.434,122.104
			c-0.77-0.311-1.129-1.19-0.817-1.95l0,0c0.31-0.771,1.18-1.141,1.948-0.83l0,0c0.771,0.312,1.142,1.189,0.83,1.961l0,0l0,0l0,0
			c-0.24,0.58-0.801,0.931-1.398,0.931l0,0C151.814,122.213,151.624,122.183,151.434,122.104z M47.883,120.253
			c-0.3-0.78,0.08-1.649,0.86-1.939l0,0c0.77-0.301,1.64,0.09,1.939,0.859l0,0c0.291,0.779-0.09,1.641-0.869,1.939l0,0
			c-0.17,0.068-0.36,0.101-0.531,0.101l0,0C48.673,121.213,48.104,120.843,47.883,120.253z M153.544,116.483
			c-0.8-0.221-1.26-1.051-1.04-1.851l0,0c0.229-0.8,1.061-1.261,1.85-1.029l0,0c0.801,0.22,1.263,1.05,1.041,1.851l0,0l0,0l0,0
			c-0.188,0.66-0.791,1.091-1.438,1.091l0,0C153.814,116.543,153.674,116.524,153.544,116.483z M45.994,114.383L45.994,114.383
			L45.994,114.383c-0.211-0.8,0.27-1.62,1.07-1.83l0,0c0.799-0.21,1.619,0.271,1.83,1.069l0,0c0.209,0.801-0.271,1.621-1.07,1.83
			l0,0c-0.131,0.041-0.25,0.051-0.381,0.051l0,0C46.772,115.503,46.173,115.063,45.994,114.383z M155.014,110.673
			c-0.81-0.141-1.369-0.91-1.229-1.729l0,0c0.14-0.82,0.91-1.36,1.729-1.23l0,0c0.82,0.141,1.37,0.91,1.23,1.73l0,0l0,0l0,0
			c-0.12,0.729-0.762,1.25-1.48,1.25l0,0C155.184,110.694,155.104,110.683,155.014,110.673z M44.764,108.354
			c-0.13-0.819,0.44-1.591,1.26-1.71l0,0c0.82-0.119,1.58,0.449,1.701,1.27l0,0c0.119,0.82-0.441,1.58-1.261,1.701l0,0
			c-0.069,0.011-0.149,0.021-0.22,0.021l0,0C45.514,109.633,44.874,109.093,44.764,108.354z M155.854,104.733
			c-0.83-0.051-1.459-0.761-1.408-1.58l0,0c0.039-0.83,0.75-1.459,1.578-1.41l0,0c0.83,0.041,1.461,0.75,1.41,1.58l0,0l0,0l0,0
			c-0.05,0.802-0.709,1.41-1.5,1.41l0,0C155.904,104.733,155.874,104.733,155.854,104.733z M44.192,102.223
			c-0.039-0.829,0.61-1.528,1.431-1.56l0,0c0.83-0.03,1.53,0.609,1.56,1.439l0,0c0.03,0.829-0.609,1.52-1.439,1.561l0,0
			c-0.02,0-0.04,0-0.061,0l0,0C44.883,103.663,44.225,103.024,44.192,102.223z M154.464,97.313c-0.04-0.83,0.601-1.529,1.431-1.569
			l0,0c0.83-0.04,1.529,0.601,1.569,1.431l0,0c0.04,0.819-0.601,1.529-1.42,1.569l0,0c-0.03,0-0.062,0-0.08,0l0,0
			C155.174,98.743,154.504,98.114,154.464,97.313z M45.673,97.663c-0.83-0.05-1.449-0.771-1.4-1.601l0,0
			c0.061-0.819,0.771-1.449,1.601-1.389l0,0c0.83,0.049,1.45,0.77,1.39,1.6l0,0c-0.05,0.789-0.71,1.39-1.49,1.39l0,0
			C45.744,97.663,45.704,97.663,45.673,97.663z M153.874,91.514c-0.13-0.82,0.431-1.59,1.239-1.721l0,0
			c0.82-0.119,1.591,0.43,1.721,1.25l0,0c0.13,0.82-0.43,1.59-1.25,1.721l0,0c-0.08,0.01-0.16,0.02-0.24,0.02l0,0
			C154.624,92.783,153.982,92.253,153.874,91.514z M46.244,91.694c-0.82-0.15-1.36-0.92-1.221-1.74l0,0
			c0.15-0.82,0.931-1.359,1.74-1.21l0,0c0.82,0.14,1.36,0.92,1.221,1.739l0,0c-0.131,0.721-0.771,1.23-1.48,1.23l0,0
			C46.414,91.713,46.333,91.713,46.244,91.694z M152.645,85.813c-0.221-0.799,0.26-1.619,1.051-1.84l0,0
			c0.801-0.22,1.631,0.25,1.851,1.051l0,0c0.21,0.8-0.26,1.619-1.062,1.84l0,0c-0.131,0.04-0.26,0.061-0.391,0.061l0,0
			C153.434,86.924,152.824,86.483,152.645,85.813z M47.454,85.823c-0.8-0.24-1.25-1.07-1.021-1.86l0,0c0.24-0.8,1.07-1.25,1.87-1.02
			l0,0c0.79,0.23,1.25,1.07,1.011,1.859l0,0c-0.19,0.65-0.791,1.08-1.44,1.08l0,0C47.733,85.883,47.593,85.864,47.454,85.823z
			 M150.805,80.283c-0.301-0.78,0.079-1.65,0.85-1.95l0,0c0.771-0.3,1.642,0.07,1.939,0.841l0,0c0.311,0.77-0.07,1.649-0.84,1.949
			l0,0c-0.18,0.07-0.37,0.109-0.55,0.109l0,0C151.604,81.233,151.044,80.873,150.805,80.283z M49.304,80.114
			c-0.771-0.32-1.13-1.2-0.81-1.96l0,0c0.32-0.771,1.199-1.13,1.96-0.81l0,0c0.771,0.319,1.13,1.199,0.81,1.959l0,0
			c-0.24,0.58-0.8,0.93-1.39,0.93l0,0C49.684,80.233,49.494,80.194,49.304,80.114z M148.374,74.973
			c-0.392-0.729-0.11-1.629,0.63-2.02l0,0c0.729-0.391,1.641-0.109,2.02,0.63l0,0c0.393,0.729,0.11,1.64-0.619,2.021l0,0
			c-0.229,0.119-0.471,0.18-0.698,0.18l0,0C149.164,75.783,148.645,75.483,148.374,74.973z M51.764,74.643
			c-0.73-0.399-0.99-1.319-0.59-2.039l0,0c0.4-0.729,1.311-0.99,2.04-0.59l0,0c0.72,0.399,0.99,1.31,0.59,2.039l0,0
			c-0.28,0.5-0.79,0.78-1.319,0.78l0,0C52.244,74.833,51.994,74.774,51.764,74.643z M145.384,69.973
			c-0.47-0.689-0.29-1.619,0.4-2.08l0,0c0.688-0.459,1.62-0.279,2.079,0.4l0,0c0.461,0.689,0.279,1.62-0.399,2.09l0,0
			c-0.26,0.17-0.55,0.25-0.84,0.25l0,0C146.145,70.633,145.674,70.404,145.384,69.973z M54.804,69.473
			c-0.68-0.479-0.84-1.42-0.36-2.09l0,0c0.48-0.68,1.41-0.84,2.09-0.369l0,0c0.671,0.479,0.841,1.42,0.361,2.09l0,0
			c-0.291,0.42-0.761,0.64-1.23,0.64l0,0C55.362,69.743,55.063,69.654,54.804,69.473z M141.863,65.323
			c-0.539-0.63-0.459-1.58,0.171-2.11l0,0c0.64-0.539,1.579-0.46,2.12,0.17l0,0c0.529,0.641,0.449,1.58-0.182,2.12l0,0
			c-0.279,0.24-0.631,0.351-0.971,0.351l0,0C142.584,65.854,142.154,65.674,141.863,65.323z M58.395,64.663
			c-0.631-0.55-0.69-1.5-0.141-2.12l0,0c0.55-0.619,1.49-0.68,2.12-0.14l0,0c0.62,0.55,0.68,1.5,0.13,2.12l0,0
			c-0.3,0.34-0.71,0.51-1.13,0.51l0,0C59.022,65.033,58.673,64.913,58.395,64.663z M137.863,61.083
			c-0.609-0.58-0.631-1.53-0.062-2.12l0,0c0.57-0.6,1.521-0.63,2.12-0.06l0,0l0,0l0,0c0.602,0.569,0.63,1.521,0.051,2.12l0,0
			c-0.289,0.31-0.688,0.47-1.08,0.47l0,0C138.523,61.493,138.145,61.354,137.863,61.083z M62.475,60.264
			c-0.561-0.61-0.521-1.561,0.09-2.121l0,0l0,0l0,0c0.609-0.56,1.56-0.51,2.119,0.101l0,0c0.561,0.61,0.521,1.56-0.09,2.12l0,0
			c-0.29,0.26-0.65,0.39-1.02,0.39l0,0C63.173,60.753,62.764,60.594,62.475,60.264z M133.424,57.293
			c-0.66-0.51-0.79-1.449-0.279-2.109l0,0c0.5-0.65,1.439-0.78,2.102-0.28l0,0c0.658,0.51,0.777,1.45,0.277,2.11l0,0
			c-0.299,0.379-0.737,0.59-1.188,0.59l0,0C134.014,57.604,133.693,57.493,133.424,57.293z M67.003,56.333
			c-0.49-0.67-0.35-1.601,0.32-2.09l0,0c0.67-0.49,1.609-0.351,2.1,0.319l0,0c0.49,0.67,0.34,1.601-0.33,2.091l0,0
			c-0.26,0.2-0.57,0.29-0.88,0.29l0,0C67.753,56.944,67.293,56.733,67.003,56.333z M128.604,54.003
			c-0.709-0.43-0.938-1.35-0.51-2.06l0,0c0.43-0.711,1.352-0.94,2.061-0.51l0,0c0.711,0.43,0.939,1.359,0.512,2.06l0,0
			c-0.28,0.47-0.78,0.729-1.29,0.729l0,0C129.113,54.223,128.844,54.154,128.604,54.003z M71.934,52.924
			c-0.42-0.721-0.18-1.641,0.541-2.051l0,0l0,0l0,0c0.719-0.42,1.639-0.17,2.049,0.54l0,0c0.42,0.72,0.17,1.64-0.539,2.05l0,0
			c-0.24,0.141-0.5,0.211-0.76,0.211l0,0C72.713,53.674,72.204,53.404,71.934,52.924z M123.454,51.253v0.011
			c-0.75-0.351-1.08-1.25-0.729-2l0,0c0.352-0.75,1.239-1.08,2-0.73l0,0c0,0,0,0,0,0.01l0,0c0.75,0.34,1.069,1.24,0.721,1.99l0,0
			c-0.25,0.54-0.791,0.859-1.359,0.859l0,0C123.874,51.393,123.664,51.354,123.454,51.253z M77.192,50.053
			c-0.33-0.75,0.011-1.64,0.771-1.97l0,0l0,0l0,0c0.761-0.34,1.64,0.011,1.979,0.761l0,0c0.33,0.76-0.01,1.649-0.77,1.979l0,0
			c-0.189,0.09-0.4,0.13-0.6,0.13l0,0C77.994,50.953,77.442,50.623,77.192,50.053z M118.044,49.094L118.044,49.094
			c-0.79-0.271-1.21-1.121-0.95-1.9l0,0c0.271-0.79,1.12-1.211,1.91-0.95l0,0c0.78,0.271,1.2,1.12,0.939,1.91l0,0
			c-0.221,0.62-0.801,1.021-1.43,1.021l0,0C118.363,49.174,118.193,49.143,118.044,49.094z M82.753,47.783
			c-0.25-0.79,0.18-1.63,0.971-1.88l0,0c0.789-0.25,1.639,0.19,1.889,0.979l0,0c0.24,0.791-0.189,1.631-0.979,1.881l0,0
			c-0.149,0.049-0.31,0.069-0.46,0.069l0,0C83.543,48.833,82.954,48.424,82.753,47.783z M112.424,47.533
			c-0.82-0.18-1.33-0.98-1.15-1.79l0,0c0.183-0.81,0.98-1.319,1.791-1.149l0,0c0.812,0.18,1.319,0.979,1.142,1.789l0,0
			c-0.149,0.7-0.771,1.18-1.46,1.18l0,0C112.634,47.563,112.523,47.553,112.424,47.533z M88.514,46.133
			c-0.16-0.81,0.37-1.6,1.18-1.76l0,0c0.811-0.16,1.601,0.359,1.761,1.18l0,0c0.17,0.811-0.36,1.601-1.171,1.76h-0.01
			c-0.09,0.021-0.189,0.031-0.289,0.031l0,0C89.283,47.344,88.653,46.854,88.514,46.133z M106.664,46.594
			c-0.82-0.091-1.42-0.83-1.33-1.66l0,0c0.09-0.82,0.83-1.42,1.648-1.33l0,0c0.819,0.09,1.422,0.83,1.33,1.649l0,0
			c-0.08,0.771-0.729,1.341-1.488,1.341l0,0C106.773,46.594,106.714,46.594,106.664,46.594z M94.423,45.123
			c-0.07-0.82,0.54-1.55,1.359-1.62l0,0c0.83-0.079,1.561,0.53,1.631,1.36l0,0c0.07,0.82-0.54,1.55-1.36,1.619l0,0
			c-0.05,0.011-0.09,0.011-0.13,0.011l0,0C95.153,46.493,94.494,45.904,94.423,45.123z M99.333,44.774c0-0.83,0.68-1.5,1.5-1.5l0,0
			c0.83,0,1.51,0.67,1.51,1.5l0,0c0,0.83-0.68,1.5-1.51,1.5l0,0C100.014,46.274,99.333,45.604,99.333,44.774z"/>
	</g>
</g>
<g>
	<g>
		<path fill="#FFFFFF" d="M100.895,75.912c-1.992,0-3.613-1.621-3.613-3.612s1.621-3.612,3.613-3.612
			c1.991,0,3.611,1.621,3.611,3.612S102.886,75.912,100.895,75.912z M100.895,69.687c-1.441,0-2.613,1.172-2.613,2.612
			s1.172,2.612,2.613,2.612c1.439,0,2.611-1.172,2.611-2.612S102.334,69.687,100.895,69.687z"/>
	</g>
	<g>
		<path fill="#FFFFFF" d="M100.895,118.421c-10.184,0-18.469-8.285-18.469-18.468s8.285-18.468,18.469-18.468
			s18.468,8.285,18.468,18.468S111.078,118.421,100.895,118.421z M100.895,82.485c-9.632,0-17.469,7.836-17.469,17.468
			c0,9.632,7.836,17.468,17.469,17.468c9.632,0,17.468-7.836,17.468-17.468C118.362,90.321,110.526,82.485,100.895,82.485z"/>
	</g>
	<g>
		<path fill="#FFFFFF" d="M92.676,84.365l0.171-0.949c0.703-3.895,4.087-6.722,8.047-6.722c3.958,0,7.342,2.827,8.046,6.722
			l0.171,0.948l-0.874-0.406c-4.674-2.172-10.019-2.17-14.687,0L92.676,84.365z M100.895,77.694c-3.145,0-5.876,2.031-6.825,4.95
			c4.375-1.754,9.269-1.755,13.648,0C106.769,79.726,104.038,77.694,100.895,77.694z"/>
	</g>
	<g>
		<path fill="#FFFFFF" d="M100.896,131.25c-1.992,0-3.613-1.62-3.613-3.611c0-1.992,1.621-3.613,3.613-3.613
			c1.991,0,3.611,1.621,3.611,3.613C104.507,129.63,102.887,131.25,100.896,131.25z M100.896,125.025
			c-1.441,0-2.613,1.172-2.613,2.613c0,1.439,1.172,2.611,2.613,2.611c1.439,0,2.611-1.172,2.611-2.611
			C103.507,126.197,102.335,125.025,100.896,125.025z"/>
	</g>
	<g>
		<path fill="#FFFFFF" d="M100.896,123.242c-3.96,0-7.344-2.827-8.047-6.722l-0.171-0.948l0.874,0.406
			c4.673,2.169,10.012,2.171,14.688,0l0.874-0.406l-0.171,0.948C108.237,120.415,104.854,123.242,100.896,123.242z M94.071,117.292
			c0.949,2.919,3.68,4.95,6.825,4.95c3.144,0,5.874-2.031,6.823-4.95C103.338,119.048,98.446,119.047,94.071,117.292z"/>
	</g>
	<g>
		<path fill="#FFFFFF" d="M128.313,103.564c-1.992,0-3.613-1.62-3.613-3.612s1.621-3.612,3.613-3.612
			c1.991,0,3.611,1.621,3.611,3.612S130.305,103.564,128.313,103.564z M128.313,97.34c-1.441,0-2.613,1.172-2.613,2.612
			c0,1.44,1.172,2.612,2.613,2.612c1.439,0,2.611-1.172,2.611-2.612C130.925,98.512,129.753,97.34,128.313,97.34z"/>
	</g>
	<g>
		<path fill="#FFFFFF" d="M116.247,108.17l0.406-0.874c1.085-2.336,1.636-4.807,1.636-7.343c0-2.536-0.551-5.007-1.636-7.344
			l-0.406-0.874l0.948,0.171c3.895,0.704,6.722,4.087,6.722,8.046c0,3.958-2.827,7.342-6.722,8.046L116.247,108.17z M117.967,93.129
			c0.878,2.188,1.322,4.479,1.322,6.823c0,2.345-0.444,4.635-1.321,6.824c2.918-0.949,4.949-3.681,4.949-6.824
			C122.917,96.809,120.886,94.078,117.967,93.129z"/>
	</g>
	<g>
		<path fill="#FFFFFF" d="M73.343,103.563c-1.992,0-3.612-1.62-3.612-3.611c0-1.992,1.62-3.612,3.612-3.612
			c1.992,0,3.613,1.621,3.613,3.612C76.956,101.942,75.335,103.563,73.343,103.563z M73.343,97.339c-1.44,0-2.612,1.172-2.612,2.612
			c0,1.44,1.172,2.611,2.612,2.611c1.441,0,2.613-1.171,2.613-2.611C75.956,98.511,74.784,97.339,73.343,97.339z"/>
	</g>
	<g>
		<path fill="#FFFFFF" d="M85.41,108.169l-0.949-0.171c-3.895-0.704-6.722-4.088-6.722-8.046c0-3.959,2.827-7.343,6.722-8.046
			l0.949-0.171l-0.406,0.874c-1.086,2.335-1.636,4.806-1.636,7.343s0.55,5.008,1.636,7.343L85.41,108.169z M83.689,93.128
			c-2.918,0.949-4.95,3.679-4.95,6.824c0,3.143,2.031,5.874,4.95,6.823c-0.877-2.187-1.322-4.478-1.322-6.823
			S82.812,95.316,83.689,93.128z"/>
	</g>
	<g>
		<path fill="#FFFFFF" d="M81.351,123.242c-0.965,0-1.872-0.376-2.554-1.058c-1.408-1.409-1.408-3.701,0-5.109
			c1.364-1.363,3.743-1.363,5.107,0c1.409,1.409,1.409,3.701,0,5.109C83.223,122.866,82.316,123.242,81.351,123.242z
			 M81.351,117.018c-0.698,0-1.354,0.271-1.847,0.765c-1.019,1.019-1.018,2.676,0,3.695c0.986,0.986,2.707,0.986,3.693,0
			c1.019-1.019,1.019-2.676,0-3.695C82.705,117.289,82.049,117.018,81.351,117.018z"/>
	</g>
	<g>
		<path fill="#FFFFFF" d="M90.239,118.915C90.238,118.915,90.238,118.915,90.239,118.915c-2.184,0-4.236-0.85-5.78-2.394
			c-2.8-2.8-3.194-7.191-0.936-10.441l0.55-0.791l0.331,0.904c0.884,2.42,2.242,4.556,4.036,6.349
			c1.795,1.796,3.932,3.154,6.35,4.037l0.906,0.331l-0.793,0.55C93.529,118.412,91.916,118.915,90.239,118.915z M83.842,107.49
			c-1.394,2.733-0.899,6.101,1.324,8.324c1.355,1.354,3.156,2.101,5.072,2.101c0,0,0,0,0,0c1.142,0,2.25-0.266,3.252-0.774
			c-2.167-0.926-4.1-2.232-5.759-3.892C86.074,111.592,84.769,109.658,83.842,107.49z"/>
	</g>
	<g>
		<path fill="#FFFFFF" d="M120.306,123.242c-0.966,0-1.872-0.376-2.554-1.058c-0.683-0.683-1.059-1.59-1.059-2.555
			s0.376-1.872,1.059-2.555c1.363-1.363,3.742-1.363,5.107,0c1.407,1.408,1.407,3.7,0,5.109
			C122.178,122.866,121.271,123.242,120.306,123.242z M120.306,117.018c-0.698,0-1.354,0.271-1.847,0.765
			c-0.494,0.494-0.766,1.15-0.766,1.848c0,0.698,0.271,1.354,0.766,1.848c0.985,0.986,2.706,0.987,3.693,0
			c1.018-1.02,1.018-2.677,0-3.695C121.659,117.289,121.003,117.018,120.306,117.018z"/>
	</g>
	<g>
		<path fill="#FFFFFF" d="M111.418,118.915c-1.678,0-3.29-0.503-4.664-1.455l-0.792-0.55l0.905-0.331
			c2.418-0.883,4.554-2.241,6.35-4.037c1.794-1.793,3.152-3.929,4.036-6.349l0.331-0.904l0.549,0.791
			c2.259,3.25,1.864,7.642-0.936,10.441C115.653,118.065,113.602,118.915,111.418,118.915z M108.165,117.141
			c1.003,0.509,2.11,0.774,3.253,0.774c1.916,0,3.718-0.746,5.072-2.101c2.224-2.224,2.719-5.591,1.324-8.324
			c-0.927,2.168-2.232,4.102-3.891,5.759C112.265,114.908,110.331,116.215,108.165,117.141z"/>
	</g>
	<g>
		<path fill="#FFFFFF" d="M81.417,83.918L81.417,83.918c-0.965,0-1.872-0.375-2.554-1.058c-1.408-1.408-1.408-3.7,0-5.109
			c1.363-1.364,3.744-1.364,5.107,0c0.683,0.682,1.059,1.589,1.059,2.555c0,0.965-0.376,1.872-1.059,2.554
			C83.289,83.543,82.382,83.918,81.417,83.918z M81.417,77.694c-0.698,0-1.354,0.272-1.847,0.765c-1.019,1.019-1.019,2.677,0,3.695
			c0.986,0.986,2.707,0.986,3.693,0c0.494-0.494,0.766-1.149,0.766-1.847c0-0.698-0.272-1.354-0.766-1.848
			C82.771,77.966,82.115,77.694,81.417,77.694z"/>
	</g>
	<g>
		<path fill="#FFFFFF" d="M84.139,94.648l-0.55-0.792c-2.257-3.25-1.864-7.641,0.936-10.441c1.544-1.544,3.596-2.394,5.779-2.394
			c1.678,0,3.291,0.503,4.665,1.456l0.793,0.55l-0.906,0.331c-2.417,0.882-4.554,2.241-6.35,4.037
			c-1.793,1.792-3.151,3.928-4.036,6.348L84.139,94.648z M90.304,82.021c-1.916,0-3.717,0.746-5.072,2.101
			c-2.223,2.224-2.717,5.59-1.324,8.324c0.927-2.169,2.233-4.103,3.891-5.759c1.659-1.66,3.593-2.965,5.759-3.891
			C92.555,82.287,91.446,82.021,90.304,82.021z"/>
	</g>
	<g>
		<path fill="#FFFFFF" d="M120.371,83.918c-0.965,0-1.871-0.375-2.554-1.058s-1.059-1.589-1.059-2.554
			c0-0.965,0.376-1.873,1.059-2.555c1.364-1.365,3.745-1.364,5.107,0c1.408,1.41,1.408,3.701,0,5.109
			C122.243,83.543,121.336,83.918,120.371,83.918z M120.371,77.694c-0.697,0-1.354,0.272-1.847,0.765
			c-0.494,0.494-0.766,1.15-0.766,1.848s0.271,1.354,0.766,1.847c0.987,0.987,2.708,0.986,3.693,0c1.019-1.018,1.019-2.676,0-3.695
			C121.725,77.966,121.069,77.694,120.371,77.694z"/>
	</g>
	<g>
		<path fill="#FFFFFF" d="M117.649,94.648l-0.331-0.905c-0.885-2.421-2.242-4.557-4.035-6.348c-1.796-1.796-3.933-3.154-6.351-4.037
			l-0.906-0.331l0.793-0.55c1.374-0.953,2.987-1.456,4.665-1.456c2.183,0,4.235,0.85,5.779,2.394c2.8,2.8,3.192,7.191,0.936,10.441
			L117.649,94.648z M108.23,82.796c2.167,0.926,4.101,2.231,5.76,3.891c1.657,1.656,2.963,3.59,3.89,5.759
			c1.394-2.734,0.899-6.101-1.323-8.324c-1.355-1.355-3.156-2.101-5.072-2.101C110.342,82.021,109.233,82.287,108.23,82.796z"/>
	</g>
	<g>
		<g>
			<path fill="#FFFFFF" d="M100.896,107.731H90.504c-0.276,0-0.5-0.224-0.5-0.5V90.703c0-0.276,0.224-0.5,0.5-0.5h10.392
				c0.276,0,0.5,0.224,0.5,0.5v16.529C101.396,107.508,101.172,107.731,100.896,107.731z M91.004,106.731h9.392V91.203h-9.392
				V106.731z"/>
		</g>
		<g>
			<path fill="#FFFFFF" d="M111.285,107.732h-10.39c-0.276,0-0.5-0.224-0.5-0.5v-16.53c0-0.276,0.224-0.5,0.5-0.5h10.39
				c0.276,0,0.5,0.224,0.5,0.5v16.53C111.785,107.509,111.562,107.732,111.285,107.732z M101.396,106.732h9.39v-15.53h-9.39V106.732
				z"/>
		</g>
		<g>
			<path fill="#FFFFFF" d="M108.461,93.698h-4.9c-0.276,0-0.5-0.224-0.5-0.5s0.224-0.5,0.5-0.5h4.9c0.276,0,0.5,0.224,0.5,0.5
				S108.737,93.698,108.461,93.698z"/>
		</g>
		<g>
			<path fill="#FFFFFF" d="M108.461,96.479h-4.9c-0.276,0-0.5-0.224-0.5-0.5s0.224-0.5,0.5-0.5h4.9c0.276,0,0.5,0.224,0.5,0.5
				S108.737,96.479,108.461,96.479z"/>
		</g>
		<g>
			<path fill="#FFFFFF" d="M108.461,99.468h-4.9c-0.276,0-0.5-0.224-0.5-0.5s0.224-0.5,0.5-0.5h4.9c0.276,0,0.5,0.224,0.5,0.5
				S108.737,99.468,108.461,99.468z"/>
		</g>
		<g>
			<path fill="#FFFFFF" d="M108.461,102.248h-4.9c-0.276,0-0.5-0.224-0.5-0.5s0.224-0.5,0.5-0.5h4.9c0.276,0,0.5,0.224,0.5,0.5
				S108.737,102.248,108.461,102.248z"/>
		</g>
		<g>
			<path fill="#FFFFFF" d="M108.461,105.101h-4.9c-0.276,0-0.5-0.224-0.5-0.5s0.224-0.5,0.5-0.5h4.9c0.276,0,0.5,0.224,0.5,0.5
				S108.737,105.101,108.461,105.101z"/>
		</g>
		<g>
			<path fill="#FFFFFF" d="M96.222,113.569c-0.049,0-0.099-0.007-0.147-0.022c-0.21-0.064-0.353-0.258-0.353-0.478v-5.769
				c0-0.276,0.224-0.5,0.5-0.5h2.541c0.276,0,0.5,0.224,0.5,0.5v5.769c0,0.219-0.143,0.412-0.352,0.478
				c-0.209,0.066-0.437-0.014-0.561-0.194l-0.863-1.255l-0.852,1.253C96.541,113.49,96.385,113.569,96.222,113.569z M97.485,110.712
				c0.165,0,0.319,0.081,0.412,0.217l0.366,0.531v-3.659h-1.541v3.644l0.349-0.514c0.093-0.137,0.247-0.219,0.412-0.219
				C97.484,110.712,97.484,110.712,97.485,110.712z"/>
		</g>
		<g>
			<path fill="#FFFFFF" d="M98.149,93.766h-4.9c-0.276,0-0.5-0.224-0.5-0.5s0.224-0.5,0.5-0.5h4.9c0.276,0,0.5,0.224,0.5,0.5
				S98.426,93.766,98.149,93.766z"/>
		</g>
		<g>
			<path fill="#FFFFFF" d="M98.149,96.548h-4.9c-0.276,0-0.5-0.224-0.5-0.5s0.224-0.5,0.5-0.5h4.9c0.276,0,0.5,0.224,0.5,0.5
				S98.426,96.548,98.149,96.548z"/>
		</g>
		<g>
			<path fill="#FFFFFF" d="M98.149,99.536h-4.9c-0.276,0-0.5-0.224-0.5-0.5s0.224-0.5,0.5-0.5h4.9c0.276,0,0.5,0.224,0.5,0.5
				S98.426,99.536,98.149,99.536z"/>
		</g>
		<g>
			<path fill="#FFFFFF" d="M98.149,102.316h-4.9c-0.276,0-0.5-0.224-0.5-0.5s0.224-0.5,0.5-0.5h4.9c0.276,0,0.5,0.224,0.5,0.5
				S98.426,102.316,98.149,102.316z"/>
		</g>
		<g>
			<path fill="#FFFFFF" d="M98.149,105.169h-4.9c-0.276,0-0.5-0.224-0.5-0.5s0.224-0.5,0.5-0.5h4.9c0.276,0,0.5,0.224,0.5,0.5
				S98.426,105.169,98.149,105.169z"/>
		</g>
	</g>
</g>
</svg>
