<?xml version="1.0" encoding="utf-8"?>
<!-- Generator: Adobe Illustrator 16.0.0, SVG Export Plug-In . SVG Version: 6.00 Build 0)  -->
<!DOCTYPE svg PUBLIC "-//W3C//DTD SVG 1.1//EN" "http://www.w3.org/Graphics/SVG/1.1/DTD/svg11.dtd">
<svg version="1.1" id="Layer_1" xmlns="http://www.w3.org/2000/svg" xmlns:xlink="http://www.w3.org/1999/xlink" x="0px" y="0px"
	 width="200px" height="200px" viewBox="0 0 200 200" enable-background="new 0 0 200 200" xml:space="preserve">
<g>
	<circle fill="#EB5D47" cx="99.925" cy="100.107" r="45.158"/>
</g>
<g>
	<path fill="#4E4D4D" d="M99.37,156.8L99.37,156.8L99.37,156.8c-0.83-0.01-1.49-0.69-1.48-1.52l0,0c0-0.83,0.68-1.49,1.51-1.48l0,0
		c0.83,0.01,1.5,0.68,1.49,1.51l0,0c-0.01,0.82-0.68,1.49-1.5,1.49l0,0C99.38,156.8,99.38,156.8,99.37,156.8z M103.88,155.18
		c-0.08-0.82,0.53-1.56,1.35-1.64l0,0c0.82-0.08,1.561,0.52,1.641,1.35l0,0c0.08,0.82-0.521,1.561-1.351,1.641l0,0
		c-0.05,0-0.09,0-0.14,0l0,0C104.609,156.53,103.96,155.95,103.88,155.18z M93.23,156.41c-0.82-0.101-1.41-0.841-1.32-1.67l0,0
		c0.1-0.82,0.85-1.41,1.67-1.311l0,0c0.82,0.101,1.41,0.84,1.32,1.66l0,0c-0.1,0.77-0.74,1.33-1.49,1.33l0,0
		C93.35,156.42,93.29,156.42,93.23,156.41z M109.83,154.43c-0.17-0.81,0.35-1.6,1.16-1.77l0,0c0.81-0.17,1.609,0.35,1.779,1.159l0,0
		c0.17,0.811-0.35,1.61-1.16,1.78l0,0c0,0,0,0,0-0.01l0,0c-0.1,0.02-0.21,0.04-0.31,0.04l0,0
		C110.6,155.63,109.979,155.14,109.83,154.43z M87.16,155.359c-0.81-0.189-1.31-0.989-1.12-1.8l0,0c0.18-0.81,0.98-1.31,1.79-1.12
		l0,0c0.81,0.181,1.31,0.98,1.13,1.79l0,0c-0.16,0.7-0.78,1.17-1.46,1.17l0,0C87.39,155.399,87.27,155.38,87.16,155.359z
		 M115.67,153.05c-0.26-0.79,0.17-1.64,0.96-1.9l0,0c0.78-0.25,1.63,0.17,1.89,0.96l0,0c0.261,0.79-0.17,1.631-0.96,1.891l0,0
		c-0.149,0.05-0.31,0.08-0.47,0.08l0,0C116.46,154.08,115.87,153.68,115.67,153.05z M81.24,153.649c-0.78-0.27-1.19-1.13-0.92-1.909
		l0,0c0.27-0.78,1.13-1.2,1.91-0.921l0,0c0.78,0.271,1.2,1.12,0.92,1.91l0,0c-0.21,0.62-0.79,1-1.41,1l0,0
		C81.57,153.729,81.41,153.71,81.24,153.649z M121.31,151.02c-0.34-0.75,0-1.64,0.75-1.979l0,0c0.76-0.34,1.65-0.01,1.99,0.75l0,0
		c0.34,0.75,0,1.64-0.75,1.979l0,0c-0.2,0.09-0.41,0.141-0.62,0.141l0,0C122.109,151.91,121.569,151.58,121.31,151.02z M75.54,151.3
		c-0.74-0.35-1.06-1.25-0.7-1.99l0,0c0.35-0.75,1.25-1.069,1.99-0.71l0,0c0.75,0.351,1.07,1.25,0.71,2l0,0
		c-0.25,0.54-0.79,0.851-1.35,0.851l0,0C75.97,151.45,75.75,151.399,75.54,151.3z M126.71,148.399c-0.42-0.71-0.19-1.63,0.52-2.05
		l0,0c0.721-0.43,1.641-0.189,2.061,0.521l0,0c0.42,0.72,0.189,1.64-0.53,2.06l0,0l0,0l0,0c-0.24,0.14-0.5,0.21-0.76,0.21l0,0
		C127.49,149.14,126.99,148.87,126.71,148.399z M70.14,148.35c-0.71-0.43-0.93-1.359-0.49-2.06l0,0c0.43-0.71,1.36-0.92,2.06-0.49
		l0,0c0.71,0.44,0.92,1.36,0.49,2.07l0,0c-0.28,0.449-0.77,0.71-1.28,0.71l0,0C70.65,148.58,70.38,148.5,70.14,148.35z
		 M131.78,145.21c-0.49-0.67-0.36-1.61,0.3-2.101l0,0c0.67-0.5,1.609-0.359,2.1,0.301l0,0c0.5,0.659,0.37,1.6-0.3,2.1l0,0l0,0l0,0
		c-0.271,0.2-0.58,0.3-0.9,0.3l0,0C132.53,145.81,132.08,145.6,131.78,145.21z M65.08,144.83c-0.65-0.511-0.77-1.45-0.26-2.101l0,0
		c0.51-0.66,1.45-0.77,2.11-0.26l0,0c0.65,0.51,0.77,1.45,0.26,2.1l0,0c-0.3,0.381-0.74,0.58-1.19,0.58l0,0
		C65.68,145.149,65.35,145.05,65.08,144.83z M136.479,141.479c-0.56-0.6-0.529-1.55,0.08-2.12l0,0c0.601-0.56,1.55-0.529,2.12,0.08
		l0,0c0.561,0.601,0.53,1.551-0.08,2.12l0,0c-0.29,0.271-0.649,0.4-1.02,0.4l0,0C137.18,141.96,136.78,141.8,136.479,141.479z
		 M60.44,140.79c-0.6-0.58-0.61-1.53-0.03-2.12l0,0c0.57-0.601,1.52-0.61,2.12-0.03l0,0c0.59,0.57,0.61,1.521,0.03,2.12l0,0
		c-0.3,0.3-0.69,0.45-1.08,0.45l0,0C61.1,141.21,60.73,141.069,60.44,140.79z M140.75,137.27c-0.62-0.54-0.69-1.479-0.15-2.109l0,0
		c0.54-0.63,1.49-0.7,2.11-0.16l0,0c0.63,0.54,0.7,1.49,0.16,2.12l0,0c-0.301,0.34-0.71,0.52-1.141,0.52l0,0
		C141.39,137.64,141.04,137.52,140.75,137.27z M56.26,136.27L56.26,136.27L56.26,136.27c-0.53-0.64-0.44-1.59,0.19-2.12l0,0
		c0.64-0.52,1.59-0.439,2.12,0.2l0,0c0.53,0.641,0.44,1.59-0.2,2.11l0,0c-0.28,0.24-0.62,0.35-0.96,0.35l0,0
		C56.98,136.81,56.55,136.63,56.26,136.27z M144.55,132.63c-0.68-0.47-0.85-1.41-0.38-2.09l0,0c0.47-0.681,1.399-0.851,2.08-0.38
		l0,0c0.689,0.47,0.85,1.399,0.39,2.08l0,0c-0.29,0.43-0.76,0.649-1.24,0.649l0,0C145.109,132.89,144.81,132.81,144.55,132.63z
		 M52.59,131.319c-0.46-0.689-0.27-1.619,0.43-2.079l0,0c0.69-0.45,1.62-0.261,2.07,0.43l0,0c0.46,0.689,0.27,1.62-0.42,2.08l0,0
		c-0.26,0.16-0.54,0.24-0.83,0.24l0,0C53.36,131.99,52.88,131.76,52.59,131.319z M147.819,127.6c-0.729-0.399-1-1.31-0.609-2.04l0,0
		c0.39-0.729,1.3-1,2.03-0.6l0,0c0.729,0.39,1,1.3,0.609,2.03l0,0l0,0l0,0c-0.27,0.5-0.79,0.79-1.319,0.79l0,0
		C148.29,127.78,148.04,127.72,147.819,127.6z M49.48,126.01c-0.38-0.74-0.09-1.64,0.65-2.02l0,0c0.73-0.381,1.64-0.091,2.02,0.649
		l0,0c0.38,0.73,0.09,1.641-0.65,2.021l0,0c-0.22,0.109-0.46,0.159-0.69,0.159l0,0C50.27,126.819,49.74,126.52,49.48,126.01z
		 M150.52,122.24c-0.77-0.311-1.13-1.19-0.819-1.95l0,0c0.31-0.771,1.18-1.141,1.949-0.83l0,0c0.771,0.31,1.141,1.189,0.83,1.96l0,0
		l0,0l0,0c-0.239,0.58-0.8,0.93-1.399,0.93l0,0C150.899,122.35,150.71,122.319,150.52,122.24z M46.97,120.39
		c-0.3-0.78,0.08-1.649,0.86-1.939l0,0c0.77-0.301,1.64,0.09,1.94,0.859l0,0c0.29,0.78-0.09,1.641-0.87,1.94l0,0
		c-0.17,0.069-0.36,0.1-0.53,0.1l0,0C47.76,121.35,47.19,120.979,46.97,120.39z M152.63,116.62c-0.8-0.221-1.26-1.051-1.04-1.851
		l0,0c0.229-0.8,1.06-1.26,1.85-1.029l0,0c0.801,0.22,1.261,1.05,1.04,1.85l0,0l0,0l0,0c-0.189,0.66-0.79,1.09-1.439,1.09l0,0
		C152.899,116.68,152.76,116.66,152.63,116.62z M45.08,114.52L45.08,114.52L45.08,114.52c-0.21-0.8,0.27-1.62,1.07-1.83l0,0
		c0.8-0.21,1.62,0.271,1.83,1.07l0,0c0.21,0.8-0.27,1.62-1.07,1.83l0,0c-0.13,0.04-0.25,0.05-0.38,0.05l0,0
		C45.86,115.64,45.26,115.2,45.08,114.52z M154.1,110.81c-0.81-0.14-1.37-0.91-1.229-1.729l0,0c0.14-0.82,0.91-1.36,1.729-1.23l0,0
		c0.82,0.141,1.37,0.91,1.23,1.73l0,0l0,0l0,0c-0.12,0.729-0.761,1.25-1.48,1.25l0,0C154.27,110.83,154.189,110.819,154.1,110.81z
		 M43.85,108.49c-0.13-0.82,0.44-1.591,1.26-1.71l0,0c0.82-0.12,1.58,0.449,1.7,1.27l0,0c0.12,0.82-0.44,1.58-1.26,1.7l0,0
		c-0.07,0.01-0.15,0.02-0.22,0.02l0,0C44.6,109.77,43.96,109.229,43.85,108.49z M154.939,104.87c-0.83-0.051-1.46-0.761-1.409-1.58
		l0,0c0.039-0.83,0.75-1.46,1.579-1.41l0,0c0.83,0.04,1.46,0.75,1.41,1.58l0,0l0,0l0,0c-0.05,0.8-0.71,1.41-1.5,1.41l0,0
		C154.99,104.87,154.96,104.87,154.939,104.87z M43.28,102.359c-0.04-0.829,0.61-1.53,1.43-1.56l0,0c0.83-0.03,1.53,0.61,1.56,1.44
		l0,0c0.03,0.829-0.61,1.52-1.44,1.56l0,0c-0.02,0-0.04,0-0.06,0l0,0C43.97,103.8,43.31,103.16,43.28,102.359z M153.55,97.45
		c-0.04-0.83,0.6-1.53,1.43-1.57l0,0c0.83-0.04,1.53,0.6,1.57,1.43l0,0c0.04,0.82-0.6,1.53-1.42,1.57l0,0c-0.03,0-0.061,0-0.08,0
		l0,0C154.26,98.88,153.59,98.25,153.55,97.45z M44.76,97.8c-0.83-0.05-1.45-0.77-1.4-1.6l0,0c0.06-0.82,0.77-1.45,1.6-1.39l0,0
		c0.83,0.05,1.45,0.77,1.39,1.6l0,0c-0.05,0.79-0.71,1.39-1.49,1.39l0,0C44.83,97.8,44.79,97.8,44.76,97.8z M152.96,91.65
		c-0.13-0.82,0.43-1.59,1.24-1.72l0,0c0.819-0.12,1.59,0.43,1.72,1.25l0,0c0.13,0.82-0.43,1.59-1.25,1.72l0,0
		c-0.08,0.01-0.16,0.02-0.24,0.02l0,0C153.71,92.92,153.069,92.39,152.96,91.65z M45.33,91.83c-0.82-0.15-1.36-0.92-1.22-1.74l0,0
		c0.15-0.82,0.93-1.36,1.74-1.21l0,0c0.82,0.14,1.36,0.92,1.22,1.74l0,0c-0.13,0.72-0.77,1.23-1.48,1.23l0,0
		C45.5,91.85,45.42,91.85,45.33,91.83z M151.729,85.95c-0.22-0.8,0.261-1.62,1.051-1.84l0,0c0.8-0.22,1.63,0.25,1.85,1.05l0,0
		c0.21,0.8-0.26,1.62-1.061,1.84l0,0c-0.13,0.04-0.26,0.06-0.39,0.06l0,0C152.52,87.06,151.91,86.62,151.729,85.95z M46.54,85.96
		c-0.8-0.24-1.25-1.07-1.02-1.86l0,0c0.24-0.8,1.07-1.25,1.87-1.02l0,0c0.79,0.23,1.25,1.07,1.01,1.86l0,0
		c-0.19,0.65-0.79,1.08-1.44,1.08l0,0C46.82,86.02,46.68,86,46.54,85.96z M149.89,80.42c-0.3-0.78,0.08-1.65,0.851-1.95l0,0
		c0.77-0.3,1.64,0.07,1.939,0.84l0,0c0.311,0.77-0.07,1.65-0.84,1.95l0,0c-0.18,0.07-0.37,0.11-0.55,0.11l0,0
		C150.689,81.37,150.13,81.01,149.89,80.42z M48.39,80.25c-0.77-0.32-1.13-1.2-0.81-1.96l0,0c0.32-0.77,1.2-1.13,1.96-0.81l0,0
		c0.77,0.32,1.13,1.2,0.81,1.96l0,0c-0.24,0.58-0.8,0.93-1.39,0.93l0,0C48.77,80.37,48.58,80.33,48.39,80.25z M147.46,75.11
		c-0.391-0.73-0.11-1.63,0.63-2.02l0,0c0.729-0.39,1.64-0.11,2.02,0.63l0,0c0.391,0.73,0.11,1.64-0.619,2.02l0,0
		c-0.23,0.12-0.471,0.18-0.7,0.18l0,0C148.25,75.92,147.729,75.62,147.46,75.11z M50.85,74.78c-0.73-0.4-0.99-1.32-0.59-2.04l0,0
		c0.4-0.73,1.31-0.99,2.04-0.59l0,0c0.72,0.4,0.99,1.31,0.59,2.04l0,0c-0.28,0.5-0.79,0.78-1.32,0.78l0,0
		C51.33,74.97,51.08,74.91,50.85,74.78z M144.47,70.11c-0.47-0.69-0.29-1.62,0.4-2.08l0,0c0.689-0.46,1.62-0.28,2.08,0.4l0,0
		c0.46,0.69,0.279,1.62-0.4,2.09l0,0c-0.26,0.17-0.55,0.25-0.84,0.25l0,0C145.229,70.77,144.76,70.54,144.47,70.11z M53.89,69.61
		c-0.68-0.48-0.84-1.42-0.36-2.09l0,0c0.48-0.68,1.41-0.84,2.09-0.37l0,0c0.67,0.48,0.84,1.42,0.36,2.09l0,0
		c-0.29,0.42-0.76,0.64-1.23,0.64l0,0C54.45,69.88,54.15,69.79,53.89,69.61z M140.95,65.46c-0.54-0.63-0.46-1.58,0.17-2.11l0,0
		c0.64-0.54,1.58-0.46,2.12,0.17l0,0c0.529,0.64,0.449,1.58-0.181,2.12l0,0c-0.279,0.24-0.63,0.35-0.97,0.35l0,0
		C141.67,65.99,141.24,65.81,140.95,65.46z M57.48,64.8c-0.63-0.55-0.69-1.5-0.14-2.12l0,0c0.55-0.62,1.49-0.68,2.12-0.14l0,0
		c0.62,0.55,0.68,1.5,0.13,2.12l0,0c-0.3,0.34-0.71,0.51-1.13,0.51l0,0C58.11,65.17,57.76,65.05,57.48,64.8z M136.95,61.22
		c-0.61-0.58-0.631-1.53-0.061-2.12l0,0c0.57-0.6,1.521-0.63,2.12-0.06l0,0l0,0l0,0c0.6,0.57,0.63,1.52,0.05,2.12l0,0
		c-0.29,0.31-0.689,0.47-1.08,0.47l0,0C137.609,61.63,137.229,61.49,136.95,61.22z M61.56,60.4c-0.56-0.61-0.52-1.56,0.09-2.12l0,0
		l0,0l0,0c0.61-0.56,1.56-0.51,2.12,0.1l0,0c0.56,0.61,0.52,1.56-0.09,2.12l0,0c-0.29,0.26-0.65,0.39-1.02,0.39l0,0
		C62.26,60.89,61.85,60.73,61.56,60.4z M132.51,57.43c-0.66-0.51-0.79-1.45-0.28-2.11l0,0c0.5-0.65,1.44-0.78,2.101-0.28l0,0
		c0.66,0.51,0.779,1.45,0.279,2.11l0,0c-0.3,0.38-0.739,0.59-1.189,0.59l0,0C133.1,57.74,132.78,57.63,132.51,57.43z M66.09,56.47
		c-0.49-0.67-0.35-1.6,0.32-2.09l0,0c0.67-0.49,1.61-0.35,2.1,0.32l0,0c0.49,0.67,0.34,1.6-0.33,2.09l0,0
		c-0.26,0.2-0.57,0.29-0.88,0.29l0,0C66.84,57.08,66.38,56.87,66.09,56.47z M127.689,54.14c-0.71-0.43-0.939-1.35-0.51-2.06l0,0
		c0.43-0.71,1.351-0.94,2.061-0.51l0,0c0.71,0.43,0.939,1.36,0.51,2.06l0,0c-0.28,0.47-0.78,0.73-1.29,0.73l0,0
		C128.2,54.36,127.93,54.29,127.689,54.14z M71.02,53.06c-0.42-0.72-0.18-1.64,0.54-2.05l0,0l0,0l0,0c0.72-0.42,1.64-0.17,2.05,0.54
		l0,0c0.42,0.72,0.17,1.64-0.54,2.05l0,0c-0.24,0.14-0.5,0.21-0.76,0.21l0,0C71.8,53.81,71.29,53.54,71.02,53.06z M122.54,51.39
		v0.01c-0.75-0.35-1.08-1.25-0.73-2l0,0c0.351-0.75,1.24-1.08,2-0.73l0,0c0,0,0,0,0,0.01l0,0c0.75,0.34,1.07,1.24,0.721,1.99l0,0
		c-0.25,0.54-0.79,0.86-1.36,0.86l0,0C122.96,51.53,122.75,51.49,122.54,51.39z M76.28,50.19c-0.33-0.75,0.01-1.64,0.77-1.97l0,0
		l0,0l0,0c0.76-0.34,1.64,0.01,1.98,0.76l0,0c0.33,0.76-0.01,1.65-0.77,1.98l0,0c-0.19,0.09-0.4,0.13-0.6,0.13l0,0
		C77.08,51.09,76.53,50.76,76.28,50.19z M117.13,49.23L117.13,49.23c-0.79-0.27-1.21-1.12-0.95-1.9l0,0
		c0.271-0.79,1.12-1.21,1.91-0.95l0,0c0.78,0.27,1.2,1.12,0.94,1.91l0,0c-0.221,0.62-0.801,1.02-1.431,1.02l0,0
		C117.45,49.31,117.28,49.28,117.13,49.23z M81.84,47.92c-0.25-0.79,0.18-1.63,0.97-1.88l0,0c0.79-0.25,1.64,0.19,1.89,0.98l0,0
		c0.24,0.79-0.19,1.63-0.98,1.88l0,0c-0.15,0.05-0.31,0.07-0.46,0.07l0,0C82.63,48.97,82.04,48.56,81.84,47.92z M111.51,47.67
		c-0.82-0.18-1.33-0.98-1.15-1.79l0,0c0.181-0.81,0.98-1.32,1.79-1.15l0,0c0.811,0.18,1.32,0.98,1.141,1.79l0,0
		c-0.15,0.7-0.771,1.18-1.46,1.18l0,0C111.72,47.7,111.609,47.69,111.51,47.67z M87.6,46.27c-0.16-0.81,0.37-1.6,1.18-1.76l0,0
		c0.81-0.16,1.6,0.36,1.76,1.18l0,0c0.17,0.81-0.36,1.6-1.17,1.76h-0.01c-0.09,0.02-0.19,0.03-0.29,0.03l0,0
		C88.37,47.48,87.74,46.99,87.6,46.27z M105.75,46.73c-0.82-0.09-1.42-0.83-1.33-1.66l0,0c0.09-0.82,0.83-1.42,1.649-1.33l0,0
		c0.82,0.09,1.421,0.83,1.33,1.65l0,0c-0.08,0.77-0.729,1.34-1.489,1.34l0,0C105.859,46.73,105.8,46.73,105.75,46.73z M93.51,45.26
		c-0.07-0.82,0.54-1.55,1.36-1.62l0,0c0.83-0.08,1.56,0.53,1.63,1.36l0,0c0.07,0.82-0.54,1.55-1.36,1.62l0,0
		c-0.05,0.01-0.09,0.01-0.13,0.01l0,0C94.24,46.63,93.58,46.04,93.51,45.26z M98.42,44.91c0-0.83,0.68-1.5,1.5-1.5l0,0
		c0.83,0,1.51,0.67,1.51,1.5l0,0c0,0.83-0.68,1.5-1.51,1.5l0,0C99.1,46.41,98.42,45.74,98.42,44.91z"/>
</g>
<g>
	<g>
		<path fill="#FFFFFF" d="M128.003,122.275H71.568c-0.276,0-0.5-0.224-0.5-0.5V78.61c0-0.276,0.224-0.5,0.5-0.5h56.435
			c0.276,0,0.5,0.224,0.5,0.5v43.165C128.503,122.052,128.279,122.275,128.003,122.275z M72.068,121.275h55.435V79.11H72.068
			V121.275z"/>
	</g>
	<g>
		<path fill="#FFFFFF" d="M128.003,84.078H71.568c-0.276,0-0.5-0.224-0.5-0.5s0.224-0.5,0.5-0.5h56.435c0.276,0,0.5,0.224,0.5,0.5
			S128.279,84.078,128.003,84.078z"/>
	</g>
	<g>
		<circle fill="#FFFFFF" cx="124.7" cy="81.174" r="0.891"/>
	</g>
	<g>
		<circle fill="#FFFFFF" cx="121.775" cy="81.174" r="0.891"/>
	</g>
	<g>
		<circle fill="#FFFFFF" cx="119.01" cy="81.174" r="0.891"/>
	</g>
	<g>
		<path fill="#FFFFFF" d="M128.003,94.742H71.568c-0.276,0-0.5-0.224-0.5-0.5s0.224-0.5,0.5-0.5h56.435c0.276,0,0.5,0.224,0.5,0.5
			S128.279,94.742,128.003,94.742z"/>
	</g>
	<g>
		<path fill="#FFFFFF" d="M107.337,102.689H75.941c-0.276,0-0.5-0.224-0.5-0.5v-5.034c0-0.276,0.224-0.5,0.5-0.5h31.396
			c0.276,0,0.5,0.224,0.5,0.5v5.034C107.837,102.466,107.613,102.689,107.337,102.689z M76.441,101.689h30.396v-4.034H76.441
			V101.689z"/>
	</g>
	<g>
		<path fill="#FFFFFF" d="M107.337,110.585H75.941c-0.276,0-0.5-0.224-0.5-0.5v-5.034c0-0.276,0.224-0.5,0.5-0.5h31.396
			c0.276,0,0.5,0.224,0.5,0.5v5.034C107.837,110.361,107.613,110.585,107.337,110.585z M76.441,109.585h30.396v-4.034H76.441
			V109.585z"/>
	</g>
	<g>
		<path fill="#FFFFFF" d="M107.337,118.454H75.941c-0.276,0-0.5-0.224-0.5-0.5v-5.034c0-0.276,0.224-0.5,0.5-0.5h31.396
			c0.276,0,0.5,0.224,0.5,0.5v5.034C107.837,118.23,107.613,118.454,107.337,118.454z M76.441,117.454h30.396v-4.034H76.441V117.454
			z"/>
	</g>
	<g>
		<path fill="#FFFFFF" d="M124.699,102.689h-13.123c-0.276,0-0.5-0.224-0.5-0.5v-5.034c0-0.276,0.224-0.5,0.5-0.5h13.123
			c0.276,0,0.5,0.224,0.5,0.5v5.034C125.199,102.466,124.976,102.689,124.699,102.689z M112.076,101.689h12.123v-4.034h-12.123
			V101.689z"/>
	</g>
	<g>
		<path fill="#FFFFFF" d="M124.681,110.585h-13.123c-0.276,0-0.5-0.224-0.5-0.5v-5.034c0-0.276,0.224-0.5,0.5-0.5h13.123
			c0.276,0,0.5,0.224,0.5,0.5v5.034C125.181,110.361,124.957,110.585,124.681,110.585z M112.058,109.585h12.123v-4.034h-12.123
			V109.585z"/>
	</g>
	<g>
		<path fill="#FFFFFF" d="M124.699,113.42h-13.123c-0.276,0-0.5-0.224-0.5-0.5s0.224-0.5,0.5-0.5h13.123c0.276,0,0.5,0.224,0.5,0.5
			S124.976,113.42,124.699,113.42z"/>
	</g>
	<g>
		<path fill="#FFFFFF" d="M124.699,117.794h-13.142c-0.276,0-0.5-0.224-0.5-0.5s0.224-0.5,0.5-0.5h13.142c0.276,0,0.5,0.224,0.5,0.5
			S124.976,117.794,124.699,117.794z"/>
	</g>
</g>
</svg>
