<?xml version="1.0" encoding="utf-8"?>
<!-- Generator: Adobe Illustrator 16.0.0, SVG Export Plug-In . SVG Version: 6.00 Build 0)  -->
<!DOCTYPE svg PUBLIC "-//W3C//DTD SVG 1.1//EN" "http://www.w3.org/Graphics/SVG/1.1/DTD/svg11.dtd">
<svg version="1.1" id="Layer_1" xmlns="http://www.w3.org/2000/svg" xmlns:xlink="http://www.w3.org/1999/xlink" x="0px" y="0px"
	 width="200px" height="200px" viewBox="0 0 200 200" enable-background="new 0 0 200 200" xml:space="preserve">
<g>
	<g>
		<circle fill="#EB5D47" cx="99.796" cy="99.378" r="45.158"/>
	</g>
</g>
<g>
	<g>
		<path fill="#4E4D4D" d="M99.24,156.07L99.24,156.07L99.24,156.07c-0.829-0.01-1.489-0.69-1.479-1.521l0,0
			c0-0.829,0.681-1.489,1.511-1.479l0,0c0.83,0.01,1.5,0.68,1.49,1.51l0,0c-0.011,0.82-0.681,1.49-1.5,1.49l0,0
			C99.251,156.07,99.251,156.07,99.24,156.07z M103.751,154.45c-0.08-0.82,0.53-1.56,1.351-1.64l0,0
			c0.819-0.08,1.561,0.52,1.641,1.35l0,0c0.08,0.82-0.521,1.561-1.352,1.641l0,0c-0.05,0-0.09,0-0.14,0l0,0
			C104.48,155.801,103.831,155.221,103.751,154.45z M93.102,155.682c-0.82-0.102-1.41-0.842-1.32-1.671l0,0
			c0.1-0.819,0.85-1.409,1.67-1.311l0,0c0.82,0.101,1.41,0.84,1.32,1.659l0,0c-0.101,0.771-0.74,1.33-1.49,1.33l0,0
			C93.221,155.689,93.161,155.689,93.102,155.682z M109.701,153.7c-0.17-0.81,0.35-1.601,1.16-1.771l0,0
			c0.81-0.17,1.609,0.35,1.779,1.159l0,0c0.17,0.812-0.351,1.61-1.16,1.78l0,0c0,0,0,0,0-0.01l0,0
			c-0.101,0.02-0.211,0.039-0.311,0.039l0,0C110.471,154.9,109.852,154.41,109.701,153.7z M87.031,154.63
			c-0.811-0.188-1.311-0.989-1.12-1.8l0,0c0.18-0.811,0.979-1.311,1.79-1.12l0,0c0.81,0.181,1.31,0.979,1.13,1.79l0,0
			c-0.16,0.7-0.78,1.17-1.46,1.17l0,0C87.261,154.67,87.141,154.65,87.031,154.63z M115.541,152.32c-0.26-0.79,0.17-1.641,0.96-1.9
			l0,0c0.78-0.25,1.63,0.17,1.89,0.96l0,0c0.262,0.79-0.17,1.632-0.959,1.892l0,0c-0.149,0.05-0.311,0.08-0.471,0.08l0,0
			C116.331,153.352,115.741,152.95,115.541,152.32z M81.111,152.92c-0.78-0.27-1.19-1.13-0.92-1.909l0,0
			c0.27-0.78,1.129-1.2,1.91-0.921l0,0c0.779,0.271,1.199,1.12,0.92,1.91l0,0c-0.211,0.62-0.791,1-1.41,1l0,0
			C81.441,153,81.281,152.98,81.111,152.92z M121.182,150.29c-0.341-0.75,0-1.64,0.75-1.979l0,0c0.76-0.34,1.649-0.01,1.989,0.75
			l0,0c0.341,0.75,0,1.641-0.75,1.979l0,0c-0.2,0.09-0.409,0.142-0.62,0.142l0,0C121.98,151.182,121.439,150.852,121.182,150.29z
			 M75.411,150.57c-0.74-0.35-1.06-1.25-0.7-1.99l0,0c0.35-0.75,1.25-1.069,1.99-0.71l0,0c0.75,0.351,1.07,1.25,0.71,2l0,0
			c-0.25,0.54-0.79,0.851-1.351,0.851l0,0C75.841,150.721,75.621,150.67,75.411,150.57z M126.581,147.67
			c-0.42-0.71-0.19-1.63,0.521-2.05l0,0c0.721-0.431,1.641-0.188,2.061,0.521l0,0c0.42,0.721,0.189,1.641-0.53,2.061l0,0l0,0l0,0
			c-0.239,0.14-0.5,0.21-0.76,0.21l0,0C127.361,148.41,126.861,148.141,126.581,147.67z M70.011,147.62
			c-0.71-0.431-0.93-1.359-0.489-2.06l0,0c0.43-0.711,1.359-0.92,2.06-0.49l0,0c0.71,0.439,0.92,1.359,0.489,2.07l0,0
			c-0.279,0.448-0.77,0.709-1.279,0.709l0,0C70.521,147.852,70.251,147.771,70.011,147.62z M131.65,144.48
			c-0.489-0.67-0.359-1.61,0.301-2.102l0,0c0.67-0.5,1.609-0.359,2.1,0.301l0,0c0.5,0.659,0.37,1.6-0.3,2.1l0,0l0,0l0,0
			c-0.271,0.201-0.58,0.301-0.899,0.301l0,0C132.4,145.08,131.951,144.87,131.65,144.48z M64.951,144.102
			c-0.65-0.512-0.77-1.451-0.26-2.102l0,0c0.51-0.66,1.449-0.77,2.109-0.26l0,0c0.65,0.51,0.77,1.449,0.26,2.1l0,0
			c-0.3,0.381-0.74,0.58-1.189,0.58l0,0C65.551,144.42,65.221,144.32,64.951,144.102z M136.352,140.75
			c-0.561-0.6-0.529-1.55,0.08-2.12l0,0c0.601-0.56,1.549-0.528,2.119,0.08l0,0c0.561,0.601,0.53,1.551-0.08,2.12l0,0
			c-0.289,0.271-0.648,0.4-1.02,0.4l0,0C137.051,141.23,136.65,141.07,136.352,140.75z M60.311,140.061
			c-0.6-0.58-0.609-1.529-0.029-2.119l0,0c0.57-0.602,1.52-0.61,2.119-0.03l0,0c0.59,0.569,0.61,1.521,0.031,2.12l0,0
			c-0.301,0.3-0.691,0.449-1.08,0.449l0,0C60.971,140.48,60.602,140.34,60.311,140.061z M140.621,136.54
			c-0.62-0.54-0.689-1.479-0.15-2.108l0,0c0.541-0.631,1.49-0.701,2.11-0.16l0,0c0.63,0.539,0.7,1.489,0.16,2.119l0,0
			c-0.302,0.34-0.71,0.521-1.142,0.521l0,0C141.262,136.91,140.911,136.79,140.621,136.54z M56.131,135.54L56.131,135.54
			L56.131,135.54c-0.529-0.64-0.439-1.59,0.189-2.12l0,0c0.641-0.52,1.591-0.439,2.121,0.2l0,0c0.529,0.641,0.439,1.59-0.201,2.11
			l0,0c-0.279,0.24-0.619,0.35-0.959,0.35l0,0C56.852,136.08,56.421,135.9,56.131,135.54z M144.421,131.9
			c-0.68-0.471-0.851-1.41-0.38-2.09l0,0c0.471-0.682,1.398-0.852,2.08-0.381l0,0c0.689,0.471,0.85,1.399,0.391,2.08l0,0
			c-0.291,0.43-0.761,0.649-1.24,0.649l0,0C144.98,132.16,144.682,132.08,144.421,131.9z M52.461,130.59
			c-0.46-0.689-0.27-1.619,0.43-2.079l0,0c0.69-0.45,1.62-0.261,2.07,0.431l0,0c0.46,0.688,0.27,1.619-0.42,2.08l0,0
			c-0.26,0.16-0.54,0.239-0.83,0.239l0,0C53.23,131.261,52.751,131.029,52.461,130.59z M147.689,126.87
			c-0.729-0.399-1-1.31-0.608-2.04l0,0c0.39-0.729,1.3-1,2.03-0.6l0,0c0.729,0.39,1,1.299,0.609,2.029l0,0l0,0l0,0
			c-0.271,0.5-0.791,0.79-1.32,0.79l0,0C148.161,127.051,147.911,126.99,147.689,126.87z M49.352,125.279
			c-0.381-0.739-0.091-1.639,0.649-2.02l0,0c0.729-0.381,1.64-0.091,2.021,0.649l0,0c0.379,0.729,0.09,1.641-0.65,2.021l0,0
			c-0.221,0.109-0.46,0.159-0.689,0.159l0,0C50.141,126.09,49.611,125.79,49.352,125.279z M150.391,121.511
			c-0.77-0.311-1.129-1.19-0.818-1.95l0,0c0.31-0.771,1.18-1.141,1.949-0.83l0,0c0.771,0.311,1.141,1.189,0.83,1.961l0,0l0,0l0,0
			c-0.24,0.58-0.801,0.93-1.399,0.93l0,0C150.771,121.62,150.581,121.59,150.391,121.511z M46.841,119.66
			c-0.3-0.78,0.08-1.649,0.86-1.939l0,0c0.77-0.301,1.64,0.09,1.939,0.859l0,0c0.291,0.779-0.09,1.641-0.869,1.939l0,0
			c-0.17,0.069-0.36,0.101-0.531,0.101l0,0C47.631,120.62,47.061,120.25,46.841,119.66z M152.501,115.891
			c-0.8-0.221-1.26-1.051-1.04-1.851l0,0c0.229-0.8,1.061-1.261,1.85-1.029l0,0c0.801,0.22,1.262,1.05,1.041,1.851l0,0l0,0l0,0
			c-0.189,0.66-0.791,1.09-1.439,1.09l0,0C152.771,115.95,152.631,115.932,152.501,115.891z M44.951,113.79L44.951,113.79
			L44.951,113.79c-0.211-0.8,0.27-1.62,1.07-1.83l0,0c0.799-0.21,1.619,0.271,1.83,1.069l0,0c0.209,0.801-0.271,1.621-1.07,1.83l0,0
			c-0.131,0.041-0.25,0.051-0.381,0.051l0,0C45.73,114.91,45.131,114.471,44.951,113.79z M153.971,110.08
			c-0.81-0.141-1.369-0.91-1.229-1.729l0,0c0.14-0.82,0.91-1.36,1.729-1.23l0,0c0.82,0.141,1.37,0.91,1.23,1.73l0,0l0,0l0,0
			c-0.12,0.729-0.762,1.25-1.48,1.25l0,0C154.141,110.102,154.061,110.09,153.971,110.08z M43.721,107.761
			c-0.13-0.819,0.44-1.591,1.26-1.71l0,0c0.82-0.119,1.58,0.449,1.701,1.27l0,0c0.119,0.82-0.441,1.58-1.261,1.701l0,0
			c-0.069,0.01-0.149,0.02-0.22,0.02l0,0C44.471,109.04,43.831,108.5,43.721,107.761z M154.811,104.141
			c-0.83-0.051-1.459-0.761-1.408-1.58l0,0c0.039-0.83,0.75-1.459,1.578-1.41l0,0c0.83,0.041,1.461,0.75,1.41,1.58l0,0l0,0l0,0
			c-0.05,0.801-0.709,1.41-1.5,1.41l0,0C154.861,104.141,154.831,104.141,154.811,104.141z M43.15,101.63
			c-0.039-0.829,0.61-1.529,1.431-1.56l0,0c0.83-0.03,1.53,0.61,1.56,1.44l0,0c0.03,0.829-0.609,1.52-1.439,1.561l0,0
			c-0.02,0-0.04,0-0.061,0l0,0C43.841,103.07,43.182,102.432,43.15,101.63z M153.421,96.72c-0.04-0.83,0.601-1.529,1.431-1.569l0,0
			c0.83-0.04,1.529,0.601,1.569,1.431l0,0c0.04,0.819-0.601,1.529-1.42,1.569l0,0c-0.03,0-0.062,0-0.08,0l0,0
			C154.131,98.15,153.461,97.521,153.421,96.72z M44.631,97.07c-0.83-0.05-1.449-0.771-1.4-1.601l0,0
			c0.061-0.819,0.771-1.449,1.601-1.389l0,0c0.83,0.049,1.45,0.77,1.39,1.6l0,0c-0.05,0.789-0.71,1.39-1.49,1.39l0,0
			C44.701,97.07,44.661,97.07,44.631,97.07z M152.831,90.921c-0.13-0.82,0.431-1.59,1.239-1.721l0,0
			c0.82-0.119,1.591,0.43,1.721,1.25l0,0c0.13,0.82-0.43,1.59-1.25,1.721l0,0c-0.08,0.01-0.16,0.02-0.24,0.02l0,0
			C153.581,92.19,152.939,91.66,152.831,90.921z M45.201,91.101c-0.82-0.15-1.36-0.92-1.221-1.74l0,0
			c0.15-0.82,0.931-1.359,1.74-1.21l0,0c0.82,0.14,1.36,0.92,1.221,1.739l0,0c-0.131,0.721-0.771,1.23-1.48,1.23l0,0
			C45.371,91.12,45.291,91.12,45.201,91.101z M151.602,85.22c-0.221-0.799,0.26-1.619,1.051-1.84l0,0c0.8-0.22,1.63,0.25,1.85,1.051
			l0,0c0.21,0.8-0.26,1.619-1.061,1.84l0,0c-0.131,0.04-0.26,0.061-0.391,0.061l0,0C152.391,86.331,151.781,85.89,151.602,85.22z
			 M46.411,85.23c-0.8-0.24-1.25-1.07-1.021-1.86l0,0c0.24-0.8,1.07-1.25,1.87-1.02l0,0c0.79,0.23,1.25,1.07,1.011,1.859l0,0
			c-0.19,0.65-0.791,1.08-1.44,1.08l0,0C46.691,85.29,46.551,85.271,46.411,85.23z M149.762,79.69c-0.301-0.78,0.079-1.65,0.85-1.95
			l0,0c0.771-0.3,1.641,0.07,1.939,0.841l0,0c0.311,0.77-0.07,1.649-0.84,1.949l0,0c-0.18,0.07-0.37,0.109-0.55,0.109l0,0
			C150.561,80.64,150.001,80.28,149.762,79.69z M48.261,79.521c-0.771-0.32-1.13-1.2-0.81-1.96l0,0c0.32-0.771,1.199-1.13,1.96-0.81
			l0,0c0.771,0.319,1.13,1.199,0.81,1.959l0,0c-0.24,0.58-0.8,0.93-1.39,0.93l0,0C48.641,79.64,48.451,79.601,48.261,79.521z
			 M147.331,74.38c-0.392-0.729-0.11-1.629,0.63-2.02l0,0c0.729-0.391,1.641-0.109,2.02,0.63l0,0c0.392,0.729,0.11,1.64-0.619,2.021
			l0,0c-0.229,0.119-0.471,0.18-0.699,0.18l0,0C148.121,75.19,147.602,74.89,147.331,74.38z M50.721,74.05
			c-0.73-0.399-0.99-1.319-0.59-2.039l0,0c0.4-0.729,1.311-0.99,2.04-0.59l0,0c0.72,0.399,0.99,1.31,0.59,2.039l0,0
			c-0.28,0.5-0.79,0.78-1.319,0.78l0,0C51.201,74.24,50.951,74.181,50.721,74.05z M144.341,69.38c-0.47-0.689-0.29-1.619,0.4-2.08
			l0,0c0.688-0.459,1.62-0.279,2.079,0.4l0,0c0.461,0.689,0.279,1.62-0.399,2.09l0,0c-0.26,0.17-0.55,0.25-0.84,0.25l0,0
			C145.102,70.04,144.631,69.811,144.341,69.38z M53.761,68.88c-0.68-0.479-0.84-1.42-0.36-2.09l0,0c0.48-0.68,1.41-0.84,2.09-0.369
			l0,0c0.671,0.479,0.841,1.42,0.361,2.09l0,0c-0.291,0.42-0.761,0.64-1.23,0.64l0,0C54.32,69.15,54.021,69.061,53.761,68.88z
			 M140.82,64.73c-0.539-0.63-0.459-1.58,0.171-2.11l0,0c0.64-0.539,1.579-0.46,2.12,0.17l0,0c0.529,0.641,0.449,1.58-0.182,2.12
			l0,0c-0.279,0.24-0.63,0.351-0.97,0.351l0,0C141.541,65.261,141.111,65.081,140.82,64.73z M57.352,64.07
			c-0.631-0.55-0.69-1.5-0.141-2.12l0,0c0.55-0.619,1.49-0.68,2.12-0.14l0,0c0.62,0.55,0.68,1.5,0.13,2.12l0,0
			c-0.3,0.34-0.71,0.51-1.13,0.51l0,0C57.98,64.44,57.631,64.32,57.352,64.07z M136.82,60.49c-0.609-0.58-0.631-1.53-0.061-2.12l0,0
			c0.57-0.6,1.521-0.63,2.12-0.06l0,0l0,0l0,0c0.601,0.569,0.63,1.521,0.05,2.12l0,0c-0.289,0.31-0.688,0.47-1.08,0.47l0,0
			C137.48,60.9,137.102,60.761,136.82,60.49z M61.432,59.671c-0.561-0.61-0.521-1.561,0.09-2.121l0,0l0,0l0,0
			c0.609-0.56,1.56-0.51,2.119,0.101l0,0c0.561,0.61,0.521,1.56-0.09,2.12l0,0c-0.29,0.26-0.65,0.39-1.02,0.39l0,0
			C62.131,60.16,61.721,60.001,61.432,59.671z M132.381,56.7c-0.66-0.51-0.79-1.449-0.279-2.109l0,0c0.5-0.65,1.439-0.78,2.101-0.28
			l0,0c0.659,0.51,0.778,1.45,0.278,2.11l0,0c-0.299,0.379-0.738,0.59-1.188,0.59l0,0C132.971,57.011,132.65,56.9,132.381,56.7z
			 M65.961,55.74c-0.49-0.67-0.35-1.601,0.32-2.09l0,0c0.67-0.49,1.609-0.351,2.1,0.319l0,0c0.49,0.67,0.34,1.601-0.33,2.091l0,0
			c-0.26,0.2-0.57,0.29-0.88,0.29l0,0C66.711,56.351,66.251,56.14,65.961,55.74z M127.561,53.41c-0.709-0.43-0.938-1.35-0.51-2.06
			l0,0c0.43-0.711,1.352-0.94,2.061-0.51l0,0c0.711,0.43,0.939,1.359,0.511,2.06l0,0c-0.28,0.47-0.78,0.729-1.29,0.729l0,0
			C128.07,53.63,127.801,53.561,127.561,53.41z M70.891,52.331c-0.42-0.721-0.18-1.641,0.541-2.051l0,0l0,0l0,0
			c0.719-0.42,1.639-0.17,2.049,0.54l0,0c0.42,0.72,0.17,1.64-0.539,2.05l0,0c-0.24,0.141-0.5,0.211-0.76,0.211l0,0
			C71.671,53.081,71.161,52.811,70.891,52.331z M122.411,50.66v0.011c-0.75-0.351-1.08-1.25-0.729-2l0,0
			c0.351-0.75,1.239-1.08,2-0.73l0,0c0,0,0,0,0,0.01l0,0c0.75,0.34,1.069,1.24,0.721,1.99l0,0c-0.25,0.54-0.791,0.859-1.36,0.859
			l0,0C122.831,50.8,122.621,50.761,122.411,50.66z M76.15,49.46c-0.33-0.75,0.011-1.64,0.771-1.97l0,0l0,0l0,0
			c0.761-0.34,1.64,0.011,1.979,0.761l0,0c0.33,0.76-0.01,1.649-0.77,1.979l0,0c-0.189,0.09-0.4,0.13-0.6,0.13l0,0
			C76.951,50.36,76.4,50.03,76.15,49.46z M117.001,48.501L117.001,48.501c-0.79-0.271-1.21-1.121-0.95-1.9l0,0
			c0.271-0.79,1.12-1.211,1.91-0.95l0,0c0.78,0.271,1.2,1.12,0.939,1.91l0,0c-0.221,0.62-0.801,1.021-1.43,1.021l0,0
			C117.32,48.581,117.15,48.55,117.001,48.501z M81.711,47.19c-0.25-0.79,0.18-1.63,0.971-1.88l0,0
			c0.789-0.25,1.639,0.19,1.889,0.979l0,0c0.24,0.791-0.189,1.631-0.979,1.881l0,0c-0.149,0.049-0.31,0.069-0.46,0.069l0,0
			C82.501,48.24,81.911,47.831,81.711,47.19z M111.381,46.94c-0.82-0.18-1.33-0.98-1.15-1.79l0,0c0.182-0.81,0.98-1.319,1.791-1.149
			l0,0c0.811,0.18,1.319,0.979,1.141,1.789l0,0c-0.15,0.7-0.771,1.18-1.46,1.18l0,0C111.591,46.97,111.48,46.96,111.381,46.94z
			 M87.471,45.54c-0.16-0.81,0.37-1.6,1.18-1.76l0,0c0.811-0.16,1.601,0.359,1.761,1.18l0,0c0.17,0.811-0.36,1.601-1.171,1.76h-0.01
			c-0.09,0.021-0.189,0.031-0.289,0.031l0,0C88.24,46.751,87.611,46.261,87.471,45.54z M105.621,46.001
			c-0.82-0.091-1.42-0.83-1.33-1.66l0,0c0.09-0.82,0.83-1.42,1.648-1.33l0,0c0.82,0.09,1.422,0.83,1.33,1.649l0,0
			c-0.08,0.771-0.729,1.341-1.488,1.341l0,0C105.73,46.001,105.671,46.001,105.621,46.001z M93.381,44.53
			c-0.07-0.82,0.54-1.55,1.359-1.62l0,0c0.83-0.079,1.561,0.53,1.631,1.36l0,0c0.07,0.82-0.54,1.55-1.36,1.619l0,0
			c-0.05,0.011-0.09,0.011-0.13,0.011l0,0C94.111,45.9,93.451,45.311,93.381,44.53z M98.291,44.181c0-0.83,0.68-1.5,1.5-1.5l0,0
			c0.83,0,1.51,0.67,1.51,1.5l0,0c0,0.83-0.68,1.5-1.51,1.5l0,0C98.971,45.681,98.291,45.011,98.291,44.181z"/>
	</g>
</g>
<g>
	<path fill="#FFFFFF" d="M93.149,107.964c-3.105,0-5.631-2.526-5.631-5.631c0-3.105,2.526-5.631,5.631-5.631
		s5.631,2.526,5.631,5.631C98.78,105.438,96.254,107.964,93.149,107.964z M93.149,97.702c-2.553,0-4.631,2.078-4.631,4.631
		c0,2.554,2.078,4.631,4.631,4.631s4.631-2.077,4.631-4.631C97.78,99.78,95.702,97.702,93.149,97.702z"/>
</g>
<g>
	<path fill="#FFFFFF" d="M109.664,107.964c-3.104,0-5.631-2.526-5.631-5.631c0-3.105,2.526-5.631,5.631-5.631
		s5.631,2.526,5.631,5.631C115.295,105.438,112.769,107.964,109.664,107.964z M109.664,97.702c-2.554,0-4.631,2.078-4.631,4.631
		c0,2.554,2.077,4.631,4.631,4.631s4.631-2.077,4.631-4.631C114.295,99.78,112.218,97.702,109.664,97.702z"/>
</g>
<g>
	<path fill="#FFFFFF" d="M105.695,123.555H80.602c-0.276,0-0.5-0.224-0.5-0.5c0-7.193,5.853-13.046,13.046-13.046
		c7.194,0,13.047,5.853,13.047,13.046C106.195,123.331,105.972,123.555,105.695,123.555z M81.112,122.555h24.073
		c-0.264-6.411-5.562-11.546-12.038-11.546C86.673,111.009,81.375,116.144,81.112,122.555z"/>
</g>
<g>
	<path fill="#FFFFFF" d="M122.209,123.555h-16.514c-0.276,0-0.5-0.224-0.5-0.5c0-3.459-1.501-6.759-4.118-9.053
		c-0.107-0.095-0.17-0.232-0.17-0.376s0.063-0.281,0.17-0.376c2.384-2.09,5.433-3.241,8.586-3.241
		c7.193,0,13.046,5.853,13.046,13.046C122.709,123.331,122.485,123.555,122.209,123.555z M106.186,122.555h15.514
		c-0.264-6.411-5.562-11.546-12.036-11.546c-2.725,0-5.365,0.932-7.497,2.634C104.613,115.987,106.056,119.184,106.186,122.555z"/>
</g>
<g enable-background="new    ">
	<path fill="#FFFFFF" d="M114.334,82.328h-0.152c-0.295,0-0.494,0.055-0.595,0.163c-0.101,0.109-0.151,0.335-0.151,0.679v0.889
		c0,0.394-0.055,0.673-0.164,0.84s-0.301,0.287-0.576,0.361c0.277,0.068,0.471,0.186,0.578,0.353
		c0.107,0.166,0.162,0.447,0.162,0.841v0.894c0,0.342,0.051,0.566,0.153,0.673s0.302,0.16,0.601,0.16h0.145v0.553h-0.159
		c-0.266,0-0.474-0.015-0.624-0.043c-0.149-0.028-0.276-0.074-0.379-0.139c-0.136-0.083-0.23-0.203-0.287-0.357
		c-0.055-0.155-0.082-0.415-0.082-0.779v-0.898c0-0.364-0.067-0.62-0.201-0.77c-0.133-0.149-0.361-0.224-0.683-0.224
		c-0.017,0-0.044,0.001-0.079,0.004c-0.035,0.002-0.063,0.004-0.079,0.004v-0.553c0.02,0,0.048,0.002,0.085,0.004
		c0.037,0.003,0.063,0.004,0.081,0.004c0.319,0,0.544-0.074,0.677-0.223s0.199-0.402,0.199-0.763v-0.904
		c0-0.362,0.027-0.62,0.082-0.773c0.057-0.153,0.151-0.271,0.287-0.355c0.109-0.068,0.244-0.117,0.4-0.146
		c0.155-0.029,0.363-0.045,0.625-0.045h0.137V82.328z"/>
	<path fill="#FFFFFF" d="M118.032,84.58c-0.02-0.27-0.117-0.478-0.292-0.624c-0.176-0.146-0.416-0.219-0.721-0.219
		c-0.357,0-0.635,0.129-0.83,0.387c-0.194,0.258-0.292,0.626-0.292,1.104c0,0.48,0.094,0.852,0.282,1.111
		c0.188,0.26,0.453,0.39,0.797,0.39c0.309,0,0.556-0.079,0.74-0.239c0.186-0.159,0.301-0.391,0.345-0.695h0.634
		c-0.035,0.483-0.205,0.86-0.512,1.132s-0.719,0.406-1.237,0.406c-0.54,0-0.964-0.185-1.271-0.556
		c-0.308-0.37-0.462-0.878-0.462-1.523c0-0.66,0.16-1.177,0.482-1.552c0.321-0.374,0.763-0.561,1.324-0.561
		c0.496,0,0.893,0.129,1.191,0.388c0.298,0.259,0.457,0.609,0.477,1.051H118.032z"/>
	<path fill="#FFFFFF" d="M119.1,85.931h0.637c0.024,0.268,0.121,0.471,0.289,0.607c0.168,0.138,0.406,0.206,0.716,0.206
		c0.284,0,0.509-0.056,0.673-0.167c0.165-0.111,0.247-0.265,0.247-0.458c0-0.146-0.041-0.256-0.123-0.333
		c-0.083-0.078-0.243-0.145-0.48-0.201l-0.739-0.191c-0.418-0.101-0.708-0.233-0.871-0.399c-0.163-0.165-0.244-0.401-0.244-0.708
		c0-0.349,0.131-0.625,0.395-0.83s0.625-0.308,1.084-0.308c0.469,0,0.842,0.109,1.119,0.328c0.277,0.218,0.416,0.512,0.416,0.879
		v0.015h-0.645c-0.014-0.208-0.1-0.369-0.256-0.483c-0.155-0.114-0.367-0.171-0.635-0.171s-0.471,0.046-0.608,0.14
		c-0.139,0.093-0.208,0.229-0.208,0.408c0,0.128,0.043,0.228,0.131,0.3c0.087,0.072,0.25,0.136,0.487,0.189l0.641,0.151
		c0.456,0.108,0.771,0.246,0.942,0.414s0.258,0.408,0.258,0.72c0,0.409-0.145,0.728-0.434,0.955c-0.287,0.227-0.691,0.34-1.209,0.34
		c-0.505,0-0.893-0.12-1.164-0.36S119.107,86.385,119.1,85.931z"/>
	<path fill="#FFFFFF" d="M122.84,85.931h0.637c0.023,0.268,0.12,0.471,0.289,0.607c0.168,0.138,0.406,0.206,0.715,0.206
		c0.285,0,0.51-0.056,0.674-0.167s0.246-0.265,0.246-0.458c0-0.146-0.041-0.256-0.123-0.333c-0.082-0.078-0.242-0.145-0.48-0.201
		l-0.739-0.191c-0.417-0.101-0.708-0.233-0.87-0.399c-0.164-0.165-0.245-0.401-0.245-0.708c0-0.349,0.132-0.625,0.396-0.83
		s0.625-0.308,1.084-0.308c0.469,0,0.842,0.109,1.119,0.328c0.277,0.218,0.416,0.512,0.416,0.879v0.015h-0.645
		c-0.015-0.208-0.1-0.369-0.256-0.483s-0.367-0.171-0.635-0.171s-0.471,0.046-0.609,0.14c-0.139,0.093-0.207,0.229-0.207,0.408
		c0,0.128,0.043,0.228,0.13,0.3s0.25,0.136,0.487,0.189l0.641,0.151c0.457,0.108,0.771,0.246,0.942,0.414s0.258,0.408,0.258,0.72
		c0,0.409-0.144,0.728-0.433,0.955c-0.288,0.227-0.691,0.34-1.209,0.34c-0.506,0-0.894-0.12-1.165-0.36
		C122.986,86.732,122.847,86.385,122.84,85.931z"/>
	<path fill="#FFFFFF" d="M128.463,83.096V84c0,0.36,0.066,0.614,0.199,0.763s0.357,0.223,0.677,0.223
		c0.017,0,0.044-0.001,0.081-0.004c0.037-0.002,0.064-0.004,0.084-0.004v0.553c-0.017,0-0.043-0.002-0.08-0.004
		c-0.037-0.003-0.063-0.004-0.078-0.004c-0.323,0-0.551,0.074-0.684,0.222c-0.133,0.148-0.199,0.405-0.199,0.771v0.898
		c0,0.364-0.027,0.624-0.083,0.779c-0.056,0.154-0.15,0.274-0.286,0.357c-0.104,0.064-0.229,0.11-0.379,0.139
		c-0.15,0.028-0.358,0.043-0.624,0.043h-0.159V88.18h0.145c0.295,0,0.495-0.055,0.599-0.163c0.104-0.109,0.155-0.335,0.155-0.678
		v-0.886c0-0.392,0.055-0.671,0.164-0.837c0.109-0.167,0.301-0.286,0.576-0.356c-0.275-0.074-0.467-0.194-0.576-0.361
		s-0.164-0.446-0.164-0.84V83.17c0-0.344-0.052-0.569-0.155-0.679c-0.104-0.108-0.304-0.163-0.599-0.163h-0.145v-0.553h0.137
		c0.264,0,0.474,0.016,0.631,0.047c0.158,0.03,0.289,0.079,0.395,0.145c0.136,0.084,0.23,0.202,0.286,0.355
		S128.463,82.733,128.463,83.096z"/>
</g>
<g enable-background="new    ">
	<path fill="#FFFFFF" d="M75.214,81.825h-0.151c-0.296,0-0.494,0.055-0.595,0.164c-0.101,0.108-0.152,0.335-0.152,0.678v0.89
		c0,0.394-0.055,0.673-0.164,0.84c-0.109,0.167-0.301,0.288-0.576,0.361c0.277,0.068,0.47,0.187,0.578,0.353
		c0.108,0.167,0.162,0.447,0.162,0.842v0.894c0,0.342,0.051,0.566,0.154,0.674c0.102,0.106,0.302,0.16,0.601,0.16h0.144v0.552
		h-0.159c-0.266,0-0.474-0.015-0.624-0.042c-0.15-0.029-0.277-0.075-0.38-0.139c-0.135-0.084-0.23-0.203-0.286-0.358
		c-0.056-0.155-0.083-0.415-0.083-0.779v-0.898c0-0.364-0.067-0.621-0.201-0.77c-0.134-0.149-0.362-0.224-0.683-0.224
		c-0.017,0-0.043,0.001-0.079,0.003c-0.036,0.003-0.062,0.004-0.079,0.004v-0.552c0.02,0,0.048,0.001,0.084,0.003
		c0.037,0.003,0.064,0.004,0.081,0.004c0.319,0,0.545-0.074,0.677-0.223c0.133-0.147,0.199-0.402,0.199-0.763v-0.904
		c0-0.363,0.027-0.621,0.083-0.774c0.055-0.153,0.15-0.271,0.286-0.354c0.111-0.069,0.244-0.118,0.4-0.147s0.365-0.044,0.625-0.044
		h0.137V81.825z"/>
</g>
<g enable-background="new    ">
	<path fill="#FFFFFF" d="M76.242,88.078v-4.787h0.562v0.482c0.143-0.205,0.303-0.354,0.48-0.45c0.178-0.097,0.389-0.145,0.634-0.145
		c0.456,0,0.819,0.164,1.09,0.492s0.407,0.768,0.407,1.318c0,0.559-0.137,1.002-0.412,1.332c-0.274,0.33-0.639,0.495-1.092,0.495
		c-0.241,0-0.452-0.043-0.634-0.13c-0.182-0.086-0.34-0.217-0.474-0.394v1.785H76.242z M76.785,85.024
		c0,0.426,0.084,0.746,0.254,0.96c0.169,0.214,0.423,0.321,0.762,0.321c0.323,0,0.573-0.118,0.749-0.354
		c0.176-0.234,0.264-0.568,0.264-1.001c0-0.39-0.091-0.696-0.273-0.92c-0.182-0.223-0.431-0.335-0.746-0.335
		c-0.324,0-0.573,0.115-0.748,0.345C76.872,84.271,76.785,84.599,76.785,85.024z"/>
	<path fill="#FFFFFF" d="M82.392,86.711v-2.104c0-0.339-0.052-0.571-0.155-0.699c-0.104-0.128-0.281-0.191-0.532-0.191
		c-0.311,0-0.558,0.088-0.741,0.264c-0.183,0.175-0.275,0.412-0.275,0.71v2.021h-0.575v-4.704h0.575v1.767
		c0.104-0.186,0.248-0.326,0.431-0.424c0.183-0.097,0.397-0.145,0.642-0.145c0.257,0,0.475,0.038,0.651,0.116
		c0.177,0.077,0.313,0.194,0.409,0.35c0.053,0.083,0.091,0.181,0.115,0.292c0.023,0.112,0.035,0.289,0.035,0.532v0.162v2.054H82.392
		z"/>
	<path fill="#FFFFFF" d="M83.848,88.078v-4.787h0.562v0.482c0.143-0.205,0.303-0.354,0.48-0.45c0.178-0.097,0.389-0.145,0.634-0.145
		c0.456,0,0.819,0.164,1.09,0.492s0.407,0.768,0.407,1.318c0,0.559-0.137,1.002-0.412,1.332c-0.274,0.33-0.639,0.495-1.092,0.495
		c-0.241,0-0.452-0.043-0.634-0.13c-0.182-0.086-0.34-0.217-0.474-0.394v1.785H83.848z M84.391,85.024
		c0,0.426,0.084,0.746,0.254,0.96c0.169,0.214,0.423,0.321,0.762,0.321c0.323,0,0.573-0.118,0.749-0.354
		c0.176-0.234,0.264-0.568,0.264-1.001c0-0.39-0.091-0.696-0.273-0.92c-0.182-0.223-0.431-0.335-0.746-0.335
		c-0.324,0-0.573,0.115-0.748,0.345C84.479,84.271,84.391,84.599,84.391,85.024z"/>
</g>
<g enable-background="new    ">
	<path fill="#FFFFFF" d="M89.402,82.594v0.904c0,0.36,0.066,0.615,0.199,0.763c0.132,0.148,0.358,0.223,0.677,0.223
		c0.017,0,0.044-0.001,0.081-0.004c0.037-0.002,0.065-0.003,0.084-0.003v0.552c-0.017,0-0.044-0.001-0.081-0.004
		c-0.037-0.002-0.063-0.003-0.077-0.003c-0.324,0-0.552,0.073-0.685,0.222c-0.133,0.147-0.199,0.405-0.199,0.771v0.898
		c0,0.364-0.028,0.624-0.083,0.779c-0.055,0.155-0.15,0.274-0.286,0.358c-0.104,0.063-0.23,0.109-0.38,0.139
		c-0.15,0.027-0.358,0.042-0.624,0.042H87.87V87.68h0.144c0.296,0,0.496-0.055,0.599-0.164s0.155-0.335,0.155-0.678v-0.886
		c0-0.392,0.054-0.671,0.164-0.838c0.109-0.166,0.301-0.285,0.576-0.356c-0.275-0.073-0.467-0.194-0.576-0.361
		s-0.164-0.446-0.164-0.84v-0.89c0-0.343-0.052-0.569-0.155-0.678c-0.104-0.109-0.303-0.164-0.599-0.164H87.87v-0.552h0.137
		c0.263,0,0.474,0.015,0.631,0.046c0.158,0.03,0.289,0.079,0.395,0.146c0.135,0.083,0.23,0.201,0.286,0.354
		C89.374,81.973,89.402,82.23,89.402,82.594z"/>
</g>
<g>
	<path fill="#FFFFFF" d="M89.531,95.404c-0.06,0-0.12-0.011-0.177-0.032l-3.962-1.5c-1.274,0.247-2.585,0.372-3.898,0.372
		c-7.738,0-14.033-4.271-14.033-9.521s6.295-9.521,14.033-9.521c7.737,0,14.031,4.271,14.031,9.521c0,2.606-1.591,5.113-4.373,6.903
		l-1.146,3.436c-0.043,0.129-0.137,0.235-0.26,0.293C89.678,95.388,89.604,95.404,89.531,95.404z M85.436,92.853
		c0.06,0,0.12,0.011,0.177,0.032l3.608,1.367l1.022-3.066c0.03-0.126,0.107-0.238,0.221-0.309c2.618-1.633,4.06-3.818,4.06-6.154
		c0-4.699-5.846-8.521-13.031-8.521c-7.187,0-13.033,3.822-13.033,8.521s5.847,8.521,13.033,8.521c1.297,0,2.591-0.128,3.844-0.381
		C85.37,92.856,85.403,92.853,85.436,92.853z"/>
</g>
<g>
	<path fill="#FFFFFF" d="M112.479,95.404c-0.073,0-0.146-0.016-0.215-0.048c-0.123-0.059-0.217-0.165-0.26-0.293l-1.146-3.437
		c-2.78-1.791-4.371-4.298-4.371-6.902c0-5.25,6.294-9.521,14.029-9.521c7.738,0,14.034,4.271,14.034,9.521
		s-6.296,9.521-14.034,9.521c-1.314,0-2.625-0.125-3.898-0.373l-3.962,1.5C112.599,95.393,112.538,95.404,112.479,95.404z
		 M111.771,91.205l1.017,3.047l3.61-1.366c0.088-0.033,0.185-0.04,0.275-0.022c1.254,0.252,2.547,0.38,3.842,0.38
		c7.188,0,13.034-3.822,13.034-8.521s-5.847-8.521-13.034-8.521c-7.185,0-13.029,3.822-13.029,8.521c0,2.335,1.441,4.521,4.06,6.154
		C111.665,90.952,111.745,91.072,111.771,91.205z"/>
</g>
</svg>
