<?xml version="1.0" encoding="utf-8"?>
<!-- Generator: Adobe Illustrator 19.1.1, SVG Export Plug-In . SVG Version: 6.00 Build 0)  -->
<svg version="1.1" id="Réteg_1" xmlns="http://www.w3.org/2000/svg" xmlns:xlink="http://www.w3.org/1999/xlink" x="0px" y="0px"
	 viewBox="0 0 180 180" style="enable-background:new 0 0 180 180;" xml:space="preserve">
<style type="text/css">
	.st0{fill:#EB5C47;}
	.st1{fill:#FFFDF9;}
	.st2{fill:#444446;}
	.st3{fill:#DDDDDD;}
	.st4{fill:#F2C593;}
	.st5{fill:#CEAB89;}
	.st6{fill:#C9C6C2;}
	.st7{fill:#A3A2A2;}
	.st8{fill:#1E1E1E;}
</style>
<circle class="st0" cx="90" cy="90" r="76.4"/>
<g>
	<g>
		<g>
			<polygon class="st1" points="4.8,107 4.8,92.1 93.2,131.2 93.2,146.8 			"/>
			<polyline class="st2" points="0.6,90.2 4.8,92.1 4.8,106.9 93.2,146.7 176.8,76.2 180,78.2 93.2,151.1 0.6,109 0.6,90.2 
				0.6,90.2 			"/>
			<polygon class="st2" points="93.2,131.2 180,59 93.2,29.7 0.6,90.3 3.1,91.4 			"/>
			<polygon class="st3" points="176.8,76.2 176.8,61.7 93.2,131.2 93.2,146.7 			"/>
		</g>
		<polygon class="st4" points="129.6,98.3 105.5,88.5 125.3,73.6 149.3,81.9 		"/>
		<polygon class="st5" points="149.3,81.9 149.3,84.5 129.6,100.9 129.6,98.3 		"/>
		<polygon class="st5" points="129.6,100.9 105.5,91 105.5,88.5 129.6,98.3 		"/>
		<path class="st5" d="M149.3,84.5l0.1,19.4l-19.8,16.6c0-8.3,0-19.6,0-19.6L149.3,84.5z"/>
		<g>
			<path class="st6" d="M151.9,120.5l-11.8,0.7c-0.7,0-1.4-0.5-1.4-1.3l-0.5-8.7c0-0.7,0.5-1.4,1.3-1.4l0.3,0l1.4-0.1l10.1-0.6
				c0.7,0,1.4,0.5,1.4,1.3l0.5,8.7C153.2,119.8,152.7,120.4,151.9,120.5z"/>
			<path class="st6" d="M144.8,100.6c-3.2,0.2-5.6,2.9-5.4,6.1l0.2,3.1l1.4-0.1l-0.2-3.1c-0.1-2.4,1.6-4.4,4-4.5
				c2.4-0.1,4.4,1.6,4.5,4l0.2,3.1l1.4-0.1l-0.2-3.1C150.6,102.8,147.9,100.4,144.8,100.6z"/>
			<path class="st7" d="M151.2,109.1l-5.9,0.4l0.7,11.4l5.9-0.4c0.7,0,1.3-0.7,1.3-1.4l-0.5-8.7C152.6,109.6,152,109,151.2,109.1z"
				/>
			<path class="st8" d="M147,114.2c0-0.7-0.7-1.3-1.4-1.3c-0.7,0-1.3,0.7-1.3,1.4c0,0.6,0.4,1,1,1.2l0.1,1.6c0,0.2,0.2,0.4,0.5,0.4
				c0.2,0,0.4-0.2,0.4-0.5l-0.1-1.6C146.6,115.3,147,114.8,147,114.2z"/>
		</g>
		<path class="st2" d="M143.8,97.4c0.6,0.7,1,1.7,1,2.7c0,2.4-2,4.4-4.4,4.4c-1.5,0-2.7-0.7-3.5-1.8l-0.9,0.7c1,1.4,2.6,2.3,4.4,2.3
			c3,0,5.5-2.5,5.5-5.5c0-1.3-0.5-2.5-1.2-3.4L143.8,97.4z"/>
		<path class="st6" d="M139.4,105.6c0,0,0.1-0.7,0.3-1.1s1.6,0,1.6,0s-0.3,1-0.4,1.2c0,0.2-1.1,0.1-1.1,0.1L139.4,105.6z"/>
	</g>
	<path class="st4" d="M11.1,104.2l7.8,3.4c-0.1,0.1-1.3,6-3.4,9.6c-2.3,3.9-8.5,9.6-8.5,9.6l2.2-7.4L0,121.1c0,0,6-2.5,8.1-6.6
		C10.2,110.4,11.1,104.2,11.1,104.2z"/>
</g>
</svg>
