<?xml version="1.0" encoding="utf-8"?>
<!-- Generator: Adobe Illustrator 19.1.1, SVG Export Plug-In . SVG Version: 6.00 Build 0)  -->
<svg version="1.1" id="Réteg_1" xmlns="http://www.w3.org/2000/svg" xmlns:xlink="http://www.w3.org/1999/xlink" x="0px" y="0px"
	 viewBox="0 0 125 50" style="enable-background:new 0 0 125 50;" xml:space="preserve">
<style type="text/css">
	.st0{fill:#F15D46;}
</style>
<g>
	<polygon class="st0" points="0.2,0.3 0.2,50 4.1,50 4.1,4.1 73.9,4.1 73.9,0.3 	"/>
	<polygon class="st0" points="88.5,0.3 88.5,4.1 121.1,4.1 121.1,46.1 18.3,46.1 18.3,50 125,50 125,0.3 	"/>
	<g>
		<path class="st0" d="M24.3,10.5c-8.2,0-14.9,6.7-14.9,14.9c0,8.2,6.7,14.9,14.9,14.9c8.2,0,14.9-6.7,14.9-14.9
			C39.2,17.2,32.5,10.5,24.3,10.5z M24.3,36.6c-6.2,0-11.2-5-11.2-11.2c0-6.2,5-11.2,11.2-11.2c6.2,0,11.2,5,11.2,11.2
			C35.4,31.6,30.4,36.6,24.3,36.6z"/>
		<path class="st0" d="M9.4,25.4V50h3.9V15.4C13.2,15.4,9.4,19.5,9.4,25.4C9.4,25.4,9.4,25.4,9.4,25.4z"/>
		<path class="st0" d="M58.4,10.5c-8.2,0-14.9,6.7-14.9,14.9c0,8.2,6.7,14.9,14.9,14.9c8.2,0,14.9-6.7,14.9-14.9
			C73.3,17.2,66.6,10.5,58.4,10.5z M58.4,36.6c-6.2,0-11.2-5-11.2-11.2c0-6.2,5-11.2,11.2-11.2c6.2,0,11.2,5,11.2,11.2
			C69.6,31.6,64.6,36.6,58.4,36.6z"/>
		<rect x="79.3" y="0.3" class="st0" width="3.9" height="40.1"/>
		<path class="st0" d="M112.1,33.3c-2,2-4.8,3.3-7.9,3.3c-6.2,0-11.2-5-11.2-11.2c0-6.2,5-11.2,11.2-11.2c3.1,0,5.9,1.3,7.9,3.3
			l2.6-2.6c-2.7-2.7-6.4-4.4-10.5-4.4c-8.2,0-14.9,6.7-14.9,14.9c0,8.2,6.7,14.9,14.9,14.9c4.1,0,7.8-1.7,10.5-4.4L112.1,33.3z"/>
	</g>
</g>
</svg>
