<?xml version="1.0" encoding="utf-8"?>
<!-- Generator: Adobe Illustrator 19.1.1, SVG Export Plug-In . SVG Version: 6.00 Build 0)  -->
<svg version="1.1" id="Réteg_1" xmlns="http://www.w3.org/2000/svg" xmlns:xlink="http://www.w3.org/1999/xlink" x="0px" y="0px"
	 viewBox="0 0 560 260" style="enable-background:new 0 0 560 260;" xml:space="preserve">
<style type="text/css">
	.st0{fill:#4D4C4C;}
	
		.st1{fill:none;stroke:#EB5C47;stroke-width:3;stroke-linecap:round;stroke-linejoin:round;stroke-miterlimit:10;stroke-dasharray:0,6;}
	.st2{fill:none;stroke:#FFFFFF;stroke-linecap:round;stroke-linejoin:round;stroke-miterlimit:10;}
	.st3{fill:#FFFFFF;}
</style>
<circle class="st0" cx="207.7" cy="198.5" r="47.7"/>
<circle class="st1" cx="207.7" cy="198.5" r="58.3"/>
<g>
	<path class="st2" d="M224.2,170.3v56.5c0,1.9-1.5,3.4-3.4,3.4h-26.3c-1.9,0-3.4-1.5-3.4-3.4v-56.5c0-1.9,1.5-3.4,3.4-3.4h26.3
		C222.7,166.9,224.2,168.4,224.2,170.3z"/>
	<rect x="194.3" y="175.1" class="st2" width="26.8" height="45.7"/>
	<circle class="st2" cx="207.7" cy="225.1" r="2.3"/>
	<line class="st2" x1="202.2" y1="171.2" x2="212.9" y2="171.2"/>
</g>
<circle class="st0" cx="207.7" cy="61.2" r="47.7"/>
<circle class="st1" cx="207.7" cy="61.2" r="58.3"/>
<g>
	<path class="st2" d="M238.4,83.3h-61.6c-1.9,0-3.4-1.5-3.4-3.4V42.4c0-1.9,1.5-3.4,3.4-3.4h61.6c1.9,0,3.4,1.5,3.4,3.4v37.5
		C241.9,81.8,240.3,83.3,238.4,83.3z"/>
	<rect x="183.6" y="43.2" class="st2" width="52.7" height="35.8"/>
	<circle class="st2" cx="178.5" cy="61.2" r="2.1"/>
</g>
<circle class="st0" cx="61.2" cy="198.5" r="47.7"/>
<circle class="st1" cx="61.2" cy="198.5" r="58.3"/>
<g>
	<g>
		<path class="st2" d="M92,212v-34.1c0-1.7-1.4-3.1-3.1-3.1H30.7c-1.7,0-3.1,1.4-3.1,3.1V212H92z"/>
		<path class="st2" d="M27.7,212v2.8c0,1.7,1.4,3.1,3.1,3.1h58.2c1.7,0,3.1-1.4,3.1-3.1V212H27.7z"/>
	</g>
	<rect x="30.3" y="177.9" class="st2" width="59" height="31"/>
	<circle class="st2" cx="59.8" cy="214.9" r="1.5"/>
	<rect x="52.4" y="217.8" class="st2" width="14.6" height="6.5"/>
	<rect x="46.4" y="224.3" class="st2" width="26.5" height="1.5"/>
</g>
<circle class="st0" cx="61.2" cy="61.2" r="47.7"/>
<circle class="st1" cx="61.2" cy="61.2" r="58.3"/>
<g>
	<g>
		<g>
			<polygon class="st2" points="36.8,37.7 38.8,36.3 61.3,47.9 61.3,83.3 36.8,71.2 			"/>
			<polyline class="st2" points="38.8,36.3 38.8,69.7 36.8,71.2 			"/>
			<line class="st2" x1="38.8" y1="69.7" x2="61.3" y2="80.8"/>
		</g>
		<g>
			<polygon class="st2" points="85.8,37.7 83.8,36.3 61.3,47.9 61.3,83.3 85.8,71.2 			"/>
			<polyline class="st2" points="83.8,36.3 83.8,69.7 85.8,71.2 			"/>
			<line class="st2" x1="83.8" y1="69.7" x2="61.3" y2="80.8"/>
		</g>
		<polyline class="st2" points="36.8,37.7 34.1,36.3 34.1,72.8 61.3,86 88.3,73.3 88.3,36.3 85.8,37.7 		"/>
	</g>
	<line class="st2" x1="43.1" y1="47" x2="57.5" y2="54.3"/>
	<line class="st2" x1="43.1" y1="52.1" x2="57.5" y2="59.4"/>
	<line class="st2" x1="42.9" y1="56.6" x2="57.3" y2="64"/>
	<line class="st2" x1="42.6" y1="61.7" x2="57" y2="69.1"/>
	<line class="st2" x1="79.5" y1="47" x2="65.1" y2="54.3"/>
	<line class="st2" x1="79.5" y1="52.1" x2="65.1" y2="59.4"/>
	<line class="st2" x1="79.8" y1="56.6" x2="65.4" y2="64"/>
	<line class="st2" x1="80" y1="61.7" x2="65.6" y2="69.1"/>
</g>
<circle class="st0" cx="354.6" cy="61.2" r="47.7"/>
<circle class="st1" cx="354.6" cy="61.2" r="58.3"/>
<circle class="st0" cx="354.6" cy="198.5" r="47.7"/>
<circle class="st1" cx="354.6" cy="198.5" r="58.3"/>
<g>
	<g>
		<path class="st2" d="M393.6,211.9h-77.9c-0.8,0-1.4-0.6-1.4-1.4v-23.9c0-0.8,0.6-1.4,1.4-1.4h38h2.7h37.3c0.8,0,1.4,0.6,1.4,1.4
			v23.9C395,211.3,394.4,211.9,393.6,211.9z"/>
		<rect x="388.2" y="201.4" class="st2" width="3.4" height="7.9"/>
		<rect x="388.2" y="192.2" class="st2" width="3.4" height="8"/>
		<rect x="388.2" y="187.9" class="st2" width="3.4" height="3.3"/>
		<rect x="366.8" y="205.9" class="st2" width="3.4" height="3.4"/>
		<rect x="371.2" y="205.9" class="st2" width="3.4" height="3.4"/>
		<rect x="366.8" y="187.9" class="st2" width="3.4" height="3.4"/>
		<rect x="366.8" y="201.4" class="st2" width="3.4" height="3.4"/>
		<rect x="361.7" y="187.9" class="st2" width="3.4" height="3.4"/>
		<rect x="362.2" y="205.9" class="st2" width="3.4" height="3.4"/>
		<rect x="371.8" y="187.9" class="st2" width="3.4" height="3.4"/>
		<rect x="366.8" y="192.4" class="st2" width="3.4" height="3.4"/>
		<rect x="361.7" y="192.4" class="st2" width="3.4" height="3.4"/>
		<rect x="371.8" y="192.4" class="st2" width="3.4" height="3.4"/>
		<rect x="327.3" y="205.9" class="st2" width="17.1" height="3.4"/>
		<rect x="322.5" y="205.9" class="st2" width="3.4" height="3.4"/>
		<rect x="318.1" y="205.9" class="st2" width="3.4" height="3.4"/>
		<rect x="345.6" y="205.9" class="st2" width="3.4" height="3.4"/>
		<rect x="350.3" y="205.9" class="st2" width="3.4" height="3.4"/>
		<rect x="327.3" y="201.4" class="st2" width="3.4" height="3.4"/>
		<rect x="331.8" y="201.4" class="st2" width="3.4" height="3.4"/>
		<rect x="336.6" y="201.4" class="st2" width="3.4" height="3.4"/>
		<rect x="341.1" y="201.4" class="st2" width="3.4" height="3.4"/>
		<rect x="354.9" y="205.9" class="st2" width="3.4" height="3.4"/>
		<rect x="345.6" y="201.4" class="st2" width="3.4" height="3.4"/>
		<rect x="350.3" y="201.1" class="st2" width="3.4" height="3.4"/>
		<rect x="378.7" y="187.9" class="st2" width="3.4" height="3.4"/>
		<rect x="383.5" y="187.9" class="st2" width="3.4" height="3.4"/>
		<rect x="378.7" y="205.9" class="st2" width="3.4" height="3.4"/>
		<rect x="383.5" y="205.9" class="st2" width="3.4" height="3.4"/>
		<rect x="378.7" y="201.4" class="st2" width="3.4" height="3.4"/>
		<rect x="383.5" y="201.4" class="st2" width="3.4" height="3.4"/>
		<rect x="378.7" y="196.9" class="st2" width="3.4" height="3.4"/>
		<rect x="383.5" y="196.9" class="st2" width="3.4" height="3.4"/>
		<rect x="378.7" y="192.2" class="st2" width="3.4" height="3.4"/>
		<rect x="383.5" y="192.2" class="st2" width="3.4" height="3.4"/>
		<rect x="318.1" y="201.4" class="st2" width="3.4" height="3.4"/>
		<rect x="322.6" y="201.4" class="st2" width="3.4" height="3.4"/>
		<rect x="327.3" y="196.9" class="st2" width="3.4" height="3.4"/>
		<rect x="331.8" y="196.9" class="st2" width="3.4" height="3.4"/>
		<rect x="336.6" y="196.9" class="st2" width="3.4" height="3.4"/>
		<rect x="341" y="196.9" class="st2" width="3.4" height="3.4"/>
		<rect x="345.5" y="196.9" class="st2" width="3.4" height="3.4"/>
		<rect x="318" y="196.9" class="st2" width="3.4" height="3.4"/>
		<rect x="322.5" y="196.9" class="st2" width="3.4" height="3.4"/>
		<rect x="327.3" y="187.9" class="st2" width="3.4" height="3.4"/>
		<rect x="331.8" y="187.9" class="st2" width="3.4" height="3.4"/>
		<rect x="336.6" y="187.9" class="st2" width="3.4" height="3.4"/>
		<rect x="341" y="187.9" class="st2" width="3.4" height="3.4"/>
		<rect x="345.5" y="187.9" class="st2" width="3.4" height="3.4"/>
		<rect x="318" y="187.9" class="st2" width="3.4" height="3.4"/>
		<rect x="322.5" y="187.9" class="st2" width="3.4" height="3.4"/>
		<rect x="350.3" y="187.9" class="st2" width="3.4" height="3.4"/>
		<rect x="354.6" y="187.9" class="st2" width="3.4" height="3.4"/>
		<polygon class="st2" points="356.3,196.6 354.6,196.6 350.3,196.6 350.3,200 354.6,200 354.6,204.4 358,204.4 358,200 358,199.1 
			358,196.6 		"/>
	</g>
	<path class="st2" d="M353.6,169.4c0,0,1,4.5-1.7,5.2c-2.7,0.7-6.2,2.5-4.7,5.2c1.5,2.7,9.1,0.1,6.4,5.5"/>
</g>
<g>
	<polygon class="st2" points="364.6,43.4 354.5,43.4 344.6,43.4 344.6,47.4 350,47.4 359.5,47.4 364.6,47.4 	"/>
	<path class="st2" d="M359.4,47.4h-8.7h-0.8c0.1,1.6,0.2,9.8-7.1,18.8L353.7,96l0-26.8c-0.4-0.1-0.7-0.3-1-0.6c-1-1-1-2.7,0-3.7
		c0.3-0.3,0.6-0.5,1-0.6c0,0,0.6-0.2,1.8,0c0.4,0.1,0.7,0.3,1,0.6c1,1,1,2.7,0,3.7c-0.3,0.3-0.6,0.5-1,0.6l0,26.8l10.9-29.7
		C359.2,57.2,359.3,49.1,359.4,47.4z"/>
	<rect x="347.1" y="26.3" class="st2" width="15.1" height="16.9"/>
</g>
<circle class="st0" cx="497.8" cy="198.5" r="47.7"/>
<circle class="st1" cx="497.8" cy="198.5" r="58.3"/>
<circle class="st0" cx="497.8" cy="61.2" r="47.7"/>
<circle class="st1" cx="497.8" cy="61.2" r="58.3"/>
<g>
	<polygon class="st2" points="475.7,66.2 475.7,82 479.6,76.7 484.1,82 484.1,66.2 	"/>
	<g>
		<polygon class="st2" points="468.3,58.3 466,58.3 466,60.5 466,70.4 466,70.4 466,72.6 466,72.6 468.3,72.6 468.3,72.6 
			475.7,72.6 475.7,70.4 468.3,70.4 468.3,60.5 532,60.5 532,58.3 		"/>
		<rect x="484" y="70.4" class="st2" width="48" height="2.2"/>
	</g>
	<polygon class="st2" points="468.3,60.5 468.3,70.4 475.7,70.4 475.7,66.2 484,66.2 484,70.4 487.7,70.4 529.6,70.4 529.6,60.5 	
		"/>
	<polygon class="st2" points="469.9,46.9 469.9,56.3 473.9,56.3 476.8,56.3 484.7,56.3 488.1,56.3 527.5,56.3 527.5,46.9 	"/>
	<polygon class="st2" points="529.7,46.9 529.7,44.9 469.9,44.9 467.7,44.9 467.7,46.9 467.7,56.3 467.7,56.3 467.7,58.3 
		467.7,58.3 469.9,58.3 469.9,58.3 476.8,58.3 476.8,58.3 484.7,58.3 484.7,58.3 529.7,58.3 529.7,56.3 485,56.3 485,56.3 
		476.4,56.3 476.4,56.3 469.9,56.3 469.9,46.9 	"/>
</g>
<path class="st2" d="M488.1,172.2c-7.3,0-13.2,4.6-13.2,10.3c0,2.2,0.9,4.3,2.5,6l0,0l0.9,6.7l5.1-3.2c1.5,0.5,3.1,0.7,4.8,0.7
	c7.3,0,13.2-4.6,13.2-10.3C501.3,176.8,495.4,172.2,488.1,172.2z"/>
<circle class="st3" cx="482.1" cy="182.6" r="1.5"/>
<circle class="st3" cx="488.3" cy="182.6" r="1.5"/>
<circle class="st3" cx="494.1" cy="182.6" r="1.5"/>
<path class="st2" d="M501.8,196c9.1,0,16.5,5.7,16.5,12.8c0,2.8-1.2,5.4-3.1,7.5l0,0l-1.1,8.4l-6.3-4c-1.8,0.6-3.9,0.9-6,0.9
	c-9.1,0-16.5-5.7-16.5-12.8C485.3,201.7,492.7,196,501.8,196z"/>
<circle class="st3" cx="509.3" cy="208.9" r="1.8"/>
<circle class="st3" cx="501.6" cy="208.9" r="1.8"/>
<circle class="st3" cx="494.3" cy="208.9" r="1.8"/>
<g>
	<path class="st2" d="M512,179.4c4.3,0,7.8,2.7,7.8,6.1c0,1.3-0.6,2.6-1.5,3.6l0,0l-0.5,4l-3-1.9c-0.9,0.3-1.8,0.4-2.8,0.4
		c-4.3,0-7.8-2.7-7.8-6.1S507.7,179.4,512,179.4z"/>
	<circle class="st3" cx="515.6" cy="185.5" r="0.9"/>
	<circle class="st3" cx="511.9" cy="185.5" r="0.9"/>
	<circle class="st3" cx="508.5" cy="185.5" r="0.9"/>
</g>
</svg>
