<?xml version="1.0" encoding="utf-8"?>
<!-- Generator: Adobe Illustrator 16.0.0, SVG Export Plug-In . SVG Version: 6.00 Build 0)  -->
<!DOCTYPE svg PUBLIC "-//W3C//DTD SVG 1.1//EN" "http://www.w3.org/Graphics/SVG/1.1/DTD/svg11.dtd">
<svg version="1.1" id="Layer_1" xmlns="http://www.w3.org/2000/svg" xmlns:xlink="http://www.w3.org/1999/xlink" x="0px" y="0px"
	 width="25px" height="25px" viewBox="0 0 25 25" enable-background="new 0 0 25 25" xml:space="preserve">
<g>
	<path fill="#231F20" d="M25.006,8.477c-0.24-4.509-4.091-7.967-8.596-7.726c-4.509,0.237-7.974,4.083-7.733,8.592
		c0.085,1.6,0.633,3.065,1.5,4.29l-9.813,8.804c-0.42,0.382-0.453,1.029-0.075,1.447c0.375,0.423,1.023,0.456,1.443,0.077
		l9.828-8.82c1.534,1.303,3.548,2.051,5.715,1.932C21.781,16.835,25.242,12.99,25.006,8.477z M17.166,15.007
		c-3.365,0.174-6.239-2.406-6.417-5.771s2.405-6.237,5.767-6.416c3.368-0.178,6.239,2.403,6.417,5.771
		C23.111,11.953,20.529,14.825,17.166,15.007z"/>
</g>
</svg>
